<?xml version="1.0" standalone="no"?>
<!DOCTYPE svg PUBLIC "-//W3C//DTD SVG 1.1//EN" "http://www.w3.org/Graphics/SVG/1.1/DTD/svg11.dtd" >
<svg xmlns="http://www.w3.org/2000/svg" xmlns:xlink="http://www.w3.org/1999/xlink" version="1.1">
<metadata>
Created by FontForge 20170910 at Mon Mar 12 15:22:42 2012
 By Jimmy Wärting
Please contact us to learn more about license restrictions.
</metadata>
<defs>
<font id="SofiaProSemiBold" horiz-adv-x="567" >
  <font-face 
    font-family="Sofia Pro Semi Bold"
    font-weight="400"
    font-stretch="normal"
    units-per-em="1000"
    panose-1="2 11 0 0 0 0 0 0 0 0"
    ascent="750"
    descent="-250"
    x-height="467"
    cap-height="689"
    bbox="-177 -274 1128 1110"
    underline-thickness="50"
    underline-position="-100"
    unicode-range="U+0020-FB04"
  />
<missing-glyph horiz-adv-x="635" 
d="M80 0v665h475v-665h-475zM185 431h62c0 51 33 83 74 83c40 0 80 -28 80 -73c0 -22 -11 -39 -24 -50c-9 -10 -20 -18 -33 -21c-53 -16 -93 -43 -93 -110v-38h62v38c0 32 21 42 50 50c54 17 99 64 99 131c0 83 -67 135 -141 135s-136 -56 -136 -145zM237 131
c0 -25 21 -43 46 -43c24 0 45 18 45 43s-21 43 -45 43c-25 0 -46 -18 -46 -43z" />
    <glyph glyph-name="fi" unicode="fi" horiz-adv-x="658" 
d="M590 467v-467h-121v369h-234v-369h-123v369h-89v98h89v37c0 136 68 217 199 217h51v-117h-51c-57 0 -76 -43 -76 -100v-37h355zM451 648c0 41 36 73 79 73c42 0 77 -32 77 -73c0 -42 -35 -74 -77 -74c-43 0 -79 32 -79 74z" />
    <glyph glyph-name="fl" unicode="fl" horiz-adv-x="665" 
d="M311 721h285v-721h-122v604h-163c-57 0 -76 -43 -76 -100v-37h99v-98h-99v-369h-123v369h-89v98h89v37c0 136 68 217 199 217z" />
    <glyph glyph-name="f_f" unicode="ff" horiz-adv-x="740" 
d="M745 721v-117h-51c-57 0 -76 -43 -76 -100v-37h99v-98h-99v-369h-123v369h-260v-369h-123v369h-89v98h89v37c0 136 68 217 199 217h51v-117h-51c-57 0 -76 -43 -76 -100v-37h260v37c0 136 68 217 199 217h51z" />
    <glyph glyph-name="f_f_i" unicode="ffi" horiz-adv-x="1041" 
d="M973 467v-467h-121v369h-234v-369h-123v369h-260v-369h-123v369h-89v98h89v37c0 136 68 217 199 217h51v-117h-51c-57 0 -76 -43 -76 -100v-37h260v37c0 136 68 217 199 217h51v-117h-51c-57 0 -76 -43 -76 -100v-37h355zM834 648c0 41 36 73 79 73c42 0 77 -32 77 -73
c0 -42 -35 -74 -77 -74c-43 0 -79 32 -79 74z" />
    <glyph glyph-name="f_f_l" unicode="ffl" horiz-adv-x="1048" 
d="M857 0v604h-163c-57 0 -76 -43 -76 -100v-37h99v-98h-99v-369h-123v369h-260v-369h-123v369h-89v98h89v37c0 136 68 217 199 217h51v-117h-51c-57 0 -76 -43 -76 -100v-37h260v37c0 136 68 217 199 217h285v-721h-122z" />
    <glyph glyph-name="f_f_j" unicode="ffj" horiz-adv-x="1029" 
d="M710 -233v112h59c59 0 70 48 69 88v402h-220v-369h-123v369h-260v-369h-123v369h-89v98h89v37c0 136 68 217 199 217h51v-117h-51c-57 0 -76 -43 -76 -100v-37h260v37c0 136 68 217 199 217h51v-117h-51c-57 0 -76 -43 -76 -100v-37h343v-498c0 -121 -44 -202 -174 -202
h-77zM821 648c0 41 36 73 78 73c44 0 78 -32 78 -73c0 -42 -34 -74 -78 -74c-42 0 -78 32 -78 74z" />
    <glyph glyph-name="f_j" unicode="fj" horiz-adv-x="646" 
d="M327 -233v112h59c59 0 70 48 69 88v402h-220v-369h-123v369h-89v98h89v37c0 136 68 217 199 217h51v-117h-51c-57 0 -76 -43 -76 -100v-37h343v-498c0 -121 -44 -202 -174 -202h-77zM438 648c0 41 36 73 78 73c44 0 78 -32 78 -73c0 -42 -34 -74 -78 -74
c-42 0 -78 32 -78 74z" />
    <glyph glyph-name=".notdef" horiz-adv-x="635" 
d="M80 0v665h475v-665h-475zM185 431h62c0 51 33 83 74 83c40 0 80 -28 80 -73c0 -22 -11 -39 -24 -50c-9 -10 -20 -18 -33 -21c-53 -16 -93 -43 -93 -110v-38h62v38c0 32 21 42 50 50c54 17 99 64 99 131c0 83 -67 135 -141 135s-136 -56 -136 -145zM237 131
c0 -25 21 -43 46 -43c24 0 45 18 45 43s-21 43 -45 43c-25 0 -46 -18 -46 -43z" />
    <glyph glyph-name="b" unicode="b" horiz-adv-x="606" 
d="M193 235c0 -78 58 -128 124 -128c68 0 123 51 123 128c0 76 -55 126 -123 126c-63 0 -124 -46 -124 -126zM191 0h-122v721h122v-316c25 47 84 72 146 72c123 0 229 -95 229 -244c0 -148 -107 -243 -229 -243c-61 0 -121 26 -146 73v-63z" />
    <glyph glyph-name="d" unicode="d" horiz-adv-x="606" 
d="M416 0v63c-26 -47 -86 -73 -147 -73c-122 0 -229 95 -229 243c0 149 106 244 229 244c62 0 121 -25 147 -72v316h121v-721h-121zM414 235c0 80 -62 126 -125 126c-68 0 -123 -50 -123 -126c0 -77 55 -128 123 -128c67 0 125 50 125 128z" />
    <glyph glyph-name="i" unicode="i" horiz-adv-x="259" 
d="M190 467v-467h-121v467h121zM51 648c0 41 36 73 79 73c42 0 77 -32 77 -73c0 -42 -35 -74 -77 -74c-43 0 -79 32 -79 74z" />
    <glyph glyph-name="f" unicode="f" horiz-adv-x="357" 
d="M362 721v-117h-51c-57 0 -76 -43 -76 -100v-37h99v-98h-99v-369h-123v369h-89v98h89v37c0 136 68 217 199 217h51z" />
    <glyph glyph-name="o" unicode="o" horiz-adv-x="566" 
d="M283 110c67 0 122 49 122 125c0 74 -55 122 -122 122s-122 -48 -122 -122c0 -76 55 -125 122 -125zM283 -9c-133 0 -243 97 -243 244s110 242 243 242c132 0 243 -95 243 -242s-111 -244 -243 -244z" />
    <glyph glyph-name="l" unicode="l" horiz-adv-x="260" 
d="M69 0v721h122v-721h-122z" />
    <glyph glyph-name="c" unicode="c" horiz-adv-x="520" 
d="M39 235c0 147 118 242 252 242c78 0 150 -33 194 -91l-97 -73c-22 30 -59 46 -97 46c-68 0 -131 -48 -131 -124s63 -128 131 -128c38 0 75 17 97 47l98 -72c-44 -58 -116 -92 -195 -92c-134 0 -252 98 -252 245z" />
    <glyph glyph-name="e" unicode="e" horiz-adv-x="553" 
d="M519 235c0 -12 -1 -31 -2 -42h-356c8 -62 60 -100 129 -100c47 0 95 20 117 60c29 -16 63 -34 93 -50c-42 -80 -132 -113 -218 -113c-133 0 -242 98 -242 245s109 242 242 242s237 -95 237 -242zM160 276h240c-9 64 -57 99 -117 99c-64 0 -114 -36 -123 -99z" />
    <glyph glyph-name="j" unicode="j" horiz-adv-x="261" 
d="M-59 -233v112h59c59 0 70 48 69 88v500h123v-498c0 -121 -44 -202 -174 -202h-77zM52 648c0 41 36 73 78 73c44 0 78 -32 78 -73c0 -42 -34 -74 -78 -74c-42 0 -78 32 -78 74z" />
    <glyph glyph-name="p" unicode="p" horiz-adv-x="605" 
d="M191 467v-63c25 46 85 73 146 73c122 0 228 -96 228 -243c0 -149 -106 -244 -228 -244c-61 0 -121 25 -146 72v-289h-122v694h122zM193 232c0 -81 60 -126 124 -126c67 0 123 50 123 126c0 77 -56 128 -123 128s-124 -50 -124 -128z" />
    <glyph glyph-name="q" unicode="q" horiz-adv-x="605" 
d="M412 232c0 78 -57 128 -124 128s-122 -51 -122 -128c0 -76 55 -126 122 -126c63 0 124 45 124 126zM414 404v63h122v-694h-122v289c-25 -47 -85 -72 -146 -72c-122 0 -228 95 -228 244c0 147 106 243 228 243c61 0 121 -27 146 -73z" />
    <glyph glyph-name="h" unicode="h" horiz-adv-x="587" 
d="M191 249v-249h-122v721h122v-326c22 57 99 82 145 82c121 0 188 -80 188 -217v-260h-122v254c0 67 -49 104 -99 104c-51 0 -112 -28 -112 -109z" />
    <glyph glyph-name="g" unicode="g" horiz-adv-x="611" 
d="M420 234c0 81 -60 126 -127 126c-68 0 -126 -51 -126 -126c0 -78 58 -128 126 -128c63 0 127 49 127 128zM157 -45c20 -46 75 -77 124 -77c118 0 149 88 142 186c-24 -47 -88 -74 -149 -74c-122 0 -234 95 -234 242c0 150 112 245 234 245c61 0 123 -26 149 -73v63h119
v-400c0 -208 -99 -300 -261 -300c-97 0 -182 53 -223 138c27 13 72 37 99 50z" />
    <glyph glyph-name="k" unicode="k" horiz-adv-x="519" 
d="M366 0l-176 200v-200h-121v721h121v-394l129 140h158l-196 -205l238 -262h-153z" />
    <glyph glyph-name="s" unicode="s" horiz-adv-x="454" 
d="M182 195c-121 33 -132 88 -132 143c0 75 79 139 172 139c88 0 178 -40 182 -147h-116c-2 35 -36 48 -63 48c-30 0 -59 -11 -59 -46c0 -19 22 -32 49 -39l78 -19c108 -28 122 -103 122 -140c0 -95 -94 -144 -191 -144c-92 0 -186 56 -188 157h114c3 -33 41 -61 86 -59
c34 1 61 20 61 47c1 24 -17 36 -51 44z" />
    <glyph glyph-name="n" unicode="n" 
d="M191 249v-249h-122v467h122v-69c26 50 85 79 139 79c109 0 174 -69 174 -201v-276h-122v254c0 68 -36 104 -89 104c-55 0 -102 -28 -102 -109z" />
    <glyph glyph-name="space" unicode=" " horiz-adv-x="248" 
 />
    <glyph glyph-name="t" unicode="t" horiz-adv-x="351" 
d="M229 645v-178h99v-98h-99v-369h-121v369h-85v98h85v178h121z" />
    <glyph glyph-name="S" unicode="S" horiz-adv-x="577" 
d="M46 201h128c2 -50 45 -97 119 -97c69 0 111 36 114 83c3 46 -28 76 -95 94l-85 22c-150 44 -174 131 -174 192c0 121 105 202 232 202c130 0 229 -79 229 -208h-128c0 54 -39 90 -103 90c-57 0 -103 -32 -103 -81c0 -22 8 -59 82 -79l85 -25c154 -42 194 -129 188 -210
c-6 -124 -116 -195 -242 -195c-147 0 -247 94 -247 212z" />
    <glyph glyph-name="m" unicode="m" horiz-adv-x="864" 
d="M592 358c-55 0 -95 -38 -95 -109v-249h-122v257c-1 65 -38 101 -86 101c-50 0 -98 -29 -98 -109v-249h-122v467h122v-69c26 57 90 78 134 78c74 -4 123 -30 149 -87c44 77 110 88 147 88c113 0 180 -73 180 -210v-267h-121v254c0 67 -38 104 -88 104z" />
    <glyph glyph-name="u" unicode="u" 
d="M376 218v249h122v-467h-122v66c-26 -50 -82 -76 -129 -76c-110 0 -184 69 -184 201v276h123v-254c0 -76 46 -104 89 -104c51 0 101 28 101 109z" />
    <glyph glyph-name="r" unicode="r" horiz-adv-x="411" 
d="M191 165v-165h-122v467h122v-110c24 85 79 120 132 120c33 0 58 -7 77 -17l-21 -110c-29 13 -59 13 -71 13c-83 0 -117 -74 -117 -198z" />
    <glyph glyph-name="v" unicode="v" horiz-adv-x="518" 
d="M205 0l-196 467h130l120 -311l120 311h131l-197 -467h-108z" />
    <glyph glyph-name="z" unicode="z" horiz-adv-x="508" 
d="M56 467h403v-94l-245 -259h245v-114h-418v93l241 260h-226v114z" />
    <glyph glyph-name="y" unicode="y" horiz-adv-x="511" 
d="M502 467l-289 -695h-129l107 264l-182 431h130l116 -291l117 291h130z" />
    <glyph glyph-name="w" unicode="w" horiz-adv-x="774" 
d="M759 467l-167 -467h-102l-104 313l-101 -313h-101l-172 467h130l95 -295l94 295h108l95 -295l95 295h130z" />
    <glyph glyph-name="x" unicode="x" horiz-adv-x="520" 
d="M191 254l-153 213h143l80 -115l78 115h143l-153 -213l183 -254h-142l-110 156l-111 -156h-142z" />
    <glyph glyph-name="A" unicode="A" horiz-adv-x="654" 
d="M519 0l-63 167h-257l-63 -167h-136l258 689h138l258 -689h-135zM327 542l-85 -263h172z" />
    <glyph glyph-name="O" unicode="O" horiz-adv-x="787" 
d="M171 343c0 -126 97 -227 222 -227c124 0 222 101 222 227s-98 228 -222 228c-125 0 -222 -102 -222 -228zM44 343c0 196 153 354 349 354s350 -158 350 -354c0 -194 -154 -353 -350 -353s-349 159 -349 353z" />
    <glyph glyph-name="E" unicode="E" horiz-adv-x="572" 
d="M86 0v689h426v-114h-299v-179h262v-113h-262v-169h309v-114h-436z" />
    <glyph glyph-name="I" unicode="I" horiz-adv-x="299" 
d="M86 0v689h127v-689h-127z" />
    <glyph glyph-name="L" unicode="L" horiz-adv-x="506" 
d="M86 0v689h128v-575h266v-114h-394z" />
    <glyph glyph-name="H" unicode="H" horiz-adv-x="704" 
d="M489 689h129v-689h-129v285h-276v-285h-127v689h127v-289h276v289z" />
    <glyph glyph-name="C" unicode="C" horiz-adv-x="693" 
d="M570 204l101 -74c-60 -85 -161 -140 -280 -140c-196 0 -347 159 -347 353c0 196 151 354 347 354c117 0 217 -53 277 -136l-102 -73c-40 52 -102 88 -175 88c-125 0 -219 -104 -219 -233c0 -128 94 -232 219 -232c74 0 139 37 179 93z" />
    <glyph glyph-name="F" unicode="F" horiz-adv-x="534" 
d="M86 0v689h421v-114h-293v-179h232v-114h-232v-282h-128z" />
    <glyph glyph-name="D" unicode="D" horiz-adv-x="714" 
d="M214 572v-455h141c122 0 183 102 183 226c0 125 -61 229 -183 229h-141zM355 0h-269v689h269c197 0 311 -150 311 -346c0 -195 -114 -343 -311 -343z" />
    <glyph glyph-name="B" unicode="B" horiz-adv-x="634" 
d="M554 502c0 -50 -22 -108 -91 -134c86 -21 128 -101 128 -161c0 -112 -80 -207 -214 -207h-291v689h270c121 0 198 -72 198 -187zM214 412h133c46 0 74 37 74 83c0 49 -28 80 -78 80h-129v-163zM367 305h-153v-191h156c56 0 87 48 87 95c0 45 -31 96 -90 96z" />
    <glyph glyph-name="a" unicode="a" horiz-adv-x="614" 
d="M423 0v60c-30 -48 -99 -69 -145 -69c-123 0 -238 94 -238 243c0 150 115 243 238 243c42 0 111 -16 145 -68v58h122v-467h-122zM166 234c0 -75 62 -126 129 -126c66 0 128 46 128 126c0 81 -64 126 -128 126c-67 0 -129 -50 -129 -126z" />
    <glyph glyph-name="P" unicode="P" horiz-adv-x="612" 
d="M364 575h-150v-216h146c66 0 97 56 97 107c0 50 -29 109 -93 109zM86 0v689h280c153 0 219 -111 219 -223s-66 -221 -219 -221h-152v-245h-128z" />
    <glyph glyph-name="R" unicode="R" horiz-adv-x="631" 
d="M356 575h-142v-216h138c67 0 97 56 97 107c0 50 -29 109 -93 109zM407 250l176 -250h-154l-162 245h-53v-245h-128v689h276c152 0 220 -111 220 -223c0 -99 -53 -196 -175 -216z" />
    <glyph glyph-name="T" unicode="T" horiz-adv-x="573" 
d="M28 572v117h517v-117h-194v-572h-129v572h-194z" />
    <glyph glyph-name="Z" unicode="Z" horiz-adv-x="587" 
d="M42 100l332 474h-319v115h484v-101l-335 -473h335v-115h-497v100z" />
    <glyph glyph-name="N" unicode="N" horiz-adv-x="682" 
d="M596 689v-689h-117l-266 453v-453h-127v689h119l263 -448v448h128z" />
    <glyph glyph-name="Q" unicode="Q" horiz-adv-x="792" 
d="M593 50l68 -111l-92 -56l-75 121c-32 -9 -65 -14 -99 -14c-197 0 -351 159 -351 353c0 196 154 354 351 354c199 0 353 -158 353 -354c0 -121 -61 -229 -155 -293zM457 271l70 -114c57 41 92 108 92 186c0 129 -98 233 -224 233s-223 -104 -223 -233
c0 -115 79 -209 188 -225c22 -4 43 -4 65 -2l-60 100z" />
    <glyph glyph-name="G" unicode="G" horiz-adv-x="756" 
d="M645 592l-94 -82c-40 41 -94 67 -156 67c-126 0 -223 -105 -223 -234c0 -128 97 -235 223 -235c92 0 183 55 186 143h-189v105h336c0 -252 -135 -366 -333 -366c-197 0 -351 159 -351 353c0 196 154 354 351 354c101 0 190 -41 250 -105z" />
    <glyph glyph-name="J" unicode="J" horiz-adv-x="300" 
d="M-99 -218l12 116c24 -8 73 -10 80 -10c67 0 93 50 93 109v692h128v-692c0 -125 -60 -230 -221 -230c-19 0 -60 7 -92 15z" />
    <glyph glyph-name="U" unicode="U" horiz-adv-x="681" 
d="M341 111c70 0 133 52 133 132v446h128v-446c0 -154 -121 -253 -261 -253s-262 99 -262 253v446h130v-446c0 -80 62 -132 132 -132z" />
    <glyph glyph-name="K" unicode="K" horiz-adv-x="598" 
d="M288 347l324 -347h-167l-230 255v-255h-129v689h129v-251l185 251h150z" />
    <glyph glyph-name="M" unicode="M" horiz-adv-x="919" 
d="M459 223l219 466h110l84 -689h-128l-53 459l-180 -381h-102l-181 381l-54 -459h-128l85 689h108z" />
    <glyph glyph-name="V" unicode="V" horiz-adv-x="575" 
d="M20 689h133l134 -480l134 480h133l-209 -689h-115z" />
    <glyph glyph-name="X" unicode="X" horiz-adv-x="643" 
d="M613 689l-216 -321l240 -368h-152l-164 265l-164 -265h-151l239 368l-216 321h153l139 -219l139 219h153z" />
    <glyph glyph-name="Y" unicode="Y" horiz-adv-x="644" 
d="M387 0h-131v314l-264 375h152l177 -265l179 265h153l-266 -377v-312z" />
    <glyph glyph-name="W" unicode="W" horiz-adv-x="892" 
d="M601 209l148 480h139l-234 -689h-103l-106 391l-104 -391h-104l-232 689h138l147 -480l105 384h102z" />
    <glyph glyph-name="period" unicode="." horiz-adv-x="272" 
d="M57 66c0 44 36 76 78 76c44 0 80 -32 80 -76s-36 -76 -80 -76c-42 0 -78 32 -78 76z" />
    <glyph glyph-name="colon" unicode=":" horiz-adv-x="284" 
d="M63 66c0 44 36 76 79 76s79 -32 79 -76s-36 -76 -79 -76s-79 32 -79 76zM63 401c0 44 36 76 79 76s79 -32 79 -76s-36 -76 -79 -76s-79 32 -79 76z" />
    <glyph glyph-name="ellipsis" unicode="&#x2026;" horiz-adv-x="811" 
d="M57 66c0 44 36 76 79 76s79 -32 79 -76s-36 -76 -79 -76s-79 32 -79 76zM327 66c0 44 35 76 78 76s80 -32 80 -76s-37 -76 -80 -76s-78 32 -78 76zM596 66c0 44 36 76 79 76s79 -32 79 -76s-36 -76 -79 -76s-79 32 -79 76z" />
    <glyph glyph-name="dieresis" unicode="&#xa8;" horiz-adv-x="551" 
d="M120 632c0 37 31 65 69 65c37 0 68 -28 68 -65s-31 -65 -68 -65c-38 0 -69 28 -69 65zM294 632c0 37 31 65 69 65s68 -28 68 -65s-30 -65 -68 -65s-69 28 -69 65z" />
    <glyph glyph-name="grave" unicode="`" horiz-adv-x="539" 
d="M129 707h128l105 -163h-95z" />
    <glyph glyph-name="acute" unicode="&#xb4;" horiz-adv-x="539" 
d="M234 707h128l-138 -163h-95z" />
    <glyph glyph-name="circumflex" unicode="&#x2c6;" horiz-adv-x="582" 
d="M229 710h123l110 -163h-94l-78 88l-76 -88h-94z" />
    <glyph glyph-name="caron" unicode="&#x2c7;" horiz-adv-x="582" 
d="M229 544l-109 163h94l76 -89l78 89h94l-110 -163h-123z" />
    <glyph glyph-name="exclam" unicode="!" horiz-adv-x="280" 
d="M69 689h143l-19 -488h-105zM61 66c0 44 36 76 78 76c44 0 80 -32 80 -76s-36 -76 -80 -76c-42 0 -78 32 -78 76z" />
    <glyph glyph-name="hungarumlaut" unicode="&#x2dd;" horiz-adv-x="520" 
d="M440 707l-121 -163h-97l111 163h107zM284 707l-110 -163h-94l99 163h105z" />
    <glyph glyph-name="ring" unicode="&#x2da;" horiz-adv-x="531" 
d="M160 654c0 66 51 117 114 117c66 0 117 -51 117 -117c0 -64 -51 -114 -117 -114c-63 0 -114 50 -114 114zM217 654c0 -32 26 -57 57 -57c33 0 59 25 59 57c0 33 -26 59 -59 59c-31 0 -57 -26 -57 -59z" />
    <glyph glyph-name="dotlessi" unicode="&#x131;" horiz-adv-x="259" 
d="M69 467h121v-467h-121v467z" />
    <glyph glyph-name="cedilla" unicode="&#xb8;" horiz-adv-x="528" 
d="M236 -122c7 -17 25 -25 43 -20c18 7 23 27 17 46l-46 125h59l51 -94c9 -16 9 -33 9 -46c0 -53 -46 -102 -105 -102c-53 0 -103 43 -102 120l69 -4s0 -13 5 -25z" />
    <glyph glyph-name="ogonek" unicode="&#x2db;" horiz-adv-x="528" 
d="M293 -122c5 12 5 25 5 25l69 4c1 -77 -49 -120 -102 -120c-59 0 -105 49 -105 102c0 13 0 30 9 46l51 94h59l-46 -125c-6 -19 -1 -39 17 -46c18 -5 36 3 43 20z" />
    <glyph glyph-name="quotedbl" unicode="&#x22;" horiz-adv-x="353" 
d="M75 395l-10 294h89l-10 -294h-69zM209 395l-10 294h89l-10 -294h-69z" />
    <glyph glyph-name="quotesingle" unicode="'" horiz-adv-x="219" 
d="M75 395l-10 294h89l-10 -294h-69z" />
    <glyph glyph-name="exclamdown" unicode="&#xa1;" horiz-adv-x="265" 
d="M204 -227h-143l19 493h105zM53 401c0 44 36 76 78 76c44 0 80 -32 80 -76s-36 -76 -80 -76c-42 0 -78 32 -78 76z" />
    <glyph glyph-name="breve" unicode="&#x2d8;" horiz-adv-x="507" 
d="M120 687h82c0 -34 16 -55 51 -55s51 27 51 55h83c0 -79 -55 -130 -134 -130c-92 0 -133 64 -133 130z" />
    <glyph glyph-name="dotaccent" unicode="&#x2d9;" horiz-adv-x="365" 
d="M110 628c0 39 33 69 72 69c41 0 73 -30 73 -69c0 -41 -32 -70 -73 -70c-39 0 -72 29 -72 70z" />
    <glyph glyph-name="comma" unicode="," horiz-adv-x="271" 
d="M86 -132l-81 30c42 58 76 148 74 245h126c-4 -146 -73 -237 -119 -275z" />
    <glyph glyph-name="semicolon" unicode=";" horiz-adv-x="291" 
d="M94 -132l-83 30c43 58 76 148 75 245h127c-4 -146 -73 -237 -119 -275zM73 401c0 44 36 76 79 76s79 -32 79 -76s-36 -76 -79 -76s-79 32 -79 76z" />
    <glyph glyph-name="tilde" unicode="&#x2dc;" horiz-adv-x="441" 
d="M176 607c-8 0 -25 -11 -26 -43h-70c5 95 55 125 96 125c43 0 63 -41 88 -41c8 0 26 9 27 41h70c-5 -94 -58 -123 -97 -123c-42 0 -65 41 -88 41z" />
    <glyph glyph-name="Agrave" unicode="&#xc0;" horiz-adv-x="654" 
d="M519 0l-63 167h-257l-63 -167h-136l258 689h138l258 -689h-135zM327 542l-85 -263h172zM151 929h128l105 -163h-95z" />
    <glyph glyph-name="Aacute" unicode="&#xc1;" horiz-adv-x="654" 
d="M456 167l63 -167h135l-258 689h-138l-258 -689h136l63 167h257zM242 279l85 263l87 -263h-172zM372 929h128l-138 -163h-95z" />
    <glyph glyph-name="Acircumflex" unicode="&#xc2;" horiz-adv-x="654" 
d="M519 0l-63 167h-257l-63 -167h-136l258 689h138l258 -689h-135zM327 542l-85 -263h172zM265 932h123l110 -163h-94l-78 88l-76 -88h-94z" />
    <glyph glyph-name="Atilde" unicode="&#xc3;" horiz-adv-x="654" 
d="M519 0l-63 167h-257l-63 -167h-136l258 689h138l258 -689h-135zM327 542l-85 -263h172zM282 829c-8 0 -25 -11 -26 -43h-70c5 95 55 125 96 125c43 0 63 -41 88 -41c8 0 26 9 27 41h70c-5 -94 -58 -123 -97 -123c-42 0 -65 41 -88 41z" />
    <glyph glyph-name="Adieresis" unicode="&#xc4;" horiz-adv-x="654" 
d="M456 167l63 -167h135l-258 689h-138l-258 -689h136l63 167h257zM242 279l85 263l87 -263h-172zM171 854c0 37 31 65 69 65c37 0 68 -28 68 -65s-31 -65 -68 -65c-38 0 -69 28 -69 65zM345 854c0 37 31 65 69 65s68 -28 68 -65s-30 -65 -68 -65s-69 28 -69 65z" />
    <glyph glyph-name="Aring" unicode="&#xc5;" horiz-adv-x="654" 
d="M456 167l63 -167h135l-258 689h-138l-258 -689h136l63 167h257zM242 279l85 263l87 -263h-172zM211 876c0 66 51 117 114 117c66 0 117 -51 117 -117c0 -64 -51 -114 -117 -114c-63 0 -114 50 -114 114zM268 876c0 -32 26 -57 57 -57c33 0 59 25 59 57
c0 33 -26 59 -59 59c-31 0 -57 -26 -57 -59z" />
    <glyph glyph-name="Ccedilla" unicode="&#xc7;" horiz-adv-x="694" 
d="M327 -122c7 -17 25 -25 43 -20c18 7 23 27 17 46l-33 88c-177 19 -309 169 -309 351c0 196 151 354 347 354c117 0 217 -53 277 -136l-102 -73c-40 52 -102 88 -175 88c-125 0 -219 -104 -219 -233c0 -128 94 -232 219 -232c74 0 139 37 179 93l101 -74
c-55 -78 -145 -131 -252 -139l31 -56c9 -16 9 -33 9 -46c0 -53 -46 -102 -105 -102c-53 0 -103 43 -102 120l69 -4s0 -13 5 -25z" />
    <glyph glyph-name="Egrave" unicode="&#xc8;" horiz-adv-x="572" 
d="M86 0v689h426v-114h-299v-179h262v-113h-262v-169h309v-114h-436zM152 929h128l105 -163h-95z" />
    <glyph glyph-name="Eacute" unicode="&#xc9;" horiz-adv-x="572" 
d="M86 689v-689h436v114h-309v169h262v113h-262v179h299v114h-426zM296 929h128l-138 -163h-95z" />
    <glyph glyph-name="Ecircumflex" unicode="&#xca;" horiz-adv-x="572" 
d="M86 0v689h426v-114h-299v-179h262v-113h-262v-169h309v-114h-436zM222 932h123l110 -163h-94l-78 88l-76 -88h-94z" />
    <glyph glyph-name="Edieresis" unicode="&#xcb;" horiz-adv-x="572" 
d="M86 689v-689h436v114h-309v169h262v113h-262v179h299v114h-426zM142 854c0 37 31 65 69 65c37 0 68 -28 68 -65s-31 -65 -68 -65c-38 0 -69 28 -69 65zM316 854c0 37 31 65 69 65s68 -28 68 -65s-30 -65 -68 -65s-69 28 -69 65z" />
    <glyph glyph-name="Igrave" unicode="&#xcc;" horiz-adv-x="299" 
d="M86 0v689h127v-689h-127zM-21 929h128l105 -163h-95z" />
    <glyph glyph-name="Iacute" unicode="&#xcd;" horiz-adv-x="299" 
d="M86 689v-689h127v689h-127zM192 929h128l-138 -163h-95z" />
    <glyph glyph-name="Icircumflex" unicode="&#xce;" horiz-adv-x="299" 
d="M86 0v689h127v-689h-127zM88 932h123l110 -163h-94l-78 88l-76 -88h-94z" />
    <glyph glyph-name="Idieresis" unicode="&#xcf;" horiz-adv-x="299" 
d="M86 689v-689h127v689h-127zM-6 854c0 37 31 65 69 65c37 0 68 -28 68 -65s-31 -65 -68 -65c-38 0 -69 28 -69 65zM168 854c0 37 31 65 69 65s68 -28 68 -65s-30 -65 -68 -65s-69 28 -69 65z" />
    <glyph glyph-name="Ntilde" unicode="&#xd1;" horiz-adv-x="682" 
d="M596 689v-689h-117l-266 453v-453h-127v689h119l263 -448v448h128zM296 829c-8 0 -25 -11 -26 -43h-70c5 95 55 125 96 125c43 0 63 -41 88 -41c8 0 26 9 27 41h70c-5 -94 -58 -123 -97 -123c-42 0 -65 41 -88 41z" />
    <glyph glyph-name="Ograve" unicode="&#xd2;" horiz-adv-x="787" 
d="M171 343c0 -126 97 -227 222 -227c124 0 222 101 222 227s-98 228 -222 228c-125 0 -222 -102 -222 -228zM44 343c0 196 153 354 349 354s350 -158 350 -354c0 -194 -154 -353 -350 -353s-349 159 -349 353zM208 929h128l105 -163h-95z" />
    <glyph glyph-name="Oacute" unicode="&#xd3;" horiz-adv-x="787" 
d="M171 343c0 126 97 228 222 228c124 0 222 -102 222 -228s-98 -227 -222 -227c-125 0 -222 101 -222 227zM44 343c0 -194 153 -353 349 -353s350 159 350 353c0 196 -154 354 -350 354s-349 -158 -349 -354zM444 929h128l-138 -163h-95z" />
    <glyph glyph-name="Ocircumflex" unicode="&#xd4;" horiz-adv-x="787" 
d="M171 343c0 -126 97 -227 222 -227c124 0 222 101 222 227s-98 228 -222 228c-125 0 -222 -102 -222 -228zM44 343c0 196 153 354 349 354s350 -158 350 -354c0 -194 -154 -353 -350 -353s-349 159 -349 353zM331 932h123l110 -163h-94l-78 88l-76 -88h-94z" />
    <glyph glyph-name="Otilde" unicode="&#xd5;" horiz-adv-x="787" 
d="M171 343c0 -126 97 -227 222 -227c124 0 222 101 222 227s-98 228 -222 228c-125 0 -222 -102 -222 -228zM44 343c0 196 153 354 349 354s350 -158 350 -354c0 -194 -154 -353 -350 -353s-349 159 -349 353zM349 829c-8 0 -25 -11 -26 -43h-70c5 95 55 125 96 125
c43 0 63 -41 88 -41c8 0 26 9 27 41h70c-5 -94 -58 -123 -97 -123c-42 0 -65 41 -88 41z" />
    <glyph glyph-name="Odieresis" unicode="&#xd6;" horiz-adv-x="787" 
d="M171 343c0 126 97 228 222 228c124 0 222 -102 222 -228s-98 -227 -222 -227c-125 0 -222 101 -222 227zM44 343c0 -194 153 -353 349 -353s350 159 350 353c0 196 -154 354 -350 354s-349 -158 -349 -354zM238 854c0 37 31 65 69 65c37 0 68 -28 68 -65s-31 -65 -68 -65
c-38 0 -69 28 -69 65zM412 854c0 37 31 65 69 65s68 -28 68 -65s-30 -65 -68 -65s-69 28 -69 65z" />
    <glyph glyph-name="Ugrave" unicode="&#xd9;" horiz-adv-x="681" 
d="M341 111c70 0 133 52 133 132v446h128v-446c0 -154 -121 -253 -261 -253s-262 99 -262 253v446h130v-446c0 -80 62 -132 132 -132zM183 929h128l105 -163h-95z" />
    <glyph glyph-name="Uacute" unicode="&#xda;" horiz-adv-x="681" 
d="M341 111c70 0 133 52 133 132v446h128v-446c0 -154 -121 -253 -261 -253s-262 99 -262 253v446h130v-446c0 -80 62 -132 132 -132zM361 929h128l-138 -163h-95z" />
    <glyph glyph-name="Ucircumflex" unicode="&#xdb;" horiz-adv-x="681" 
d="M341 111c70 0 133 52 133 132v446h128v-446c0 -154 -121 -253 -261 -253s-262 99 -262 253v446h130v-446c0 -80 62 -132 132 -132zM278 932h123l110 -163h-94l-78 88l-76 -88h-94z" />
    <glyph glyph-name="Udieresis" unicode="&#xdc;" horiz-adv-x="681" 
d="M341 111c70 0 133 52 133 132v446h128v-446c0 -154 -121 -253 -261 -253s-262 99 -262 253v446h130v-446c0 -80 62 -132 132 -132zM185 854c0 37 31 65 69 65c37 0 68 -28 68 -65s-31 -65 -68 -65c-38 0 -69 28 -69 65zM359 854c0 37 31 65 69 65s68 -28 68 -65
s-30 -65 -68 -65s-69 28 -69 65z" />
    <glyph glyph-name="Yacute" unicode="&#xdd;" horiz-adv-x="644" 
d="M387 0h-131v314l-264 375h152l177 -265l179 265h153l-266 -377v-312zM353 929h128l-138 -163h-95z" />
    <glyph glyph-name="agrave" unicode="&#xe0;" horiz-adv-x="614" 
d="M423 0v60c-30 -48 -99 -69 -145 -69c-123 0 -238 94 -238 243c0 150 115 243 238 243c42 0 111 -16 145 -68v58h122v-467h-122zM166 234c0 -75 62 -126 129 -126c66 0 128 46 128 126c0 81 -64 126 -128 126c-67 0 -129 -50 -129 -126zM154 707h128l105 -163h-95z" />
    <glyph glyph-name="aacute" unicode="&#xe1;" horiz-adv-x="614" 
d="M423 0v60c-30 -48 -99 -69 -145 -69c-123 0 -238 94 -238 243c0 150 115 243 238 243c42 0 111 -16 145 -68v58h122v-467h-122zM166 234c0 -75 62 -126 129 -126c66 0 128 46 128 126c0 81 -64 126 -128 126c-67 0 -129 -50 -129 -126zM324 707h128l-138 -163h-95z" />
    <glyph glyph-name="acircumflex" unicode="&#xe2;" horiz-adv-x="614" 
d="M423 0v60c-30 -48 -99 -69 -145 -69c-123 0 -238 94 -238 243c0 150 115 243 238 243c42 0 111 -16 145 -68v58h122v-467h-122zM166 234c0 -75 62 -126 129 -126c66 0 128 46 128 126c0 81 -64 126 -128 126c-67 0 -129 -50 -129 -126zM245 710h123l110 -163h-94l-78 88
l-76 -88h-94z" />
    <glyph glyph-name="atilde" unicode="&#xe3;" horiz-adv-x="614" 
d="M423 0v60c-30 -48 -99 -69 -145 -69c-123 0 -238 94 -238 243c0 150 115 243 238 243c42 0 111 -16 145 -68v58h122v-467h-122zM166 234c0 -75 62 -126 129 -126c66 0 128 46 128 126c0 81 -64 126 -128 126c-67 0 -129 -50 -129 -126zM263 607c-8 0 -25 -11 -26 -43h-70
c5 95 55 125 96 125c43 0 63 -41 88 -41c8 0 26 9 27 41h70c-5 -94 -58 -123 -97 -123c-42 0 -65 41 -88 41z" />
    <glyph glyph-name="adieresis" unicode="&#xe4;" horiz-adv-x="614" 
d="M423 0v60c-30 -48 -99 -69 -145 -69c-123 0 -238 94 -238 243c0 150 115 243 238 243c42 0 111 -16 145 -68v58h122v-467h-122zM166 234c0 -75 62 -126 129 -126c66 0 128 46 128 126c0 81 -64 126 -128 126c-67 0 -129 -50 -129 -126zM152 632c0 37 31 65 69 65
c37 0 68 -28 68 -65s-31 -65 -68 -65c-38 0 -69 28 -69 65zM326 632c0 37 31 65 69 65s68 -28 68 -65s-30 -65 -68 -65s-69 28 -69 65z" />
    <glyph glyph-name="aring" unicode="&#xe5;" horiz-adv-x="614" 
d="M423 0v60c-30 -48 -99 -69 -145 -69c-123 0 -238 94 -238 243c0 150 115 243 238 243c42 0 111 -16 145 -68v58h122v-467h-122zM166 234c0 -75 62 -126 129 -126c66 0 128 46 128 126c0 81 -64 126 -128 126c-67 0 -129 -50 -129 -126zM192 654c0 66 51 117 114 117
c66 0 117 -51 117 -117c0 -64 -51 -114 -117 -114c-63 0 -114 50 -114 114zM249 654c0 -32 26 -57 57 -57c33 0 59 25 59 57c0 33 -26 59 -59 59c-31 0 -57 -26 -57 -59z" />
    <glyph glyph-name="ccedilla" unicode="&#xe7;" horiz-adv-x="522" 
d="M320 -8l31 -57c9 -16 9 -33 9 -46c0 -53 -46 -102 -105 -102c-53 0 -103 43 -102 120l69 -4s0 -13 5 -25c7 -17 25 -25 43 -20c18 7 23 27 17 46l-33 89c-118 16 -214 109 -214 242c0 147 118 242 252 242c78 0 150 -33 194 -91l-97 -73c-22 30 -59 46 -97 46
c-68 0 -131 -48 -131 -124s63 -128 131 -128c38 0 75 17 97 47l98 -72c-39 -51 -99 -83 -167 -90z" />
    <glyph glyph-name="egrave" unicode="&#xe8;" horiz-adv-x="553" 
d="M519 235c0 -12 -1 -31 -2 -42h-356c8 -62 60 -100 129 -100c47 0 95 20 117 60c29 -16 63 -34 93 -50c-42 -80 -132 -113 -218 -113c-133 0 -242 98 -242 245s109 242 242 242s237 -95 237 -242zM160 276h240c-9 64 -57 99 -117 99c-64 0 -114 -36 -123 -99zM112 707h128
l105 -163h-95z" />
    <glyph glyph-name="eacute" unicode="&#xe9;" horiz-adv-x="553" 
d="M519 235c0 147 -104 242 -237 242s-242 -95 -242 -242s109 -245 242 -245c86 0 176 33 218 113c-30 16 -64 34 -93 50c-22 -40 -70 -60 -117 -60c-69 0 -121 38 -129 100h356c1 11 2 30 2 42zM160 276c9 63 59 99 123 99c60 0 108 -35 117 -99h-240zM332 707h128
l-138 -163h-95z" />
    <glyph glyph-name="ecircumflex" unicode="&#xea;" horiz-adv-x="553" 
d="M519 235c0 -12 -1 -31 -2 -42h-356c8 -62 60 -100 129 -100c47 0 95 20 117 60c29 -16 63 -34 93 -50c-42 -80 -132 -113 -218 -113c-133 0 -242 98 -242 245s109 242 242 242s237 -95 237 -242zM160 276h240c-9 64 -57 99 -117 99c-64 0 -114 -36 -123 -99zM217 710h123
l110 -163h-94l-78 88l-76 -88h-94z" />
    <glyph glyph-name="edieresis" unicode="&#xeb;" horiz-adv-x="553" 
d="M519 235c0 147 -104 242 -237 242s-242 -95 -242 -242s109 -245 242 -245c86 0 176 33 218 113c-30 16 -64 34 -93 50c-22 -40 -70 -60 -117 -60c-69 0 -121 38 -129 100h356c1 11 2 30 2 42zM160 276c9 63 59 99 123 99c60 0 108 -35 117 -99h-240zM124 632
c0 37 31 65 69 65c37 0 68 -28 68 -65s-31 -65 -68 -65c-38 0 -69 28 -69 65zM298 632c0 37 31 65 69 65s68 -28 68 -65s-30 -65 -68 -65s-69 28 -69 65z" />
    <glyph glyph-name="igrave" unicode="&#xec;" horiz-adv-x="259" 
d="M69 467h121v-467h-121v467zM-46 707h128l105 -163h-95z" />
    <glyph glyph-name="iacute" unicode="&#xed;" horiz-adv-x="259" 
d="M190 467h-121v-467h121v467zM173 707h128l-138 -163h-95z" />
    <glyph glyph-name="icircumflex" unicode="&#xee;" horiz-adv-x="259" 
d="M69 467h121v-467h-121v467zM68 710h123l110 -163h-94l-78 88l-76 -88h-94z" />
    <glyph glyph-name="idieresis" unicode="&#xef;" horiz-adv-x="259" 
d="M190 467h-121v-467h121v467zM-26 632c0 37 31 65 69 65c37 0 68 -28 68 -65s-31 -65 -68 -65c-38 0 -69 28 -69 65zM148 632c0 37 31 65 69 65s68 -28 68 -65s-30 -65 -68 -65s-69 28 -69 65z" />
    <glyph glyph-name="ntilde" unicode="&#xf1;" 
d="M191 249v-249h-122v467h122v-69c26 50 85 79 139 79c109 0 174 -69 174 -201v-276h-122v254c0 68 -36 104 -89 104c-55 0 -102 -28 -102 -109zM239 607c-8 0 -25 -11 -26 -43h-70c5 95 55 125 96 125c43 0 63 -41 88 -41c8 0 26 9 27 41h70c-5 -94 -58 -123 -97 -123
c-42 0 -65 41 -88 41z" />
    <glyph glyph-name="ograve" unicode="&#xf2;" horiz-adv-x="566" 
d="M283 110c67 0 122 49 122 125c0 74 -55 122 -122 122s-122 -48 -122 -122c0 -76 55 -125 122 -125zM283 -9c-133 0 -243 97 -243 244s110 242 243 242c132 0 243 -95 243 -242s-111 -244 -243 -244zM115 707h128l105 -163h-95z" />
    <glyph glyph-name="oacute" unicode="&#xf3;" horiz-adv-x="566" 
d="M283 110c-67 0 -122 49 -122 125c0 74 55 122 122 122s122 -48 122 -122c0 -76 -55 -125 -122 -125zM283 -9c132 0 243 97 243 244s-111 242 -243 242c-133 0 -243 -95 -243 -242s110 -244 243 -244zM324 707h128l-138 -163h-95z" />
    <glyph glyph-name="ocircumflex" unicode="&#xf4;" horiz-adv-x="566" 
d="M283 110c67 0 122 49 122 125c0 74 -55 122 -122 122s-122 -48 -122 -122c0 -76 55 -125 122 -125zM283 -9c-133 0 -243 97 -243 244s110 242 243 242c132 0 243 -95 243 -242s-111 -244 -243 -244zM221 710h123l110 -163h-94l-78 88l-76 -88h-94z" />
    <glyph glyph-name="otilde" unicode="&#xf5;" horiz-adv-x="566" 
d="M283 110c67 0 122 49 122 125c0 74 -55 122 -122 122s-122 -48 -122 -122c0 -76 55 -125 122 -125zM283 -9c-133 0 -243 97 -243 244s110 242 243 242c132 0 243 -95 243 -242s-111 -244 -243 -244zM238 607c-8 0 -25 -11 -26 -43h-70c5 95 55 125 96 125
c43 0 63 -41 88 -41c8 0 26 9 27 41h70c-5 -94 -58 -123 -97 -123c-42 0 -65 41 -88 41z" />
    <glyph glyph-name="odieresis" unicode="&#xf6;" horiz-adv-x="566" 
d="M283 110c-67 0 -122 49 -122 125c0 74 55 122 122 122s122 -48 122 -122c0 -76 -55 -125 -122 -125zM283 -9c132 0 243 97 243 244s-111 242 -243 242c-133 0 -243 -95 -243 -242s110 -244 243 -244zM127 632c0 37 31 65 69 65c37 0 68 -28 68 -65s-31 -65 -68 -65
c-38 0 -69 28 -69 65zM301 632c0 37 31 65 69 65s68 -28 68 -65s-30 -65 -68 -65s-69 28 -69 65z" />
    <glyph glyph-name="ugrave" unicode="&#xf9;" 
d="M135 707h127l106 -163h-96zM376 218v249h122v-467h-122v66c-26 -50 -82 -76 -129 -76c-110 0 -184 69 -184 201v276h123v-254c0 -76 46 -104 89 -104c51 0 101 28 101 109z" />
    <glyph glyph-name="uacute" unicode="&#xfa;" 
d="M312 707h128l-138 -163h-96zM376 218v249h122v-467h-122v66c-26 -50 -82 -76 -129 -76c-110 0 -184 69 -184 201v276h123v-254c0 -76 46 -104 89 -104c51 0 101 28 101 109z" />
    <glyph glyph-name="ucircumflex" unicode="&#xfb;" 
d="M216 710h123l110 -163h-94l-78 88l-76 -88h-94zM376 218v249h122v-467h-122v66c-26 -50 -82 -76 -129 -76c-110 0 -184 69 -184 201v276h123v-254c0 -76 46 -104 89 -104c51 0 101 28 101 109z" />
    <glyph glyph-name="udieresis" unicode="&#xfc;" 
d="M125 635c0 37 31 65 69 65c37 0 67 -28 67 -65s-30 -65 -67 -65c-38 0 -69 28 -69 65zM299 635c0 37 31 65 69 65c37 0 68 -28 68 -65s-31 -65 -68 -65c-38 0 -69 28 -69 65zM376 218v249h122v-467h-122v66c-26 -50 -82 -76 -129 -76c-110 0 -184 69 -184 201v276h123
v-254c0 -76 46 -104 89 -104c51 0 101 28 101 109z" />
    <glyph glyph-name="yacute" unicode="&#xfd;" horiz-adv-x="511" 
d="M213 -228l289 695h-130l-117 -291l-116 291h-130l182 -431l-107 -264h129zM273 707h128l-138 -163h-95z" />
    <glyph glyph-name="ydieresis" unicode="&#xff;" horiz-adv-x="511" 
d="M213 -228l289 695h-130l-117 -291l-116 291h-130l182 -431l-107 -264h129zM103 632c0 37 31 65 69 65c37 0 68 -28 68 -65s-31 -65 -68 -65c-38 0 -69 28 -69 65zM277 632c0 37 31 65 69 65s68 -28 68 -65s-30 -65 -68 -65s-69 28 -69 65z" />
    <glyph glyph-name="Zcaron" unicode="&#x17d;" horiz-adv-x="587" 
d="M42 100l332 474h-319v115h484v-101l-335 -473h335v-115h-497v100zM229 766l-109 163h94l76 -89l78 89h94l-110 -163h-123z" />
    <glyph glyph-name="zcaron" unicode="&#x17e;" horiz-adv-x="508" 
d="M459 467h-403v-114h226l-241 -260v-93h418v114h-245l245 259v94zM188 544l-109 163h94l76 -89l78 89h94l-110 -163h-123z" />
    <glyph glyph-name="Ydieresis" unicode="&#x178;" horiz-adv-x="644" 
d="M387 0h-131v314l-264 375h152l177 -265l179 265h153l-266 -377v-312zM167 854c0 37 31 65 69 65c37 0 68 -28 68 -65s-31 -65 -68 -65c-38 0 -69 28 -69 65zM341 854c0 37 31 65 69 65s68 -28 68 -65s-30 -65 -68 -65s-69 28 -69 65z" />
    <glyph glyph-name="OE" unicode="&#x152;" horiz-adv-x="1100" 
d="M615 605v84h425v-116h-298v-177h261v-114h-261v-166h308v-116h-435v81c-57 -57 -137 -91 -223 -91c-195 0 -348 159 -348 353c0 196 153 354 348 354c86 0 166 -32 223 -92zM172 343c0 -125 96 -226 220 -226c127 0 222 103 222 230c-2 123 -99 223 -222 223
c-124 0 -220 -102 -220 -227z" />
    <glyph glyph-name="AE" unicode="&#xc6;" horiz-adv-x="933" 
d="M421 689h452v-116h-298v-177h261v-114h-261v-166h308v-116h-435v1l-1 -1v163h-205l-104 -163h-152zM447 516l-132 -230h132v230z" />
    <glyph glyph-name="zero" unicode="0" horiz-adv-x="603" 
d="M60 327c0 188 53 339 243 339s240 -151 240 -339c0 -186 -50 -337 -240 -337s-243 151 -243 337zM183 327c0 -119 26 -217 120 -217c92 0 118 98 118 217c0 120 -26 219 -118 219c-94 0 -120 -99 -120 -219z" />
    <glyph glyph-name="one" unicode="1" horiz-adv-x="362" 
d="M39 559l233 103v-662h-123v493l-110 -44v110z" />
    <glyph glyph-name="eight" unicode="8" horiz-adv-x="584" 
d="M218 484c0 -38 28 -71 75 -71c46 0 72 34 72 71c0 35 -28 68 -73 68s-74 -33 -74 -68zM173 216c0 -60 54 -110 119 -110c64 0 118 50 118 110c0 56 -50 108 -111 108h-18c-61 0 -108 -53 -108 -108zM99 488c0 98 85 178 193 178c107 0 193 -80 193 -178
c0 -46 -19 -84 -49 -112c59 -34 96 -93 96 -164c0 -123 -107 -222 -240 -222c-134 0 -241 99 -241 222c0 72 38 130 96 164c-29 28 -48 67 -48 112z" />
    <glyph glyph-name="seven" unicode="7" horiz-adv-x="541" 
d="M48 654h479l-313 -654h-140l259 539h-285v115z" />
    <glyph glyph-name="four" unicode="4" horiz-adv-x="599" 
d="M200 249h145v228zM554 142h-87v-142h-122v142h-323l326 512h119v-405h87v-107z" />
    <glyph glyph-name="five" unicode="5" horiz-adv-x="582" 
d="M411 224c0 76 -56 113 -126 113c-45 0 -102 -14 -150 -66l-70 42l55 341h372v-113h-274l-23 -134c27 23 79 35 121 35c119 0 217 -76 217 -218c0 -138 -103 -234 -261 -234c-91 0 -181 55 -227 138c9 5 94 59 103 64c26 -48 75 -81 124 -81c87 0 139 53 139 113z" />
    <glyph glyph-name="three" unicode="3" horiz-adv-x="546" 
d="M258 291h-70v109h70c62 -1 74 55 74 72c0 24 -11 65 -58 74c-38 5 -75 -7 -101 -40l-96 63c37 62 113 102 198 97c112 -6 189 -86 189 -183c0 -54 -34 -101 -81 -128c69 -26 116 -108 109 -178c-12 -119 -125 -195 -252 -186c-90 6 -168 62 -203 138c9 5 98 49 107 54
c19 -39 61 -73 106 -73c62 0 110 40 110 97c0 17 -13 87 -102 84z" />
    <glyph glyph-name="two" unicode="2" horiz-adv-x="541" 
d="M473 0h-418v63l267 320c23 27 40 56 40 86c0 44 -38 78 -94 78c-53 0 -94 -39 -102 -95l-114 21c19 119 105 193 221 193c115 0 211 -80 211 -197c0 -63 -29 -121 -70 -167l-162 -185h221v-117z" />
    <glyph glyph-name="six" unicode="6" horiz-adv-x="573" 
d="M393 207c1 55 -41 100 -96 101s-101 -43 -102 -98c0 -56 44 -101 98 -101c55 -1 99 42 100 98zM317 422c103 0 203 -83 202 -222c-2 -123 -97 -211 -232 -210c-120 2 -214 89 -225 227c-16 203 18 456 254 449c76 -3 151 -27 197 -127l-113 -48c-21 43 -54 60 -88 60
c-94 0 -133 -99 -127 -203c12 33 63 74 132 74z" />
    <glyph glyph-name="nine" unicode="9" horiz-adv-x="574" 
d="M181 449c-2 -55 41 -100 96 -101s101 42 102 97c0 57 -44 101 -98 102c-55 1 -99 -43 -100 -98zM256 234c-102 0 -202 83 -201 222c2 123 97 211 231 209c121 -2 214 -88 226 -226c16 -204 -18 -457 -254 -449c-76 3 -151 27 -197 127l113 48c21 -43 54 -60 88 -60
c94 0 133 98 127 203c-12 -34 -63 -74 -133 -74z" />
    <glyph glyph-name="thorn" unicode="&#xfe;" horiz-adv-x="603" 
d="M192 235c0 -79 57 -128 124 -128s122 51 122 128c0 75 -55 125 -122 125c-63 0 -124 -45 -124 -125zM190 -227h-121v948h121v-311c27 43 85 67 143 67c124 0 230 -95 230 -244c0 -147 -106 -243 -230 -243c-58 0 -116 25 -143 68v-285z" />
    <glyph glyph-name="bracketleft" unicode="[" horiz-adv-x="332" 
d="M76 -227v916h220v-95h-112v-725h112v-96h-220z" />
    <glyph glyph-name="bracketright" unicode="]" horiz-adv-x="332" 
d="M256 689v-916h-220v96h112v725h-112v95h220z" />
    <glyph glyph-name="at" unicode="@" horiz-adv-x="967" 
d="M590 133v127c0 69 -55 121 -121 121s-121 -52 -121 -121c0 -66 55 -119 121 -119c26 0 59 11 86 33v-91c-25 -14 -59 -24 -86 -24c-112 0 -203 89 -203 201c0 114 91 203 203 203c54 0 104 -21 141 -55c38 -35 61 -84 63 -138v-143c0 -50 34 -62 64 -62
c90 0 109 130 109 208c0 196 -169 339 -367 339c-197 0 -349 -160 -349 -357s152 -352 349 -352h29v-83h-29c-243 0 -432 192 -432 435s189 440 432 440s451 -180 451 -422c0 -118 -49 -290 -193 -290c-75 0 -147 37 -147 150z" />
    <glyph glyph-name="Euro" unicode="&#x20ac;" horiz-adv-x="835" 
d="M532 370h-484v60h117c37 153 171 267 337 267c117 0 217 -53 277 -136l-102 -73c-40 52 -102 88 -175 88c-95 0 -173 -60 -204 -146h234v-60zM48 314h484v-60h-233c32 -84 109 -143 203 -143c74 0 139 37 179 93l101 -74c-60 -85 -161 -140 -280 -140
c-165 0 -298 112 -336 264h-118v60z" />
    <glyph glyph-name="slash" unicode="/" horiz-adv-x="501" 
d="M364 689h107l-334 -689h-107z" />
    <glyph glyph-name="backslash" unicode="\" horiz-adv-x="501" 
d="M30 689h107l334 -689h-107z" />
    <glyph glyph-name="Eth" unicode="&#xd0;" horiz-adv-x="722" 
d="M3 293v88h94v308h267c198 0 310 -150 310 -346c0 -195 -112 -343 -310 -343h-267v293h-94zM224 293v-174h140c122 0 183 100 183 224s-61 227 -183 227h-140v-189h138v-88h-138z" />
    <glyph glyph-name="percent" unicode="%" horiz-adv-x="688" 
d="M536 661h-68l-325 -661h68zM36 532c0 74 58 134 133 134c74 0 134 -60 134 -134c0 -75 -60 -133 -134 -133c-75 0 -133 58 -133 133zM113 532c0 -32 24 -56 56 -56c31 0 57 24 57 56c0 31 -26 57 -57 57c-32 0 -56 -26 -56 -57zM385 123c0 74 58 134 133 134
c74 0 134 -60 134 -134c0 -75 -60 -133 -134 -133c-75 0 -133 58 -133 133zM462 123c0 -32 24 -56 56 -56c31 0 57 24 57 56c0 31 -26 57 -57 57c-32 0 -56 -26 -56 -57z" />
    <glyph glyph-name="perthousand" unicode="&#x2030;" horiz-adv-x="995" 
d="M538 661h-68l-325 -661h68zM38 532c0 74 58 134 133 134c74 0 134 -60 134 -134c0 -75 -60 -133 -134 -133c-75 0 -133 58 -133 133zM115 532c0 -32 24 -56 56 -56c31 0 57 24 57 56c0 31 -26 57 -57 57c-32 0 -56 -26 -56 -57zM387 123c0 74 58 134 133 134
c74 0 134 -60 134 -134c0 -75 -60 -133 -134 -133c-75 0 -133 58 -133 133zM464 123c0 -32 24 -56 56 -56c31 0 57 24 57 56c0 31 -26 57 -57 57c-32 0 -56 -26 -56 -57zM693 123c0 74 58 134 133 134c74 0 134 -60 134 -134c0 -75 -60 -133 -134 -133
c-75 0 -133 58 -133 133zM770 123c0 -32 24 -56 56 -56c31 0 57 24 57 56c0 31 -26 57 -57 57c-32 0 -56 -26 -56 -57z" />
    <glyph glyph-name="periodcentered" unicode="&#xb7;" horiz-adv-x="278" 
d="M60 313c0 44 36 76 78 76c44 0 80 -32 80 -76s-36 -76 -80 -76c-42 0 -78 32 -78 76z" />
    <glyph glyph-name="Thorn" unicode="&#xde;" horiz-adv-x="573" 
d="M418 351c0 69 -48 109 -100 111h-105v-220h108c51 0 97 42 97 109zM326 130h-113v-130h-127v689h127v-116h113c121 0 218 -85 218 -220s-97 -223 -218 -223z" />
    <glyph glyph-name="mu" unicode="&#xb5;" 
d="M76 -178v645h122v-256c0 -74 45 -102 86 -102c51 0 101 29 101 109v249h122v-467h-122v62c-26 -47 -80 -72 -125 -72c-29 0 -58 9 -79 28l9 -126v-70h-114z" />
    <glyph glyph-name="bullet" unicode="&#x2022;" horiz-adv-x="464" 
d="M76 238c0 87 71 150 156 150s156 -63 156 -150s-71 -150 -156 -150s-156 63 -156 150z" />
    <glyph glyph-name="yen" unicode="&#xa5;" horiz-adv-x="723" 
d="M432 322h159v-67h-165v-88h165v-66h-165v-101h-131v101h-164v66h164v88h-164v67h158l-258 367h152l177 -265l179 265h153z" />
    <glyph glyph-name="emdash" unicode="&#x2014;" horiz-adv-x="830" 
d="M63 181v108h704v-108h-704z" />
    <glyph glyph-name="endash" unicode="&#x2013;" horiz-adv-x="619" 
d="M63 181v108h493v-108h-493z" />
    <glyph glyph-name="daggerdbl" unicode="&#x2021;" horiz-adv-x="441" 
d="M276 689v-173h111v-85h-111v-223h111v-84h-111v-227h-111v227h-111v84h111v223h-111v85h111v173h111z" />
    <glyph glyph-name="dagger" unicode="&#x2020;" horiz-adv-x="413" 
d="M262 689v-173h111v-85h-111v-534h-111v534h-111v85h111v173h111z" />
    <glyph glyph-name="Lslash" unicode="&#x141;" horiz-adv-x="512" 
d="M92 304l-69 -44v85l69 44v300h128v-220l97 60v-85l-97 -60v-268h266v-116h-394v304z" />
    <glyph glyph-name="lslash" unicode="&#x142;" horiz-adv-x="292" 
d="M215 721v-264l83 52v-84l-83 -52v-373h-122v296l-80 -50v84l80 50v341h122z" />
    <glyph glyph-name="bar" unicode="|" horiz-adv-x="221" 
d="M76 800h69v-922h-69v922z" />
    <glyph glyph-name="Oslash" unicode="&#xd8;" horiz-adv-x="785" 
d="M173 66l-80 -82l-47 47l80 82c-52 62 -83 142 -83 230c0 196 153 354 349 354c85 0 163 -30 223 -81l79 81l47 -46l-80 -82c50 -61 81 -140 81 -226c0 -194 -154 -353 -350 -353c-76 0 -146 24 -202 65c-6 4 -12 7 -17 11zM170 343c0 -53 17 -100 45 -139l311 321
c-36 29 -84 46 -134 46c-125 0 -222 -102 -222 -228zM392 116c124 0 222 101 222 227c0 50 -16 96 -43 134l-309 -319c36 -27 80 -42 130 -42z" />
    <glyph glyph-name="oslash" unicode="&#xf8;" horiz-adv-x="566" 
d="M283 -10c-54 0 -102 15 -142 43l-58 -59l-47 47l56 58c-33 40 -52 93 -52 155c0 147 110 243 243 243c56 0 108 -18 150 -49l51 53l47 -46l-52 -53c29 -39 47 -90 47 -148c0 -147 -111 -244 -243 -244zM283 357c-67 0 -122 -49 -122 -123c0 -26 5 -48 17 -67l168 173
c-19 11 -41 17 -63 17zM283 109c67 0 122 49 122 125c0 21 -5 42 -13 58l-165 -170c17 -9 36 -13 56 -13z" />
    <glyph glyph-name="equal" unicode="=" horiz-adv-x="600" 
d="M530 334h-460v94h460v-94zM70 229h460v-94h-460v94z" />
    <glyph glyph-name="plus" unicode="+" horiz-adv-x="511" 
d="M304 213v-158h-97v158h-157v97h157v156h97v-156h157v-97h-157z" />
    <glyph glyph-name="minus" unicode="&#x2212;" horiz-adv-x="530" 
d="M460 215h-390v95h390v-95z" />
    <glyph glyph-name="plusminus" unicode="&#xb1;" horiz-adv-x="546" 
d="M321 287v-144h-97v144h-155v96h155v142h97v-142h156v-96h-156zM477 -1h-408v95h408v-95z" />
    <glyph glyph-name="multiply" unicode="&#xd7;" horiz-adv-x="492" 
d="M314 264l120 -119l-68 -69l-120 119l-118 -117l-68 68l118 118l-119 119l68 67l119 -118l120 120l68 -69z" />
    <glyph glyph-name="divide" unicode="&#xf7;" 
d="M210 66c0 41 34 71 74 71s74 -30 74 -71s-34 -71 -74 -71s-74 30 -74 71zM210 432c0 41 34 70 74 70s74 -29 74 -70c0 -42 -34 -71 -74 -71s-74 29 -74 71zM56 202h455v91h-455v-91z" />
    <glyph glyph-name="less" unicode="&#x3c;" horiz-adv-x="628" 
d="M550 45l-504 192v104l504 192v-105l-369 -139l369 -139v-105z" />
    <glyph glyph-name="greater" unicode="&#x3e;" horiz-adv-x="628" 
d="M582 237l-504 -192v105l369 139l-369 139v105l504 -192v-104z" />
    <glyph glyph-name="hyphen" unicode="-" horiz-adv-x="477" 
d="M63 191v102h351v-102h-351z" />
    <glyph glyph-name="underscore" unicode="_" horiz-adv-x="728" 
d="M63 -124v93h602v-93h-602z" />
    <glyph glyph-name="logicalnot" unicode="&#xac;" horiz-adv-x="633" 
d="M70 368h487v-259h-109v151h-378v108z" />
    <glyph glyph-name="paragraph" unicode="&#xb6;" horiz-adv-x="692" 
d="M337 689v-702c0 -25 3 -41 -30 -41h-66v309c-114 7 -207 101 -207 217c0 120 96 217 217 217h86zM521 594h-29v-653c0 -69 -65 -136 -137 -137h-28h-87v86h109c27 0 49 21 49 46v753h121c76 0 137 -64 137 -137v-85h-90v79c0 27 -20 48 -45 48z" />
    <glyph glyph-name="brokenbar" unicode="&#xa6;" horiz-adv-x="225" 
d="M78 263h69v-385h-69v385zM147 800v-385h-69v385h69z" />
    <glyph glyph-name="florin" unicode="&#x192;" horiz-adv-x="623" 
d="M30 -189l23 115h54c56 0 82 45 94 99l70 341h-87l21 101h87l8 35c26 134 110 216 247 213l46 -1l-23 -116h-53c-71 0 -89 -63 -102 -131h99l-20 -101h-100c-25 -124 -48 -248 -77 -371c-26 -114 -113 -187 -236 -185c-16 0 -33 0 -51 1z" />
    <glyph glyph-name="copyright" unicode="&#xa9;" horiz-adv-x="801" 
d="M541 222l-45 50c-29 -29 -63 -48 -93 -48c-63 0 -112 51 -112 114c0 62 49 113 112 113c30 0 64 -19 91 -46l46 47c-41 43 -90 66 -137 66c-101 0 -180 -80 -180 -180s79 -181 180 -181c49 0 99 24 138 65zM51 343c0 195 154 354 349 354s350 -159 350 -354
s-155 -353 -350 -353s-349 158 -349 353zM112 343c0 -161 127 -291 288 -291s288 130 288 291s-127 292 -288 292s-288 -131 -288 -292z" />
    <glyph glyph-name="registered" unicode="&#xae;" horiz-adv-x="801" 
d="M544 165l-90 127c54 14 77 62 77 110c0 58 -37 116 -114 116h-137v-353h69v122h23l88 -122h84zM349 450h68c29 0 46 -23 46 -48c0 -24 -17 -47 -48 -47h-66v95zM51 343c0 195 154 354 349 354s350 -159 350 -354s-155 -353 -350 -353s-349 158 -349 353zM112 343
c0 -161 127 -291 288 -291s288 130 288 291s-127 292 -288 292s-288 -131 -288 -292z" />
    <glyph glyph-name="degree" unicode="&#xb0;" horiz-adv-x="373" 
d="M47 558c0 76 63 139 139 139c77 0 140 -63 140 -139c0 -77 -63 -140 -140 -140c-76 0 -139 63 -139 140zM118 558c0 -39 31 -69 68 -69c39 0 69 30 69 69c0 38 -30 68 -69 68c-37 0 -68 -30 -68 -68z" />
    <glyph glyph-name="cent" unicode="&#xa2;" horiz-adv-x="535" 
d="M317 580v-104c70 -6 132 -38 172 -90l-97 -73c-22 30 -59 46 -97 46c-68 0 -131 -48 -131 -124s63 -128 131 -128c38 0 75 17 97 47l98 -72c-41 -53 -103 -85 -173 -91v-113h-69v116c-114 20 -205 111 -205 241c0 129 91 218 205 238v107h69z" />
    <glyph glyph-name="dollar" unicode="$" horiz-adv-x="569" 
d="M252 800h69v-106c110 -14 189 -90 189 -205h-128c0 54 -39 90 -103 90c-57 0 -103 -32 -103 -81c0 -22 8 -59 82 -79l85 -25c154 -42 194 -129 188 -210c-6 -114 -98 -183 -210 -193v-113h-69v113c-127 14 -210 102 -210 210h128c2 -50 45 -97 119 -97
c69 0 111 36 114 83c3 46 -28 76 -95 94l-85 22c-150 44 -174 131 -174 192c0 111 89 189 203 200v105z" />
    <glyph glyph-name="numbersign" unicode="#" horiz-adv-x="699" 
d="M553 515h111l-25 -90h-112l-50 -170h111l-25 -90h-111l-52 -165h-101l50 165h-103l-51 -165h-100l50 165h-110l25 90h110l49 170h-108l24 90h110l51 174h102l-50 -174h103l51 174h102zM321 425l-50 -170h103l51 170h-104z" />
    <glyph glyph-name="currency" unicode="&#xa4;" horiz-adv-x="618" 
d="M202 169l-71 -72l-64 64l71 72c-21 31 -31 66 -31 106s11 76 32 107l-72 72l64 64l72 -72c30 19 67 31 106 31s76 -10 107 -31l71 72l64 -64l-71 -72c19 -32 31 -67 31 -107s-10 -76 -31 -106l71 -72l-64 -64l-71 72c-31 -21 -67 -32 -107 -32s-76 11 -107 32zM217 339
c0 -51 41 -92 92 -92c52 0 93 41 93 92c0 52 -41 93 -93 93c-51 0 -92 -41 -92 -93z" />
    <glyph glyph-name="ampersand" unicode="&#x26;" horiz-adv-x="682" 
d="M297 319c-90 0 -120 -70 -116 -114c7 -58 49 -96 116 -96c63 0 125 45 125 141v69h-125zM283 -10c-133 0 -231 88 -231 208c0 83 39 147 110 178c-43 21 -74 70 -74 133c0 97 81 181 193 185c80 3 147 -35 187 -92l-103 -63c-16 21 -38 37 -69 37c-51 0 -78 -37 -78 -74
c0 -19 13 -84 83 -84h121v82h114v-82h83v-99h-83v-114c0 -77 15 -107 97 -107v-108c-96 1 -157 18 -181 82c-30 -53 -107 -82 -169 -82z" />
    <glyph glyph-name="quotesinglbase" unicode="&#x201a;" horiz-adv-x="250" 
d="M55 -103l-54 26c40 57 84 125 84 243h103c-3 -122 -89 -234 -133 -269z" />
    <glyph glyph-name="quotedblbase" unicode="&#x201e;" horiz-adv-x="413" 
d="M55 -103l-53 26c40 57 83 125 83 243h103c-3 -122 -89 -234 -133 -269zM219 -103l-54 26c40 57 84 125 83 243h103c-3 -122 -88 -234 -132 -269z" />
    <glyph glyph-name="quoteright" unicode="&#x2019;" horiz-adv-x="265" 
d="M95 421l-54 27c40 56 84 124 84 242h103c-3 -122 -89 -234 -133 -269z" />
    <glyph glyph-name="quotedblright" unicode="&#x201d;" horiz-adv-x="427" 
d="M95 421l-54 26c40 57 83 125 83 243h103c-3 -122 -88 -234 -132 -269zM258 421l-54 26c40 57 84 125 83 243h104c-4 -122 -89 -234 -133 -269z" />
    <glyph glyph-name="quotedblleft" unicode="&#x201c;" horiz-adv-x="431" 
d="M349 714l54 -27c-40 -56 -84 -124 -83 -242h-104c4 122 89 234 133 269zM186 714l53 -27c-40 -56 -83 -124 -83 -242h-103c3 122 89 234 133 269z" />
    <glyph glyph-name="quoteleft" unicode="&#x2018;" horiz-adv-x="267" 
d="M185 714l54 -27c-40 -56 -84 -125 -83 -243h-104c4 122 89 234 133 270z" />
    <glyph glyph-name="trademark" unicode="&#x2122;" horiz-adv-x="849" 
d="M330 319l36 301h-107v-301h-78v301h-118v69h378l115 -241l113 241h67l45 -370h-77l-28 238l-91 -197h-58l-92 197l-28 -238h-77z" />
    <glyph glyph-name="germandbls" unicode="&#xdf;" 
d="M223 2l18 115c27 -7 42 -8 59 -8c67 0 112 56 112 115c0 48 -36 115 -116 115h-31v104h24c41 0 67 33 67 73s-32 69 -81 69c-40 0 -86 -15 -86 -124v-461h-120v490c0 132 86 207 201 207c120 0 203 -74 203 -168c0 -59 -21 -94 -63 -122c66 -32 117 -100 117 -189
c0 -127 -81 -228 -226 -228c-26 0 -48 3 -78 12z" />
    <glyph glyph-name="Scaron" unicode="&#x160;" horiz-adv-x="577" 
d="M174 201h-128c0 -118 100 -212 247 -212c126 0 236 71 242 195c6 81 -34 168 -188 210l-85 25c-74 20 -82 57 -82 79c0 49 46 81 103 81c64 0 103 -36 103 -90h128c0 129 -99 208 -229 208c-127 0 -232 -81 -232 -202c0 -61 24 -148 174 -192l85 -22
c67 -18 98 -48 95 -94c-3 -47 -45 -83 -114 -83c-74 0 -117 47 -119 97zM229 766l-109 163h94l76 -89l78 89h94l-110 -163h-123z" />
    <glyph glyph-name="scaron" unicode="&#x161;" horiz-adv-x="454" 
d="M182 195c-121 33 -132 88 -132 143c0 75 79 139 172 139c88 0 178 -40 182 -147h-116c-2 35 -36 48 -63 48c-30 0 -59 -11 -59 -46c0 -19 22 -32 49 -39l78 -19c108 -28 122 -103 122 -140c0 -95 -94 -144 -191 -144c-92 0 -186 56 -188 157h114c3 -33 41 -61 86 -59
c34 1 61 20 61 47c1 24 -17 36 -51 44zM164 544l-109 163h94l76 -89l78 89h94l-110 -163h-123z" />
    <glyph glyph-name="fraction" unicode="&#x2044;" horiz-adv-x="180" 
d="M351 669l-450 -679h-78l452 679h76z" />
    <glyph glyph-name="section" unicode="&#xa7;" horiz-adv-x="532" 
d="M316 213v-110c-20 -5 -32 -7 -48 -7c-112 0 -207 79 -207 204v188c0 125 95 204 207 204c88 0 178 -51 203 -154l-105 -32c-17 54 -58 76 -98 76c-52 0 -96 -36 -96 -94v-188c0 -61 46 -93 100 -93c13 0 24 1 44 6zM216 302v110c20 5 32 7 48 7c112 0 207 -79 207 -204
v-188c0 -125 -95 -204 -207 -204c-88 0 -178 51 -203 154l105 32c17 -54 58 -76 98 -76c52 0 96 36 96 94v188c0 61 -46 93 -100 93c-13 0 -24 -1 -44 -6z" />
    <glyph glyph-name="braceleft" unicode="{" horiz-adv-x="407" 
d="M34 273c30 0 61 22 61 56v162c0 121 90 198 200 198h78v-94h-81c-50 0 -91 -41 -91 -96v-153c0 -57 -30 -100 -68 -115c37 -14 68 -58 68 -114v-147c0 -54 41 -101 91 -101h81v-96h-78c-110 0 -200 77 -200 198v164c0 33 -31 55 -61 55v83z" />
    <glyph glyph-name="braceright" unicode="}" horiz-adv-x="407" 
d="M373 273v-83c-30 0 -61 -22 -61 -55v-164c0 -121 -90 -198 -200 -198h-78v96h81c50 0 91 47 91 101v147c0 56 31 100 68 114c-38 15 -68 58 -68 115v153c0 55 -41 96 -91 96h-81v94h78c110 0 200 -77 200 -198v-162c0 -34 31 -56 61 -56z" />
    <glyph glyph-name="guilsinglleft" unicode="&#x2039;" horiz-adv-x="322" 
d="M41 233l138 207h98l-138 -207l138 -207h-98z" />
    <glyph glyph-name="guilsinglright" unicode="&#x203a;" horiz-adv-x="322" 
d="M281 233l-138 -207h-98l138 207l-138 207h98z" />
    <glyph glyph-name="guillemotleft" unicode="&#xab;" horiz-adv-x="499" 
d="M41 233l138 207h98l-138 -207l138 -207h-98zM218 233l138 207h98l-138 -207l138 -207h-98z" />
    <glyph glyph-name="guillemotright" unicode="&#xbb;" horiz-adv-x="499" 
d="M281 233l-138 -207h-98l138 207l-138 207h98zM458 233l-138 -207h-98l138 207l-138 207h98z" />
    <glyph glyph-name="oe" unicode="&#x153;" horiz-adv-x="919" 
d="M526 276h240c-9 63 -56 99 -117 99c-64 0 -113 -36 -123 -99zM283 109c67 0 122 49 122 125c0 74 -55 123 -122 123s-122 -49 -122 -123c0 -76 55 -125 122 -125zM465 71c-44 -51 -110 -81 -182 -81c-133 0 -243 97 -243 244s110 243 243 243c72 0 138 -30 182 -80
c45 51 111 80 184 80c138 0 224 -92 234 -223c2 -19 2 -40 1 -61h-357c9 -62 60 -100 129 -100c47 0 95 20 117 60c30 -16 64 -34 94 -50c-43 -80 -133 -113 -218 -113c-73 0 -139 29 -184 81z" />
    <glyph glyph-name="question" unicode="?" horiz-adv-x="491" 
d="M258 233l-2 -33h-119l-2 33c0 130 52 153 159 205c31 13 38 43 38 65c0 42 -39 72 -87 72s-85 -34 -85 -87h-121c0 128 87 209 206 209s209 -75 209 -195c0 -97 -60 -165 -138 -189c-41 -13 -58 -33 -58 -80zM119 67c0 43 36 76 79 76s79 -33 79 -76
c0 -45 -36 -77 -79 -77s-79 32 -79 77z" />
    <glyph glyph-name="questiondown" unicode="&#xbf;" horiz-adv-x="482" 
d="M229 231l2 36h119l2 -36c0 -130 -52 -153 -159 -205c-31 -13 -38 -43 -38 -65c0 -42 39 -72 87 -72s85 34 85 87h121c0 -128 -87 -209 -206 -209s-209 75 -209 195c0 97 60 165 138 189c41 13 58 33 58 80zM368 400c0 -43 -36 -76 -79 -76s-79 33 -79 76
c0 45 36 77 79 77s79 -32 79 -77z" />
    <glyph glyph-name="sterling" unicode="&#xa3;" horiz-adv-x="663" 
d="M395 282h-128v-170h190c19 0 40 7 40 31v39h121v-54c0 -72 -48 -128 -116 -128h-459v112h102v170h-81v62h81v126c0 138 83 227 210 227c117 0 216 -72 216 -220h-125c0 70 -44 94 -93 92c-49 -1 -86 -35 -86 -86v-139h128v-62z" />
    <glyph glyph-name="eth" unicode="&#xf0;" 
d="M323 588l157 -209c29 -40 46 -88 46 -145c0 -147 -110 -244 -243 -244c-132 0 -243 97 -243 244c0 134 96 226 212 235c12 1 29 0 44 -3l-63 76l-85 -43l-30 48l80 41l-75 101h123l42 -56l79 39l35 -43zM283 109c68 0 124 49 124 125c0 75 -56 122 -124 122
c-67 0 -123 -47 -123 -122c0 -76 56 -125 123 -125z" />
    <glyph glyph-name="asterisk" unicode="*" horiz-adv-x="474" 
d="M92 381l83 102l-128 36l29 86l123 -48l-8 132h92l-9 -131l125 47l27 -86l-127 -34l84 -105l-72 -51l-72 109l-76 -111z" />
    <glyph glyph-name="parenleft" unicode="(" horiz-adv-x="378" 
d="M42 229c0 277 127 468 302 468v-102c-104 0 -196 -165 -196 -366c0 -200 92 -361 196 -361v-101c-175 0 -302 185 -302 462z" />
    <glyph glyph-name="parenright" unicode=")" horiz-adv-x="378" 
d="M336 229c0 -277 -127 -462 -302 -462v101c104 0 196 161 196 361c0 201 -92 366 -196 366v102c175 0 302 -191 302 -468z" />
    <glyph glyph-name="ae" unicode="&#xe6;" horiz-adv-x="993" 
d="M599 276h240c-8 63 -56 99 -117 99c-64 0 -113 -36 -123 -99zM166 234c0 -75 62 -126 129 -126c66 0 128 46 128 126c0 81 -64 126 -128 126c-67 0 -129 -50 -129 -126zM958 235c0 -12 -1 -31 -2 -42h-356c9 -62 60 -100 129 -100c47 0 95 20 117 60
c29 -16 64 -34 94 -50c-43 -80 -133 -113 -218 -113c-76 0 -144 32 -186 87v-77h-113v60c-30 -48 -99 -69 -145 -69c-123 0 -238 94 -238 243c0 150 115 243 238 243c42 0 111 -16 145 -68v58h113v-75c42 54 110 85 186 85c133 0 236 -95 236 -242z" />
    <glyph glyph-name="macron" unicode="&#xaf;" horiz-adv-x="509" 
d="M120 585v83h269v-83h-269z" />
    <glyph glyph-name="Amacron" unicode="&#x100;" horiz-adv-x="654" 
d="M519 0l-63 167h-257l-63 -167h-136l258 689h138l258 -689h-135zM327 542l-85 -263h172zM192 807v83h269v-83h-269z" />
    <glyph glyph-name="amacron" unicode="&#x101;" horiz-adv-x="614" 
d="M423 0v60c-30 -48 -99 -69 -145 -69c-123 0 -238 94 -238 243c0 150 115 243 238 243c42 0 111 -16 145 -68v58h122v-467h-122zM166 234c0 -75 62 -126 129 -126c66 0 128 46 128 126c0 81 -64 126 -128 126c-67 0 -129 -50 -129 -126zM173 585v83h269v-83h-269z" />
    <glyph glyph-name="Abreve" unicode="&#x102;" horiz-adv-x="654" 
d="M456 167l63 -167h135l-258 689h-138l-258 -689h136l63 167h257zM242 279l85 263l87 -263h-172zM193 909h82c0 -34 16 -55 51 -55s51 27 51 55h83c0 -79 -55 -130 -134 -130c-92 0 -133 64 -133 130z" />
    <glyph glyph-name="abreve" unicode="&#x103;" horiz-adv-x="614" 
d="M423 0v60c-30 -48 -99 -69 -145 -69c-123 0 -238 94 -238 243c0 150 115 243 238 243c42 0 111 -16 145 -68v58h122v-467h-122zM166 234c0 -75 62 -126 129 -126c66 0 128 46 128 126c0 81 -64 126 -128 126c-67 0 -129 -50 -129 -126zM174 687h82c0 -34 16 -55 51 -55
s51 27 51 55h83c0 -79 -55 -130 -134 -130c-92 0 -133 64 -133 130z" />
    <glyph glyph-name="Cacute" unicode="&#x106;" horiz-adv-x="693" 
d="M570 204c-40 -56 -105 -93 -179 -93c-125 0 -219 104 -219 232c0 129 94 233 219 233c73 0 135 -36 175 -88l102 73c-60 83 -160 136 -277 136c-196 0 -347 -158 -347 -354c0 -194 151 -353 347 -353c119 0 220 55 280 140zM438 929h128l-138 -163h-95z" />
    <glyph glyph-name="cacute" unicode="&#x107;" horiz-adv-x="520" 
d="M39 235c0 147 118 242 252 242c78 0 150 -33 194 -91l-97 -73c-22 30 -59 46 -97 46c-68 0 -131 -48 -131 -124s63 -128 131 -128c38 0 75 17 97 47l98 -72c-44 -58 -116 -92 -195 -92c-134 0 -252 98 -252 245zM344 707h128l-138 -163h-95z" />
    <glyph glyph-name="Ccircumflex" unicode="&#x108;" horiz-adv-x="693" 
d="M570 204l101 -74c-60 -85 -161 -140 -280 -140c-196 0 -347 159 -347 353c0 196 151 354 347 354c117 0 217 -53 277 -136l-102 -73c-40 52 -102 88 -175 88c-125 0 -219 -104 -219 -233c0 -128 94 -232 219 -232c74 0 139 37 179 93zM328 932h123l110 -163h-94l-78 88
l-76 -88h-94z" />
    <glyph glyph-name="ccircumflex" unicode="&#x109;" horiz-adv-x="520" 
d="M39 235c0 147 118 242 252 242c78 0 150 -33 194 -91l-97 -73c-22 30 -59 46 -97 46c-68 0 -131 -48 -131 -124s63 -128 131 -128c38 0 75 17 97 47l98 -72c-44 -58 -116 -92 -195 -92c-134 0 -252 98 -252 245zM223 710h123l110 -163h-94l-78 88l-76 -88h-94z" />
    <glyph glyph-name="Cdotaccent" unicode="&#x10a;" horiz-adv-x="693" 
d="M570 204c-40 -56 -105 -93 -179 -93c-125 0 -219 104 -219 232c0 129 94 233 219 233c73 0 135 -36 175 -88l102 73c-60 83 -160 136 -277 136c-196 0 -347 -158 -347 -354c0 -194 151 -353 347 -353c119 0 220 55 280 140zM314 850c0 39 33 69 72 69c41 0 73 -30 73 -69
c0 -41 -32 -70 -73 -70c-39 0 -72 29 -72 70z" />
    <glyph glyph-name="cdotaccent" unicode="&#x10b;" horiz-adv-x="520" 
d="M39 235c0 147 118 242 252 242c78 0 150 -33 194 -91l-97 -73c-22 30 -59 46 -97 46c-68 0 -131 -48 -131 -124s63 -128 131 -128c38 0 75 17 97 47l98 -72c-44 -58 -116 -92 -195 -92c-134 0 -252 98 -252 245zM219 628c0 39 33 69 72 69c41 0 73 -30 73 -69
c0 -41 -32 -70 -73 -70c-39 0 -72 29 -72 70z" />
    <glyph glyph-name="Ccaron" unicode="&#x10c;" horiz-adv-x="693" 
d="M570 204c-40 -56 -105 -93 -179 -93c-125 0 -219 104 -219 232c0 129 94 233 219 233c73 0 135 -36 175 -88l102 73c-60 83 -160 136 -277 136c-196 0 -347 -158 -347 -354c0 -194 151 -353 347 -353c119 0 220 55 280 140zM322 766l-109 163h94l76 -89l78 89h94
l-110 -163h-123z" />
    <glyph glyph-name="ccaron" unicode="&#x10d;" horiz-adv-x="520" 
d="M39 235c0 147 118 242 252 242c78 0 150 -33 194 -91l-97 -73c-22 30 -59 46 -97 46c-68 0 -131 -48 -131 -124s63 -128 131 -128c38 0 75 17 97 47l98 -72c-44 -58 -116 -92 -195 -92c-134 0 -252 98 -252 245zM219 544l-109 163h94l76 -89l78 89h94l-110 -163h-123z
" />
    <glyph glyph-name="Dcaron" unicode="&#x10e;" horiz-adv-x="714" 
d="M214 117v455h141c122 0 183 -104 183 -229c0 -124 -61 -226 -183 -226h-141zM355 0c197 0 311 148 311 343c0 196 -114 346 -311 346h-269v-689h269zM293 766l-109 163h94l76 -89l78 89h94l-110 -163h-123z" />
    <glyph glyph-name="Aogonek" unicode="&#x104;" horiz-adv-x="654" 
d="M518 0l-62 167h-257l-63 -167h-136l258 689h138l258 -689h-72l-35 -96c-6 -19 -1 -39 17 -46c18 -5 36 3 43 20c5 12 5 25 5 25l69 4c1 -77 -49 -120 -102 -120c-59 0 -105 49 -105 102c0 13 0 30 9 46zM327 542l-85 -263h172z" />
    <glyph glyph-name="aogonek" unicode="&#x105;" horiz-adv-x="614" 
d="M423 0v60c-30 -48 -99 -69 -145 -69c-123 0 -238 94 -238 243c0 150 115 243 238 243c42 0 111 -16 145 -68v58h122v-467h-58l-35 -96c-6 -19 -1 -39 17 -46c18 -5 36 3 43 20c5 12 5 25 5 25l69 4c1 -77 -49 -120 -102 -120c-59 0 -105 49 -105 102c0 13 0 30 9 46z
M166 234c0 -75 62 -126 129 -126c66 0 128 46 128 126c0 81 -64 126 -128 126c-67 0 -129 -50 -129 -126z" />
    <glyph glyph-name="Emacron" unicode="&#x112;" horiz-adv-x="572" 
d="M86 0v689h426v-114h-299v-179h262v-113h-262v-169h309v-114h-436zM165 807v83h269v-83h-269z" />
    <glyph glyph-name="emacron" unicode="&#x113;" horiz-adv-x="553" 
d="M519 235c0 -12 -1 -31 -2 -42h-356c8 -62 60 -100 129 -100c47 0 95 20 117 60c29 -16 63 -34 93 -50c-42 -80 -132 -113 -218 -113c-133 0 -242 98 -242 245s109 242 242 242s237 -95 237 -242zM160 276h240c-9 64 -57 99 -117 99c-64 0 -114 -36 -123 -99zM145 585v83
h269v-83h-269z" />
    <glyph glyph-name="Ebreve" unicode="&#x114;" horiz-adv-x="572" 
d="M86 689v-689h436v114h-309v169h262v113h-262v179h299v114h-426zM150 909h82c0 -34 16 -55 51 -55s51 27 51 55h83c0 -79 -55 -130 -134 -130c-92 0 -133 64 -133 130z" />
    <glyph glyph-name="ebreve" unicode="&#x115;" horiz-adv-x="553" 
d="M519 235c0 147 -104 242 -237 242s-242 -95 -242 -242s109 -245 242 -245c86 0 176 33 218 113c-30 16 -64 34 -93 50c-22 -40 -70 -60 -117 -60c-69 0 -121 38 -129 100h356c1 11 2 30 2 42zM160 276c9 63 59 99 123 99c60 0 108 -35 117 -99h-240zM146 687h82
c0 -34 16 -55 51 -55s51 27 51 55h83c0 -79 -55 -130 -134 -130c-92 0 -133 64 -133 130z" />
    <glyph glyph-name="Edotaccent" unicode="&#x116;" horiz-adv-x="572" 
d="M86 689v-689h436v114h-309v169h262v113h-262v179h299v114h-426zM229 850c0 39 33 69 72 69c41 0 73 -30 73 -69c0 -41 -32 -70 -73 -70c-39 0 -72 29 -72 70z" />
    <glyph glyph-name="edotaccent" unicode="&#x117;" horiz-adv-x="553" 
d="M519 235c0 147 -104 242 -237 242s-242 -95 -242 -242s109 -245 242 -245c86 0 176 33 218 113c-30 16 -64 34 -93 50c-22 -40 -70 -60 -117 -60c-69 0 -121 38 -129 100h356c1 11 2 30 2 42zM160 276c9 63 59 99 123 99c60 0 108 -35 117 -99h-240zM207 628
c0 39 33 69 72 69c41 0 73 -30 73 -69c0 -41 -32 -70 -73 -70c-39 0 -72 29 -72 70z" />
    <glyph glyph-name="Ecaron" unicode="&#x11a;" horiz-adv-x="572" 
d="M86 689v-689h436v114h-309v169h262v113h-262v179h299v114h-426zM235 766l-109 163h94l76 -89l78 89h94l-110 -163h-123z" />
    <glyph glyph-name="ecaron" unicode="&#x11b;" horiz-adv-x="553" 
d="M519 235c0 147 -104 242 -237 242s-242 -95 -242 -242s109 -245 242 -245c86 0 176 33 218 113c-30 16 -64 34 -93 50c-22 -40 -70 -60 -117 -60c-69 0 -121 38 -129 100h356c1 11 2 30 2 42zM160 276c9 63 59 99 123 99c60 0 108 -35 117 -99h-240zM218 544l-109 163h94
l76 -89l78 89h94l-110 -163h-123z" />
    <glyph glyph-name="Gcircumflex" unicode="&#x11c;" horiz-adv-x="756" 
d="M645 592l-94 -82c-40 41 -94 67 -156 67c-126 0 -223 -105 -223 -234c0 -128 97 -235 223 -235c92 0 183 55 186 143h-189v105h336c0 -252 -135 -366 -333 -366c-197 0 -351 159 -351 353c0 196 154 354 351 354c101 0 190 -41 250 -105zM319 932h123l110 -163h-94
l-78 88l-76 -88h-94z" />
    <glyph glyph-name="gcircumflex" unicode="&#x11d;" horiz-adv-x="611" 
d="M420 234c0 81 -60 126 -127 126c-68 0 -126 -51 -126 -126c0 -78 58 -128 126 -128c63 0 127 49 127 128zM157 -45c20 -46 75 -77 124 -77c118 0 149 88 142 186c-24 -47 -88 -74 -149 -74c-122 0 -234 95 -234 242c0 150 112 245 234 245c61 0 123 -26 149 -73v63h119
v-400c0 -208 -99 -300 -261 -300c-97 0 -182 53 -223 138c27 13 72 37 99 50zM244 710h123l110 -163h-94l-78 88l-76 -88h-94z" />
    <glyph glyph-name="Gbreve" unicode="&#x11e;" horiz-adv-x="756" 
d="M645 592c-60 64 -149 105 -250 105c-197 0 -351 -158 -351 -354c0 -194 154 -353 351 -353c198 0 333 114 333 366h-336v-105h189c-3 -88 -94 -143 -186 -143c-126 0 -223 107 -223 235c0 129 97 234 223 234c62 0 116 -26 156 -67zM247 909h82c0 -34 16 -55 51 -55
s51 27 51 55h83c0 -79 -55 -130 -134 -130c-92 0 -133 64 -133 130z" />
    <glyph glyph-name="gbreve" unicode="&#x11f;" horiz-adv-x="611" 
d="M420 234c0 -79 -64 -128 -127 -128c-68 0 -126 50 -126 128c0 75 58 126 126 126c67 0 127 -45 127 -126zM157 -45c-27 -13 -72 -37 -99 -50c41 -85 126 -138 223 -138c162 0 261 92 261 300v400h-119v-63c-26 47 -88 73 -149 73c-122 0 -234 -95 -234 -245
c0 -147 112 -242 234 -242c61 0 125 27 149 74c7 -98 -24 -186 -142 -186c-49 0 -104 31 -124 77zM172 687h82c0 -34 16 -55 51 -55s51 27 51 55h83c0 -79 -55 -130 -134 -130c-92 0 -133 64 -133 130z" />
    <glyph glyph-name="Eogonek" unicode="&#x118;" horiz-adv-x="572" 
d="M522 0l-37 -96c-6 -19 -1 -39 17 -46c18 -5 36 3 43 20c5 12 5 25 5 25l69 4c1 -77 -49 -120 -102 -120c-59 0 -105 49 -105 102c0 13 0 30 9 46l35 65h-370v689h426v-114h-299v-179h262v-113h-262v-169h309v-114z" />
    <glyph glyph-name="eogonek" unicode="&#x119;" horiz-adv-x="554" 
d="M384 -96c-6 -19 -1 -39 17 -46c18 -5 36 3 43 20c5 12 5 25 5 25l69 4c1 -77 -49 -120 -102 -120c-59 0 -105 49 -105 102c0 13 0 30 9 46l34 64c-23 -6 -48 -9 -72 -9c-133 0 -242 98 -242 245s109 242 242 242s237 -95 237 -242c0 -12 -1 -31 -2 -42h-356
c8 -62 60 -100 129 -100c47 0 95 20 117 60l93 -50c-34 -54 -75 -66 -116 -199zM160 276h240c-9 64 -57 99 -117 99c-64 0 -114 -36 -123 -99z" />
    <glyph glyph-name="dcaron" unicode="&#x10f;" horiz-adv-x="651" 
d="M416 0v63c-26 -47 -86 -73 -147 -73c-122 0 -229 95 -229 243c0 149 106 244 229 244c62 0 121 -25 147 -72v316h121v-721h-121zM414 235c0 80 -62 126 -125 126c-68 0 -123 -50 -123 -126c0 -77 55 -128 123 -128c67 0 125 50 125 128zM646 452l-75 25
c41 57 68 123 65 212h107c-6 -120 -52 -201 -97 -237z" />
    <glyph glyph-name="Dcroat" unicode="&#x110;" horiz-adv-x="722" 
d="M3 293v88h94v308h267c198 0 310 -150 310 -346c0 -195 -112 -343 -310 -343h-267v293h-94zM224 293v-174h140c122 0 183 100 183 224s-61 227 -183 227h-140v-189h138v-88h-138z" />
    <glyph glyph-name="dcroat" unicode="&#x111;" horiz-adv-x="606" 
d="M267 558v77h149v86h121v-86h76v-77h-76v-558h-121v63c-26 -47 -86 -73 -147 -73c-122 0 -229 95 -229 243c0 149 106 244 229 244c62 0 121 -25 147 -72v153h-149zM414 235c0 80 -62 126 -125 126c-68 0 -123 -50 -123 -126c0 -77 55 -128 123 -128c67 0 125 50 125 128z
" />
    <glyph glyph-name="Gdotaccent" unicode="&#x120;" horiz-adv-x="756" 
d="M645 592c-60 64 -149 105 -250 105c-197 0 -351 -158 -351 -354c0 -194 154 -353 351 -353c198 0 333 114 333 366h-336v-105h189c-3 -88 -94 -143 -186 -143c-126 0 -223 107 -223 235c0 129 97 234 223 234c62 0 116 -26 156 -67zM308 850c0 39 33 69 72 69
c41 0 73 -30 73 -69c0 -41 -32 -70 -73 -70c-39 0 -72 29 -72 70z" />
    <glyph glyph-name="gdotaccent" unicode="&#x121;" horiz-adv-x="611" 
d="M420 234c0 -79 -64 -128 -127 -128c-68 0 -126 50 -126 128c0 75 58 126 126 126c67 0 127 -45 127 -126zM157 -45c-27 -13 -72 -37 -99 -50c41 -85 126 -138 223 -138c162 0 261 92 261 300v400h-119v-63c-26 47 -88 73 -149 73c-122 0 -234 -95 -234 -245
c0 -147 112 -242 234 -242c61 0 125 27 149 74c7 -98 -24 -186 -142 -186c-49 0 -104 31 -124 77zM233 628c0 39 33 69 72 69c41 0 73 -30 73 -69c0 -41 -32 -70 -73 -70c-39 0 -72 29 -72 70z" />
    <glyph glyph-name="Hcircumflex" unicode="&#x124;" horiz-adv-x="704" 
d="M489 689h129v-689h-129v285h-276v-285h-127v689h127v-289h276v289zM290 932h123l110 -163h-94l-78 88l-76 -88h-94z" />
    <glyph glyph-name="hcircumflex" unicode="&#x125;" horiz-adv-x="587" 
d="M191 249v-249h-122v721h122v-326c22 57 99 82 145 82c121 0 188 -80 188 -217v-260h-122v254c0 67 -49 104 -99 104c-51 0 -112 -28 -112 -109zM70 927h123l110 -163h-94l-78 88l-76 -88h-94z" />
    <glyph glyph-name="Hbar" unicode="&#x126;" horiz-adv-x="716" 
d="M92 508h-71v75h71v106h128v-106h275v106h129v-106h71v-75h-71v-508h-129v284h-275v-284h-128v508zM220 400h275v108h-275v-108z" />
    <glyph glyph-name="hbar" unicode="&#x127;" horiz-adv-x="581" 
d="M191 249v-249h-122v558h-74v77h74v86h122v-86h142v-77h-142v-163c22 57 92 82 139 82c121 0 188 -80 188 -217v-260h-123v254c0 67 -44 104 -94 104c-51 0 -110 -28 -110 -109z" />
    <glyph glyph-name="Itilde" unicode="&#x128;" horiz-adv-x="299" 
d="M86 0v689h127v-689h-127zM105 829c-8 0 -25 -11 -26 -43h-70c5 95 55 125 96 125c43 0 63 -41 88 -41c8 0 26 9 27 41h70c-5 -94 -58 -123 -97 -123c-42 0 -65 41 -88 41z" />
    <glyph glyph-name="itilde" unicode="&#x129;" horiz-adv-x="259" 
d="M69 467h121v-467h-121v467zM85 607c-8 0 -25 -11 -26 -43h-70c5 95 55 125 96 125c43 0 63 -41 88 -41c8 0 26 9 27 41h70c-5 -94 -58 -123 -97 -123c-42 0 -65 41 -88 41z" />
    <glyph glyph-name="Imacron" unicode="&#x12a;" horiz-adv-x="299" 
d="M86 0v689h127v-689h-127zM15 807v83h269v-83h-269z" />
    <glyph glyph-name="imacron" unicode="&#x12b;" horiz-adv-x="259" 
d="M69 467h121v-467h-121v467zM-4 585v83h269v-83h-269z" />
    <glyph glyph-name="Iogonek" unicode="&#x12e;" horiz-adv-x="299" 
d="M150 0l-35 -96c-6 -19 -1 -39 17 -46c18 -5 36 3 43 20c5 12 5 25 5 25l69 4c1 -77 -49 -120 -102 -120c-59 0 -105 49 -105 102c0 13 0 30 9 46l35 65v689h127v-689h-63z" />
    <glyph glyph-name="iogonek" unicode="&#x12f;" horiz-adv-x="259" 
d="M159 -122c5 12 5 25 5 25l69 4c1 -77 -49 -120 -102 -120c-59 0 -105 49 -105 102c0 13 0 30 9 46l34 65v467h121v-467h-56l-35 -96c-6 -19 -1 -39 17 -46c18 -5 36 3 43 20zM51 648c0 41 36 73 79 73c42 0 77 -32 77 -73c0 -42 -35 -74 -77 -74c-43 0 -79 32 -79 74z
" />
    <glyph glyph-name="Idotaccent" unicode="&#x130;" horiz-adv-x="299" 
d="M86 689v-689h127v689h-127zM77 850c0 39 33 69 72 69c41 0 73 -30 73 -69c0 -41 -32 -70 -73 -70c-39 0 -72 29 -72 70z" />
    <glyph glyph-name="IJ" unicode="&#x132;" horiz-adv-x="599" 
d="M86 0v689h127v-689h-127zM200 -218l12 116c24 -8 73 -10 80 -10c67 0 93 50 93 109v692h128v-692c0 -125 -60 -230 -221 -230c-19 0 -60 7 -92 15z" />
    <glyph glyph-name="ij" unicode="&#x133;" horiz-adv-x="520" 
d="M190 467v-467h-121v467h121zM51 648c0 41 36 73 79 73c42 0 77 -32 77 -73c0 -42 -35 -74 -77 -74c-43 0 -79 32 -79 74zM200 -233v112h59c59 0 70 48 69 88v500h123v-498c0 -121 -44 -202 -174 -202h-77zM311 648c0 41 36 73 78 73c44 0 78 -32 78 -73
c0 -42 -34 -74 -78 -74c-42 0 -78 32 -78 74z" />
    <glyph glyph-name="Jcircumflex" unicode="&#x134;" horiz-adv-x="300" 
d="M-99 -218l12 116c24 -8 73 -10 80 -10c67 0 93 50 93 109v692h128v-692c0 -125 -60 -230 -221 -230c-19 0 -60 7 -92 15zM86 932h123l110 -163h-94l-78 88l-76 -88h-94z" />
    <glyph glyph-name="jcircumflex" unicode="&#x135;" horiz-adv-x="261" 
d="M-59 -233v112h59c59 0 70 48 69 88v500h123v-498c0 -121 -44 -202 -174 -202h-77zM76 710h123l110 -163h-94l-78 88l-76 -88h-94z" />
    <glyph glyph-name="kgreenlandic" unicode="&#x138;" horiz-adv-x="498" 
d="M340 0l-150 159v-159h-121v467h121v-154l130 154h147l-203 -230l230 -237h-154z" />
    <glyph glyph-name="Lacute" unicode="&#x139;" horiz-adv-x="506" 
d="M86 689v-689h394v114h-266v575h-128zM196 929h128l-138 -163h-95z" />
    <glyph glyph-name="lacute" unicode="&#x13a;" horiz-adv-x="260" 
d="M69 721v-721h122v721h-122zM179 929h128l-138 -163h-95z" />
    <glyph glyph-name="Lcaron" unicode="&#x13d;" horiz-adv-x="508" 
d="M86 0v689h128v-575h266v-114h-394zM356 452l-75 25c41 57 68 123 65 212h107c-6 -120 -52 -201 -97 -237z" />
    <glyph glyph-name="lcaron" unicode="&#x13e;" horiz-adv-x="260" 
d="M300 484l-75 25c41 57 68 123 65 212h107c-6 -120 -52 -201 -97 -237zM69 721v-721h122v721h-122z" />
    <glyph glyph-name="Ldot" unicode="&#x13f;" horiz-adv-x="506" 
d="M86 0v689h128v-575h266v-114h-394zM265 313c0 44 36 76 78 76c44 0 80 -32 80 -76s-36 -76 -80 -76c-42 0 -78 32 -78 76z" />
    <glyph glyph-name="ldot" unicode="&#x140;" horiz-adv-x="394" 
d="M69 0v721h122v-721h-122zM248 313c0 44 36 76 78 76c44 0 80 -32 80 -76s-36 -76 -80 -76c-42 0 -78 32 -78 76z" />
    <glyph glyph-name="Nacute" unicode="&#x143;" horiz-adv-x="682" 
d="M596 0v689h-128v-448l-263 448h-119v-689h127v453l266 -453h117zM378 929h128l-138 -163h-95z" />
    <glyph glyph-name="nacute" unicode="&#x144;" 
d="M191 249v-249h-122v467h122v-69c26 50 85 79 139 79c109 0 174 -69 174 -201v-276h-122v254c0 68 -36 104 -89 104c-55 0 -102 -28 -102 -109zM319 707h128l-138 -163h-95z" />
    <glyph glyph-name="Ncaron" unicode="&#x147;" horiz-adv-x="682" 
d="M596 0v689h-128v-448l-263 448h-119v-689h127v453l266 -453h117zM279 766l-109 163h94l76 -89l78 89h94l-110 -163h-123z" />
    <glyph glyph-name="ncaron" unicode="&#x148;" 
d="M191 249v-249h-122v467h122v-69c26 50 85 79 139 79c109 0 174 -69 174 -201v-276h-122v254c0 68 -36 104 -89 104c-55 0 -102 -28 -102 -109zM222 544l-109 163h94l76 -89l78 89h94l-110 -163h-123z" />
    <glyph glyph-name="napostrophe" unicode="&#x149;" 
d="M191 249v-249h-122v467h122v-69c26 50 85 79 139 79c109 0 174 -69 174 -201v-276h-122v254c0 68 -36 104 -89 104c-55 0 -102 -28 -102 -109zM1 478l-71 21c38 52 48 102 39 171h110c1 -105 -38 -159 -78 -192z" />
    <glyph glyph-name="Omacron" unicode="&#x14c;" horiz-adv-x="787" 
d="M171 343c0 -126 97 -227 222 -227c124 0 222 101 222 227s-98 228 -222 228c-125 0 -222 -102 -222 -228zM44 343c0 196 153 354 349 354s350 -158 350 -354c0 -194 -154 -353 -350 -353s-349 159 -349 353zM259 807v83h269v-83h-269z" />
    <glyph glyph-name="omacron" unicode="&#x14d;" horiz-adv-x="566" 
d="M283 110c67 0 122 49 122 125c0 74 -55 122 -122 122s-122 -48 -122 -122c0 -76 55 -125 122 -125zM283 -9c-133 0 -243 97 -243 244s110 242 243 242c132 0 243 -95 243 -242s-111 -244 -243 -244zM148 585v83h269v-83h-269z" />
    <glyph glyph-name="Obreve" unicode="&#x14e;" horiz-adv-x="787" 
d="M171 343c0 126 97 228 222 228c124 0 222 -102 222 -228s-98 -227 -222 -227c-125 0 -222 101 -222 227zM44 343c0 -194 153 -353 349 -353s350 159 350 353c0 196 -154 354 -350 354s-349 -158 -349 -354zM260 909h82c0 -34 16 -55 51 -55s51 27 51 55h83
c0 -79 -55 -130 -134 -130c-92 0 -133 64 -133 130z" />
    <glyph glyph-name="obreve" unicode="&#x14f;" horiz-adv-x="566" 
d="M283 110c-67 0 -122 49 -122 125c0 74 55 122 122 122s122 -48 122 -122c0 -76 -55 -125 -122 -125zM283 -9c132 0 243 97 243 244s-111 242 -243 242c-133 0 -243 -95 -243 -242s110 -244 243 -244zM149 687h82c0 -34 16 -55 51 -55s51 27 51 55h83
c0 -79 -55 -130 -134 -130c-92 0 -133 64 -133 130z" />
    <glyph glyph-name="Ohungarumlaut" unicode="&#x150;" horiz-adv-x="787" 
d="M171 343c0 126 97 228 222 228c124 0 222 -102 222 -228s-98 -227 -222 -227c-125 0 -222 101 -222 227zM44 343c0 -194 153 -353 349 -353s350 159 350 353c0 196 -154 354 -350 354s-349 -158 -349 -354zM632 929l-121 -163h-97l111 163h107zM476 929l-110 -163h-94
l99 163h105z" />
    <glyph glyph-name="ohungarumlaut" unicode="&#x151;" horiz-adv-x="566" 
d="M283 110c-67 0 -122 49 -122 125c0 74 55 122 122 122s122 -48 122 -122c0 -76 -55 -125 -122 -125zM283 -9c132 0 243 97 243 244s-111 242 -243 242c-133 0 -243 -95 -243 -242s110 -244 243 -244zM520 707l-121 -163h-97l111 163h107zM364 707l-110 -163h-94l99 163
h105z" />
    <glyph glyph-name="Racute" unicode="&#x154;" horiz-adv-x="631" 
d="M356 575c64 0 93 -59 93 -109c0 -51 -30 -107 -97 -107h-138v216h142zM407 250c122 20 175 117 175 216c0 112 -68 223 -220 223h-276v-689h128v245h53l162 -245h154zM328 929h128l-138 -163h-95z" />
    <glyph glyph-name="racute" unicode="&#x155;" horiz-adv-x="411" 
d="M181 707h128l-138 -163h-95zM191 165c0 124 34 198 117 198c12 0 42 0 71 -13l21 110c-19 10 -44 17 -77 17c-53 0 -108 -35 -132 -120v110h-122v-467h122v165z" />
    <glyph glyph-name="Rcaron" unicode="&#x158;" horiz-adv-x="631" 
d="M356 575c64 0 93 -59 93 -109c0 -51 -30 -107 -97 -107h-138v216h142zM407 250c122 20 175 117 175 216c0 112 -68 223 -220 223h-276v-689h128v245h53l162 -245h154zM250 766l-109 163h94l76 -89l78 89h94l-110 -163h-123z" />
    <glyph glyph-name="rcaron" unicode="&#x159;" horiz-adv-x="411" 
d="M153 544l-109 163h94l76 -89l78 89h94l-110 -163h-123zM191 165c0 124 34 198 117 198c12 0 42 0 71 -13l21 110c-19 10 -44 17 -77 17c-53 0 -108 -35 -132 -120v110h-122v-467h122v165z" />
    <glyph glyph-name="Sacute" unicode="&#x15a;" horiz-adv-x="577" 
d="M174 201h-128c0 -118 100 -212 247 -212c126 0 236 71 242 195c6 81 -34 168 -188 210l-85 25c-74 20 -82 57 -82 79c0 49 46 81 103 81c64 0 103 -36 103 -90h128c0 129 -99 208 -229 208c-127 0 -232 -81 -232 -202c0 -61 24 -148 174 -192l85 -22
c67 -18 98 -48 95 -94c-3 -47 -45 -83 -114 -83c-74 0 -117 47 -119 97zM344 929h128l-138 -163h-95z" />
    <glyph glyph-name="sacute" unicode="&#x15b;" horiz-adv-x="454" 
d="M182 195c-121 33 -132 88 -132 143c0 75 79 139 172 139c88 0 178 -40 182 -147h-116c-2 35 -36 48 -63 48c-30 0 -59 -11 -59 -46c0 -19 22 -32 49 -39l78 -19c108 -28 122 -103 122 -140c0 -95 -94 -144 -191 -144c-92 0 -186 56 -188 157h114c3 -33 41 -61 86 -59
c34 1 61 20 61 47c1 24 -17 36 -51 44zM268 707h128l-138 -163h-95z" />
    <glyph glyph-name="Scircumflex" unicode="&#x15c;" horiz-adv-x="577" 
d="M46 201h128c2 -50 45 -97 119 -97c69 0 111 36 114 83c3 46 -28 76 -95 94l-85 22c-150 44 -174 131 -174 192c0 121 105 202 232 202c130 0 229 -79 229 -208h-128c0 54 -39 90 -103 90c-57 0 -103 -32 -103 -81c0 -22 8 -59 82 -79l85 -25c154 -42 194 -129 188 -210
c-6 -124 -116 -195 -242 -195c-147 0 -247 94 -247 212zM229 932h123l110 -163h-94l-78 88l-76 -88h-94z" />
    <glyph glyph-name="scircumflex" unicode="&#x15d;" horiz-adv-x="454" 
d="M182 195c-121 33 -132 88 -132 143c0 75 79 139 172 139c88 0 178 -40 182 -147h-116c-2 35 -36 48 -63 48c-30 0 -59 -11 -59 -46c0 -19 22 -32 49 -39l78 -19c108 -28 122 -103 122 -140c0 -95 -94 -144 -191 -144c-92 0 -186 56 -188 157h114c3 -33 41 -61 86 -59
c34 1 61 20 61 47c1 24 -17 36 -51 44zM164 710h123l110 -163h-94l-78 88l-76 -88h-94z" />
    <glyph glyph-name="scedilla" unicode="&#x15f;" horiz-adv-x="455" 
d="M288 -2l34 -63c9 -16 9 -33 9 -46c0 -53 -46 -102 -105 -102c-53 0 -103 43 -102 120l69 -4s0 -13 5 -25c7 -17 25 -25 43 -20c18 7 23 27 17 46l-32 86h-1c-92 0 -186 56 -188 157h114c3 -33 41 -61 86 -59c34 1 61 20 61 47c1 24 -17 36 -51 44l-64 16
c-121 33 -132 88 -132 143c0 75 79 139 172 139c88 0 178 -40 182 -147h-116c-2 35 -36 48 -63 48c-30 0 -59 -11 -59 -46c0 -19 22 -32 49 -39l78 -19c108 -28 122 -103 122 -140c0 -74 -57 -120 -128 -136z" />
    <glyph glyph-name="Scedilla" unicode="&#x15e;" horiz-adv-x="579" 
d="M246 -122c7 -17 25 -25 43 -20c18 7 23 27 17 46l-32 86c-136 8 -227 98 -227 211h128c2 -50 45 -97 119 -97c69 0 111 36 114 83c3 46 -28 76 -95 94l-85 22c-150 44 -174 131 -174 192c0 121 105 202 232 202c130 0 229 -79 229 -208h-128c0 54 -39 90 -103 90
c-57 0 -103 -32 -103 -81c0 -22 8 -59 82 -79l85 -25c154 -42 194 -129 188 -210c-6 -109 -91 -177 -197 -192l31 -57c9 -16 9 -33 9 -46c0 -53 -46 -102 -105 -102c-53 0 -103 43 -102 120l69 -4s0 -13 5 -25z" />
    <glyph glyph-name="Utilde" unicode="&#x168;" horiz-adv-x="681" 
d="M341 111c70 0 133 52 133 132v446h128v-446c0 -154 -121 -253 -261 -253s-262 99 -262 253v446h130v-446c0 -80 62 -132 132 -132zM296 829c-8 0 -25 -11 -26 -43h-70c5 95 55 125 96 125c43 0 63 -41 88 -41c8 0 26 9 27 41h70c-5 -94 -58 -123 -97 -123
c-42 0 -65 41 -88 41z" />
    <glyph glyph-name="utilde" unicode="&#x169;" 
d="M376 218v249h122v-467h-122v66c-26 -50 -82 -76 -129 -76c-110 0 -184 69 -184 201v276h123v-254c0 -76 46 -104 89 -104c51 0 101 28 101 109zM246 607c-8 0 -25 -11 -26 -43h-70c5 95 55 125 96 125c43 0 63 -41 88 -41c8 0 26 9 27 41h70c-5 -94 -58 -123 -97 -123
c-42 0 -65 41 -88 41z" />
    <glyph glyph-name="Umacron" unicode="&#x16a;" horiz-adv-x="681" 
d="M341 111c70 0 133 52 133 132v446h128v-446c0 -154 -121 -253 -261 -253s-262 99 -262 253v446h130v-446c0 -80 62 -132 132 -132zM206 807v83h269v-83h-269z" />
    <glyph glyph-name="umacron" unicode="&#x16b;" 
d="M376 218v249h122v-467h-122v66c-26 -50 -82 -76 -129 -76c-110 0 -184 69 -184 201v276h123v-254c0 -76 46 -104 89 -104c51 0 101 28 101 109zM156 585v83h269v-83h-269z" />
    <glyph glyph-name="Ubreve" unicode="&#x16c;" horiz-adv-x="681" 
d="M341 111c70 0 133 52 133 132v446h128v-446c0 -154 -121 -253 -261 -253s-262 99 -262 253v446h130v-446c0 -80 62 -132 132 -132zM207 909h82c0 -34 16 -55 51 -55s51 27 51 55h83c0 -79 -55 -130 -134 -130c-92 0 -133 64 -133 130z" />
    <glyph glyph-name="ubreve" unicode="&#x16d;" 
d="M376 218v249h122v-467h-122v66c-26 -50 -82 -76 -129 -76c-110 0 -184 69 -184 201v276h123v-254c0 -76 46 -104 89 -104c51 0 101 28 101 109zM157 687h82c0 -34 16 -55 51 -55s51 27 51 55h83c0 -79 -55 -130 -134 -130c-92 0 -133 64 -133 130z" />
    <glyph glyph-name="Uring" unicode="&#x16e;" horiz-adv-x="681" 
d="M341 111c70 0 133 52 133 132v446h128v-446c0 -154 -121 -253 -261 -253s-262 99 -262 253v446h130v-446c0 -80 62 -132 132 -132zM225 876c0 66 51 117 114 117c66 0 117 -51 117 -117c0 -64 -51 -114 -117 -114c-63 0 -114 50 -114 114zM282 876c0 -32 26 -57 57 -57
c33 0 59 25 59 57c0 33 -26 59 -59 59c-31 0 -57 -26 -57 -59z" />
    <glyph glyph-name="uring" unicode="&#x16f;" 
d="M376 218v249h122v-467h-122v66c-26 -50 -82 -76 -129 -76c-110 0 -184 69 -184 201v276h123v-254c0 -76 46 -104 89 -104c51 0 101 28 101 109zM175 654c0 66 51 117 114 117c66 0 117 -51 117 -117c0 -64 -51 -114 -117 -114c-63 0 -114 50 -114 114zM232 654
c0 -32 26 -57 57 -57c33 0 59 25 59 57c0 33 -26 59 -59 59c-31 0 -57 -26 -57 -59z" />
    <glyph glyph-name="Uhungarumlaut" unicode="&#x170;" horiz-adv-x="681" 
d="M341 111c70 0 133 52 133 132v446h128v-446c0 -154 -121 -253 -261 -253s-262 99 -262 253v446h130v-446c0 -80 62 -132 132 -132zM582 929l-121 -163h-97l111 163h107zM426 929l-110 -163h-94l99 163h105z" />
    <glyph glyph-name="uhungarumlaut" unicode="&#x171;" 
d="M376 218v249h122v-467h-122v66c-26 -50 -82 -76 -129 -76c-110 0 -184 69 -184 201v276h123v-254c0 -76 46 -104 89 -104c51 0 101 28 101 109zM503 707l-121 -163h-97l111 163h107zM347 707l-110 -163h-94l99 163h105z" />
    <glyph glyph-name="Uogonek" unicode="&#x172;" horiz-adv-x="681" 
d="M399 -122c5 12 5 25 5 25l69 4c1 -77 -49 -120 -102 -120c-59 0 -105 49 -105 102c0 13 0 30 9 46l31 57c-125 15 -227 110 -227 251v446h130v-446c0 -80 62 -132 132 -132s133 52 133 132v446h128v-446c0 -143 -104 -239 -231 -251l-32 -88c-6 -19 -1 -39 17 -46
c18 -5 36 3 43 20z" />
    <glyph glyph-name="uogonek" unicode="&#x173;" 
d="M465 -122c5 12 5 25 5 25l69 4c1 -77 -49 -120 -102 -120c-59 0 -105 49 -105 102c0 13 0 30 9 46l35 65v66c-26 -50 -82 -76 -129 -76c-110 0 -184 69 -184 201v276h123v-254c0 -76 46 -104 89 -104c51 0 101 28 101 109v249h122v-467h-58l-35 -96c-6 -19 -1 -39 17 -46
c18 -5 36 3 43 20z" />
    <glyph glyph-name="Wcircumflex" unicode="&#x174;" horiz-adv-x="892" 
d="M601 209l148 480h139l-234 -689h-103l-106 391l-104 -391h-104l-232 689h138l147 -480l105 384h102zM384 932h123l110 -163h-94l-78 88l-76 -88h-94z" />
    <glyph glyph-name="wcircumflex" unicode="&#x175;" horiz-adv-x="774" 
d="M759 467l-167 -467h-102l-104 313l-101 -313h-101l-172 467h130l95 -295l94 295h108l95 -295l95 295h130zM323 710h123l110 -163h-94l-78 88l-76 -88h-94z" />
    <glyph glyph-name="Ycircumflex" unicode="&#x176;" horiz-adv-x="644" 
d="M387 0h-131v314l-264 375h152l177 -265l179 265h153l-266 -377v-312zM260 932h123l110 -163h-94l-78 88l-76 -88h-94z" />
    <glyph glyph-name="ycircumflex" unicode="&#x177;" horiz-adv-x="511" 
d="M502 467l-289 -695h-129l107 264l-182 431h130l116 -291l117 291h130zM196 710h123l110 -163h-94l-78 88l-76 -88h-94z" />
    <glyph glyph-name="Tcaron" unicode="&#x164;" horiz-adv-x="573" 
d="M28 689v-117h194v-572h129v572h194v117h-517zM225 766l-109 163h94l76 -89l78 89h94l-110 -163h-123z" />
    <glyph glyph-name="tcaron" unicode="&#x165;" horiz-adv-x="350" 
d="M345 524l-65 29c41 57 57 100 54 189h107c-6 -120 -52 -182 -96 -218zM107 369v-369h122v369h98v98h-98v178h-122v-178h-84v-98h84z" />
    <glyph glyph-name="Tbar" unicode="&#x166;" horiz-adv-x="573" 
d="M222 334h-115v76h115v162h-194v117h517v-117h-194v-162h114v-76h-114v-334h-129v334z" />
    <glyph glyph-name="tbar" unicode="&#x167;" horiz-adv-x="354" 
d="M109 0v198h-58v71h58v100h-84v98h84v178h122v-178h98v-98h-98v-100h72v-71h-72v-198h-122z" />
    <glyph glyph-name="Zacute" unicode="&#x179;" horiz-adv-x="587" 
d="M42 100l332 474h-319v115h484v-101l-335 -473h335v-115h-497v100zM320 929h128l-138 -163h-95z" />
    <glyph glyph-name="zacute" unicode="&#x17a;" horiz-adv-x="508" 
d="M459 467h-403v-114h226l-241 -260v-93h418v114h-245l245 259v94zM284 707h128l-138 -163h-95z" />
    <glyph glyph-name="Zdotaccent" unicode="&#x17b;" horiz-adv-x="587" 
d="M42 100l332 474h-319v115h484v-101l-335 -473h335v-115h-497v100zM218 850c0 39 33 69 72 69c41 0 73 -30 73 -69c0 -41 -32 -70 -73 -70c-39 0 -72 29 -72 70z" />
    <glyph glyph-name="zdotaccent" unicode="&#x17c;" horiz-adv-x="508" 
d="M459 467h-403v-114h226l-241 -260v-93h418v114h-245l245 259v94zM177 628c0 39 33 69 72 69c41 0 73 -30 73 -69c0 -41 -32 -70 -73 -70c-39 0 -72 29 -72 70z" />
    <glyph glyph-name="longs" unicode="&#x17f;" horiz-adv-x="324" 
d="M362 721v-117h-51c-57 0 -76 -43 -76 -100v-504h-123v369h-89v98h89v37c0 136 68 217 199 217h51z" />
    <glyph glyph-name="Wgrave" unicode="&#x1e80;" horiz-adv-x="892" 
d="M601 209l148 480h139l-234 -689h-103l-106 391l-104 -391h-104l-232 689h138l147 -480l105 384h102zM239 929h128l105 -163h-95z" />
    <glyph glyph-name="wgrave" unicode="&#x1e81;" horiz-adv-x="774" 
d="M759 467l-167 -467h-102l-104 313l-101 -313h-101l-172 467h130l95 -295l94 295h108l95 -295l95 295h130zM198 707h128l105 -163h-95z" />
    <glyph glyph-name="Wacute" unicode="&#x1e82;" horiz-adv-x="892" 
d="M749 689l-148 -480l-104 384h-102l-105 -384l-147 480h-138l232 -689h104l104 391l106 -391h103l234 689h-139zM508 929h128l-138 -163h-95z" />
    <glyph glyph-name="wacute" unicode="&#x1e83;" horiz-adv-x="774" 
d="M592 0l167 467h-130l-95 -295l-95 295h-108l-94 -295l-95 295h-130l172 -467h101l101 313l104 -313h102zM435 707h128l-138 -163h-95z" />
    <glyph glyph-name="Wdieresis" unicode="&#x1e84;" horiz-adv-x="892" 
d="M749 689l-148 -480l-104 384h-102l-105 -384l-147 480h-138l232 -689h104l104 391l106 -391h103l234 689h-139zM291 854c0 37 31 65 69 65c37 0 68 -28 68 -65s-31 -65 -68 -65c-38 0 -69 28 -69 65zM465 854c0 37 31 65 69 65s68 -28 68 -65s-30 -65 -68 -65
s-69 28 -69 65z" />
    <glyph glyph-name="wdieresis" unicode="&#x1e85;" horiz-adv-x="774" 
d="M592 0l167 467h-130l-95 -295l-95 295h-108l-94 -295l-95 295h-130l172 -467h101l101 313l104 -313h102zM230 632c0 37 31 65 69 65c37 0 68 -28 68 -65s-31 -65 -68 -65c-38 0 -69 28 -69 65zM404 632c0 37 31 65 69 65s68 -28 68 -65s-30 -65 -68 -65s-69 28 -69 65z
" />
    <glyph glyph-name="estimated" unicode="&#x212e;" horiz-adv-x="651" 
d="M607 279h-429v-193c42 -40 92 -63 152 -63c112 0 165 59 210 127l31 -19c-52 -81 -116 -141 -241 -141c-163 0 -271 133 -271 290c0 159 104 290 275 290c170 0 273 -134 273 -291zM487 312v163c-36 33 -95 62 -153 62c-60 0 -116 -21 -156 -62v-163h309z" />
    <glyph glyph-name="greaterequal" unicode="&#x2265;" horiz-adv-x="642" 
d="M579 336l-504 -192v105l369 139l-369 139v105l504 -192v-104zM80 0h492v88h-492v-88z" />
    <glyph glyph-name="lessequal" unicode="&#x2264;" horiz-adv-x="642" 
d="M567 144l-504 192v104l504 192v-105l-369 -139l369 -139v-105zM562 0h-492v88h492v-88z" />
    <glyph glyph-name="notequal" unicode="&#x2260;" horiz-adv-x="610" 
d="M272 135l-52 -106h-70l52 106h-128v94h173l51 105h-224v94h270l50 101h71l-50 -101h119v-94h-165l-51 -105h216v-94h-262z" />
    <glyph glyph-name="Aringacute" unicode="&#x1fa;" horiz-adv-x="654" 
d="M456 167l63 -167h135l-258 689h-138l-258 -689h136l63 167h257zM370 1110h128l-113 -133c34 -20 57 -58 57 -101c0 -64 -51 -114 -117 -114c-63 0 -114 50 -114 114c0 54 34 97 80 112zM242 279l85 263l87 -263h-172zM268 876c0 -32 26 -57 57 -57c33 0 59 25 59 57
c0 33 -26 59 -59 59c-31 0 -57 -26 -57 -59z" />
    <glyph glyph-name="aringacute" unicode="&#x1fb;" horiz-adv-x="614" 
d="M423 0v60c-30 -48 -99 -69 -145 -69c-123 0 -238 94 -238 243c0 150 115 243 238 243c42 0 111 -16 145 -68v58h122v-467h-122zM166 234c0 -75 62 -126 129 -126c66 0 128 46 128 126c0 81 -64 126 -128 126c-67 0 -129 -50 -129 -126zM324 882h128l-113 -133
c34 -20 57 -58 57 -101c0 -64 -51 -114 -117 -114c-63 0 -114 50 -114 114c0 54 34 97 80 112zM222 648c0 -32 26 -57 57 -57c33 0 59 25 59 57c0 33 -26 59 -59 59c-31 0 -57 -26 -57 -59z" />
    <glyph glyph-name="AEacute" unicode="&#x1fc;" horiz-adv-x="933" 
d="M873 689h-452l-435 -689h152l104 163h205v-163l1 1v-1h435v116h-308v166h261v114h-261v177h298v116zM315 286l132 230v-230h-132zM527 929h128l-138 -163h-95z" />
    <glyph glyph-name="aeacute" unicode="&#x1fd;" horiz-adv-x="993" 
d="M599 276c10 63 59 99 123 99c61 0 109 -36 117 -99h-240zM166 234c0 76 62 126 129 126c64 0 128 -45 128 -126c0 -80 -62 -126 -128 -126c-67 0 -129 51 -129 126zM958 235c0 147 -103 242 -236 242c-76 0 -144 -31 -186 -85v75h-113v-58c-34 52 -103 68 -145 68
c-123 0 -238 -93 -238 -243c0 -149 115 -243 238 -243c46 0 115 21 145 69v-60h113v77c42 -55 110 -87 186 -87c85 0 175 33 218 113c-30 16 -65 34 -94 50c-22 -40 -70 -60 -117 -60c-69 0 -120 38 -129 100h356c1 11 2 30 2 42zM528 707h128l-138 -163h-95z" />
    <glyph glyph-name="Oslashacute" unicode="&#x1fe;" horiz-adv-x="785" 
d="M449 929h128l-138 -163h-95zM173 66c5 -4 11 -7 17 -11c56 -41 126 -65 202 -65c196 0 350 159 350 353c0 86 -31 165 -81 226l80 82l-47 46l-79 -81c-60 51 -138 81 -223 81c-196 0 -349 -158 -349 -354c0 -88 31 -168 83 -230l-80 -82l47 -47zM170 343
c0 126 97 228 222 228c50 0 98 -17 134 -46l-311 -321c-28 39 -45 86 -45 139zM392 116c-50 0 -94 15 -130 42l309 319c27 -38 43 -84 43 -134c0 -126 -98 -227 -222 -227z" />
    <glyph glyph-name="oslashacute" unicode="&#x1ff;" horiz-adv-x="566" 
d="M344 707h128l-138 -163h-95zM283 -10c132 0 243 97 243 244c0 58 -18 109 -47 148l52 53l-47 46l-51 -53c-42 31 -94 49 -150 49c-133 0 -243 -96 -243 -243c0 -62 19 -115 52 -155l-56 -58l47 -47l58 59c40 -28 88 -43 142 -43zM283 357c22 0 44 -6 63 -17l-168 -173
c-12 19 -17 41 -17 67c0 74 55 123 122 123zM283 109c-20 0 -39 4 -56 13l165 170c8 -16 13 -37 13 -58c0 -76 -55 -125 -122 -125z" />
    <glyph glyph-name="Ibreve" unicode="&#x12c;" horiz-adv-x="299" 
d="M86 689v-689h127v689h-127zM16 909h82c0 -34 16 -55 51 -55s51 27 51 55h83c0 -79 -55 -130 -134 -130c-92 0 -133 64 -133 130z" />
    <glyph glyph-name="ibreve" unicode="&#x12d;" horiz-adv-x="259" 
d="M190 467h-121v-467h121v467zM-4 687h82c0 -34 16 -55 51 -55s51 27 51 55h83c0 -79 -55 -130 -134 -130c-92 0 -133 64 -133 130z" />
    <glyph glyph-name="Eng" unicode="&#x14a;" horiz-adv-x="681" 
d="M476 2l-262 449v-451h-128v689h119l262 -456v456h128v-679c0 -130 -52 -243 -219 -243c-21 0 -62 7 -93 15l13 119c35 -9 71 -14 105 -8c48 9 75 62 75 109z" />
    <glyph glyph-name="eng" unicode="&#x14b;" horiz-adv-x="568" 
d="M504 276v-250c0 -123 -52 -227 -209 -227c-19 0 -37 3 -67 10l12 112c22 -7 48 -7 55 -7c64 0 87 51 87 105v235c0 68 -36 104 -89 104c-55 0 -102 -28 -102 -109v-249h-122v467h122v-69c26 50 85 79 139 79c109 0 175 -69 174 -201z" />
    <glyph glyph-name="Ygrave" unicode="&#x1ef2;" horiz-adv-x="644" 
d="M387 0h-131v314l-264 375h152l177 -265l179 265h153l-266 -377v-312zM153 929h128l105 -163h-95z" />
    <glyph glyph-name="ygrave" unicode="&#x1ef3;" horiz-adv-x="511" 
d="M502 467l-289 -695h-129l107 264l-182 431h130l116 -291l117 291h130zM94 707h128l105 -163h-95z" />
    <glyph glyph-name="commaaccent" unicode="&#xf6c3;" horiz-adv-x="301" 
d="M134 -274l-64 29c41 57 57 100 54 189h107c-6 -120 -52 -182 -97 -218z" />
    <glyph glyph-name="apple" unicode="&#xf8ff;" horiz-adv-x="847" 
d="M767 687v-687h-687v687h687zM164 595v-377h81l-74 75v178l255 -253l256 253v-178l-74 -75h84v377l-266 -263zM179 132h-15v-53h9v37l13 -37h10l11 37v-37h9v53h-14l-9 -36zM248 132c-17 0 -25 -13 -25 -27c0 -13 8 -26 25 -26c15 0 23 13 23 26c0 14 -8 27 -23 27z
M248 89c-10 0 -17 10 -17 16c0 7 7 17 17 17c9 0 12 -10 12 -17c0 -6 -3 -16 -12 -16zM284 99h-13c0 -13 10 -20 22 -20c17 0 22 7 22 17c0 9 -5 12 -15 14c-12 2 -16 2 -16 6c0 6 6 6 9 6c4 0 10 0 10 -6h9c0 13 -9 16 -19 16c-9 0 -19 -6 -19 -16c0 -8 7 -11 16 -15
c10 0 13 -2 13 -5c0 -7 -3 -7 -10 -7c-5 0 -9 3 -9 10zM315 122h17v-43h8v43h15v10h-40v-10zM377 132h-9l-22 -53h12l4 13h22l3 -13h11zM374 119l7 -18h-16l6 18h3zM426 132h-28v-53h9v22h13c6 0 9 -5 9 -9v-13h13c-3 3 -3 7 -3 13c0 4 0 9 -7 13c7 3 7 5 7 11
c0 10 -3 16 -13 16zM420 108h-13v14h13c6 0 9 -3 9 -6c0 -6 -3 -8 -9 -8zM466 132h-20v-53h20c16 0 25 13 25 29c0 14 -9 24 -25 24zM466 89h-8v33h4c14 0 17 -6 17 -17c0 -9 -7 -16 -13 -16zM531 132h-37v-53h40v10h-28v12h25v9h-25v12h25v10zM543 99h-9
c0 -13 9 -20 22 -20c12 0 22 7 22 17c0 9 -6 12 -15 14c-13 2 -17 2 -17 6c0 6 4 6 7 6c6 0 12 0 12 -6h10c0 13 -10 16 -19 16c-10 0 -22 -6 -22 -16c0 -8 9 -11 19 -15c10 0 12 -2 12 -5c0 -7 -6 -7 -9 -7c-6 0 -13 3 -13 10zM589 132h-7v-53h7v53zM633 86l4 -7h6v29h-22
v-9h12c-3 -7 -6 -10 -12 -10c-10 0 -16 10 -16 16c0 7 6 17 16 17c3 0 9 -3 9 -10h13c-3 14 -13 20 -22 20c-16 0 -25 -13 -25 -27c0 -13 9 -26 25 -26c3 0 9 0 12 7zM657 132h-8v-53h8v33l22 -33h13v53h-13v-33z" />
    <glyph glyph-name="Gcommaaccent" unicode="&#x122;" horiz-adv-x="756" 
d="M645 592l-94 -82c-40 41 -94 67 -156 67c-126 0 -223 -105 -223 -234c0 -128 97 -235 223 -235c92 0 183 55 186 143h-189v105h336c0 -252 -135 -366 -333 -366c-197 0 -351 159 -351 353c0 196 154 354 351 354c101 0 190 -41 250 -105zM364 -274l-64 29
c41 57 57 100 54 189h107c-6 -120 -52 -182 -97 -218z" />
    <glyph glyph-name="Kcommaaccent" unicode="&#x136;" horiz-adv-x="598" 
d="M288 347l324 -347h-167l-230 255v-255h-129v689h129v-251l185 251h150zM287 -274l-64 29c41 57 57 100 54 189h107c-6 -120 -52 -182 -97 -218z" />
    <glyph glyph-name="kcommaaccent" unicode="&#x137;" horiz-adv-x="519" 
d="M366 0l-176 200v-200h-121v721h121v-394l129 140h158l-196 -205l238 -262h-153zM247 -274l-64 29c41 57 57 100 54 189h107c-6 -120 -52 -182 -97 -218z" />
    <glyph glyph-name="Lcommaaccent" unicode="&#x13b;" horiz-adv-x="506" 
d="M86 0v689h128v-575h266v-114h-394zM236 -274l-64 29c41 57 57 100 54 189h107c-6 -120 -52 -182 -97 -218z" />
    <glyph glyph-name="lcommaaccent" unicode="&#x13c;" horiz-adv-x="260" 
d="M69 0v721h122v-721h-122zM86 -274l-64 29c41 57 57 100 54 189h107c-6 -120 -52 -182 -97 -218z" />
    <glyph glyph-name="Ncommaaccent" unicode="&#x145;" horiz-adv-x="682" 
d="M596 689v-689h-117l-266 453v-453h-127v689h119l263 -448v448h128zM304 -274l-64 29c41 57 57 100 54 189h107c-6 -120 -52 -182 -97 -218z" />
    <glyph glyph-name="ncommaaccent" unicode="&#x146;" 
d="M191 249v-249h-122v467h122v-69c26 50 85 79 139 79c109 0 174 -69 174 -201v-276h-122v254c0 68 -36 104 -89 104c-55 0 -102 -28 -102 -109zM248 -274l-64 29c41 57 57 100 54 189h107c-6 -120 -52 -182 -97 -218z" />
    <glyph glyph-name="Rcommaaccent" unicode="&#x156;" horiz-adv-x="631" 
d="M356 575h-142v-216h138c67 0 97 56 97 107c0 50 -29 109 -93 109zM407 250l176 -250h-154l-162 245h-53v-245h-128v689h276c152 0 220 -111 220 -223c0 -99 -53 -196 -175 -216zM296 -274l-64 29c41 57 57 100 54 189h107c-6 -120 -52 -182 -97 -218z" />
    <glyph glyph-name="rcommaaccent" unicode="&#x157;" horiz-adv-x="411" 
d="M88 -274l-64 29c41 57 57 100 54 189h107c-6 -120 -52 -182 -97 -218zM191 165v-165h-122v467h122v-110c24 85 79 120 132 120c33 0 58 -7 77 -17l-21 -110c-29 13 -59 13 -71 13c-83 0 -117 -74 -117 -198z" />
    <glyph glyph-name="Tcommaaccent" unicode="&#x162;" horiz-adv-x="573" 
d="M28 572v117h517v-117h-194v-572h-129v572h-194zM240 -274l-64 29c41 57 57 100 54 189h107c-6 -120 -52 -182 -97 -218z" />
    <glyph glyph-name="tcommaaccent" unicode="&#x163;" horiz-adv-x="351" 
d="M229 645v-178h99v-98h-99v-369h-121v369h-85v98h85v178h121zM127 -274l-64 29c41 57 57 100 54 189h107c-6 -120 -52 -182 -97 -218z" />
    <glyph glyph-name="Scommaaccent" unicode="&#x218;" horiz-adv-x="577" 
d="M46 201h128c2 -50 45 -97 119 -97c69 0 111 36 114 83c3 46 -28 76 -95 94l-85 22c-150 44 -174 131 -174 192c0 121 105 202 232 202c130 0 229 -79 229 -208h-128c0 54 -39 90 -103 90c-57 0 -103 -32 -103 -81c0 -22 8 -59 82 -79l85 -25c154 -42 194 -129 188 -210
c-6 -124 -116 -195 -242 -195c-147 0 -247 94 -247 212zM254 -274l-64 29c41 57 57 100 54 189h107c-6 -120 -52 -182 -97 -218z" />
    <glyph glyph-name="scommaaccent" unicode="&#x219;" horiz-adv-x="454" 
d="M182 195c-121 33 -132 88 -132 143c0 75 79 139 172 139c88 0 178 -40 182 -147h-116c-2 35 -36 48 -63 48c-30 0 -59 -11 -59 -46c0 -19 22 -32 49 -39l78 -19c108 -28 122 -103 122 -140c0 -95 -94 -144 -191 -144c-92 0 -186 56 -188 157h114c3 -33 41 -61 86 -59
c34 1 61 20 61 47c1 24 -17 36 -51 44zM188 -274l-64 29c41 57 57 100 54 189h107c-6 -120 -52 -182 -97 -218z" />
    <glyph glyph-name="uni2113" unicode="&#x2113;" horiz-adv-x="399" 
d="M176 525v-245l34 2c24 0 31 26 31 51v192c0 33 -7 65 -31 65c-31 0 -34 -34 -34 -65zM230 105l97 -5v-100h-117c-113 0 -145 74 -145 166v365c0 93 32 166 145 166c107 0 142 -76 142 -171v-187c0 -104 -32 -166 -176 -166v-7c0 -37 8 -60 54 -61z" />
    <glyph glyph-name="gcommaaccent" unicode="&#x123;" horiz-adv-x="611" 
d="M318 772l64 -29c-40 -57 -57 -100 -53 -188h-108c6 120 53 181 97 217zM420 234c0 -79 -64 -128 -127 -128c-68 0 -126 50 -126 128c0 75 58 126 126 126c67 0 127 -45 127 -126zM157 -45c-27 -13 -72 -37 -99 -50c41 -85 126 -138 223 -138c162 0 261 92 261 300v400
h-119v-63c-26 47 -88 73 -149 73c-122 0 -234 -95 -234 -245c0 -147 112 -242 234 -242c61 0 125 27 149 74c7 -98 -24 -186 -142 -186c-49 0 -104 31 -124 77z" />
    <glyph glyph-name="published" horiz-adv-x="801" 
d="M365 280h67c80 0 114 64 114 115c0 58 -36 116 -114 116h-136v-353h69v122zM365 443h67c29 0 43 -23 43 -48c0 -24 -14 -47 -45 -47h-65v95zM51 343c0 195 154 354 349 354s350 -159 350 -354s-155 -353 -350 -353s-349 158 -349 353zM112 343c0 -161 127 -291 288 -291
s288 130 288 291s-127 292 -288 292s-288 -131 -288 -292z" />
    <glyph glyph-name="rupiah" unicode="&#xf6dd;" horiz-adv-x="1162" 
d="M342 575h-142v-216h138c67 0 97 56 97 107c0 50 -29 109 -93 109zM393 250l176 -250h-154l-162 245h-53v-245h-128v689h276c152 0 220 -111 220 -223c0 -99 -53 -196 -175 -216zM754 467v-63c25 46 85 73 146 73c122 0 228 -96 228 -243c0 -149 -106 -244 -228 -244
c-61 0 -121 25 -146 72v-289h-122v694h122zM756 232c0 -81 60 -126 124 -126c67 0 123 50 123 126c0 77 -56 128 -123 128s-124 -50 -124 -128z" />
    <glyph glyph-name="rupee" unicode="&#x20a8;" horiz-adv-x="701" 
d="M376 453h-313v58h307c-13 35 -40 64 -86 64h-221c0 10 -1 104 -1 114h594v-58h-212c35 -33 55 -74 62 -120h150v-58h-146c-5 -95 -58 -184 -175 -203l176 -250h-154l-162 245h-132v114h217c61 0 91 46 96 94z" />
    <glyph glyph-name="colonmonetary" unicode="&#x20a1;" horiz-adv-x="704" 
d="M324 -4l-38 -107l-54 20l36 102c-23 8 -46 19 -66 32l-43 -118l-54 19l49 136c-71 65 -114 159 -114 263c0 191 144 346 333 353l39 109l54 -20l-33 -92c26 -3 50 -8 73 -17l33 93l54 -20l-34 -96c42 -23 77 -55 105 -92l-102 -73c-13 16 -29 32 -47 44l-149 -419
c7 -1 14 -2 21 -2c74 0 139 37 179 93l101 -74c-60 -85 -161 -140 -280 -140c-22 0 -42 2 -63 6zM392 575l-147 -410c18 -17 40 -31 64 -39l156 435c-24 8 -48 13 -73 14zM168 343c0 -47 12 -90 34 -127l125 351c-94 -27 -159 -117 -159 -224z" />
    <glyph glyph-name="uni20A9" unicode="&#x20a9;" horiz-adv-x="993" 
d="M181 322h-133v55h115l-22 64h-93v55h75l-65 193h138l59 -193h166l27 97h102l26 -97h166l60 193h139l-66 -193h68v-55h-87l-21 -64h108v-55h-127l-109 -322h-103l-87 322h-38l-85 -322h-104zM272 441l19 -64h98l17 64h-134zM591 441l17 -64h98l19 64h-134zM308 322
l35 -113l31 113h-66zM623 322l31 -113l35 113h-66z" />
    <glyph glyph-name="lira" unicode="&#x20a4;" horiz-adv-x="667" 
d="M399 227h-128v-115h205c15 0 25 14 25 31v39h121v-54c0 -72 -47 -128 -116 -128h-459v112h102v115h-81v60h81v53h-81v60h81v71c0 137 83 226 210 226c117 0 216 -72 216 -220h-125c0 70 -44 94 -93 92c-49 -1 -86 -35 -86 -86v-83h128v-60h-128v-53h128v-60z" />
    <glyph glyph-name="afii57636" unicode="&#x20aa;" horiz-adv-x="884" 
d="M605 332v-136h-122v119c0 55 -42 101 -109 101h-41h-120v-416h-123v538h257c25 0 49 -1 72 -4c114 -9 186 -95 186 -202zM279 206v136h122v-119c0 -55 42 -101 109 -101h41h120v416h123v-538h-257c-25 0 -48 1 -72 3c-113 10 -186 96 -186 203z" />
    <glyph glyph-name="frenchfranc" horiz-adv-x="737" 
d="M373 0v310h-154v-310h-127v689h417v-115h-290v-152h272v-109c24 85 72 120 125 120c33 0 68 -7 86 -18l-21 -112c-29 15 -49 16 -70 16c-84 0 -120 -74 -120 -198v-121h-118z" />
    <glyph glyph-name="uni20A6" unicode="&#x20a6;" horiz-adv-x="786" 
d="M139 487h-90v55h90v147h119l86 -147h177v147h128v-147h87v-55h-87v-108h87v-55h-87v-324h-117l-190 324h-76v-324h-127v324h-90v55h90v108zM377 487l63 -108h81v108h-144zM472 324l49 -83v83h-49zM266 453v-74h43z" />
    <glyph glyph-name="peseta" unicode="&#x20a7;" horiz-adv-x="755" 
d="M129 385h-80v55h80v52h-80v55h80v142h280c112 0 177 -64 204 -142h101v-55h-88c1 -12 2 -23 2 -34c0 -6 0 -12 -1 -18h87v-55h-97c-24 -80 -90 -140 -208 -140h-152v-245h-128v385zM500 458c0 11 -1 22 -4 34h-239v-52h241c1 6 2 12 2 18zM407 575h-150v-28h211
c-15 16 -35 28 -61 28zM257 359h146c30 0 53 10 69 26h-215v-26z" />
    <glyph glyph-name="afii61352" unicode="&#x2116;" horiz-adv-x="979" 
d="M599 0v689h-128v-448l-262 448h-120v-689h128v453l266 -453h116zM666 561c0 74 58 133 133 133c73 0 133 -59 133 -133s-60 -132 -133 -132c-75 0 -133 58 -133 132zM739 561c0 -33 26 -60 60 -60c33 0 60 27 60 60s-27 61 -60 61c-34 0 -60 -28 -60 -61zM672 325v60h253
v-60h-253z" />
    <glyph glyph-name="thinspace" unicode="&#x2009;" horiz-adv-x="14" 
 />
    <glyph glyph-name="parenleft.case" horiz-adv-x="378" 
d="M42 341c0 277 127 468 302 468v-102c-104 0 -196 -165 -196 -366c0 -200 92 -361 196 -361v-101c-175 0 -302 185 -302 462z" />
    <glyph glyph-name="parenright.case" horiz-adv-x="378" 
d="M336 341c0 -277 -127 -462 -302 -462v101c104 0 196 161 196 361c0 201 -92 366 -196 366v102c175 0 302 -191 302 -468z" />
    <glyph glyph-name="hyphen.case" horiz-adv-x="477" 
d="M63 303v102h351v-102h-351z" />
    <glyph glyph-name="at.case" horiz-adv-x="967" 
d="M590 245v127c0 69 -55 121 -121 121s-121 -52 -121 -121c0 -66 55 -119 121 -119c26 0 59 11 86 33v-91c-25 -14 -59 -24 -86 -24c-112 0 -203 89 -203 201c0 114 91 203 203 203c54 0 104 -21 141 -55c38 -35 61 -84 63 -138v-143c0 -50 34 -62 64 -62
c90 0 109 130 109 208c0 196 -169 339 -367 339c-197 0 -349 -160 -349 -357s152 -352 349 -352h29v-83h-29c-243 0 -432 192 -432 435s189 440 432 440s451 -180 451 -422c0 -118 -49 -290 -193 -290c-75 0 -147 37 -147 150z" />
    <glyph glyph-name="bracketleft.case" horiz-adv-x="332" 
d="M76 -115v916h220v-95h-112v-725h112v-96h-220z" />
    <glyph glyph-name="bracketright.case" horiz-adv-x="332" 
d="M256 801v-916h-220v96h112v725h-112v95h220z" />
    <glyph glyph-name="braceleft.case" horiz-adv-x="407" 
d="M34 385c30 0 61 22 61 56v162c0 121 90 198 200 198h78v-94h-81c-50 0 -91 -41 -91 -96v-153c0 -57 -30 -100 -68 -115c37 -14 68 -58 68 -114v-147c0 -54 41 -101 91 -101h81v-96h-78c-110 0 -200 77 -200 198v164c0 33 -31 55 -61 55v83z" />
    <glyph glyph-name="braceright.case" horiz-adv-x="407" 
d="M373 385v-83c-30 0 -61 -22 -61 -55v-164c0 -121 -90 -198 -200 -198h-78v96h81c50 0 91 47 91 101v147c0 56 31 100 68 114c-38 15 -68 58 -68 115v153c0 55 -41 96 -91 96h-81v94h78c110 0 200 -77 200 -198v-162c0 -34 31 -56 61 -56z" />
    <glyph glyph-name="exclamdown.case" horiz-adv-x="280" 
d="M212 0h-143l19 487h105zM61 622c0 44 36 76 78 76c44 0 80 -32 80 -76s-36 -76 -80 -76c-42 0 -78 32 -78 76z" />
    <glyph glyph-name="guillemotleft.case" horiz-adv-x="522" 
d="M50 345l138 207h98l-138 -207l138 -207h-98zM227 345l138 207h98l-138 -207l138 -207h-98z" />
    <glyph glyph-name="periodcentered.case" horiz-adv-x="278" 
d="M60 425c0 44 36 76 78 76c44 0 80 -32 80 -76s-36 -76 -80 -76c-42 0 -78 32 -78 76z" />
    <glyph glyph-name="guillemotright.case" horiz-adv-x="522" 
d="M295 345l-138 -207h-98l138 207l-138 207h98zM472 345l-138 -207h-98l138 207l-138 207h98z" />
    <glyph glyph-name="questiondown.case" horiz-adv-x="491" 
d="M233 452l2 36h119l2 -36c0 -130 -52 -153 -159 -205c-31 -13 -38 -43 -38 -65c0 -42 39 -72 87 -72s85 34 85 87h121c0 -128 -87 -209 -206 -209s-209 75 -209 195c0 97 60 165 138 189c41 13 58 33 58 80zM372 620c0 -43 -36 -76 -79 -76s-79 33 -79 76
c0 45 36 77 79 77s79 -32 79 -77z" />
    <glyph glyph-name="endash.case" horiz-adv-x="621" 
d="M64 293v108h493v-108h-493z" />
    <glyph glyph-name="emdash.case" horiz-adv-x="832" 
d="M64 293v108h704v-108h-704z" />
    <glyph glyph-name="bullet.case" horiz-adv-x="468" 
d="M78 350c0 87 71 150 156 150s156 -63 156 -150s-71 -150 -156 -150s-156 63 -156 150z" />
    <glyph glyph-name="guilsinglleft.case" horiz-adv-x="345" 
d="M50 345l138 207h98l-138 -207l138 -207h-98z" />
    <glyph glyph-name="guilsinglright.case" horiz-adv-x="345" 
d="M295 345l-138 -207h-98l138 207l-138 207h98z" />
    <glyph glyph-name="cent.case" horiz-adv-x="537" 
d="M317 692v-104c70 -6 132 -38 172 -90l-97 -73c-22 30 -59 46 -97 46c-68 0 -131 -48 -131 -124s63 -128 131 -128c38 0 75 17 97 47l98 -72c-41 -53 -103 -85 -173 -91v-113h-69v116c-114 20 -205 111 -205 241c0 129 91 218 205 238v107h69z" />
    <glyph glyph-name="zero.tnum" horiz-adv-x="580" 
d="M48 327c0 188 53 339 243 339s240 -151 240 -339c0 -186 -50 -337 -240 -337s-243 151 -243 337zM171 327c0 -119 26 -217 120 -217c92 0 118 98 118 217c0 120 -26 219 -118 219c-94 0 -120 -99 -120 -219z" />
    <glyph glyph-name="one.tnum" horiz-adv-x="580" 
d="M148 559l233 103v-662h-123v493l-110 -44v110z" />
    <glyph glyph-name="two.tnum" horiz-adv-x="580" 
d="M492 0h-418v63l267 320c23 27 40 56 40 86c0 44 -38 78 -94 78c-53 0 -94 -39 -102 -95l-114 21c19 119 105 193 221 193c115 0 211 -80 211 -197c0 -63 -29 -121 -70 -167l-162 -185h221v-117z" />
    <glyph glyph-name="three.tnum" horiz-adv-x="580" 
d="M275 291h-70v109h70c62 -1 74 55 74 72c0 24 -11 65 -58 74c-38 5 -75 -7 -101 -40l-96 63c37 62 113 102 198 97c112 -6 189 -86 189 -183c0 -54 -34 -101 -81 -128c69 -26 116 -108 109 -178c-12 -119 -125 -195 -252 -186c-90 6 -168 62 -203 138c9 5 98 49 107 54
c19 -39 61 -73 106 -73c62 0 110 40 110 97c0 17 -13 87 -102 84z" />
    <glyph glyph-name="four.tnum" horiz-adv-x="580" 
d="M190 249h145v228zM544 142h-87v-142h-122v142h-323l326 512h119v-405h87v-107z" />
    <glyph glyph-name="five.tnum" horiz-adv-x="580" 
d="M410 224c0 76 -56 113 -126 113c-45 0 -102 -14 -150 -66l-70 42l55 341h372v-113h-274l-23 -134c27 23 79 35 121 35c119 0 217 -76 217 -218c0 -138 -103 -234 -261 -234c-91 0 -181 55 -227 138c9 5 94 59 103 64c26 -48 75 -81 124 -81c87 0 139 53 139 113z" />
    <glyph glyph-name="six.tnum" horiz-adv-x="580" 
d="M396 207c1 55 -41 100 -96 101s-101 -43 -102 -98c0 -56 44 -101 98 -101c55 -1 99 42 100 98zM320 422c103 0 203 -83 202 -222c-2 -123 -97 -211 -232 -210c-120 2 -214 89 -225 227c-16 203 18 456 254 449c76 -3 151 -27 197 -127l-113 -48c-21 43 -54 60 -88 60
c-94 0 -133 -99 -127 -203c12 33 63 74 132 74z" />
    <glyph glyph-name="seven.tnum" horiz-adv-x="580" 
d="M67 654h479l-313 -654h-140l259 539h-285v115z" />
    <glyph glyph-name="eight.tnum" horiz-adv-x="580" 
d="M216 484c0 -38 28 -71 75 -71c46 0 72 34 72 71c0 35 -28 68 -73 68s-74 -33 -74 -68zM171 216c0 -60 54 -110 119 -110c64 0 118 50 118 110c0 56 -50 108 -111 108h-18c-61 0 -108 -53 -108 -108zM97 488c0 98 85 178 193 178c107 0 193 -80 193 -178
c0 -46 -19 -84 -49 -112c59 -34 96 -93 96 -164c0 -123 -107 -222 -240 -222c-134 0 -241 99 -241 222c0 72 38 130 96 164c-29 28 -48 67 -48 112z" />
    <glyph glyph-name="nine.tnum" horiz-adv-x="580" 
d="M184 449c-2 -55 41 -100 96 -101s101 42 102 97c0 57 -44 101 -98 102c-55 1 -99 -43 -100 -98zM259 234c-102 0 -202 83 -201 222c2 123 97 211 231 209c121 -2 214 -88 226 -226c16 -204 -18 -457 -254 -449c-76 3 -151 27 -197 127l113 48c21 -43 54 -60 88 -60
c94 0 133 98 127 203c-12 -34 -63 -74 -133 -74z" />
    <glyph glyph-name="zero.taboldstyle" horiz-adv-x="580" 
d="M290 -9c-132 0 -251 104 -251 262c0 161 119 262 251 262c135 0 252 -101 252 -262c0 -158 -117 -262 -252 -262zM290 107c71 0 136 58 136 146c0 89 -65 145 -136 145c-70 0 -134 -56 -134 -145c0 -88 64 -146 134 -146z" />
    <glyph glyph-name="one.taboldstyle" horiz-adv-x="580" 
d="M400 517v-517h-123v334l-136 -61v120z" />
    <glyph glyph-name="two.taboldstyle" horiz-adv-x="580" 
d="M485 0h-400v66l235 240c20 19 34 37 34 54c0 26 -25 49 -66 49c-39 0 -71 -21 -76 -64l-119 16c12 97 85 163 197 163c116 0 196 -73 196 -159c0 -53 -31 -95 -70 -133l-128 -121h197v-111z" />
    <glyph glyph-name="six.taboldstyle" horiz-adv-x="580" 
d="M396 207c1 55 -41 100 -96 101s-101 -43 -102 -98c0 -56 44 -101 98 -101c55 -1 99 42 100 98zM320 422c103 0 203 -83 202 -222c-2 -123 -97 -211 -232 -210c-120 2 -214 89 -225 227c-16 203 18 456 254 449c76 -3 151 -27 197 -127l-113 -48c-21 43 -54 60 -88 60
c-94 0 -133 -99 -127 -203c12 33 63 74 132 74z" />
    <glyph glyph-name="eight.taboldstyle" horiz-adv-x="580" 
d="M216 484c0 -38 28 -71 75 -71c46 0 72 34 72 71c0 35 -28 68 -73 68s-74 -33 -74 -68zM171 216c0 -60 54 -110 119 -110c64 0 118 50 118 110c0 56 -50 108 -111 108h-18c-61 0 -108 -53 -108 -108zM97 488c0 98 85 178 193 178c107 0 193 -80 193 -178
c0 -46 -19 -84 -49 -112c59 -34 96 -93 96 -164c0 -123 -107 -222 -240 -222c-134 0 -241 99 -241 222c0 72 38 130 96 164c-29 28 -48 67 -48 112z" />
    <glyph glyph-name="three.taboldstyle" horiz-adv-x="580" 
d="M277 102h-70v109h70c62 -1 74 55 74 72c0 24 -11 65 -58 74c-38 5 -75 -7 -101 -40l-96 63c37 62 113 102 198 97c112 -6 189 -86 189 -183c0 -54 -34 -101 -81 -128c69 -26 116 -108 109 -178c-12 -119 -125 -195 -252 -186c-90 6 -168 62 -203 138c9 5 98 49 107 54
c19 -39 61 -73 106 -73c62 0 110 40 110 97c0 17 -13 87 -102 84z" />
    <glyph glyph-name="four.taboldstyle" horiz-adv-x="580" 
d="M192 61h145v227zM547 -46h-87v-142h-123v142h-323l326 512h120v-405h87v-107z" />
    <glyph glyph-name="five.taboldstyle" horiz-adv-x="580" 
d="M410 36c0 77 -56 113 -126 113c-45 0 -102 -13 -150 -65l-70 42l55 340h372v-113h-274l-23 -134c27 23 79 36 121 36c119 0 217 -77 217 -219c0 -137 -103 -234 -261 -234c-91 0 -181 56 -227 138c9 5 95 59 104 64c25 -48 74 -80 123 -80c88 0 139 52 139 112z" />
    <glyph glyph-name="seven.taboldstyle" horiz-adv-x="580" 
d="M68 466h479l-314 -654h-140l259 539h-284v115z" />
    <glyph glyph-name="nine.taboldstyle" horiz-adv-x="580" 
d="M187 261c-2 -55 41 -100 96 -101s101 42 102 97c0 57 -44 101 -98 102c-55 1 -99 -43 -100 -98zM262 46c-102 0 -202 83 -201 222c2 123 97 211 231 209c121 -2 214 -88 226 -226c16 -204 -18 -457 -254 -449c-76 3 -151 27 -197 127l113 48c21 -43 54 -60 88 -60
c94 0 133 98 127 203c-12 -34 -63 -74 -133 -74z" />
    <glyph glyph-name="zero.oldstyle" horiz-adv-x="600" 
d="M299 -9c-132 0 -251 104 -251 262c0 161 119 262 251 262c135 0 252 -101 252 -262c0 -158 -117 -262 -252 -262zM299 107c71 0 136 58 136 146c0 89 -65 145 -136 145c-70 0 -134 -56 -134 -145c0 -88 64 -146 134 -146z" />
    <glyph glyph-name="one.oldstyle" horiz-adv-x="379" 
d="M300 517v-517h-122v334l-137 -61v120z" />
    <glyph glyph-name="two.oldstyle" horiz-adv-x="522" 
d="M457 0h-400v66l235 240c20 19 33 37 33 54c0 26 -24 49 -65 49c-40 0 -71 -21 -76 -64l-119 16c11 97 84 163 197 163c116 0 195 -73 195 -159c0 -53 -30 -95 -70 -133l-128 -121h198v-111z" />
    <glyph glyph-name="three.oldstyle" horiz-adv-x="527" 
d="M251 102h-70v109h70c62 -1 74 55 74 72c0 24 -11 65 -58 74c-38 5 -75 -7 -101 -40l-96 63c37 62 113 102 198 97c112 -6 189 -86 189 -183c0 -54 -34 -101 -81 -128c69 -26 116 -108 109 -178c-12 -119 -125 -195 -252 -186c-90 6 -168 62 -203 138c9 5 98 49 107 54
c19 -39 61 -73 106 -73c62 0 110 40 110 97c0 17 -13 87 -102 84z" />
    <glyph glyph-name="four.oldstyle" horiz-adv-x="586" 
d="M195 61h145v227zM550 -46h-87v-142h-123v142h-322l325 512h120v-405h87v-107z" />
    <glyph glyph-name="five.oldstyle" 
d="M405 35c0 77 -57 114 -126 114c-46 0 -103 -14 -151 -66l-69 42l55 341h371v-114h-273l-24 -133c28 22 80 35 121 35c119 0 217 -76 217 -219c0 -137 -102 -233 -261 -233c-91 0 -180 55 -227 138c10 5 95 59 104 64c26 -49 75 -81 123 -81c88 0 140 52 140 112z" />
    <glyph glyph-name="six.oldstyle" horiz-adv-x="573" 
d="M393 207c1 55 -41 100 -96 101s-101 -43 -102 -98c0 -56 44 -101 98 -101c55 -1 99 42 100 98zM317 422c103 0 203 -83 202 -222c-2 -123 -97 -211 -232 -210c-120 2 -214 89 -225 227c-16 203 18 456 254 449c76 -3 151 -27 197 -127l-113 -48c-21 43 -54 60 -88 60
c-94 0 -133 -99 -127 -203c12 33 63 74 132 74z" />
    <glyph glyph-name="seven.oldstyle" horiz-adv-x="518" 
d="M37 466h479l-313 -654h-140l259 539h-285v115z" />
    <glyph glyph-name="eight.oldstyle" horiz-adv-x="584" 
d="M218 484c0 -38 28 -71 75 -71c46 0 72 34 72 71c0 35 -28 68 -73 68s-74 -33 -74 -68zM173 216c0 -60 54 -110 119 -110c64 0 118 50 118 110c0 56 -50 108 -111 108h-18c-61 0 -108 -53 -108 -108zM99 488c0 98 85 178 193 178c107 0 193 -80 193 -178
c0 -46 -19 -84 -49 -112c59 -34 96 -93 96 -164c0 -123 -107 -222 -240 -222c-134 0 -241 99 -241 222c0 72 38 130 96 164c-29 28 -48 67 -48 112z" />
    <glyph glyph-name="nine.oldstyle" horiz-adv-x="554" 
d="M174 261c-2 -55 41 -100 96 -101s101 42 102 97c0 57 -44 101 -98 102c-55 1 -99 -43 -100 -98zM249 46c-102 0 -202 83 -201 222c2 123 97 211 231 209c121 -2 214 -88 226 -226c16 -204 -18 -457 -254 -449c-76 3 -151 27 -197 127l113 48c21 -43 54 -60 88 -60
c94 0 133 98 127 203c-12 -34 -63 -74 -133 -74z" />
    <glyph glyph-name="onesuperior" unicode="&#xb9;" horiz-adv-x="212" 
d="M88 433v284l-66 -30v65l139 70v-389h-73z" />
    <glyph glyph-name="twosuperior" unicode="&#xb2;" horiz-adv-x="317" 
d="M31 470l157 187c13 16 22 34 22 50c0 27 -21 46 -54 46c-31 0 -55 -23 -60 -57l-67 14c12 69 62 113 130 113s124 -47 124 -116c0 -37 -17 -71 -41 -98c-44 -50 -46 -52 -93 -106h128v-70h-246v37z" />
    <glyph glyph-name="threesuperior" unicode="&#xb3;" horiz-adv-x="320" 
d="M99 730c-4 4 -51 33 -55 37c22 36 66 59 116 56c66 -4 111 -52 111 -107c0 -31 -20 -60 -48 -76c41 -15 68 -62 64 -103c-6 -66 -73 -114 -147 -109c-53 4 -99 36 -120 80c6 3 57 29 62 32c12 -22 36 -40 63 -43v0c34 -2 63 22 65 49c1 19 -8 59 -60 58h-42v63h42
c38 0 46 36 44 50c-1 19 -17 39 -44 39c-23 1 -40 -10 -51 -26z" />
    <glyph glyph-name="onequarter" unicode="&#xbc;" horiz-adv-x="777" 
d="M632 669l-450 -679h-78l452 679h76zM105 270v284l-66 -30v66l139 69v-389h-73zM689 83v-83h-73v83h-190l193 302h70v-238h51v-64h-51zM534 147h82v130z" />
    <glyph glyph-name="onehalf" unicode="&#xbd;" horiz-adv-x="792" 
d="M632 669l-450 -679h-78l452 679h76zM105 270v284l-66 -30v66l139 69v-389h-73zM495 38l157 187c13 16 22 33 22 50c0 26 -21 46 -54 46c-31 0 -55 -23 -60 -57l-67 13c12 70 62 114 130 114s124 -48 124 -116c0 -38 -17 -71 -41 -98c-44 -50 -46 -53 -93 -107h128v-70
h-246v38z" />
    <glyph glyph-name="threequarters" unicode="&#xbe;" horiz-adv-x="853" 
d="M708 669l-450 -679h-78l452 679h76zM765 83v-83h-73v83h-190l193 302h70v-238h51v-64h-51zM610 147h82v130zM115 567l-55 38c22 36 66 59 116 56c66 -4 111 -52 111 -107c0 -31 -20 -60 -48 -76c41 -15 68 -62 64 -104c-6 -65 -73 -114 -147 -109c-53 4 -99 37 -120 81
l62 32c12 -22 34 -43 63 -43c34 -2 63 22 65 48c1 20 -8 60 -60 59h-42v63h42c38 0 46 36 44 50c-1 19 -17 39 -44 39c-23 1 -40 -10 -51 -27z" />
    <glyph glyph-name="Lslash.sc" horiz-adv-x="434" 
d="M199 394l79 50v-73l-79 -50v-219h218v-102h-330v251l-58 -35v73l58 36v247h112v-178z" />
    <glyph glyph-name="Zcaron.sc" horiz-adv-x="514" 
d="M259 699l63 70h84l-94 -139h-105l-94 139h84zM47 87l271 385h-259v100h403v-86l-272 -385h272v-101h-415v87z" />
    <glyph glyph-name="exclam.sc" horiz-adv-x="290" 
d="M97 166l-16 404h129l-16 -404h-97zM212 55c0 39 -32 66 -68 66c-38 0 -69 -27 -69 -66c0 -38 31 -65 69 -65c36 0 68 27 68 65z" />
    <glyph glyph-name="ampersand.sc" horiz-adv-x="584" 
d="M356 349v67h100v-68h68v-86h-68v-91c0 -61 13 -85 80 -85v-95c-79 1 -131 13 -154 63c-26 -42 -87 -64 -136 -64c-112 0 -195 74 -195 175c0 67 30 120 86 147c-34 18 -55 57 -55 108c0 80 71 156 162 156c75 0 124 -33 157 -80l-89 -56c-15 19 -32 32 -56 32
c-41 0 -62 -28 -62 -58c0 -14 10 -65 65 -65h97zM356 262h-83c-75 0 -106 -37 -110 -79c-2 -52 40 -89 94 -89c53 0 99 43 99 120v48z" />
    <glyph glyph-name="question.sc" horiz-adv-x="427" 
d="M142 406h-103c0 108 72 174 173 174c99 0 174 -63 174 -163c0 -81 -50 -139 -115 -159c-45 -13 -44 -32 -48 -93h-104c0 11 -1 20 -1 31c0 86 31 130 104 156c43 16 58 35 58 65c0 32 -32 56 -68 56c-38 0 -68 -27 -70 -67zM104 55c0 39 32 66 68 66c38 0 69 -27 69 -66
c0 -38 -31 -65 -69 -65c-36 0 -68 27 -68 65z" />
    <glyph glyph-name="A.sc" horiz-adv-x="570" 
d="M218 235h134l-68 204zM440 0l-51 137h-207l-52 -137h-118l214 572h118l214 -572h-118z" />
    <glyph glyph-name="B.sc" horiz-adv-x="551" 
d="M473 415c0 -40 -16 -85 -69 -109c67 -20 99 -84 99 -133c0 -94 -67 -173 -179 -173h-242v572h225c102 0 166 -60 166 -157zM193 346h106c36 0 58 28 58 64c0 38 -22 62 -61 62h-103v-126zM316 250h-123v-150h125c44 0 69 38 69 76c0 34 -26 74 -71 74z" />
    <glyph glyph-name="C.sc" horiz-adv-x="600" 
d="M482 174l89 -65c-51 -72 -137 -119 -234 -119c-164 0 -290 132 -290 293c0 164 126 295 290 295c97 0 179 -46 232 -116l-89 -64c-35 45 -85 74 -143 74c-102 0 -178 -84 -178 -189c0 -103 76 -187 178 -187c59 0 112 31 145 78z" />
    <glyph glyph-name="D.sc" horiz-adv-x="614" 
d="M306 0h-224v572h224c165 0 259 -124 259 -288c0 -162 -94 -284 -259 -284zM193 102h113c98 0 147 83 147 182c0 102 -49 186 -147 186h-113v-368z" />
    <glyph glyph-name="E.sc" horiz-adv-x="499" 
d="M82 572h356v-100h-246v-140h216v-100h-216v-132h253v-100h-363v572z" />
    <glyph glyph-name="F.sc" horiz-adv-x="466" 
d="M82 572h352v-100h-241v-140h191v-100h-191v-232h-111v572z" />
    <glyph glyph-name="G.sc" horiz-adv-x="648" 
d="M547 488l-80 -71h-2c-32 35 -78 56 -127 56c-101 0 -180 -85 -180 -190c0 -103 79 -189 180 -189c72 0 146 41 149 110h-155v93h282c0 -211 -112 -307 -276 -307s-292 132 -292 293c0 164 128 295 292 295c84 0 159 -35 209 -90z" />
    <glyph glyph-name="H.sc" horiz-adv-x="607" 
d="M525 572v-572h-112v234h-221v-234h-110v572h110v-237h221v237h112z" />
    <glyph glyph-name="I.sc" horiz-adv-x="274" 
d="M82 572h110v-572h-110v572z" />
    <glyph glyph-name="J.sc" horiz-adv-x="275" 
d="M-71 -185l10 102c22 -8 64 -9 69 -9c54 0 74 39 74 86v578h111v-578c0 -105 -50 -192 -185 -192c-15 0 -51 5 -79 13z" />
    <glyph glyph-name="K.sc" horiz-adv-x="522" 
d="M255 288l269 -288h-145l-185 205v-205h-112v572h112v-199l148 199h131z" />
    <glyph glyph-name="L.sc" horiz-adv-x="428" 
d="M82 572h111v-472h218v-100h-329v572z" />
    <glyph glyph-name="M.sc" horiz-adv-x="784" 
d="M391 194l179 378h95l69 -572h-111l-43 361l-143 -297h-88l-145 297l-44 -361h-111l70 572h94z" />
    <glyph glyph-name="N.sc" horiz-adv-x="589" 
d="M507 0h-101l-214 364v-364h-110v572h102l211 -358v358h112v-572z" />
    <glyph glyph-name="O.sc" horiz-adv-x="674" 
d="M47 283c0 164 127 295 289 295c164 0 292 -131 292 -295c0 -161 -128 -293 -292 -293c-162 0 -289 132 -289 293zM158 283c0 -101 78 -183 178 -183c101 0 181 82 181 183c0 102 -80 185 -181 185c-100 0 -178 -83 -178 -185z" />
    <glyph glyph-name="P.sc" horiz-adv-x="530" 
d="M82 572h233c128 0 184 -93 184 -186c0 -94 -56 -184 -184 -184h-122v-202h-111v572zM313 472h-120v-171h116c53 0 78 44 78 85s-24 86 -74 86z" />
    <glyph glyph-name="Q.sc" horiz-adv-x="677" 
d="M505 43l56 -92l-82 -51l-62 101c-25 -7 -52 -11 -79 -11c-164 0 -292 132 -292 293c0 164 128 295 292 295c165 0 293 -131 293 -295c0 -98 -50 -186 -126 -240zM389 230l58 -94c42 33 72 88 72 147c0 105 -80 189 -181 189s-180 -84 -180 -189c0 -98 71 -170 165 -183
c10 -1 25 0 34 0c-10 18 -21 34 -32 51l-18 29z" />
    <glyph glyph-name="R.sc" horiz-adv-x="549" 
d="M354 206l146 -206h-135l-134 202h-38v-202h-111v572h230c126 0 185 -93 185 -186c0 -81 -45 -161 -143 -180zM307 472h-114v-171h110c54 0 77 44 77 85s-22 86 -73 86z" />
    <glyph glyph-name="S.sc" horiz-adv-x="503" 
d="M49 170h112c1 -42 36 -79 94 -79c55 0 88 28 91 65c3 36 -22 61 -76 74l-70 20c-125 34 -145 108 -145 160c0 101 88 168 194 168c109 0 191 -66 191 -176h-110c0 44 -32 74 -82 74c-45 0 -82 -26 -82 -64c0 -17 7 -46 66 -62l69 -20c122 -33 160 -108 157 -177
c-5 -103 -99 -163 -203 -163c-123 0 -206 80 -206 180z" />
    <glyph glyph-name="T.sc" horiz-adv-x="477" 
d="M23 572h431v-101h-159v-471h-113v471h-159v101z" />
    <glyph glyph-name="U.sc" horiz-adv-x="588" 
d="M294 96c56 0 107 42 107 105v371h111v-371c0 -128 -101 -211 -218 -211c-116 0 -218 83 -218 211v371h113v-371c0 -63 50 -105 105 -105z" />
    <glyph glyph-name="V.sc" horiz-adv-x="505" 
d="M144 572l108 -384l108 384h117l-174 -572h-100l-175 572h116z" />
    <glyph glyph-name="W.sc" horiz-adv-x="770" 
d="M633 572h120l-195 -572h-89l-84 308l-84 -308h-89l-194 572h120l119 -379l84 301h89l83 -300z" />
    <glyph glyph-name="X.sc" horiz-adv-x="564" 
d="M347 306l200 -306h-132l-134 213l-132 -213h-132l198 306l-179 266h134l111 -176l114 176h132z" />
    <glyph glyph-name="Y.sc" horiz-adv-x="572" 
d="M342 0h-113v260l-220 312h132l144 -215l145 215h135l-223 -312v-260z" />
    <glyph glyph-name="Z.sc" horiz-adv-x="514" 
d="M47 87l271 385h-259v100h403v-86l-272 -385h272v-101h-415v87z" />
    <glyph glyph-name="Scaron.sc" horiz-adv-x="503" 
d="M248 699l63 70h84l-95 -139h-105l-93 139h83zM161 170h-112c0 -100 83 -180 206 -180c104 0 198 60 203 163c3 69 -35 144 -157 177l-69 20c-59 16 -66 45 -66 62c0 38 37 64 82 64c50 0 82 -30 82 -74h110c0 110 -82 176 -191 176c-106 0 -194 -67 -194 -168
c0 -52 20 -126 145 -160l70 -20c54 -13 79 -38 76 -74c-3 -37 -36 -65 -91 -65c-58 0 -93 37 -94 79z" />
    <glyph glyph-name="OE.sc" horiz-adv-x="933" 
d="M515 572h357v-101h-245v-139h214v-101h-214v-129h252v-102h-364v61c-47 -43 -111 -71 -179 -71c-163 0 -290 132 -290 293c0 164 127 295 290 295c68 0 132 -25 179 -72v66zM157 283c0 -100 78 -182 179 -182s179 86 179 185c-3 98 -81 181 -179 181
c-101 0 -179 -82 -179 -184z" />
    <glyph glyph-name="Ydieresis.sc" horiz-adv-x="572" 
d="M150 708c0 32 27 56 60 56s58 -24 58 -56c0 -33 -25 -57 -58 -57s-60 24 -60 57zM294 708c0 32 27 56 59 56c33 0 59 -24 59 -56c0 -33 -26 -57 -59 -57c-32 0 -59 24 -59 57zM342 0h-113v260l-220 312h132l144 -215l145 215h135l-223 -312v-260z" />
    <glyph glyph-name="exclamdown.sc" horiz-adv-x="290" 
d="M97 404l-16 -404h129l-16 404h-97zM212 515c0 -39 -32 -66 -68 -66c-38 0 -69 27 -69 66c0 38 31 65 69 65c36 0 68 -27 68 -65z" />
    <glyph glyph-name="questiondown.sc" horiz-adv-x="427" 
d="M285 164h103c0 -108 -72 -174 -173 -174c-99 0 -174 63 -174 163c0 81 50 139 115 159c45 13 44 32 48 93h104c0 -11 1 -20 1 -31c0 -86 -31 -130 -104 -156c-43 -16 -58 -35 -58 -65c0 -32 32 -56 68 -56c38 0 68 27 70 67zM323 515c0 -39 -32 -66 -68 -66
c-38 0 -69 27 -69 66c0 38 31 65 69 65c36 0 68 -27 68 -65z" />
    <glyph glyph-name="Agrave.sc" horiz-adv-x="570" 
d="M249 631l-118 139h113l90 -139h-85zM218 235h134l-68 204zM440 0l-51 137h-207l-52 -137h-118l214 572h118l214 -572h-118z" />
    <glyph glyph-name="Aacute.sc" horiz-adv-x="570" 
d="M439 768l-117 -140h-86l91 140h112zM352 235h-134l66 204zM389 137l51 -137h118l-214 572h-118l-214 -572h118l52 137h207z" />
    <glyph glyph-name="Acircumflex.sc" horiz-adv-x="570" 
d="M343 632l-62 71l-63 -71h-83l94 140h104l95 -140h-85zM218 235h134l-68 204zM440 0l-51 137h-207l-52 -137h-118l214 572h118l214 -572h-118z" />
    <glyph glyph-name="Atilde.sc" horiz-adv-x="570" 
d="M245 682c-6 0 -18 -9 -18 -35h-64c4 73 39 102 72 107c34 3 52 -32 82 -32c6 0 18 7 19 33h64c-4 -83 -49 -107 -83 -107c-30 0 -49 34 -72 34zM218 235h134l-68 204zM440 0l-51 137h-207l-52 -137h-118l214 572h118l214 -572h-118z" />
    <glyph glyph-name="Adieresis.sc" horiz-adv-x="570" 
d="M143 708c0 32 28 56 61 56c32 0 58 -24 58 -56c0 -33 -26 -57 -58 -57c-33 0 -61 24 -61 57zM287 708c0 32 27 56 60 56s59 -24 59 -56c0 -33 -26 -57 -59 -57s-60 24 -60 57zM352 235h-134l66 204zM389 137l51 -137h118l-214 572h-118l-214 -572h118l52 137h207z" />
    <glyph glyph-name="Aring.sc" horiz-adv-x="570" 
d="M183 724c0 56 43 99 97 99c56 0 99 -43 99 -99c0 -55 -43 -97 -99 -97c-54 0 -97 42 -97 97zM239 724c0 -23 19 -41 41 -41c24 0 44 18 44 41s-20 43 -44 43c-22 0 -41 -20 -41 -43zM352 235h-134l66 204zM389 137l51 -137h118l-214 572h-118l-214 -572h118l52 137h207z
" />
    <glyph glyph-name="AE.sc" horiz-adv-x="802" 
d="M221 134l-86 -134h-133l362 572h377v-101h-245v-139h214v-101h-214v-129h253v-102h-364v134h-164zM285 242h100v173z" />
    <glyph glyph-name="Ccedilla.sc" horiz-adv-x="601" 
d="M285 -96c4 -14 19 -20 32 -15s16 21 12 34l-26 70c-148 16 -256 140 -256 291c0 164 126 295 290 295c97 0 179 -46 232 -116l-89 -64c-35 46 -85 74 -143 74c-102 0 -178 -84 -178 -189c0 -102 76 -186 178 -186c59 0 112 30 145 77l89 -65c-48 -66 -119 -109 -207 -117
c15 -30 31 -53 31 -82c0 -46 -39 -87 -90 -87c-46 0 -89 39 -87 105l65 -3s0 -15 2 -22z" />
    <glyph glyph-name="Egrave.sc" horiz-adv-x="499" 
d="M82 572h356v-100h-246v-140h216v-100h-216v-132h253v-100h-363v572zM241 631l-119 139h114l91 -139h-86z" />
    <glyph glyph-name="Eacute.sc" horiz-adv-x="499" 
d="M388 770l-119 -139h-85l90 139h114zM438 572h-356v-572h363v100h-253v132h216v100h-216v140h246v100z" />
    <glyph glyph-name="Ecircumflex.sc" horiz-adv-x="499" 
d="M82 572h356v-100h-246v-140h216v-100h-216v-132h253v-100h-363v572zM310 632l-63 71l-63 -71h-83l93 140h105l94 -140h-83z" />
    <glyph glyph-name="Edieresis.sc" horiz-adv-x="499" 
d="M117 708c0 32 27 56 61 56c31 0 58 -24 58 -56c0 -33 -27 -57 -58 -57c-34 0 -61 24 -61 57zM260 708c0 32 27 56 61 56c32 0 58 -24 58 -56c0 -33 -26 -57 -58 -57c-34 0 -61 24 -61 57zM438 572h-356v-572h363v100h-253v132h216v100h-216v140h246v100z" />
    <glyph glyph-name="Igrave.sc" horiz-adv-x="274" 
d="M82 572h110v-572h-110v572zM104 631l-119 139h114l91 -139h-86z" />
    <glyph glyph-name="Iacute.sc" horiz-adv-x="274" 
d="M174 773h115l-121 -133h-88zM192 572h-110v-572h110v572z" />
    <glyph glyph-name="Icircumflex.sc" horiz-adv-x="274" 
d="M82 572h110v-572h-110v572zM201 632l-63 71l-63 -71h-83l93 140h105l94 -140h-83z" />
    <glyph glyph-name="Idieresis.sc" horiz-adv-x="274" 
d="M192 572h-110v-572h110v572zM7 708c0 32 27 56 61 56c31 0 58 -24 58 -56c0 -33 -27 -57 -58 -57c-34 0 -61 24 -61 57zM150 708c0 32 27 56 61 56c32 0 58 -24 58 -56c0 -33 -26 -57 -58 -57c-34 0 -61 24 -61 57z" />
    <glyph glyph-name="Eth.sc" horiz-adv-x="620" 
d="M313 0h-223v244h-77v72h77v256h223c164 0 257 -124 257 -288c0 -162 -93 -284 -257 -284zM201 316h113v-72h-113v-140h112c97 0 146 82 146 180c0 101 -49 184 -146 184h-112v-152z" />
    <glyph glyph-name="Ntilde.sc" horiz-adv-x="589" 
d="M507 0h-101l-214 364v-364h-110v572h102l211 -358v358h112v-572zM258 682c-6 0 -18 -9 -18 -35h-65c5 81 48 108 83 108c32 0 48 -33 72 -33c5 0 18 7 18 33h64c-3 -83 -49 -107 -82 -107c-30 0 -50 34 -72 34z" />
    <glyph glyph-name="Ograve.sc" horiz-adv-x="674" 
d="M284 631l-119 139h113l91 -139h-85zM47 283c0 164 127 295 289 295c164 0 292 -131 292 -295c0 -161 -128 -293 -292 -293c-162 0 -289 132 -289 293zM158 283c0 -101 78 -183 178 -183c101 0 181 82 181 183c0 102 -80 185 -181 185c-100 0 -178 -83 -178 -185z" />
    <glyph glyph-name="Oacute.sc" horiz-adv-x="674" 
d="M498 770l-119 -139h-85l90 139h114zM47 283c0 -161 127 -293 289 -293c164 0 292 132 292 293c0 164 -128 295 -292 295c-162 0 -289 -131 -289 -295zM158 283c0 102 78 185 178 185c101 0 181 -83 181 -185c0 -101 -80 -183 -181 -183c-100 0 -178 82 -178 183z" />
    <glyph glyph-name="Ocircumflex.sc" horiz-adv-x="674" 
d="M400 632l-64 72l-61 -72h-84l94 140h104l94 -140h-83zM47 283c0 164 127 295 289 295c164 0 292 -131 292 -295c0 -161 -128 -293 -292 -293c-162 0 -289 132 -289 293zM158 283c0 -101 78 -183 178 -183c101 0 181 82 181 183c0 102 -80 185 -181 185
c-100 0 -178 -83 -178 -185z" />
    <glyph glyph-name="Otilde.sc" horiz-adv-x="674" 
d="M47 283c0 164 127 295 289 295c164 0 292 -131 292 -295c0 -161 -128 -293 -292 -293c-162 0 -289 132 -289 293zM158 283c0 -101 78 -183 178 -183c101 0 181 82 181 183c0 102 -80 185 -181 185c-100 0 -178 -83 -178 -185zM301 682c-6 0 -18 -9 -18 -35h-64
c4 81 47 108 82 108c33 0 49 -33 72 -33c6 0 18 7 19 33h63c-3 -83 -48 -107 -82 -107c-29 0 -48 34 -72 34z" />
    <glyph glyph-name="Odieresis.sc" horiz-adv-x="674" 
d="M206 708c0 32 27 56 60 56c32 0 58 -24 58 -56c0 -33 -26 -57 -58 -57c-33 0 -60 24 -60 57zM350 708c0 32 26 56 59 56s59 -24 59 -56c0 -33 -26 -57 -59 -57s-59 24 -59 57zM47 283c0 -161 127 -293 289 -293c164 0 292 132 292 293c0 164 -128 295 -292 295
c-162 0 -289 -131 -289 -295zM158 283c0 102 78 185 178 185c101 0 181 -83 181 -185c0 -101 -80 -183 -181 -183c-100 0 -178 82 -178 183z" />
    <glyph glyph-name="Oslash.sc" horiz-adv-x="673" 
d="M156 52l-66 -68l-42 43l65 68c-41 51 -67 116 -67 188c0 164 127 295 289 295c71 0 134 -25 184 -66l66 67l42 -42l-66 -67c41 -52 66 -117 66 -187c0 -161 -128 -293 -292 -293c-68 0 -129 24 -179 62zM157 283c0 -40 12 -79 34 -109l251 259c-29 21 -67 35 -107 35
c-100 0 -178 -83 -178 -185zM335 100c101 0 181 82 181 183c0 41 -13 78 -33 107l-250 -258c28 -21 63 -32 102 -32z" />
    <glyph glyph-name="Ugrave.sc" horiz-adv-x="588" 
d="M275 631l-118 139h113l90 -139h-85zM294 96c56 0 107 42 107 105v371h111v-371c0 -128 -101 -211 -218 -211c-116 0 -218 83 -218 211v371h113v-371c0 -63 50 -105 105 -105z" />
    <glyph glyph-name="Uacute.sc" horiz-adv-x="588" 
d="M428 770l-118 -139h-86l92 139h112zM294 96c56 0 107 42 107 105v371h111v-371c0 -128 -101 -211 -218 -211c-116 0 -218 83 -218 211v371h113v-371c0 -63 50 -105 105 -105z" />
    <glyph glyph-name="Ucircumflex.sc" horiz-adv-x="588" 
d="M356 632l-63 72l-62 -72h-84l94 140h104l95 -140h-84zM294 96c56 0 107 42 107 105v371h111v-371c0 -128 -101 -211 -218 -211c-116 0 -218 83 -218 211v371h113v-371c0 -63 50 -105 105 -105z" />
    <glyph glyph-name="Udieresis.sc" horiz-adv-x="588" 
d="M162 708c0 32 28 56 61 56c32 0 57 -24 57 -56c0 -33 -25 -57 -57 -57c-33 0 -61 24 -61 57zM306 708c0 32 27 56 60 56s59 -24 59 -56c0 -33 -26 -57 -59 -57s-60 24 -60 57zM294 96c56 0 107 42 107 105v371h111v-371c0 -128 -101 -211 -218 -211
c-116 0 -218 83 -218 211v371h113v-371c0 -63 50 -105 105 -105z" />
    <glyph glyph-name="Yacute.sc" horiz-adv-x="572" 
d="M342 0h-113v260l-220 312h132l144 -215l145 215h135l-223 -312v-260zM426 770l-119 -139h-85l90 139h114z" />
    <glyph glyph-name="Thorn.sc" horiz-adv-x="497" 
d="M282 108h-89v-108h-111v572h111v-95h89c103 0 183 -71 183 -184c0 -112 -80 -185 -183 -185zM193 205h85c40 0 77 33 77 86c0 56 -38 87 -78 89h-84v-175z" />
    <glyph glyph-name="Amacron.sc" horiz-adv-x="570" 
d="M168 738h227v-74h-227v74zM218 235h134l-68 204zM440 0l-51 137h-207l-52 -137h-118l214 572h118l214 -572h-118z" />
    <glyph glyph-name="Abreve.sc" horiz-adv-x="570" 
d="M169 753h73c0 -28 12 -45 39 -45s39 22 39 45h74c0 -69 -47 -112 -113 -112c-78 0 -112 55 -112 112zM352 235h-134l66 204zM389 137l51 -137h118l-214 572h-118l-214 -572h118l52 137h207z" />
    <glyph glyph-name="Cacute.sc" horiz-adv-x="600" 
d="M484 770l-118 -139h-86l91 139h113zM571 109l-89 65c-33 -47 -86 -78 -145 -78c-102 0 -178 84 -178 187c0 105 76 189 178 189c58 0 108 -29 143 -74l89 64c-53 70 -135 116 -232 116c-164 0 -290 -131 -290 -295c0 -161 126 -293 290 -293c97 0 183 47 234 119z" />
    <glyph glyph-name="Ccircumflex.sc" horiz-adv-x="600" 
d="M397 632l-63 71l-63 -71h-83l94 140h104l94 -140h-83zM482 174l89 -65c-51 -72 -137 -119 -234 -119c-164 0 -290 132 -290 293c0 164 126 295 290 295c97 0 179 -46 232 -116l-89 -64c-35 45 -85 74 -143 74c-102 0 -178 -84 -178 -189c0 -103 76 -187 178 -187
c59 0 112 31 145 78z" />
    <glyph glyph-name="Cdotaccent.sc" horiz-adv-x="600" 
d="M267 714c0 34 27 59 62 59s63 -25 63 -59c0 -35 -28 -60 -63 -60s-62 25 -62 60zM571 109l-89 65c-33 -47 -86 -78 -145 -78c-102 0 -178 84 -178 187c0 105 76 189 178 189c58 0 108 -29 143 -74l89 64c-53 70 -135 116 -232 116c-164 0 -290 -131 -290 -295
c0 -161 126 -293 290 -293c97 0 183 47 234 119z" />
    <glyph glyph-name="Ccaron.sc" horiz-adv-x="600" 
d="M571 109l-89 65c-33 -47 -86 -78 -145 -78c-102 0 -178 84 -178 187c0 105 76 189 178 189c58 0 108 -29 143 -74l89 64c-53 70 -135 116 -232 116c-164 0 -290 -131 -290 -295c0 -161 126 -293 290 -293c97 0 183 47 234 119zM341 699l63 70h84l-95 -139h-105l-93 139
h83z" />
    <glyph glyph-name="Dcaron.sc" horiz-adv-x="614" 
d="M304 699l64 70h84l-95 -139h-105l-94 139h84zM82 0h224c165 0 259 122 259 284c0 164 -94 288 -259 288h-224v-572zM306 102h-113v368h113c98 0 147 -84 147 -186c0 -99 -49 -182 -147 -182z" />
    <glyph glyph-name="Aogonek.sc" horiz-adv-x="570" 
d="M494 0l-25 -77c-4 -14 -1 -29 13 -34c24 -11 36 22 33 37l64 3c2 -67 -40 -105 -87 -105c-51 0 -89 41 -89 87c0 32 19 60 36 92l-50 134h-207l-52 -137h-118l214 572h118l214 -572h-64zM285 438l-67 -203h135z" />
    <glyph glyph-name="Emacron.sc" horiz-adv-x="499" 
d="M82 572h356v-100h-246v-140h216v-100h-216v-132h253v-100h-363v572zM139 738h226v-74h-226v74z" />
    <glyph glyph-name="Ebreve.sc" horiz-adv-x="499" 
d="M134 753h73c0 -28 13 -45 40 -45s38 22 38 45h74c0 -69 -45 -112 -112 -112c-77 0 -113 55 -113 112zM438 572h-356v-572h363v100h-253v132h216v100h-216v140h246v100z" />
    <glyph glyph-name="Edotaccent.sc" horiz-adv-x="499" 
d="M196 714c0 34 28 59 63 59c34 0 62 -25 62 -59c0 -35 -28 -60 -62 -60c-35 0 -63 25 -63 60zM438 572h-356v-572h363v100h-253v132h216v100h-216v140h246v100z" />
    <glyph glyph-name="Ecaron.sc" horiz-adv-x="499" 
d="M438 572h-356v-572h363v100h-253v132h216v100h-216v140h246v100zM249 699l63 70h84l-95 -139h-105l-93 139h83z" />
    <glyph glyph-name="Gcircumflex.sc" horiz-adv-x="648" 
d="M547 488l-80 -71h-2c-32 35 -78 56 -127 56c-101 0 -180 -85 -180 -190c0 -103 79 -189 180 -189c72 0 146 41 149 110h-155v93h282c0 -211 -112 -307 -276 -307s-292 132 -292 293c0 164 128 295 292 295c84 0 159 -35 209 -90zM389 632l-63 72l-62 -72h-84l94 140h104
l95 -140h-84z" />
    <glyph glyph-name="Gbreve.sc" horiz-adv-x="648" 
d="M467 417l80 71c-50 55 -125 90 -209 90c-164 0 -292 -131 -292 -295c0 -161 128 -293 292 -293s276 96 276 307h-282v-93h155c-3 -69 -77 -110 -149 -110c-101 0 -180 86 -180 189c0 105 79 190 180 190c49 0 95 -21 127 -56h2zM214 753h73c0 -28 13 -45 40 -45
s38 22 38 45h74c0 -69 -45 -112 -112 -112c-77 0 -113 55 -113 112z" />
    <glyph glyph-name="Eogonek.sc" horiz-adv-x="499" 
d="M384 0h-302v572h356v-100h-246v-140h216v-100h-216v-132h253v-99l-29 -75c-5 -13 -2 -29 12 -34c25 -11 38 23 33 37l65 3c2 -66 -40 -104 -87 -104c-52 0 -89 40 -89 87c0 10 0 26 7 39z" />
    <glyph glyph-name="Dcroat.sc" horiz-adv-x="620" 
d="M313 0h-223v243h-77v75h77v254h223c164 0 257 -124 257 -288c0 -162 -93 -284 -257 -284zM201 318h113v-75h-113v-139h112c97 0 146 82 146 180c0 101 -49 184 -146 184h-112v-150z" />
    <glyph glyph-name="Gdotaccent.sc" horiz-adv-x="648" 
d="M467 417l80 71c-50 55 -125 90 -209 90c-164 0 -292 -131 -292 -295c0 -161 128 -293 292 -293s276 96 276 307h-282v-93h155c-3 -69 -77 -110 -149 -110c-101 0 -180 86 -180 189c0 105 79 190 180 190c49 0 95 -21 127 -56h2zM274 714c0 34 28 59 63 59
c34 0 62 -25 62 -59c0 -35 -28 -60 -62 -60c-35 0 -63 25 -63 60z" />
    <glyph glyph-name="Hcircumflex.sc" horiz-adv-x="607" 
d="M525 572v-572h-112v234h-221v-234h-110v572h110v-237h221v237h112zM366 632l-63 71l-62 -71h-84l94 140h104l94 -140h-83z" />
    <glyph glyph-name="Hbar.sc" horiz-adv-x="618" 
d="M531 484h59v-61h-59v-423h-112v234h-221v-234h-111v423h-58v61h58v88h111v-88h221v88h112v-88zM198 335h221v88h-221v-88z" />
    <glyph glyph-name="Itilde.sc" horiz-adv-x="274" 
d="M101 682c-6 0 -18 -9 -18 -35h-64c4 81 47 108 82 108c33 0 48 -33 72 -33c6 0 18 7 19 33h64c-4 -83 -49 -107 -83 -107c-30 0 -50 34 -72 34zM82 572h110v-572h-110v572z" />
    <glyph glyph-name="Imacron.sc" horiz-adv-x="274" 
d="M82 572h110v-572h-110v572zM24 738h227v-74h-227v74z" />
    <glyph glyph-name="Iogonek.sc" horiz-adv-x="274" 
d="M82 4v568h110v-572h-53l-27 -77c-4 -14 -2 -29 12 -34c24 -11 36 22 33 37l65 3c0 -66 -40 -105 -87 -105c-52 0 -90 41 -90 87c0 12 1 26 8 40z" />
    <glyph glyph-name="IJ.sc" horiz-adv-x="549" 
d="M82 572h110v-572h-110v572zM203 -185l10 102c22 -8 64 -9 69 -9c54 0 74 39 74 86v578h111v-578c0 -105 -50 -192 -185 -192c-15 0 -51 5 -79 13z" />
    <glyph glyph-name="Jcircumflex.sc" horiz-adv-x="275" 
d="M198 632l-63 71l-62 -71h-84l94 140h104l95 -140h-84zM-71 -185l10 102c22 -8 64 -9 69 -9c54 0 74 39 74 86v578h111v-578c0 -105 -50 -192 -185 -192c-15 0 -51 5 -79 13z" />
    <glyph glyph-name="Lacute.sc" horiz-adv-x="428" 
d="M285 767l-118 -140h-85l89 140h114zM193 572h-111v-572h329v100h-218v472z" />
    <glyph glyph-name="Lcaron.sc" horiz-adv-x="434" 
d="M311 374l-68 20c26 36 45 76 51 125c3 16 4 33 4 52h93c-5 -100 -43 -167 -80 -197zM82 572h111v-472h218v-100h-329v572z" />
    <glyph glyph-name="Ldot.sc" horiz-adv-x="428" 
d="M82 572h111v-472h218v-100h-329v572zM253 243c0 30 26 54 58 54c31 0 57 -24 57 -54c0 -33 -26 -56 -57 -56c-32 0 -58 23 -58 56z" />
    <glyph glyph-name="Nacute.sc" horiz-adv-x="589" 
d="M439 770l-119 -139h-85l91 139h113zM406 0h101v572h-112v-358l-211 358h-102v-572h110v364z" />
    <glyph glyph-name="Ncaron.sc" horiz-adv-x="589" 
d="M290 699l62 70h84l-94 -139h-105l-93 139h83zM406 0h101v572h-112v-358l-211 358h-102v-572h110v364z" />
    <glyph glyph-name="Omacron.sc" horiz-adv-x="674" 
d="M223 738h227v-74h-227v74zM47 283c0 164 127 295 289 295c164 0 292 -131 292 -295c0 -161 -128 -293 -292 -293c-162 0 -289 132 -289 293zM158 283c0 -101 78 -183 178 -183c101 0 181 82 181 183c0 102 -80 185 -181 185c-100 0 -178 -83 -178 -185z" />
    <glyph glyph-name="Obreve.sc" horiz-adv-x="674" 
d="M224 753h73c0 -28 13 -45 39 -45c28 0 39 22 39 45h74c0 -69 -45 -112 -113 -112c-77 0 -112 55 -112 112zM47 283c0 -161 127 -293 289 -293c164 0 292 132 292 293c0 164 -128 295 -292 295c-162 0 -289 -131 -289 -295zM158 283c0 102 78 185 178 185
c101 0 181 -83 181 -185c0 -101 -80 -183 -181 -183c-100 0 -178 82 -178 183z" />
    <glyph glyph-name="Ohungarumlaut.sc" horiz-adv-x="674" 
d="M412 769l-95 -139h-85l86 139h94zM540 769l-104 -139h-87l96 139h95zM47 283c0 -161 127 -293 289 -293c164 0 292 132 292 293c0 164 -128 295 -292 295c-162 0 -289 -131 -289 -295zM158 283c0 102 78 185 178 185c101 0 181 -83 181 -185c0 -101 -80 -183 -181 -183
c-100 0 -178 82 -178 183z" />
    <glyph glyph-name="Racute.sc" horiz-adv-x="549" 
d="M395 770l-119 -139h-85l91 139h113zM500 0l-146 206c98 19 143 99 143 180c0 93 -59 186 -185 186h-230v-572h111v202h38l134 -202h135zM193 472h114c51 0 73 -45 73 -86s-23 -85 -77 -85h-110v171z" />
    <glyph glyph-name="Rcaron.sc" horiz-adv-x="549" 
d="M271 699l63 70h84l-94 -139h-105l-95 139h85zM500 0l-146 206c98 19 143 99 143 180c0 93 -59 186 -185 186h-230v-572h111v202h38l134 -202h135zM193 472h114c51 0 73 -45 73 -86s-23 -85 -77 -85h-110v171z" />
    <glyph glyph-name="Sacute.sc" horiz-adv-x="503" 
d="M394 770l-118 -139h-86l91 139h113zM161 170h-112c0 -100 83 -180 206 -180c104 0 198 60 203 163c3 69 -35 144 -157 177l-69 20c-59 16 -66 45 -66 62c0 38 37 64 82 64c50 0 82 -30 82 -74h110c0 110 -82 176 -191 176c-106 0 -194 -67 -194 -168
c0 -52 20 -126 145 -160l70 -20c54 -13 79 -38 76 -74c-3 -37 -36 -65 -91 -65c-58 0 -93 37 -94 79z" />
    <glyph glyph-name="Scircumflex.sc" horiz-adv-x="503" 
d="M314 632l-63 71l-63 -71h-84l94 140h105l94 -140h-83zM49 170h112c1 -42 36 -79 94 -79c55 0 88 28 91 65c3 36 -22 61 -76 74l-70 20c-125 34 -145 108 -145 160c0 101 88 168 194 168c109 0 191 -66 191 -176h-110c0 44 -32 74 -82 74c-45 0 -82 -26 -82 -64
c0 -17 7 -46 66 -62l69 -20c122 -33 160 -108 157 -177c-5 -103 -99 -163 -203 -163c-123 0 -206 80 -206 180z" />
    <glyph glyph-name="Scedilla.sc" horiz-adv-x="502" 
d="M298 -5c15 -30 32 -55 32 -84c0 -46 -40 -87 -90 -87c-47 0 -88 39 -87 105l65 -3c-4 -15 9 -48 33 -37c14 5 17 21 13 34l-27 69c-112 7 -187 83 -187 179h111c1 -41 36 -80 94 -80c56 0 88 27 92 65c3 36 -24 60 -76 74l-70 19c-125 34 -145 111 -145 161
c0 100 88 168 193 168c109 0 191 -67 191 -176h-110c0 43 -31 73 -82 73c-44 0 -82 -25 -82 -63c0 -18 7 -47 66 -62l69 -21c116 -35 154 -103 156 -162c2 -96 -71 -159 -159 -172z" />
    <glyph glyph-name="Utilde.sc" horiz-adv-x="588" 
d="M294 96c56 0 107 42 107 105v371h111v-371c0 -128 -101 -211 -218 -211c-116 0 -218 83 -218 211v371h113v-371c0 -62 50 -105 105 -105zM258 682c-6 0 -18 -9 -18 -35h-64c4 81 47 108 82 108c33 0 46 -33 72 -33c6 0 18 7 19 33h63c-3 -83 -48 -107 -82 -107
c-31 0 -50 34 -72 34z" />
    <glyph glyph-name="Umacron.sc" horiz-adv-x="588" 
d="M180 738h228v-74h-228v74zM294 96c56 0 107 42 107 105v371h111v-371c0 -128 -101 -211 -218 -211c-116 0 -218 83 -218 211v371h113v-371c0 -63 50 -105 105 -105z" />
    <glyph glyph-name="Ubreve.sc" horiz-adv-x="588" 
d="M182 753h72c0 -28 13 -45 39 -45c27 0 39 22 39 45h75c0 -69 -47 -112 -114 -112c-77 0 -111 55 -111 112zM294 96c56 0 107 42 107 105v371h111v-371c0 -128 -101 -211 -218 -211c-116 0 -218 83 -218 211v371h113v-371c0 -63 50 -105 105 -105z" />
    <glyph glyph-name="Uring.sc" horiz-adv-x="588" 
d="M196 724c0 56 42 99 97 99c56 0 99 -43 99 -99c0 -55 -43 -97 -99 -97c-55 0 -97 42 -97 97zM252 724c0 -23 19 -41 41 -41c24 0 43 18 43 41s-19 43 -43 43c-22 0 -41 -20 -41 -43zM294 96c56 0 107 42 107 105v371h111v-371c0 -128 -101 -211 -218 -211
c-116 0 -218 83 -218 211v371h113v-371c0 -63 50 -105 105 -105z" />
    <glyph glyph-name="Uhungarumlaut.sc" horiz-adv-x="588" 
d="M294 96c56 0 107 42 107 105v371h111v-371c0 -128 -101 -211 -218 -211c-116 0 -218 83 -218 211v371h113v-371c0 -63 50 -105 105 -105zM354 769l-95 -139h-85l86 139h94zM482 769l-104 -139h-87l96 139h95z" />
    <glyph glyph-name="Uogonek.sc" horiz-adv-x="590" 
d="M230 -89c0 18 7 38 15 55l15 29c-101 14 -183 93 -183 207v370h113v-370c0 -62 50 -104 105 -104c56 0 107 42 107 104v370h111v-370c0 -118 -86 -198 -191 -209c-9 -23 -18 -47 -26 -70c-4 -14 -1 -29 12 -34c25 -11 37 22 34 37l65 3c1 -68 -42 -105 -87 -105
c-51 0 -90 41 -90 87z" />
    <glyph glyph-name="Wcircumflex.sc" horiz-adv-x="770" 
d="M448 632l-63 71l-63 -71h-83l94 140h104l95 -140h-84zM633 572h120l-195 -572h-89l-84 308l-84 -308h-89l-194 572h120l119 -379l84 301h89l83 -300z" />
    <glyph glyph-name="Ycircumflex.sc" horiz-adv-x="572" 
d="M348 632l-62 71l-63 -71h-83l94 140h104l94 -140h-84zM342 0h-113v260l-220 312h132l144 -215l145 215h135l-223 -312v-260z" />
    <glyph glyph-name="Tcaron.sc" horiz-adv-x="477" 
d="M244 699l63 70h84l-95 -139h-105l-93 139h83zM454 572h-431v-101h159v-471h113v471h159v101z" />
    <glyph glyph-name="Tbar.sc" horiz-adv-x="477" 
d="M182 246h-95v67h95v158h-159v101h431v-101h-159v-158h98v-67h-98v-246h-113v246z" />
    <glyph glyph-name="Zacute.sc" horiz-adv-x="514" 
d="M399 770l-120 -139h-85l91 139h114zM47 87l271 385h-259v100h403v-86l-272 -385h272v-101h-415v87z" />
    <glyph glyph-name="Zdotaccent.sc" horiz-adv-x="514" 
d="M202 714c0 34 28 59 62 59c36 0 63 -25 63 -59c0 -35 -27 -60 -63 -60c-34 0 -62 25 -62 60zM47 87l271 385h-259v100h403v-86l-272 -385h272v-101h-415v87z" />
    <glyph glyph-name="Wgrave.sc" horiz-adv-x="770" 
d="M353 631l-118 139h113l91 -139h-86zM633 572h120l-195 -572h-89l-84 308l-84 -308h-89l-194 572h120l119 -379l84 301h89l83 -300z" />
    <glyph glyph-name="Wacute.sc" horiz-adv-x="770" 
d="M535 770l-119 -139h-85l91 139h113zM753 572h-120l-120 -378l-83 300h-89l-84 -301l-119 379h-120l194 -572h89l84 308l84 -308h89z" />
    <glyph glyph-name="Wdieresis.sc" horiz-adv-x="770" 
d="M254 708c0 32 27 56 60 56c32 0 59 -24 59 -56c0 -33 -27 -57 -59 -57c-33 0 -60 24 -60 57zM397 708c0 32 27 56 61 56c32 0 59 -24 59 -56c0 -33 -27 -57 -59 -57c-34 0 -61 24 -61 57zM753 572h-120l-120 -378l-83 300h-89l-84 -301l-119 379h-120l194 -572h89l84 308
l84 -308h89z" />
    <glyph glyph-name="Aringacute.sc" horiz-adv-x="570" 
d="M430 914l-94 -112c26 -17 45 -48 45 -83c0 -55 -44 -98 -101 -98c-52 0 -96 43 -96 98c0 44 30 82 69 95l65 100h112zM241 719c0 -23 18 -42 40 -42c25 0 44 19 44 42c0 24 -19 43 -44 43c-22 0 -40 -19 -40 -43zM352 235h-134l66 204zM389 137l51 -137h118l-214 572
h-118l-214 -572h118l52 137h207z" />
    <glyph glyph-name="AEacute.sc" horiz-adv-x="802" 
d="M589 770l-119 -139h-85l91 139h113zM135 0l86 134h164v-134h364v102h-253v129h214v101h-214v139h245v101h-377l-362 -572h133zM385 242h-100l100 173v-173z" />
    <glyph glyph-name="Oslashacute.sc" horiz-adv-x="673" 
d="M495 770l-120 -139h-84l90 139h114zM90 -16l66 68c50 -38 111 -62 179 -62c164 0 292 132 292 293c0 70 -25 135 -66 187l66 67l-42 42l-66 -67c-50 41 -113 66 -184 66c-162 0 -289 -131 -289 -295c0 -72 26 -137 67 -188l-65 -68zM157 283c0 102 78 185 178 185
c40 0 78 -14 107 -35l-251 -259c-22 30 -34 69 -34 109zM335 100c-39 0 -74 11 -102 32l250 258c20 -29 33 -66 33 -107c0 -101 -80 -183 -181 -183z" />
    <glyph glyph-name="Ibreve.sc" horiz-adv-x="274" 
d="M192 572h-110v-572h110v572zM25 753h73c0 -28 13 -45 40 -45s38 22 38 45h74c0 -69 -45 -112 -112 -112c-77 0 -113 55 -113 112z" />
    <glyph glyph-name="Eng.sc" horiz-adv-x="589" 
d="M395 4l-202 358v-362h-111v572h103l209 -369v369h113v-561c0 -108 -45 -202 -184 -202c-26 0 -52 6 -80 13l11 108c17 -4 35 -7 49 -9c17 -1 31 0 36 2c38 7 55 44 56 81z" />
    <glyph glyph-name="Ygrave.sc" horiz-adv-x="572" 
d="M260 631l-118 139h113l91 -139h-86zM342 0h-113v260l-220 312h132l144 -215l145 215h135l-223 -312v-260z" />
    <glyph glyph-name="Gcommaaccent.sc" horiz-adv-x="648" 
d="M547 488l-80 -71h-2c-32 35 -78 56 -127 56c-101 0 -180 -85 -180 -190c0 -103 79 -189 180 -189c72 0 146 41 149 110h-155v93h282c0 -211 -112 -307 -276 -307s-292 132 -292 293c0 164 128 295 292 295c84 0 159 -35 209 -90zM308 -248l-56 24c36 48 40 125 36 184h97
c1 -96 -41 -178 -77 -208z" />
    <glyph glyph-name="Kcommaaccent.sc" horiz-adv-x="522" 
d="M255 288l269 -288h-145l-185 205v-205h-112v572h112v-199l148 199h131zM266 -248l-56 24c36 48 40 125 36 184h97c1 -96 -41 -178 -77 -208z" />
    <glyph glyph-name="Lcommaaccent.sc" horiz-adv-x="428" 
d="M82 572h111v-472h218v-100h-329v572zM214 -248l-56 24c36 48 40 125 36 184h97c1 -96 -41 -178 -77 -208z" />
    <glyph glyph-name="Ncommaaccent.sc" horiz-adv-x="589" 
d="M507 0h-101l-214 360v-360h-110v572h102l211 -355v355h112v-572zM266 -248l-56 24c36 48 40 125 36 184h97c1 -96 -41 -178 -77 -208z" />
    <glyph glyph-name="Rcommaaccent.sc" horiz-adv-x="549" 
d="M354 206l146 -206h-135l-134 202h-38v-202h-111v572h230c126 0 185 -93 185 -186c0 -81 -45 -161 -143 -180zM307 472h-114v-171h110c54 0 77 44 77 85s-22 86 -73 86zM266 -248l-56 24c36 48 40 125 36 184h97c1 -96 -41 -178 -77 -208z" />
    <glyph glyph-name="Tcommaaccent.sc" horiz-adv-x="477" 
d="M23 572h431v-101h-159v-471h-113v471h-159v101zM209 -248l-56 24c36 48 40 125 36 184h97c1 -96 -41 -178 -77 -208z" />
    <glyph glyph-name="Scommaaccent.sc" horiz-adv-x="503" 
d="M49 170h112c1 -42 36 -79 94 -79c55 0 89 28 91 65c3 37 -23 60 -76 74l-70 20c-125 34 -145 108 -145 160c0 101 88 168 194 168c109 0 191 -66 191 -176h-110c0 44 -32 74 -82 74c-45 0 -82 -26 -82 -64c0 -18 7 -46 66 -62l69 -20c122 -35 160 -107 157 -177
c-5 -103 -99 -163 -203 -163c-123 0 -206 80 -206 180zM231 -248l-56 24c36 48 40 125 36 184h97c1 -96 -41 -178 -77 -208z" />
    <glyph glyph-name="Idotaccent.sc" horiz-adv-x="274" 
d="M192 572h-110v-572h110v572zM75 714c0 34 28 59 63 59c34 0 62 -25 62 -59c0 -35 -28 -60 -62 -60c-35 0 -63 25 -63 60z" />
    <glyph glyph-name="zero.numr" horiz-adv-x="356" 
d="M36 461c0 112 30 200 142 200s142 -88 142 -200c0 -108 -30 -197 -142 -197s-142 89 -142 197zM109 461c0 -68 15 -126 69 -126c55 0 69 58 69 126c0 70 -14 128 -69 128c-54 0 -69 -58 -69 -128z" />
    <glyph glyph-name="one.numr" horiz-adv-x="213" 
d="M88 270v284l-66 -30v66l139 69v-389h-73z" />
    <glyph glyph-name="two.numr" horiz-adv-x="318" 
d="M32 307l157 188c13 15 22 33 22 50c0 26 -21 46 -54 46c-31 0 -55 -23 -60 -58l-67 14c12 70 62 114 130 114s124 -48 124 -116c0 -38 -17 -72 -41 -99c-44 -50 -46 -52 -93 -106h128v-70h-246v37z" />
    <glyph glyph-name="three.numr" horiz-adv-x="317" 
d="M97 567l-55 38c22 36 66 59 116 56c66 -4 111 -52 111 -107c0 -31 -20 -60 -48 -76c41 -15 68 -62 64 -104c-6 -65 -73 -114 -147 -109c-53 4 -99 37 -120 81l62 32c12 -22 34 -43 63 -43c34 -2 63 22 65 48c1 20 -8 60 -60 59h-42v63h42c38 0 46 36 44 50
c-1 19 -17 39 -44 39c-23 1 -40 -10 -51 -27z" />
    <glyph glyph-name="four.numr" horiz-adv-x="346" 
d="M271 353v-83h-73v83h-190l193 301h70v-238h51v-63h-51zM116 416h82v130z" />
    <glyph glyph-name="five.numr" horiz-adv-x="339" 
d="M86 383c15 -29 45 -47 74 -47c48 0 79 30 79 65c0 44 -34 64 -72 64c-26 0 -62 -8 -93 -38l-35 23l32 204h215v-68h-156l-13 -74c18 12 43 17 67 17c70 0 127 -44 127 -128c0 -81 -59 -137 -151 -137c-54 0 -107 31 -135 79c6 4 55 36 61 40z" />
    <glyph glyph-name="six.numr" horiz-adv-x="338" 
d="M303 584l-67 -28c-12 26 -32 36 -51 36c-55 0 -77 -57 -75 -118c9 20 39 44 77 44c61 0 120 -49 119 -131c-1 -73 -58 -125 -136 -124c-71 1 -126 52 -133 133c-8 111 7 268 150 264c44 -2 89 -16 116 -76zM117 393c0 -33 25 -58 57 -59c31 0 57 25 58 57
c0 32 -25 58 -56 59c-33 0 -59 -25 -59 -57z" />
    <glyph glyph-name="seven.numr" horiz-adv-x="314" 
d="M309 654l-186 -384h-83l152 316h-166v68h283z" />
    <glyph glyph-name="eight.numr" horiz-adv-x="345" 
d="M59 556c0 58 51 105 114 105s113 -47 113 -105c0 -26 -10 -49 -28 -65c33 -20 56 -55 56 -97c0 -72 -63 -130 -141 -130c-79 0 -142 58 -142 130c0 43 22 76 56 97c-17 17 -28 39 -28 65zM104 395c0 -34 31 -62 69 -62c37 0 68 28 68 62c0 33 -29 63 -65 63h-9
c-36 0 -63 -31 -63 -63zM131 554c0 -21 15 -40 42 -40c27 1 42 20 42 40c0 21 -17 39 -42 39c-26 0 -42 -18 -42 -39z" />
    <glyph glyph-name="nine.numr" horiz-adv-x="338" 
d="M35 340l68 28c12 -26 32 -36 51 -36c54 0 76 58 75 118c-10 -20 -39 -44 -78 -44c-61 0 -120 49 -119 131c2 73 58 124 136 123c72 -1 127 -51 134 -133c8 -108 -9 -268 -150 -263c-45 2 -89 16 -117 76zM222 531c0 32 -25 58 -57 59s-58 -25 -58 -57
c-1 -33 24 -58 56 -59c32 0 58 25 59 57z" />
    <glyph glyph-name="zerosuperior" unicode="&#x2070;" horiz-adv-x="356" 
d="M36 624c0 111 30 199 142 199s142 -88 142 -199c0 -108 -30 -197 -142 -197s-142 89 -142 197zM109 624c0 -69 15 -126 69 -126c55 0 69 57 69 126c0 70 -14 128 -69 128c-54 0 -69 -58 -69 -128z" />
    <glyph glyph-name="foursuperior" unicode="&#x2074;" horiz-adv-x="350" 
d="M274 515v-82h-73v82h-190l193 302h70v-238h51v-64h-51zM119 579h82v130z" />
    <glyph glyph-name="fivesuperior" unicode="&#x2075;" horiz-adv-x="340" 
d="M85 546c15 -29 45 -47 74 -47c48 0 79 30 79 65c0 44 -34 64 -72 64c-26 0 -62 -8 -93 -38l-35 23l32 204h215v-68h-156l-13 -74c18 12 43 17 67 17c70 0 127 -44 127 -128c0 -81 -59 -137 -151 -137c-54 0 -107 31 -135 79c6 4 55 36 61 40z" />
    <glyph glyph-name="sixsuperior" unicode="&#x2076;" horiz-adv-x="339" 
d="M304 747l-67 -28c-12 26 -32 35 -51 35c-55 0 -77 -57 -75 -117c9 20 39 44 77 44c61 0 120 -49 119 -131c-1 -73 -58 -125 -136 -124c-71 1 -126 52 -133 133c-8 111 7 268 150 264c44 -2 89 -16 116 -76zM118 556c0 -33 25 -58 57 -59c31 0 57 25 58 57
c0 32 -25 58 -56 59c-33 0 -59 -25 -59 -57z" />
    <glyph glyph-name="sevensuperior" unicode="&#x2077;" horiz-adv-x="324" 
d="M313 817l-186 -384h-83l152 315h-166v69h283z" />
    <glyph glyph-name="eightsuperior" unicode="&#x2078;" horiz-adv-x="345" 
d="M59 718c0 59 51 105 114 105s113 -46 113 -105c0 -25 -10 -48 -28 -64c33 -21 56 -55 56 -97c0 -72 -63 -130 -141 -130c-79 0 -142 58 -142 130c0 43 22 76 56 97c-17 17 -28 38 -28 64zM104 558c0 -34 31 -62 69 -62c37 0 68 28 68 62c0 33 -29 63 -65 63h-9
c-36 0 -63 -31 -63 -63zM131 717c0 -21 15 -40 42 -40s42 20 42 40c0 21 -17 39 -42 39c-26 0 -42 -18 -42 -39z" />
    <glyph glyph-name="ninesuperior" unicode="&#x2079;" horiz-adv-x="339" 
d="M36 503l68 28c12 -26 32 -36 51 -36c54 0 76 58 75 118c-10 -20 -39 -44 -78 -44c-61 0 -120 49 -119 131c2 73 58 124 136 123c72 -1 127 -52 134 -133c8 -109 -9 -268 -150 -263c-45 2 -89 16 -117 76zM223 694c0 32 -25 58 -57 59c-32 0 -58 -25 -58 -57
c-1 -33 24 -58 56 -59c32 0 58 24 59 57z" />
    <glyph glyph-name="zeroinferior" unicode="&#x2080;" horiz-adv-x="356" 
d="M36 43c0 111 30 199 142 199s142 -88 142 -199c0 -109 -30 -197 -142 -197s-142 88 -142 197zM109 43c0 -69 15 -126 69 -126c55 0 69 57 69 126c0 70 -14 128 -69 128c-54 0 -69 -58 -69 -128z" />
    <glyph glyph-name="oneinferior" unicode="&#x2081;" horiz-adv-x="212" 
d="M88 -149v285l-66 -30v65l139 70v-390h-73z" />
    <glyph glyph-name="twoinferior" unicode="&#x2082;" horiz-adv-x="321" 
d="M34 -111l157 187c13 16 22 33 22 50c0 26 -21 46 -54 46c-31 0 -55 -23 -60 -57l-67 13c12 70 62 114 130 114s124 -47 124 -116c0 -37 -17 -71 -41 -98c-44 -50 -46 -52 -93 -107h128v-70h-246v38z" />
    <glyph glyph-name="threeinferior" unicode="&#x2083;" horiz-adv-x="318" 
d="M98 148l-55 38c22 36 66 59 116 56c66 -4 111 -52 111 -107c0 -31 -20 -60 -48 -76c41 -15 68 -62 64 -104c-6 -65 -73 -114 -147 -109c-53 4 -99 37 -120 81l62 32c12 -22 34 -43 63 -43c34 -2 63 22 65 48c1 20 -8 60 -60 59h-42v63h42c38 0 46 36 44 50
c-1 19 -17 39 -44 39c-23 1 -40 -10 -51 -27z" />
    <glyph glyph-name="fourinferior" unicode="&#x2084;" horiz-adv-x="347" 
d="M272 -66v-83h-73v83h-190l193 302h70v-238h51v-64h-51zM117 -2h82v130z" />
    <glyph glyph-name="fiveinferior" unicode="&#x2085;" horiz-adv-x="338" 
d="M85 -35c15 -29 45 -47 74 -47c48 0 79 30 79 65c0 44 -34 64 -72 64c-26 0 -62 -8 -93 -38l-35 23l32 204h215v-68h-156l-13 -75c18 13 43 18 67 18c70 0 127 -44 127 -128c0 -81 -59 -138 -151 -138c-54 0 -107 32 -135 79c6 5 55 36 61 41z" />
    <glyph glyph-name="sixinferior" unicode="&#x2086;" horiz-adv-x="338" 
d="M303 166l-67 -28c-12 25 -32 35 -51 35c-55 0 -77 -57 -75 -118c9 21 39 45 77 45c61 0 120 -50 119 -131c-1 -73 -58 -125 -136 -124c-71 1 -126 52 -133 133c-8 110 7 268 150 264c44 -2 89 -16 116 -76zM117 -26c0 -32 25 -58 57 -58c31 -1 57 25 58 56
c0 33 -25 59 -56 59c-33 1 -59 -24 -59 -57z" />
    <glyph glyph-name="seveninferior" unicode="&#x2087;" horiz-adv-x="314" 
d="M310 236l-186 -385h-83l152 316h-166v69h283z" />
    <glyph glyph-name="eightinferior" unicode="&#x2088;" horiz-adv-x="345" 
d="M59 137c0 59 51 105 114 105s113 -46 113 -105c0 -25 -10 -48 -28 -64c33 -21 56 -55 56 -97c0 -72 -63 -130 -141 -130c-79 0 -142 58 -142 130c0 42 22 76 56 97c-17 17 -28 38 -28 64zM104 -23c0 -34 31 -62 69 -62c37 0 68 28 68 62c0 32 -29 63 -65 63h-9
c-36 0 -63 -31 -63 -63zM131 136c0 -21 15 -41 42 -41c27 1 42 21 42 41c0 21 -17 39 -42 39c-26 0 -42 -18 -42 -39z" />
    <glyph glyph-name="nineinferior" unicode="&#x2089;" horiz-adv-x="339" 
d="M36 -79l68 29c12 -26 32 -36 51 -36c54 0 76 57 75 118c-10 -21 -39 -44 -78 -44c-61 0 -120 49 -119 131c2 72 58 124 136 123c72 -1 127 -52 134 -133c8 -109 -9 -268 -150 -264c-45 2 -89 17 -117 76zM223 112c0 33 -25 59 -57 59c-32 1 -58 -25 -58 -56
c-1 -33 24 -59 56 -59s58 24 59 56z" />
    <glyph glyph-name="zero.dnom" horiz-adv-x="356" 
d="M36 192c0 111 30 199 142 199s142 -88 142 -199c0 -109 -30 -198 -142 -198s-142 89 -142 198zM109 192c0 -69 15 -127 69 -127c55 0 69 58 69 127c0 70 -14 127 -69 127c-54 0 -69 -57 -69 -127z" />
    <glyph glyph-name="one.dnom" horiz-adv-x="213" 
d="M89 0v284l-66 -30v66l139 69v-389h-73z" />
    <glyph glyph-name="two.dnom" horiz-adv-x="318" 
d="M32 38l157 187c13 16 22 33 22 50c0 26 -21 46 -54 46c-31 0 -55 -23 -60 -57l-67 13c12 70 62 114 130 114s124 -48 124 -116c0 -38 -17 -71 -41 -98c-44 -50 -46 -53 -93 -107h128v-70h-246v38z" />
    <glyph glyph-name="three.dnom" horiz-adv-x="319" 
d="M99 297l-55 38c22 36 66 59 116 56c66 -4 111 -52 111 -107c0 -31 -20 -60 -48 -76c41 -15 68 -62 64 -104c-6 -65 -73 -114 -147 -109c-53 4 -99 37 -120 81l62 32c12 -22 34 -43 63 -43c34 -2 63 22 65 48c1 20 -8 60 -60 59h-42v63h42c38 0 46 36 44 50
c-1 19 -17 39 -44 39c-23 1 -40 -10 -51 -27z" />
    <glyph glyph-name="four.dnom" horiz-adv-x="347" 
d="M272 83v-83h-73v83h-190l193 302h70v-238h51v-64h-51zM117 147h82v130z" />
    <glyph glyph-name="five.dnom" horiz-adv-x="339" 
d="M85 113c15 -28 45 -47 74 -47c48 0 79 30 79 66c0 43 -34 64 -72 64c-26 0 -62 -8 -93 -39l-35 23l32 204h215v-68h-156l-13 -74c18 12 43 17 67 17c70 0 127 -44 127 -127c0 -81 -59 -138 -151 -138c-54 0 -107 31 -135 79c6 4 55 36 61 40z" />
    <glyph glyph-name="six.dnom" horiz-adv-x="338" 
d="M303 315l-67 -29c-12 26 -32 36 -51 36c-55 0 -77 -57 -75 -118c9 21 39 44 77 44c61 0 120 -49 119 -131c-1 -72 -58 -124 -136 -123c-71 1 -126 51 -133 133c-8 110 7 267 150 263c44 -2 89 -16 116 -75zM117 123c0 -32 25 -58 57 -58c31 -1 57 24 58 56
c0 33 -25 59 -56 59c-33 0 -59 -25 -59 -57z" />
    <glyph glyph-name="seven.dnom" horiz-adv-x="317" 
d="M310 385l-186 -385h-83l152 316h-166v69h283z" />
    <glyph glyph-name="eight.dnom" horiz-adv-x="345" 
d="M59 286c0 58 51 105 114 105s113 -47 113 -105c0 -26 -10 -48 -28 -65c33 -20 56 -55 56 -97c0 -72 -63 -130 -141 -130c-79 0 -142 58 -142 130c0 43 22 76 56 97c-17 17 -28 39 -28 65zM104 126c0 -35 31 -63 69 -63c37 0 68 28 68 63c0 32 -29 62 -65 62h-9
c-36 0 -63 -30 -63 -62zM131 285c0 -22 15 -41 42 -41c27 1 42 20 42 41c0 20 -17 38 -42 38c-26 0 -42 -18 -42 -38z" />
    <glyph glyph-name="nine.dnom" horiz-adv-x="339" 
d="M36 70l68 29c12 -26 32 -37 51 -37c54 0 76 58 75 119c-10 -21 -39 -45 -78 -45c-61 0 -120 50 -119 131c2 73 58 125 136 123c72 -1 127 -51 134 -133c8 -108 -9 -268 -150 -263c-45 2 -89 16 -117 76zM223 261c0 33 -25 59 -57 59c-32 1 -58 -25 -58 -57
c-1 -32 24 -58 56 -58c32 -1 58 24 59 56z" />
    <glyph glyph-name="ordmasculine" unicode="&#xba;" horiz-adv-x="464" 
d="M229 317c-94 0 -173 68 -173 174c0 103 79 170 173 170c93 0 173 -67 173 -170c0 -106 -80 -174 -173 -174zM229 388c55 0 101 40 101 103c0 60 -46 99 -101 99s-101 -39 -101 -99c0 -63 46 -103 101 -103zM74 203v62h320v-62h-320z" />
    <glyph glyph-name="ordfeminine" unicode="&#xaa;" horiz-adv-x="477" 
d="M327 324v46c-23 -33 -67 -53 -107 -53c-91 0 -168 67 -168 172s77 172 168 172c41 0 82 -16 107 -52v45h71v-330h-71zM327 490c0 65 -53 100 -102 100c-55 0 -99 -40 -99 -100s44 -102 99 -102c54 0 102 37 102 102zM81 203v62h315v-62h-315z" />
    <glyph glyph-name="l.alt1" horiz-adv-x="305" 
d="M303 112v-112h-65c-130 0 -174 81 -174 202v519h123v-521c-1 -40 10 -88 69 -88h47z" />
    <glyph glyph-name="a.alt1" horiz-adv-x="540" 
d="M226 97c35 0 102 17 130 55v22c-30 21 -93 29 -116 29c-72 0 -83 -32 -83 -52c0 -28 24 -54 69 -54zM131 312l-72 69c58 82 143 96 204 96c133 0 214 -69 214 -200v-277h-120v48c-35 -43 -102 -58 -140 -58c-109 0 -181 57 -181 153c0 82 54 147 202 147
c29 0 89 -11 119 -31v18c0 51 -37 93 -101 93c-37 0 -92 -15 -125 -58z" />
    <glyph glyph-name="y.alt1" horiz-adv-x="509" 
d="M162 -36l28 67l-180 436h129l116 -287l116 287h130l-229 -549c-47 -106 -91 -150 -191 -150c-7 0 -29 0 -69 10v107c33 -5 53 -5 68 -5c43 0 60 32 82 84z" />
    <glyph glyph-name="lslash.alt1" horiz-adv-x="326" 
d="M322 112v-112h-65c-130 0 -174 81 -174 202v91l-75 -47v84l75 47v344h123v-267l87 55v-84l-87 -55v-170c-1 -40 10 -88 69 -88h47z" />
    <glyph glyph-name="lacute.alt1" horiz-adv-x="305" 
d="M175 929h128l-138 -163h-95zM303 0v112h-47c-59 0 -70 48 -69 88v521h-123v-519c0 -121 44 -202 174 -202h65z" />
    <glyph glyph-name="lcommaaccent.alt1" horiz-adv-x="305" 
d="M171 -274l-64 29c41 57 57 100 54 189h107c-6 -120 -52 -182 -97 -218zM303 112v-112h-65c-130 0 -174 81 -174 202v519h123v-521c-1 -40 10 -88 69 -88h47z" />
    <glyph glyph-name="lcaron.alt1" horiz-adv-x="305" 
d="M296 484l-75 25c41 57 68 123 65 212h107c-6 -120 -52 -201 -97 -237zM303 0v112h-47c-59 0 -70 48 -69 88v521h-123v-519c0 -121 44 -202 174 -202h65z" />
    <glyph glyph-name="aacute.alt1" horiz-adv-x="540" 
d="M328 707h128l-138 -163h-95zM226 97c35 0 102 17 130 55v22c-30 21 -93 29 -116 29c-72 0 -83 -32 -83 -52c0 -28 24 -54 69 -54zM131 312l-72 69c58 82 143 96 204 96c133 0 214 -69 214 -200v-277h-120v48c-35 -43 -102 -58 -140 -58c-109 0 -181 57 -181 153
c0 82 54 147 202 147c29 0 89 -11 119 -31v18c0 51 -37 93 -101 93c-37 0 -92 -15 -125 -58z" />
    <glyph glyph-name="agrave.alt1" horiz-adv-x="540" 
d="M96 707h128l105 -163h-95zM226 97c35 0 102 17 130 55v22c-30 21 -93 29 -116 29c-72 0 -83 -32 -83 -52c0 -28 24 -54 69 -54zM131 312l-72 69c58 82 143 96 204 96c133 0 214 -69 214 -200v-277h-120v48c-35 -43 -102 -58 -140 -58c-109 0 -181 57 -181 153
c0 82 54 147 202 147c29 0 89 -11 119 -31v18c0 51 -37 93 -101 93c-37 0 -92 -15 -125 -58z" />
    <glyph glyph-name="acircumflex.alt1" horiz-adv-x="540" 
d="M205 710h123l110 -163h-94l-78 88l-76 -88h-94zM226 97c35 0 102 17 130 55v22c-30 21 -93 29 -116 29c-72 0 -83 -32 -83 -52c0 -28 24 -54 69 -54zM131 312l-72 69c58 82 143 96 204 96c133 0 214 -69 214 -200v-277h-120v48c-35 -43 -102 -58 -140 -58
c-109 0 -181 57 -181 153c0 82 54 147 202 147c29 0 89 -11 119 -31v18c0 51 -37 93 -101 93c-37 0 -92 -15 -125 -58z" />
    <glyph glyph-name="adieresis.alt1" horiz-adv-x="540" 
d="M112 632c0 37 31 65 69 65c37 0 68 -28 68 -65s-31 -65 -68 -65c-38 0 -69 28 -69 65zM286 632c0 37 31 65 69 65s68 -28 68 -65s-30 -65 -68 -65s-69 28 -69 65zM226 97c35 0 102 17 130 55v22c-30 21 -93 29 -116 29c-72 0 -83 -32 -83 -52c0 -28 24 -54 69 -54z
M131 312l-72 69c58 82 143 96 204 96c133 0 214 -69 214 -200v-277h-120v48c-35 -43 -102 -58 -140 -58c-109 0 -181 57 -181 153c0 82 54 147 202 147c29 0 89 -11 119 -31v18c0 51 -37 93 -101 93c-37 0 -92 -15 -125 -58z" />
    <glyph glyph-name="atilde.alt1" horiz-adv-x="540" 
d="M231 607c-8 0 -25 -11 -26 -43h-70c5 95 55 125 96 125c43 0 63 -41 88 -41c8 0 26 9 27 41h70c-5 -94 -58 -123 -97 -123c-42 0 -65 41 -88 41zM226 97c35 0 102 17 130 55v22c-30 21 -93 29 -116 29c-72 0 -83 -32 -83 -52c0 -28 24 -54 69 -54zM131 312l-72 69
c58 82 143 96 204 96c133 0 214 -69 214 -200v-277h-120v48c-35 -43 -102 -58 -140 -58c-109 0 -181 57 -181 153c0 82 54 147 202 147c29 0 89 -11 119 -31v18c0 51 -37 93 -101 93c-37 0 -92 -15 -125 -58z" />
    <glyph glyph-name="aring.alt1" horiz-adv-x="540" 
d="M152 654c0 66 51 117 114 117c66 0 117 -51 117 -117c0 -64 -51 -114 -117 -114c-63 0 -114 50 -114 114zM209 654c0 -32 26 -57 57 -57c33 0 59 25 59 57c0 33 -26 59 -59 59c-31 0 -57 -26 -57 -59zM226 97c35 0 102 17 130 55v22c-30 21 -93 29 -116 29
c-72 0 -83 -32 -83 -52c0 -28 24 -54 69 -54zM131 312l-72 69c58 82 143 96 204 96c133 0 214 -69 214 -200v-277h-120v48c-35 -43 -102 -58 -140 -58c-109 0 -181 57 -181 153c0 82 54 147 202 147c29 0 89 -11 119 -31v18c0 51 -37 93 -101 93c-37 0 -92 -15 -125 -58z
" />
    <glyph glyph-name="amacron.alt1" horiz-adv-x="540" 
d="M134 585v83h269v-83h-269zM226 97c35 0 102 17 130 55v22c-30 21 -93 29 -116 29c-72 0 -83 -32 -83 -52c0 -28 24 -54 69 -54zM131 312l-72 69c58 82 143 96 204 96c133 0 214 -69 214 -200v-277h-120v48c-35 -43 -102 -58 -140 -58c-109 0 -181 57 -181 153
c0 82 54 147 202 147c29 0 89 -11 119 -31v18c0 51 -37 93 -101 93c-37 0 -92 -15 -125 -58z" />
    <glyph glyph-name="abreve.alt1" horiz-adv-x="540" 
d="M139 687h82c0 -34 16 -55 51 -55s51 27 51 55h83c0 -79 -55 -130 -134 -130c-92 0 -133 64 -133 130zM226 97c35 0 102 17 130 55v22c-30 21 -93 29 -116 29c-72 0 -83 -32 -83 -52c0 -28 24 -54 69 -54zM131 312l-72 69c58 82 143 96 204 96c133 0 214 -69 214 -200
v-277h-120v48c-35 -43 -102 -58 -140 -58c-109 0 -181 57 -181 153c0 82 54 147 202 147c29 0 89 -11 119 -31v18c0 51 -37 93 -101 93c-37 0 -92 -15 -125 -58z" />
    <glyph glyph-name="aogonek.alt1" horiz-adv-x="540" 
d="M131 312l-72 69c58 82 143 96 204 96c133 0 214 -69 214 -200v-277h-56l-35 -96c-6 -19 -1 -39 17 -46c18 -5 36 3 43 20c5 12 5 25 5 25l69 4c1 -77 -49 -120 -102 -120c-59 0 -105 49 -105 102c0 13 0 30 9 46l35 65v48c-35 -43 -102 -58 -140 -58
c-109 0 -181 57 -181 153c0 82 54 147 202 147c29 0 89 -11 119 -31v18c0 51 -37 93 -101 93c-37 0 -92 -15 -125 -58zM226 97c35 0 102 17 130 55v22c-30 21 -93 29 -116 29c-72 0 -83 -32 -83 -52c0 -28 24 -54 69 -54z" />
    <glyph glyph-name="yacute.alt1" horiz-adv-x="509" 
d="M281 707h128l-138 -163h-95zM190 31l-28 -67c-22 -52 -39 -84 -82 -84c-15 0 -35 0 -68 5v-107c40 -10 62 -10 69 -10c100 0 144 44 191 150l229 549h-130l-116 -287l-116 287h-129z" />
    <glyph glyph-name="ydieresis.alt1" horiz-adv-x="509" 
d="M96 632c0 37 31 65 69 65c37 0 68 -28 68 -65s-31 -65 -68 -65c-38 0 -69 28 -69 65zM270 632c0 37 31 65 69 65s68 -28 68 -65s-30 -65 -68 -65s-69 28 -69 65zM190 31l-28 -67c-22 -52 -39 -84 -82 -84c-15 0 -35 0 -68 5v-107c40 -10 62 -10 69 -10
c100 0 144 44 191 150l229 549h-130l-116 -287l-116 287h-129z" />
    <glyph glyph-name="ae.alt1" horiz-adv-x="871" 
d="M477 21v-21h-120v48c-35 -43 -102 -58 -140 -58c-109 0 -181 57 -181 153c0 82 54 147 202 147c29 0 89 -9 119 -29v16c0 51 -37 93 -101 93c-37 0 -92 -16 -125 -59l-72 70c58 82 143 96 204 96c74 0 131 -21 168 -63c44 40 103 63 168 63c133 0 237 -95 237 -242
c0 -12 -1 -31 -2 -42h-356c8 -62 60 -100 129 -100c47 0 95 20 117 60l93 -50c-42 -80 -132 -113 -218 -113c-45 0 -86 11 -122 31zM477 276h240c-9 64 -57 99 -117 99c-64 0 -114 -36 -123 -99zM220 97c35 0 108 17 136 55v18c-30 21 -93 29 -116 29c-72 0 -83 -36 -83 -56
c0 -22 18 -46 63 -46z" />
    <glyph glyph-name="aeacute.alt1" horiz-adv-x="871" 
d="M497 707h128l-138 -163h-95zM477 0v21c36 -20 77 -31 122 -31c86 0 176 33 218 113l-93 50c-22 -40 -70 -60 -117 -60c-69 0 -121 38 -129 100h356c1 11 2 30 2 42c0 147 -104 242 -237 242c-65 0 -124 -23 -168 -63c-37 42 -94 63 -168 63c-61 0 -146 -14 -204 -96
l72 -70c33 43 88 59 125 59c64 0 101 -42 101 -93v-16c-30 20 -90 29 -119 29c-148 0 -202 -65 -202 -147c0 -96 72 -153 181 -153c38 0 105 15 140 58v-48h120zM477 276c9 63 59 99 123 99c60 0 108 -35 117 -99h-240zM220 97c-45 0 -63 24 -63 46c0 20 11 56 83 56
c23 0 86 -8 116 -29v-18c-28 -38 -101 -55 -136 -55z" />
    <glyph glyph-name="ycircumflex.alt1" horiz-adv-x="509" 
d="M194 710h123l110 -163h-94l-78 88l-76 -88h-94zM162 -36l28 67l-180 436h129l116 -287l116 287h130l-229 -549c-47 -106 -91 -150 -191 -150c-7 0 -29 0 -69 10v107c33 -5 53 -5 68 -5c43 0 60 32 82 84z" />
    <glyph glyph-name="ldot.alt1" horiz-adv-x="404" 
d="M244 313c0 44 36 76 78 76c44 0 80 -32 80 -76s-36 -76 -80 -76c-42 0 -78 32 -78 76zM303 112v-112h-65c-130 0 -174 81 -174 202v519h123v-521c-1 -40 10 -88 69 -88h47z" />
    <glyph glyph-name="t.alt1" horiz-adv-x="383" 
d="M346 112v-112h-63c-130 0 -174 67 -174 188v181h-85v98h85v97l123 39v-136h97v-98h-97v-183c-1 -40 10 -74 69 -74h45z" />
    <glyph glyph-name="tcaron.alt1" horiz-adv-x="383" 
d="M336 524l-65 29c41 57 57 100 54 189h107c-6 -120 -52 -182 -96 -218zM346 0v112h-45c-59 0 -70 34 -69 74v183h97v98h-97v136l-123 -39v-97h-85v-98h85v-181c0 -121 44 -188 174 -188h63z" />
    <glyph glyph-name="tbar.alt1" horiz-adv-x="385" 
d="M348 112v-112h-63c-130 0 -174 67 -174 188v10h-59v71h59v100h-85v98h85v97l123 39v-136h97v-98h-97v-100h70v-71h-70v-12c-1 -40 10 -74 69 -74h45z" />
    <glyph glyph-name="tcommaaccent.alt1" horiz-adv-x="383" 
d="M205 -274l-64 29c41 57 57 100 54 189h107c-6 -120 -52 -182 -97 -218zM346 112v-112h-63c-130 0 -174 67 -174 188v181h-85v98h85v97l123 39v-136h97v-98h-97v-183c-1 -40 10 -74 69 -74h45z" />
    <glyph glyph-name="T.sc.alt1" horiz-adv-x="477" 
d="M23 572h431v-101h-159v-471h-113v471h-159v101z" />
    <glyph glyph-name="Tcaron.sc.alt1" horiz-adv-x="477" 
d="M244 699l63 70h84l-95 -139h-105l-93 139h83zM454 572h-431v-101h159v-471h113v471h159v101z" />
    <glyph glyph-name="Tbar.sc.alt1" horiz-adv-x="477" 
d="M182 246h-95v67h95v158h-159v101h431v-101h-159v-158h98v-67h-98v-246h-113v246z" />
    <glyph glyph-name="Tcommaaccent.sc.alt1" horiz-adv-x="477" 
d="M23 572h431v-101h-159v-471h-113v471h-159v101zM209 -248l-56 24c36 48 40 125 36 184h97c1 -96 -41 -178 -77 -208z" />
    <glyph glyph-name="aringacute.alt1" horiz-adv-x="540" 
d="M316 882h128l-113 -133c34 -20 57 -58 57 -101c0 -64 -51 -114 -117 -114c-63 0 -114 50 -114 114c0 54 34 97 80 112zM214 648c0 -32 26 -57 57 -57c33 0 59 25 59 57c0 33 -26 59 -59 59c-31 0 -57 -26 -57 -59zM226 97c35 0 102 17 130 55v22c-30 21 -93 29 -116 29
c-72 0 -83 -32 -83 -52c0 -28 24 -54 69 -54zM131 312l-72 69c58 82 143 96 204 96c133 0 214 -69 214 -200v-277h-120v48c-35 -43 -102 -58 -140 -58c-109 0 -181 57 -181 153c0 82 54 147 202 147c29 0 89 -11 119 -31v18c0 51 -37 93 -101 93c-37 0 -92 -15 -125 -58z
" />
    </font>
</defs>
</svg>
