<?xml version="1.0" encoding="UTF-8"?>
<svg width="32px" height="32px" viewBox="0 0 32 32" version="1.1" xmlns="http://www.w3.org/2000/svg" xmlns:xlink="http://www.w3.org/1999/xlink">
    <!-- Generator: Sketch 50.2 (55047) - http://www.bohemiancoding.com/sketch -->
    <title>Group 2@2x</title>
    <desc>Created with Sketch.</desc>
    <defs>
        <linearGradient x1="0%" y1="0%" x2="100%" y2="100%" id="linearGradient-1">
            <stop stop-color="#2D9ABF" offset="0%"></stop>
            <stop stop-color="#75E099" offset="100%"></stop>
        </linearGradient>
    </defs>
    <g id="Symbols" stroke="none" stroke-width="1" fill="none" fill-rule="evenodd">
        <g id="Chat-/-Ebot">
            <g id="Group-2">
                <rect id="Rectangle-2" fill="#F8F8F8" x="0" y="0" width="32" height="32" rx="4"></rect>
                <path d="M11.1910054,22.1275276 L20.8053622,22.1275276 L20.8053622,12.3867429 L11.1910054,12.3867429 L11.1910054,22.1275276 Z M21.1161946,10.7747276 L16.7941189,10.7747276 L16.7941189,7.82792381 C17.1187892,7.58118857 17.3329297,7.19198476 17.3329297,6.75056 C17.3329297,6.00509714 16.7349622,5.4 15.9993081,5.4 C15.2634811,5.4 14.6662054,6.00509714 14.6662054,6.75056 C14.6662054,7.19216 14.879827,7.58118857 15.2036324,7.82792381 L15.2036324,10.7747276 L10.8793081,10.7747276 C10.1734054,10.7747276 9.6,11.3551162 9.6,12.0707886 L9.6,22.4406781 C9.6,23.1574019 10.1734054,23.73744 10.8793081,23.73744 L21.1161946,23.73744 C21.8236541,23.73744 22.3961946,23.1570514 22.3961946,22.4406781 L22.3961946,12.0709638 C22.3961946,11.354941 21.8234811,10.7747276 21.1161946,10.7747276 L21.1161946,10.7747276 Z" id="Fill-1" fill="url(#linearGradient-1)"></path>
                <path d="M14.0827503,16.1175619 C14.5238314,16.1175619 14.8822314,15.75552 14.8822314,15.3086629 C14.8822314,14.8609295 14.5238314,14.4987124 14.0827503,14.4987124 C13.6401124,14.4987124 13.2827503,14.8609295 13.2827503,15.3086629 C13.2827503,15.7553448 13.6402854,16.1175619 14.0827503,16.1175619" id="Fill-3" fill="url(#linearGradient-1)"></path>
                <path d="M17.9140843,16.1175619 C18.3549924,16.1175619 18.7133924,15.75552 18.7133924,15.3086629 C18.7133924,14.8609295 18.3549924,14.4987124 17.9140843,14.4987124 C17.4714465,14.4987124 17.1139114,14.8609295 17.1139114,15.3086629 C17.1139114,15.7553448 17.4716195,16.1175619 17.9140843,16.1175619" id="Fill-4" fill="url(#linearGradient-1)"></path>
                <path d="M17.9140843,19.0433021 L14.082733,19.0433021 C13.6432086,19.0433021 13.2880951,19.4048183 13.2880951,19.8500983 C13.2880951,20.2938011 13.6433816,20.6537402 14.082733,20.6537402 L17.9140843,20.6537402 C18.3536086,20.6537402 18.7104519,20.2938011 18.7104519,19.8500983 C18.7104519,19.4048183 18.3536086,19.0433021 17.9140843,19.0433021" id="Fill-5" fill="url(#linearGradient-1)"></path>
            </g>
        </g>
    </g>
</svg>