<svg xmlns="http://www.w3.org/2000/svg" xmlns:xlink="http://www.w3.org/1999/xlink" width="24" height="25" viewBox="0 0 24 25"><defs><path id="9cvsa" d="M1189.2 92.5c0 6.4-5.14 11.6-11.46 11.6-6.32 0-11.46-5.2-11.46-11.6 0-6.4 5.14-11.61 11.46-11.61 6.32 0 11.46 5.2 11.46 11.6zm-2.08 0c0-5.24-4.2-9.5-9.38-9.5a9.44 9.44 0 0 0-9.38 9.5c0 5.24 4.2 9.49 9.38 9.49a9.44 9.44 0 0 0 9.38-9.5zm-3.54-3.49c.38.43.38 1.1-.04 1.48l-6.42 6.19c-.21.18-.49.28-.73.28-.25 0-.52-.1-.73-.31l-3.68-3.73a1.03 1.03 0 0 1 0-1.48 1 1 0 0 1 1.46 0l2.95 2.99 5.7-5.49a1.04 1.04 0 0 1 1.49.07z"/><linearGradient id="9cvsb" x1="1167.29" x2="1185.15" y1="93.8" y2="90.93" gradientUnits="userSpaceOnUse"><stop offset="0" stop-color="#0096d0"/><stop offset="1" stop-color="#1a5289"/></linearGradient></defs><g><g transform="translate(-1166 -80)"><use fill="url(#9cvsb)" xlink:href="#9cvsa"/></g></g></svg>