<?xml version="1.0" encoding="UTF-8"?>
<svg width="14px" height="16px" viewBox="0 0 14 16" version="1.1" xmlns="http://www.w3.org/2000/svg" xmlns:xlink="http://www.w3.org/1999/xlink">
    <!-- Generator: Sketch 48.2 (47327) - http://www.bohemiancoding.com/sketch -->
    <title>ico_notification</title>
    <desc>Created with Sketch.</desc>
    <defs></defs>
    <g id="Symbols" stroke="none" stroke-width="1" fill="none" fill-rule="evenodd">
        <g id="ico_notification">
            <path d="M8.98033852,2 C10.3835388,3.39289067 11.2357473,4.40672995 11.536964,5.04151782 C11.8381807,5.67630568 12.0048348,7.27801816 12.0369264,9.84665524 C12.5626963,10.5405471 13.0213177,10.9476157 13.4127906,11.0678608 C13.8042635,11.1881059 13.718988,11.5387943 13.1569641,12.119926 L12.0369264,13 L8.22398023,13 L4.64200304,13 L1.33487246,12.721029 C1.15837115,11.8528168 1.04634541,11.3017608 0.998795229,11.0678608 C0.951245046,10.8339609 1.34941289,10.5217211 2.19329876,10.1311416 L2.64190266,8.99319814 C2.47825586,7.51095512 2.47825586,6.41513247 2.64190266,5.7057302 C2.80554946,4.99632794 3.22763339,4.26243386 3.90815443,3.50404798 L6.31946449,2.30414267 L8.98033852,2 Z" id="Path-4" fill="#FFFFFF"></path>
            <path d="M1.75073322,13.0398984 L4.42391589,13.0398984 C4.69674851,14.1862698 5.76620203,15 7,15 C8.23379797,15 9.30325149,14.1862698 9.57608411,13.0398984 L12.2512484,13.0398984 C13.0781424,13.0384779 13.7913797,12.4863548 13.9620903,11.7155211 C14.1328009,10.9446875 13.7144869,10.1651017 12.9586807,9.84552922 L12.2076531,9.53024573 L12.2076531,6.77576306 C12.2027611,4.80076632 11.0060083,3.00454575 9.132205,2.15978628 L9.132205,2.03140737 C9.132205,0.909492059 8.17758431,0 7,0 C5.82241569,0 4.867795,0.909492059 4.867795,2.03140737 L4.867795,2.14090702 C2.99726121,2.94436118 1.79402322,4.71707702 1.79234688,6.67192718 L1.79234688,9.53024573 L1.04131928,9.84552922 C0.285513108,10.1651017 -0.132800908,10.9446875 0.037909681,11.7155211 C0.20862027,12.4863548 0.921857573,13.0384779 1.74875161,13.0398984 L1.75073322,13.0398984 Z M7,13.8611458 C6.42676177,13.8607445 5.90708049,13.5400289 5.67232588,13.0417864 L8.32767412,13.0417864 C8.09291951,13.5400289 7.57323823,13.8607445 7,13.8611458 Z M7,1.13464296 C7.42055101,1.13561138 7.78939914,1.40225236 7.90361104,1.78786504 C7.66799139,1.74697793 7.42957777,1.72237079 7.1902339,1.71423596 C6.8247203,1.70129708 6.45878686,1.7247081 6.09837056,1.78408919 C6.2131132,1.3998957 6.58073948,1.13432368 7,1.13275504 L7,1.13464296 Z M1.52284885,10.8820001 L2.62660182,10.4175705 C2.84184346,10.3271826 2.98090409,10.1243818 2.98130878,9.90027904 L2.98130878,6.67003926 C2.98130878,4.55549999 4.78053813,2.84132722 7,2.84132722 L7.14862024,2.84132722 C9.28280685,2.91306838 11.0186912,4.67639039 11.0186912,6.77198721 L11.0186912,9.89839112 C11.0190959,10.1224938 11.1581565,10.3252947 11.3733982,10.4156826 L12.4771511,10.8801122 C12.7186064,10.9835871 12.8517072,11.2334138 12.7968519,11.4801819 C12.7419966,11.7269499 12.5140207,11.9039206 12.2492668,11.9052555 L1.74677001,11.9052555 C1.48201608,11.9039206 1.25404022,11.7269499 1.19918489,11.4801819 C1.14432956,11.2334138 1.27743043,10.9835871 1.51888565,10.8801122 L1.52284885,10.8820001 Z" id="Shape" fill="#C7C7C7" fill-rule="nonzero"></path>
        </g>
    </g>
</svg>