<svg xmlns="http://www.w3.org/2000/svg" xmlns:xlink="http://www.w3.org/1999/xlink" width="19" height="24" viewBox="0 0 19 24"><defs><path id="97h0a" d="M120 41.82h1.76v-4.89H120z"/><path id="97h0b" d="M120 28v6.86h1.76v-5.14h14.96v20.51h-14.96V43.8H120v8.15h18.48V28z"/><path id="97h0c" d="M129.24 41.9a4 4 0 0 1-4.04-3.95 4 4 0 0 1 4.04-3.95 4 4 0 0 1 4.04 3.95 4 4 0 0 1-4.04 3.95zm0-6.18c-1.26-.01-2.29.98-2.3 2.21 0 1.23 1.01 2.24 2.27 2.24s2.29-.98 2.3-2.21a2.26 2.26 0 0 0-2.27-2.24z"/><path id="97h0d" d="M133.8 44.62h-1.75a2.77 2.77 0 0 0-2.8-2.73 2.77 2.77 0 0 0-2.81 2.73h-1.76a4.51 4.51 0 0 1 4.56-4.45c2.53 0 4.57 2 4.57 4.45"/></defs><g><g transform="translate(-120 -28)"><use fill="#cdcccd" xlink:href="#97h0a"/></g><g transform="translate(-120 -28)"><use fill="#cdcccd" xlink:href="#97h0b"/></g><g transform="translate(-120 -28)"><use fill="#cdcccd" xlink:href="#97h0c"/></g><g transform="translate(-120 -28)"><use fill="#cdcccd" xlink:href="#97h0d"/></g></g></svg>