<?xml version="1.0" encoding="UTF-8"?>
<svg width="23px" height="23px" viewBox="0 0 23 23" version="1.1" xmlns="http://www.w3.org/2000/svg" xmlns:xlink="http://www.w3.org/1999/xlink">
    <!-- Generator: Sketch 50.2 (55047) - http://www.bohemiancoding.com/sketch -->
    <title>Group 2@2x</title>
    <desc>Created with Sketch.</desc>
    <defs>
        <path d="M20.125,7.1875 C21.5625,7.1875 23,8.625 23,10.0625 L23,15.8125 C23,17.25 21.5625,18.6875 20.125,18.6875 L20.125,23 L15.8125,18.6875 L8.625,18.6875 C7.1875,18.6875 5.75,17.25 5.75,15.8125 L5.75,14.970125 L7.782625,12.9375 L14.375,12.9375 C16.5930625,12.9375 18.6875,10.841625 18.6875,8.625 L18.6875,7.1875 L20.125,7.1875 Z M7.1875,11.5 L2.875,15.8125 L2.875,11.5 C1.4375,11.5 0,10.0625 0,8.625 L0,2.875 C0,1.4375 1.4375,0 2.875,0 L14.375,0 C15.8125,0 17.25,1.4375 17.25,2.875 L17.25,8.625 C17.25,10.0625 15.8125,11.5 14.375,11.5 L7.1875,11.5 Z" id="path-1"></path>
    </defs>
    <g id="Symbols" stroke="none" stroke-width="1" fill="none" fill-rule="evenodd">
        <g id="Group-2">
            <g id="Page-1">
                <g id="Rectangle-12">
                    <mask id="mask-2" fill="white">
                        <use xlink:href="#path-1"></use>
                    </mask>
                    <use id="Mask" fill="#3F3F3F" xlink:href="#path-1"></use>
                    <g id="Asset-/-Colour-/-Primary" mask="url(#mask-2)" fill="#3F3F3F">
                        <g transform="translate(-2.000000, -4.000000)" id="Rectangle-27-Copy-2">
                            <rect x="0" y="0" width="32" height="32"></rect>
                        </g>
                    </g>
                </g>
            </g>
        </g>
    </g>
</svg>