<svg xmlns="http://www.w3.org/2000/svg" xmlns:xlink="http://www.w3.org/1999/xlink" width="19" height="24" viewBox="0 0 19 24"><defs><path id="zh91a" d="M368 41.82h1.76v-4.89H368z"/><path id="zh91c" d="M368 28v6.86h1.76v-5.14h14.96v20.51h-14.96V43.8H368v8.15h18.48V28z"/><path id="zh91e" d="M377.24 41.9a4 4 0 0 1-4.04-3.95 4 4 0 0 1 4.04-3.95 4 4 0 0 1 4.04 3.95 4 4 0 0 1-4.04 3.95zm0-6.18c-1.26-.01-2.29.98-2.3 2.21 0 1.23 1.01 2.24 2.27 2.24s2.29-.98 2.3-2.21a2.26 2.26 0 0 0-2.27-2.24z"/><path id="zh91g" d="M381.8 44.62h-1.75a2.77 2.77 0 0 0-2.8-2.73 2.77 2.77 0 0 0-2.81 2.73h-1.76a4.51 4.51 0 0 1 4.56-4.45c2.53 0 4.57 2 4.57 4.45"/><linearGradient id="zh91b" x1="368" x2="369.76" y1="36.93" y2="41.82" gradientUnits="userSpaceOnUse"><stop offset="0" stop-color="#0e49c1"/><stop offset="1" stop-color="#1390e0"/></linearGradient><linearGradient id="zh91d" x1="368" x2="386.48" y1="28" y2="51.95" gradientUnits="userSpaceOnUse"><stop offset="0" stop-color="#0e49c1"/><stop offset="1" stop-color="#1390e0"/></linearGradient><linearGradient id="zh91f" x1="373.2" x2="381.28" y1="34" y2="41.89" gradientUnits="userSpaceOnUse"><stop offset="0" stop-color="#0e49c1"/><stop offset="1" stop-color="#1390e0"/></linearGradient><linearGradient id="zh91h" x1="372.68" x2="381.81" y1="40.17" y2="44.62" gradientUnits="userSpaceOnUse"><stop offset="0" stop-color="#0e49c1"/><stop offset="1" stop-color="#1390e0"/></linearGradient></defs><g><g transform="translate(-368 -28)"><use fill="url(#zh91b)" xlink:href="#zh91a"/></g><g transform="translate(-368 -28)"><use fill="url(#zh91d)" xlink:href="#zh91c"/></g><g transform="translate(-368 -28)"><use fill="url(#zh91f)" xlink:href="#zh91e"/></g><g transform="translate(-368 -28)"><use fill="url(#zh91h)" xlink:href="#zh91g"/></g></g></svg>