<svg xmlns="http://www.w3.org/2000/svg" xmlns:xlink="http://www.w3.org/1999/xlink" width="20" height="19" viewBox="0 0 20 19"><defs><path id="expda" d="M147.95 1229.87a8.01 8.01 0 0 1-5.9-2.6l1.07-.97a6.54 6.54 0 0 0 9.69 0l1.05.97a8.01 8.01 0 0 1-5.91 2.6"/><path id="expdb" d="M155.93 1222.25l-1.43-.07v-.32a6.6 6.6 0 0 0-4.34-6.19l.49-1.35a8.03 8.03 0 0 1 5.28 7.93"/><path id="expdc" d="M139.96 1222.26v-.4a8.03 8.03 0 0 1 5.28-7.53l.48 1.35a6.6 6.6 0 0 0-4.32 6.19v.32z"/><path id="expdd" d="M147.94 1212.78a1.8 1.8 0 0 1 0 3.59 1.8 1.8 0 0 1 0-3.59zm0 5.02a3.23 3.23 0 0 0 0-6.45 3.22 3.22 0 0 0 0 6.45z"/><path id="expde" d="M154.67 1222.88a1.8 1.8 0 0 1 0 3.59 1.8 1.8 0 0 1 0-3.59m0 5.02a3.23 3.23 0 0 0 0-6.45 3.22 3.22 0 0 0 0 6.45"/><path id="expdf" d="M141.22 1222.88a1.8 1.8 0 0 1 0 3.59 1.8 1.8 0 0 1 0-3.59m0 5.02a3.23 3.23 0 0 0 0-6.45 3.22 3.22 0 0 0 0 6.45"/></defs><g><g transform="translate(-138 -1211)"><use fill="#c1c1c1" xlink:href="#expda"/></g><g transform="translate(-138 -1211)"><use fill="#c1c1c1" xlink:href="#expdb"/></g><g transform="translate(-138 -1211)"><use fill="#c1c1c1" xlink:href="#expdc"/></g><g transform="translate(-138 -1211)"><use fill="#c1c1c1" xlink:href="#expdd"/></g><g transform="translate(-138 -1211)"><use fill="#c1c1c1" xlink:href="#expde"/></g><g transform="translate(-138 -1211)"><use fill="#c1c1c1" xlink:href="#expdf"/></g></g></svg>