<svg xmlns="http://www.w3.org/2000/svg" xmlns:xlink="http://www.w3.org/1999/xlink" width="24" height="24" viewBox="0 0 24 24"><defs><path id="hoi8a" d="M1020 80a12 12 0 1 1 0-24 12 12 0 0 1 0 24zm0-2a10 10 0 1 0 0-20 10 10 0 0 0 0 20z"/><path id="hoi8c" d="M1015.54 65.26a.9.9 0 0 0-1.28 1.28l5.1 5.1a.9.9 0 0 0 1.28 0l5.1-5.1a.9.9 0 0 0-1.28-1.28l-4.46 4.47z"/><linearGradient id="hoi8b" x1="1008" x2="1032" y1="56" y2="80" gradientUnits="userSpaceOnUse"><stop offset="0" stop-color="#2d9abf"/><stop offset="1" stop-color="#75e099"/></linearGradient><linearGradient id="hoi8d" x1="1014" x2="1026" y1="65" y2="71.9" gradientUnits="userSpaceOnUse"><stop offset="0" stop-color="#2d9abf"/><stop offset="1" stop-color="#75e099"/></linearGradient></defs><g><g transform="translate(-1008 -56)"><g><use fill="url(#hoi8b)" xlink:href="#hoi8a"/></g><g><use fill="url(#hoi8d)" xlink:href="#hoi8c"/></g></g></g></svg>