<svg xmlns="http://www.w3.org/2000/svg" xmlns:xlink="http://www.w3.org/1999/xlink" width="16" height="16" viewBox="0 0 16 16"><defs><path id="8cfoa" d="M1080 447h16v16h-16z"/><path id="8cfoc" d="M1088 447a8 8 0 1 1-.02 16.02A8 8 0 0 1 1088 447m0 .73a7.27 7.27 0 1 0-.01 14.53 7.27 7.27 0 0 0 .01-14.53m0 3.27a.36.36 0 1 1 0 .73.36.36 0 0 1 0-.73m-.04 1.82h.05c.2 0 .36.16.35.37v5.46a.36.36 0 0 1-.72-.01v-5.45c0-.2.13-.35.32-.37"/><linearGradient id="8cfod" x1="1080" x2="1096" y1="447" y2="463" gradientUnits="userSpaceOnUse"><stop offset="0" stop-color="#2d9abf"/><stop offset="1" stop-color="#75e099"/></linearGradient><clipPath id="8cfob"><use xlink:href="#8cfoa"/></clipPath></defs><g><g transform="translate(-1080 -447)"><g><g/><g clip-path="url(#8cfob)"><use fill="url(#8cfod)" xlink:href="#8cfoc"/></g></g></g></g></svg>