<svg xmlns="http://www.w3.org/2000/svg" xmlns:xlink="http://www.w3.org/1999/xlink" width="17" height="18" viewBox="0 0 17 18"><defs><path id="l7nra" d="M127.92 1224.42c4.15 0 7.5 3.4 7.5 7.6 0 4.18-3.4 7.56-7.5 7.56a7.58 7.58 0 0 1 0-15.16m0 .75c-1.72 0-3.3.64-4.5 1.74l2.37 2.42a3.29 3.29 0 0 1 2.13-.77c.8 0 1.52.27 2.1.73l2.39-2.38a6.73 6.73 0 0 0-4.49-1.74m2.66 6.81a2.7 2.7 0 0 0-2.66-2.7 2.66 2.66 0 0 0-2.63 2.7 2.65 2.65 0 0 0 5.3 0m-9.41.04c0 1.74.64 3.32 1.7 4.55l2.39-2.4a3.47 3.47 0 0 1 .02-4.3l-2.38-2.42a6.85 6.85 0 0 0-1.73 4.57m6.74 6.83c1.74 0 3.31-.64 4.49-1.72l-2.38-2.44a3.28 3.28 0 0 1-4.24-.02l-2.4 2.4a6.6 6.6 0 0 0 4.53 1.78m5.03-2.26a6.85 6.85 0 0 0 .02-9.16l-2.4 2.39a3.44 3.44 0 0 1 0 4.32l2.38 2.45"/></defs><g><g transform="translate(-119 -1223)"><use fill="#e2e2e2" xlink:href="#l7nra"/><use fill="#fff" fill-opacity="0" stroke="#e2e2e2" stroke-miterlimit="50" xlink:href="#l7nra"/></g></g></svg>