<?xml version="1.0" encoding="utf-8"?>
<!-- Generator: Adobe Illustrator 21.1.0, SVG Export Plug-In . SVG Version: 6.00 Build 0)  -->
<svg version="1.1" id="Layer_1" xmlns="http://www.w3.org/2000/svg" xmlns:xlink="http://www.w3.org/1999/xlink" x="0px" y="0px"
	 viewBox="0 0 15 13" style="enable-background:new 0 0 15 13;" xml:space="preserve">
<style type="text/css">
	.st0{fill:#DDDDDD;}
	.st1{fill:none;}
</style>
<g>
	<g>
		<path id="_x37_p4ma" class="st0" d="M4.3,5.3c0-0.3,0.2-0.5,0.5-0.5H7V2.7c0-0.3,0.2-0.5,0.5-0.5S8,2.4,8,2.7v2.1h2.1
			c0.3,0,0.5,0.2,0.5,0.5c0,0.3-0.2,0.5-0.5,0.5H8V8c0,0.3-0.2,0.5-0.5,0.5S7,8.3,7,8V5.9H4.8C4.5,5.9,4.3,5.6,4.3,5.3L4.3,5.3z
			 M15,0H0v10.6h3.2V13L6,10.6h9V0z"/>
	</g>
</g>
<path class="st1" d="M4.3,5.3c0-0.3,0.2-0.5,0.5-0.5H7V2.7c0-0.3,0.2-0.5,0.5-0.5S8,2.4,8,2.7v2.1h2.1c0.3,0,0.5,0.2,0.5,0.5
	c0,0.3-0.2,0.5-0.5,0.5H8V8c0,0.3-0.2,0.5-0.5,0.5S7,8.3,7,8V5.9H4.8C4.5,5.9,4.3,5.6,4.3,5.3L4.3,5.3z M15,0H0v10.6h3.2V13L6,10.6
	h9V0z"/>
</svg>
