<svg xmlns="http://www.w3.org/2000/svg" xmlns:xlink="http://www.w3.org/1999/xlink" width="24" height="29" viewBox="0 0 24 29"><defs><path id="jkrla" d="M1060.1 56a1 1 0 0 1 .71.28l4.77 4.7c.18.18.29.42.29.68v9.88a6.85 6.85 0 0 1 5.95 6.7 6.87 6.87 0 0 1-6.95 6.76 6.87 6.87 0 0 1-6.94-6.77c0-3.4 2.6-6.22 5.95-6.7V63.1h-4.3c-.55 0-1-.43-1-.97v-4.19h-8.53c-.05 0-.06 0-.06.07v19.83c0 .07.01.08.06.08h2.94c.55 0 .99.45.98.98 0 .54-.46.96-1 .95h-2.92a2.05 2.05 0 0 1-2.05-2V58c0-1.09.92-2 2.05-2zm.47 5.16h2.4l-2.4-2.37zm4.3 12.24a4.88 4.88 0 0 0-4.96 4.83 4.88 4.88 0 0 0 4.96 4.84 4.88 4.88 0 0 0 4.97-4.84 4.88 4.88 0 0 0-4.97-4.83zm.03 1.6c.55 0 .98.44.97.98v1.29h1.36c.55 0 .98.44.98.98-.01.53-.46.96-1.01.95h-1.33v1.32c0 .53-.46.96-1 .95a.98.98 0 0 1-.99-.98V79.2h-1.32a.99.99 0 0 1-1.05-.92.98.98 0 0 1 1.05-1.01h1.32v-1.3c0-.54.44-.97.99-.98zm-8.96 2.91c.54 0 .98.43.98.97 0 .53-.44.96-.98.96a.98.98 0 0 1-1-.96c0-.54.45-.97 1-.97z"/></defs><g><g transform="translate(-1048 -56)"><use fill="#535253" xlink:href="#jkrla"/></g></g></svg>