<svg xmlns="http://www.w3.org/2000/svg" xmlns:xlink="http://www.w3.org/1999/xlink" width="20" height="20" viewBox="0 0 20 20"><defs><path id="rsjna" d="M481 1228c-4.4 0-8-3.6-8-8s3.6-8 8-8 8 3.6 8 8-3.6 8-8 8zm0-18c-5.5 0-10 4.5-10 10s4.5 10 10 10 10-4.5 10-10-4.5-10-10-10z"/><path id="rsjnb" d="M483.5 1222.3a3.22 3.22 0 0 1-5 0c-.36-.4-.88-.4-1.24 0-.35.4-.35 1 0 1.4a5.1 5.1 0 0 0 3.78 1.8c1.32 0 2.73-.6 3.7-1.8.35-.4.35-1 0-1.4-.27-.4-.88-.4-1.23 0z"/><path id="rsjnc" d="M476 1217.5a1.5 1.5 0 1 1 3 0 1.5 1.5 0 0 1-3 0z"/><path id="rsjnd" d="M483 1217.5a1.5 1.5 0 1 1 3 0 1.5 1.5 0 0 1-3 0z"/></defs><g><g transform="translate(-471 -1210)"><g><g><use fill="#c1c1c1" xlink:href="#rsjna"/></g><g><use fill="#c1c1c1" xlink:href="#rsjnb"/></g><g><use fill="#c1c1c1" xlink:href="#rsjnc"/></g><g><use fill="#c1c1c1" xlink:href="#rsjnd"/></g></g></g></g></svg>