<?xml version="1.0" encoding="UTF-8"?>
<svg width="25px" height="25px" viewBox="0 0 25 25" version="1.1" xmlns="http://www.w3.org/2000/svg" xmlns:xlink="http://www.w3.org/1999/xlink">
    <!-- Generator: Sketch 50.2 (55047) - http://www.bohemiancoding.com/sketch -->
    <title>Rectangle 14@2x</title>
    <desc>Created with Sketch.</desc>
    <defs>
        <linearGradient x1="0%" y1="50%" x2="100%" y2="50%" id="linearGradient-1">
            <stop stop-color="#AE5328" offset="0%"></stop>
            <stop stop-color="#FF0147" offset="100%"></stop>
        </linearGradient>
        <path d="M12.5,24.5 C5.872583,24.5 0.5,19.127417 0.5,12.5 C0.5,5.872583 5.872583,0.5 12.5,0.5 C19.127417,0.5 24.5,5.872583 24.5,12.5 C24.5,19.127417 19.127417,24.5 12.5,24.5 Z" id="path-2"></path>
    </defs>
    <g id="Symbols" stroke="none" stroke-width="1" fill="none" fill-rule="evenodd">
        <g id="Desktop-/-Menu-/-Primary" transform="translate(-33.000000, -120.000000)">
            <g id="Rectangle-14" transform="translate(33.000000, 120.000000)">
                <mask id="mask-3" fill="white">
                    <use xlink:href="#path-2"></use>
                </mask>
                <use id="Mask" fill="url(#linearGradient-1)" fill-rule="nonzero" xlink:href="#path-2"></use>
                <g id="Asset-/-Colour-/-Primary" mask="url(#mask-3)" fill="#49B3AF">
                    <g transform="translate(-4.000000, -4.000000)" id="Rectangle-27-Copy-2">
                        <rect x="0" y="0" width="32" height="32"></rect>
                    </g>
                </g>
                <path d="M13.0005152,17.7077778 C12.4182494,17.7077778 11.8381481,17.6085185 11.2765658,17.412963 C9.30754051,16.7267901 7.99173038,14.7191358 8.07662911,12.5297531 C8.1673,10.1919753 9.55454051,8.3245679 11.6106291,7.77222222 C12.0663886,7.64975309 12.5344139,7.58777778 13.0017177,7.58777778 C13.5070215,7.58777778 14.2194013,7.66580247 14.9466924,7.99098765 L9.9268443,14.8971605 L13.7646038,14.8932099 L23.8192114,0.999876543 L20.0245025,1.00530864 L16.7829582,5.46506173 C15.6799962,4.81938272 14.3923253,4.46901235 13.0058063,4.46901235 C12.3343127,4.46901235 11.6507937,4.5537037 10.9737684,4.72012346 C9.19570506,5.15765432 7.68340127,6.16135802 6.59967975,7.62283951 C5.51836329,9.08135802 4.96567975,10.8596296 5.0017557,12.7650617 C5.07679367,16.7290123 7.54751519,19.8295062 11.2958063,20.6633333 C11.816743,20.7791358 12.3583633,20.8381481 12.9055152,20.8381481 L12.9059962,20.8381481 C14.7756924,20.8379012 16.5843,20.1616049 17.9345025,19.0509877 L15.7598443,16.8097531 C14.9575152,17.395679 14.0195405,17.7077778 13.0005152,17.7077778" id="Fill-1" fill="#1E1E1E" mask="url(#mask-3)"></path>
            </g>
        </g>
    </g>
</svg>