<svg xmlns="http://www.w3.org/2000/svg" xmlns:xlink="http://www.w3.org/1999/xlink" width="62" height="66" viewBox="0 0 62 66"><defs><path id="sec1a" d="M269.36 315.05c-1.92 0-3.83-.33-5.68-.97-6.49-2.27-10.82-8.88-10.54-16.1.3-7.7 4.87-13.85 11.64-15.67 1.5-.4 3.04-.6 4.58-.6 1.67 0 4.01.25 6.41 1.32l-16.54 22.76 12.65-.02L305 260l-12.5.02-10.68 14.7a24.48 24.48 0 0 0-12.44-3.29c-2.22 0-4.47.28-6.7.83a25.23 25.23 0 0 0-14.41 9.56 27.28 27.28 0 0 0-5.26 16.94c.24 13.06 8.38 23.28 20.73 26.02 1.72.39 3.5.58 5.3.58 6.17 0 12.13-2.23 16.57-5.89l-7.16-7.38a15.2 15.2 0 0 1-9.1 2.96"/></defs><g><g transform="translate(-243 -260)"><use fill="#49b3af" xlink:href="#sec1a"/></g></g></svg>