<?xml version="1.0" encoding="UTF-8"?>
<svg width="22px" height="14px" viewBox="0 0 22 14" version="1.1" xmlns="http://www.w3.org/2000/svg" xmlns:xlink="http://www.w3.org/1999/xlink">
    <!-- Generator: Sketch 50.2 (55047) - http://www.bohemiancoding.com/sketch -->
    <title>Page 1 Copy@2x</title>
    <desc>Created with Sketch.</desc>
    <defs>
        <path d="M5.73913043,3.81818182 L9.56521739,3.81818182 L9.56521739,1.90909091 L5.73913043,1.90909091 L5.73913043,3.81818182 Z M0.956521739,3.81818182 C0.428521739,3.81818182 0,3.39054545 0,2.86363636 C0,2.33672727 0.428521739,1.90909091 0.956521739,1.90909091 L3.82608696,1.90909091 L3.82608696,0.954545455 C3.82608696,0.427636364 4.2546087,0 4.7826087,0 L10.5217391,0 C11.0497391,0 11.4782609,0.427636364 11.4782609,0.954545455 L11.4782609,1.90909091 L21.0434783,1.90909091 C21.5714783,1.90909091 22,2.33672727 22,2.86363636 C22,3.39054545 21.5714783,3.81818182 21.0434783,3.81818182 L11.4782609,3.81818182 L11.4782609,4.77272727 C11.4782609,5.29963636 11.0497391,5.72727273 10.5217391,5.72727273 L4.7826087,5.72727273 C4.2546087,5.72727273 3.82608696,5.29963636 3.82608696,4.77272727 L3.82608696,3.81818182 L0.956521739,3.81818182 Z M21.0434783,9.90909091 C21.5714783,9.90909091 22,10.3367273 22,10.8636364 C22,11.3905455 21.5714783,11.8181818 21.0434783,11.8181818 L18.173913,11.8181818 L18.173913,12.7727273 C18.173913,13.2996364 17.7453913,13.7272727 17.2173913,13.7272727 L11.4782609,13.7272727 C10.9502609,13.7272727 10.5217391,13.2996364 10.5217391,12.7727273 L10.5217391,11.8181818 L0.956521739,11.8181818 C0.428521739,11.8181818 0,11.3905455 0,10.8636364 C0,10.3367273 0.428521739,9.90909091 0.956521739,9.90909091 L10.5217391,9.90909091 L10.5217391,8.95454545 C10.5217391,8.42763636 10.9502609,8 11.4782609,8 L17.2173913,8 C17.7453913,8 18.173913,8.42763636 18.173913,8.95454545 L18.173913,9.90909091 L21.0434783,9.90909091 Z M12.4347826,11.8181818 L16.2608696,11.8181818 L16.2608696,9.90909091 L12.4347826,9.90909091 L12.4347826,11.8181818 Z" id="path-1"></path>
    </defs>
    <g id="Symbols" stroke="none" stroke-width="1" fill="none" fill-rule="evenodd">
        <g id="Desktop-/-Menu-/-Primary" transform="translate(-34.000000, -389.000000)">
            <g id="Page-1-Copy" transform="translate(34.000000, 389.000000)">
                <g id="Asset-/-Colour-/-Grey">
                    <mask id="mask-2" fill="white">
                        <use xlink:href="#path-1"></use>
                    </mask>
                    <use id="Mask" fill="#3F3F3F" xlink:href="#path-1"></use>
                    <g id="Asset-/-Colour-/-Grey-Dark" mask="url(#mask-2)" fill="#3F3F3F">
                        <g transform="translate(-6.000000, -6.000000)" id="Rectangle-27-Copy-2">
                            <rect x="0" y="0" width="32" height="32"></rect>
                        </g>
                    </g>
                </g>
            </g>
        </g>
    </g>
</svg>