<?xml version="1.0" encoding="UTF-8"?>
<svg width="18px" height="25px" viewBox="0 0 18 25" version="1.1" xmlns="http://www.w3.org/2000/svg" xmlns:xlink="http://www.w3.org/1999/xlink">
    <!-- Generator: Sketch 50.2 (55047) - http://www.bohemiancoding.com/sketch -->
    <title>Page 1 Copy 2@2x</title>
    <desc>Created with Sketch.</desc>
    <defs>
        <path d="M0,-9.03614458e-05 L0,24.7137651 L17.757,24.7137651 L17.757,6.6414759 L11.1573,-9.03614458e-05 L0,-9.03614458e-05 Z M2.1,2.11436747 L9.5547,2.11436747 L9.5547,8.24087349 L15.657,8.24087349 L15.657,22.6083434 L2.1,22.6083434 L2.1,2.11436747 Z M11.6547,3.50623494 L14.271,6.13243976 L11.6547,6.13243976 L11.6547,3.50623494 Z M4.845,12.5060241 L4.845,10.3975904 L12.918,10.3975904 L12.918,12.5060241 L4.845,12.5060241 Z M4.845,16.4216867 L4.845,14.313253 L12.918,14.313253 L12.918,16.4216867 L4.845,16.4216867 Z M4.845,20.2891566 L4.845,18.1807229 L10.218,18.1807229 L10.218,20.2891566 L4.845,20.2891566 Z" id="path-1"></path>
    </defs>
    <g id="Symbols" stroke="none" stroke-width="1" fill="none" fill-rule="evenodd">
        <g id="Desktop-/-Menu-/-Primary" transform="translate(-36.000000, -296.000000)">
            <g id="Page-1-Copy-2" transform="translate(36.000000, 296.000000)">
                <g id="Rectangle-13">
                    <mask id="mask-2" fill="white">
                        <use xlink:href="#path-1"></use>
                    </mask>
                    <use id="Mask" fill="#3F3F3F" xlink:href="#path-1"></use>
                    <g id="Asset-/-Colour-/-Grey-Dark" mask="url(#mask-2)" fill="#3F3F3F">
                        <g transform="translate(-7.000000, -4.000000)" id="Rectangle-27-Copy-2">
                            <rect x="0" y="0" width="32" height="32"></rect>
                        </g>
                    </g>
                </g>
            </g>
        </g>
    </g>
</svg>