<svg xmlns="http://www.w3.org/2000/svg" xmlns:xlink="http://www.w3.org/1999/xlink" width="16" height="21" viewBox="0 0 16 21"><defs><path id="q4n3a" d="M41.38 1490.38h5.26a2.63 2.63 0 0 1-5.26 0M44.1 1472a1.97 1.97 0 0 0-2.07 1.97v.99a5.9 5.9 0 0 0-3.94 5.57v1.64c0 1.05-.42 2.05-1.15 2.79l-.28.27a1.86 1.86 0 0 0 1.39 3.18h11.97c1.02 0 1.86-.83 1.86-1.86v-.08c0-.44-.16-.87-.45-1.2l-.57-.67a3.94 3.94 0 0 1-.95-2.57v-1.5a5.9 5.9 0 0 0-3.94-5.57v-.88a2.04 2.04 0 0 0-1.87-2.08"/></defs><g><g transform="translate(-36 -1472)"><use fill="#555" xlink:href="#q4n3a"/></g></g></svg>