<svg width="480" height="264" viewBox="0 0 480 264" fill="none" xmlns="http://www.w3.org/2000/svg">
<path d="M451.056 241.865C448.212 236.402 436.623 232.094 431.461 231.149C403.859 225.896 374.888 226.631 346.97 226.736C316.523 226.841 287.446 231.674 257.211 233.985C241.513 235.141 224.868 233.04 209.171 232.514C183.255 231.569 157.338 230.518 131.422 229.363C109.088 228.312 85.9104 230.623 66.1045 242.915C63.8921 244.281 61.5744 245.962 60.6262 248.484C54.1999 264.243 134.056 262.247 144.485 262.562C196.95 263.928 249.415 264.663 301.879 263.192C340.859 262.141 381.525 262.247 420.188 256.678C428.722 255.418 440.416 254.997 447.79 250.06C451.794 247.118 452.32 244.386 451.056 241.865Z" fill="#E6E6EB"/>
<path d="M417.028 16.9287C417.66 16.9287 418.398 16.9287 419.135 16.9287" stroke="#8D8D94" stroke-miterlimit="10"/>
<path d="M423.349 17.2441C436.939 18.6099 453.585 24.3882 451.583 36.0499C448.528 54.7506 365.09 47.8167 345.179 48.0268C305.146 48.447 264.691 48.5521 225.395 57.2721C215.808 59.3733 202.218 64.101 203.166 76.1829C203.482 80.3853 206.01 84.2726 209.276 87.1092C220.76 97.4051 236.668 98.4557 251.522 100.242C273.962 102.973 380.682 99.2962 415.553 110.748C422.401 112.954 431.04 115.896 431.25 125.666C431.988 150.566 370.042 149.305 351.395 149.83C301.774 151.091 252.154 150.566 202.534 149.62C162.395 148.78 122.257 148.149 82.2233 145.523C67.2635 144.577 42.9275 144.262 31.5496 133.126C25.2286 126.927 24.3858 115.475 34.3941 109.697C41.4526 105.6 62.3121 107.386 70.3187 106.755C94.5494 104.654 87.1748 90.0509 67.5796 88.1598" stroke="#8D8D94" stroke-miterlimit="10" stroke-dasharray="4.01 4.01"/>
<path d="M65.5777 88.1592C64.8403 88.1592 64.2082 88.1592 63.4707 88.1592" stroke="#D2E8F9" stroke-miterlimit="10"/>
<path d="M413.552 34.5793C413.341 34.5793 413.236 34.5793 413.025 34.4742L386.371 25.1239C385.845 24.9137 385.423 24.4935 385.318 23.8631C385.213 23.2328 385.423 22.7075 385.845 22.2872L407.231 3.90169C407.652 3.48145 408.284 3.37639 408.811 3.58651C409.338 3.79663 409.759 4.21687 409.865 4.84723L415.132 32.5831C415.238 33.2135 415.027 33.7388 414.605 34.159C414.289 34.4742 413.973 34.5793 413.552 34.5793ZM387.741 23.4429L412.92 32.2679L407.968 6.10795L387.741 23.4429Z" fill="#8D8D94"/>
<path d="M401.964 23.3376C401.437 23.1274 401.227 22.6021 401.332 22.0768L403.966 12.8315C404.176 11.9911 405.125 11.4657 405.967 11.7809C406.81 12.0961 407.232 13.0417 406.916 13.8821L403.228 22.8123C403.018 23.2325 402.491 23.4426 401.964 23.3376Z" fill="#8D8D94"/>
<path d="M402.174 25.8597C401.964 26.385 401.437 26.7002 400.91 26.4901C400.383 26.28 400.067 25.7547 400.278 25.2294C400.489 24.7041 401.015 24.3889 401.542 24.599C402.069 24.7041 402.385 25.3344 402.174 25.8597Z" fill="#8D8D94"/>
<path d="M59.1522 79.2292C59.0469 79.3342 58.9415 79.4393 58.8362 79.4393L42.8229 90.1554C42.5068 90.3655 42.0854 90.3655 41.664 90.2605C41.348 90.0504 41.0319 89.7352 41.0319 89.3149L39.873 70.0889C39.873 69.6687 40.0837 69.3535 40.3998 69.0383C40.7159 68.8282 41.1373 68.8282 41.5587 68.9333L58.8362 77.5482C59.1522 77.7583 59.4683 78.0735 59.4683 78.4937C59.3629 78.7039 59.2576 79.019 59.1522 79.2292ZM42.4015 88.5795L57.572 78.4937L41.2426 70.4041L42.4015 88.5795Z" fill="#8D8D94"/>
<path d="M48.1966 80.8056C47.8806 81.0157 47.4592 80.9107 47.2485 80.5955L43.2452 75.3425C42.9291 74.9222 43.0345 74.1868 43.5612 73.8716C44.088 73.5564 44.7201 73.6615 45.0361 74.1868L48.302 79.8601C48.618 80.2803 48.5127 80.5955 48.1966 80.8056Z" fill="#8D8D94"/>
<path d="M49.6692 81.7511C49.8798 82.0663 49.7745 82.4865 49.4586 82.6966C49.1427 82.9067 48.7215 82.8017 48.5109 82.4865C48.3003 82.1713 48.4056 81.7511 48.7215 81.541C49.0374 81.3308 49.4586 81.4359 49.6692 81.7511Z" fill="#8D8D94"/>
<path d="M76.0078 123.881C76.9969 123.881 77.7987 123.081 77.7987 122.095C77.7987 121.108 76.9969 120.309 76.0078 120.309C75.0186 120.309 74.2168 121.108 74.2168 122.095C74.2168 123.081 75.0186 123.881 76.0078 123.881Z" stroke="#D2E8F9" stroke-miterlimit="10"/>
<path d="M335.592 91.6258C336.581 91.6258 337.383 90.8261 337.383 89.8397C337.383 88.8533 336.581 88.0537 335.592 88.0537C334.603 88.0537 333.801 88.8533 333.801 89.8397C333.801 90.8261 334.603 91.6258 335.592 91.6258Z" stroke="#8D8D94" stroke-miterlimit="10"/>
<path d="M197.898 42.7742C198.888 42.7742 199.689 41.9746 199.689 40.9882C199.689 40.0018 198.888 39.2021 197.898 39.2021C196.909 39.2021 196.107 40.0018 196.107 40.9882C196.107 41.9746 196.909 42.7742 197.898 42.7742Z" stroke="#8D8D94" stroke-miterlimit="10"/>
<path d="M195.791 175.36C196.78 175.36 197.582 174.561 197.582 173.574C197.582 172.588 196.78 171.788 195.791 171.788C194.802 171.788 194 172.588 194 173.574C194 174.561 194.802 175.36 195.791 175.36Z" stroke="#D2E8F9" stroke-miterlimit="10"/>
<path d="M236.562 70.9297V74.8169" stroke="#8D8D94" stroke-miterlimit="10" stroke-linecap="round" stroke-linejoin="round"/>
<path d="M238.459 72.8203H234.561" stroke="#8D8D94" stroke-miterlimit="10" stroke-linecap="round" stroke-linejoin="round"/>
<path d="M307.568 20.501V24.3882" stroke="#8D8D94" stroke-miterlimit="10" stroke-linecap="round" stroke-linejoin="round"/>
<path d="M309.465 22.4971H305.567" stroke="#8D8D94" stroke-miterlimit="10" stroke-linecap="round" stroke-linejoin="round"/>
<path d="M417.449 126.927V130.814" stroke="#D2E8F9" stroke-miterlimit="10" stroke-linecap="round" stroke-linejoin="round"/>
<path d="M419.345 128.923H415.447" stroke="#D2E8F9" stroke-miterlimit="10" stroke-linecap="round" stroke-linejoin="round"/>
<path d="M272.066 239.762C272.066 239.762 264.691 242.914 264.691 244.489C264.691 245.435 274.805 244.069 275.437 243.544C276.385 242.598 275.016 239.972 275.016 239.972L272.066 239.762Z" fill="#26387A"/>
<path d="M271.539 235.348L271.96 239.866C271.96 239.866 272.171 240.601 273.225 240.706C274.278 240.811 274.91 239.866 274.91 239.866L274.594 234.192" fill="#FFB288"/>
<path d="M284.392 131.759C287.026 142.475 286.078 147.938 282.18 156.133C279.757 183.448 278.176 210.659 274.911 237.239L271.539 237.449C263.849 211.5 256.79 172.837 257.633 137.327" fill="#0A1023"/>
<path d="M282.812 135.437C283.76 137.958 284.076 140.795 283.97 143.421C283.865 147.518 282.179 151.196 281.126 155.083C279.651 160.231 279.546 165.379 279.23 170.737C278.598 179.037 277.965 187.336 277.333 195.636C276.28 209.189 275.226 222.637 274.173 236.189C274.173 236.61 274.067 237.03 274.067 237.345" stroke="#0061A6" stroke-width="0.5" stroke-miterlimit="10"/>
<path d="M301.46 240.812C301.46 240.812 294.085 243.963 294.085 245.539C294.085 246.485 304.199 245.119 304.831 244.594C305.779 243.648 304.409 241.022 304.409 241.022L301.46 240.812Z" fill="#26387A"/>
<path d="M300.932 236.4L301.353 240.917C301.353 240.917 301.564 241.653 302.617 241.758C303.671 241.863 304.303 240.917 304.303 240.917L303.987 235.244" fill="#FFB288"/>
<path d="M308.938 130.813C312.31 141.425 311.677 146.888 308.306 155.293C307.779 182.713 305.883 211.29 304.408 238.08H300.932C291.555 212.76 281.442 173.573 280.072 138.168" fill="#0A1023"/>
<path d="M307.252 135.226C307.252 135.226 311.15 144.366 304.513 157.288C303.776 169.475 303.354 238.08 303.354 238.08" stroke="#0061A6" stroke-width="0.5" stroke-miterlimit="10"/>
<path d="M297.561 138.167C298.193 139.218 299.246 139.953 300.405 140.373C301.564 140.793 302.723 141.004 303.987 141.214C305.462 141.424 306.937 141.529 308.412 141.424" stroke="#0061A6" stroke-width="0.5" stroke-miterlimit="10"/>
<path d="M297.981 139.849C299.246 141.004 300.826 141.635 302.512 142.055C304.197 142.475 305.883 142.475 307.568 142.58" stroke="#0061A6" stroke-width="0.5" stroke-miterlimit="10"/>
<path d="M268.695 79.8603C257.001 100.137 244.359 118.628 236.879 140.795L234.667 139.64C235.194 119.048 241.936 89.0005 250.786 70.2998" fill="#FFB288"/>
<path d="M263.006 58.5332C263.006 58.5332 259.424 59.5838 255.105 62.4204C251.101 65.0469 248.046 69.0392 246.044 73.3467C243.937 77.6542 242.884 82.3819 242.146 87.1096C242.146 87.1096 247.098 89.526 252.682 90.2614C258.265 90.9968 264.27 90.2614 264.27 90.2614" fill="#0B21E2"/>
<path d="M254.263 70.6134C252.999 92.571 253.947 115.159 254.579 136.591C254.579 136.591 262.269 138.587 280.917 138.587C299.564 138.587 311.679 132.914 311.679 132.914C308.097 110.957 305.253 83.956 296.403 65.8857C296.403 65.8857 286.395 55.1695 276.597 54.7493C274.595 54.6442 272.699 55.3797 270.803 56.2201C269.433 56.8505 263.007 58.4264 263.007 58.4264L254.263 70.6134Z" fill="#0B21E2"/>
<path d="M254.156 72.5049C253.63 76.7073 253.63 89.7348 253.63 89.7348" stroke="#272729" stroke-width="0.5" stroke-miterlimit="10"/>
<path d="M272.699 143.526C303.883 140.059 316.947 179.562 324.11 194.795C340.861 230.936 404.282 226.944 433.148 226.944C470.969 226.944 487.615 239.656 469.916 246.275" stroke="#272729" stroke-width="5" stroke-miterlimit="10" stroke-linecap="round" stroke-linejoin="round"/>
<path d="M283.444 145.312C283.444 161.281 271.329 170.947 260.899 170.947H243.832V119.572H260.899C271.329 119.572 283.444 129.238 283.444 145.312Z" fill="#FDAE2B"/>
<path d="M274.7 145.312C274.7 160.966 265.429 173.678 253.946 173.678H235.193V116.945H253.946C265.429 116.945 274.7 129.658 274.7 145.312Z" fill="#EF8417"/>
<path opacity="0.5" d="M278.914 129.764C274.806 135.332 270.908 140.9 267.01 146.573C267.537 146.468 268.063 146.153 268.485 145.838C268.485 146.258 267.853 146.994 268.379 147.309C269.011 147.624 269.644 146.888 270.276 147.099C270.908 146.994 271.434 146.258 271.856 145.838C271.645 146.258 271.645 146.573 271.645 146.783C275.754 145.208 279.546 141.32 282.707 138.168C281.864 135.017 280.495 132.18 278.914 129.764Z" fill="#FDAE2B"/>
<path d="M236.563 173.678C248.025 173.678 257.317 160.978 257.317 145.312C257.317 129.645 248.025 116.945 236.563 116.945C225.101 116.945 215.809 129.645 215.809 145.312C215.809 160.978 225.101 173.678 236.563 173.678Z" fill="#FFC840"/>
<path d="M238.249 155.293C238.249 157.605 236.669 159.496 234.667 159.496C232.665 159.496 231.085 157.605 231.085 155.293C231.085 152.982 232.665 151.091 234.667 151.091C236.669 151.091 238.249 152.982 238.249 155.293Z" fill="#EF8417"/>
<path d="M238.249 135.227C238.249 137.538 236.669 139.429 234.667 139.429C232.665 139.429 231.085 137.538 231.085 135.227C231.085 132.915 232.665 131.024 234.667 131.024C236.669 131.024 238.249 132.915 238.249 135.227Z" fill="#EF8417"/>
<path d="M302.091 86.7939C302.091 86.7939 303.355 100.137 297.456 111.273C292.294 120.833 282.18 133.125 273.857 139.849L271.855 139.324C274.7 128.398 283.76 108.857 284.287 101.607C284.814 94.3582 284.708 85.8483 284.814 81.751" fill="#FFB288"/>
<path d="M276.598 54.75C276.598 54.75 287.659 55.4854 294.086 60.9486C303.251 68.618 304.621 83.7466 304.621 87.2136C301.882 90.1553 295.771 90.3654 291.452 90.3654C287.133 90.3654 283.867 88.2642 283.867 88.2642L282.919 71.6647" fill="#0B21E2"/>
<path d="M272.699 137.854C271.435 137.959 270.276 138.589 269.117 139.429C268.169 140.165 267.01 141.426 267.115 142.056C267.221 142.686 268.801 141.531 269.012 141.741C269.223 141.951 266.273 146.363 266.799 146.679C267.326 146.994 269.855 143.001 269.855 143.001C269.855 143.001 267.432 147.204 268.38 147.309C269.117 147.414 271.33 143.422 271.33 143.422C271.33 143.422 269.539 146.994 270.171 147.099C270.803 147.204 272.488 143.632 272.488 143.632C272.488 143.632 271.119 146.679 271.646 146.784C271.856 146.784 273.226 145.313 273.858 143.422C274.385 141.636 275.017 140.06 274.595 138.589" fill="#FFB288"/>
<path d="M284.183 73.3457V88.4744" stroke="#272729" stroke-width="0.5" stroke-miterlimit="10"/>
<path d="M253.734 40.7768C253.629 41.4072 253.629 42.1426 253.629 42.773C253.629 44.2438 253.84 45.7147 254.682 46.8703C255.209 47.7108 256.052 48.2361 257 48.5513C257.632 48.7614 258.58 48.6564 258.791 48.026C258.896 47.8159 258.896 47.5007 258.896 47.2906C258.896 44.8742 258.37 42.4578 257.527 40.1465" fill="#26387A"/>
<path d="M270.38 42.1436C269.432 38.4664 266.482 33.3185 261.636 34.3691C258.58 34.9995 255.841 37.1007 254.893 39.9373C253.84 43.4043 255.525 47.3966 257.632 50.2332C258.37 51.2838 259.318 52.2293 260.477 52.8597C263.321 54.3305 267.114 53.0698 269.01 50.7585C270.906 48.3421 271.117 45.0852 270.38 42.1436Z" fill="#FFB288"/>
<path d="M263.533 51.8076L265.113 57.5859L263.006 58.6365C263.006 58.6365 264.691 60.8428 267.852 60.3175C274.489 59.372 276.596 54.7493 276.596 54.7493L272.909 54.3291L268.8 47.29" fill="#FFB288"/>
<path d="M273.646 38.1503C273.224 35.6288 271.328 33.4226 269.221 32.1619C265.323 29.7455 259.739 29.6404 256.263 32.8973C254.261 34.7884 250.679 41.3021 254.999 42.6679C256.368 43.0881 257.738 42.2476 258.896 41.5122C260.055 40.7768 261.214 39.9363 262.478 39.2009C262.9 38.8857 263.321 38.6756 263.848 38.5705C264.691 38.5705 265.323 39.306 265.639 40.0414C265.955 40.7768 265.955 41.7223 266.166 42.4578C266.271 42.9831 266.587 43.6134 267.008 43.9286C267.535 44.2438 268.273 44.1387 268.589 43.6134C268.799 43.1932 268.589 42.7729 268.589 42.3527C268.589 41.9325 268.799 41.4072 269.221 41.5122C269.326 41.5122 269.537 41.6173 269.642 41.7223C270.696 42.5628 270.38 44.1387 270.696 45.3995C270.696 45.6096 270.38 48.131 270.485 48.2361C273.646 47.3956 273.962 39.9363 273.646 38.1503Z" fill="#272729"/>
<path d="M268.695 41.7229C268.59 41.3026 269.117 40.7773 269.538 40.7773C269.959 40.7773 270.486 40.9875 270.802 41.3026C271.434 41.8279 271.856 42.5634 271.856 43.4038C271.856 44.0342 271.645 44.6646 271.224 45.1899C271.013 45.5051 270.697 45.9253 270.276 46.0304C269.749 46.2405 269.117 45.9253 268.801 45.6101" fill="#FFB288"/>
<path d="M151.438 239.551C151.438 239.551 158.496 240.706 158.707 242.282C158.812 243.123 148.699 244.278 148.067 243.753C147.013 242.913 148.277 239.761 148.277 239.761L151.438 239.551Z" fill="#26387A"/>
<path d="M150.806 235.243L151.438 239.761C151.438 239.761 151.333 240.496 150.279 240.706C149.226 240.917 148.488 240.076 148.488 240.076L147.646 234.508" fill="#FFB288"/>
<path d="M124.258 133.125C122.994 144.156 122.888 149.409 127.84 156.974C130.158 167.585 133.74 178.511 136.479 189.437C135.32 202.465 143.537 223.267 147.962 238.08L151.123 237.555C155.442 210.87 157.022 169.896 153.124 134.071" fill="#26387A"/>
<path d="M126.364 148.044C126.364 148.044 138.585 186.706 138.585 188.807C138.585 190.909 138.901 198.158 139.428 202.78C140.376 211.395 148.172 236.61 148.172 236.61" stroke="#0061A6" stroke-width="0.5" stroke-miterlimit="10"/>
<path d="M147.857 238.711L147.33 236.82L151.439 236.609L151.544 238.395L147.857 238.711Z" fill="#0061A6"/>
<path d="M96.1293 239.761C96.1293 239.761 101.713 243.753 101.186 245.224C100.87 246.064 91.8099 242.702 91.4939 241.967C90.9671 240.811 93.3902 238.71 93.3902 238.71L96.1293 239.761Z" fill="#26387A"/>
<path d="M97.4994 235.873L96.1299 239.97C96.1299 239.97 95.7085 240.601 94.7603 240.286C93.8121 240.075 93.4961 239.025 93.4961 239.025L95.1817 233.877" fill="#FFB288"/>
<path d="M100.449 130.813C97.0781 141.425 97.7102 146.888 101.081 155.293C101.292 165.273 101.398 175.464 101.503 185.55C94.339 203.41 93.1802 219.379 94.1283 236.399L97.6049 237.66C97.6049 237.66 118.148 201.939 121.941 187.861C126.26 171.682 128.683 154.347 129.421 138.168" fill="#26387A"/>
<path d="M101.292 133.125C101.292 133.125 97.605 144.051 102.451 154.557C102.451 157.499 104.137 181.873 103.505 185.655C103.189 187.441 99.8173 196.056 97.605 204.461C95.0766 213.706 94.5498 235.664 94.5498 235.664" stroke="#0061A6" stroke-width="0.5" stroke-miterlimit="10"/>
<path d="M93.3906 236.399L94.0227 234.088L98.4474 236.189L97.4993 238.185L93.3906 236.399Z" fill="#0061A6"/>
<path d="M157.866 49.2874L155.127 46.9761C155.127 46.9761 155.127 42.8788 155.127 42.1433C155.127 41.4079 154.074 36.8903 153.125 36.8903C152.177 36.8903 151.967 35.7347 151.545 36.26C151.124 36.6802 151.967 41.8282 151.545 42.2484C151.124 42.6686 150.702 39.832 150.281 40.1472C149.965 40.3573 149.965 42.3535 149.965 43.4041C149.965 44.4547 150.808 46.4508 151.65 47.2913C152.493 48.1318 156.181 52.1241 156.181 52.1241L157.866 49.2874Z" fill="#EF9467"/>
<path d="M156.496 47.7119L154.178 50.3384C154.178 50.3384 163.344 62.4204 166.188 66.4126C163.555 65.4671 159.762 63.1558 157.55 61.79C153.23 58.9534 148.911 57.4825 145.961 57.4825C139.64 57.4825 142.906 78.2844 150.28 81.3312C164.187 83.4324 179.779 82.0666 182.202 77.2338C185.784 69.9847 165.346 52.9649 156.496 47.7119Z" fill="#6B75FF"/>
<path d="M166.188 66.4121C166.188 66.4121 167.979 71.2449 171.035 72.8208" stroke="#272729" stroke-width="0.5" stroke-miterlimit="10"/>
<path d="M114.04 62.9455C97.3943 81.5412 97.7104 113.479 97.7104 135.227C97.7104 135.227 109.931 143.527 128.473 143.527C147.12 143.527 154.811 138.904 154.811 138.904C155.337 116.946 151.439 107.386 155.127 71.0352C155.127 71.0352 149.227 57.4824 146.066 57.4824C142.906 57.4824 130.474 56.2217 130.474 56.2217L114.04 62.9455Z" fill="#6B75FF"/>
<path d="M154.179 81.7516C154.179 81.7516 154.6 75.3429 156.074 73.8721" stroke="#272729" stroke-width="0.5" stroke-miterlimit="10"/>
<path d="M135.953 42.3528C136.585 38.5706 139.219 33.2126 144.17 33.8429C147.225 34.2632 149.648 36.3644 151.334 38.8858C152.809 40.987 152.282 43.0882 150.175 48.4463C149.543 49.602 148.068 51.493 146.909 52.2285C144.275 53.9094 140.377 53.0689 138.27 50.8627C136.163 48.6564 135.426 45.2945 135.953 42.3528Z" fill="#FFB288"/>
<path d="M136.585 41.828C137.322 41.723 136.585 41.3027 136.901 41.9331C137.111 42.3533 137.111 42.4584 137.533 42.5634C137.954 42.6685 137.954 43.0887 138.27 43.2989C138.797 43.7191 139.218 43.1938 139.429 42.7736C139.85 41.9331 139.85 40.9875 139.745 40.147C139.64 39.4116 139.429 38.361 140.166 37.8357C140.693 37.4155 141.957 38.0458 142.484 38.1509C143.327 38.361 144.275 38.6762 145.118 38.9914C147.225 39.6217 149.437 40.2521 151.755 39.9369C153.651 39.7268 155.758 38.6762 156.601 36.8902C157.76 34.6839 155.442 31.9524 153.23 31.9524C152.598 31.9524 152.071 32.1625 151.439 32.2675C151.228 32.2675 151.018 32.3726 150.807 32.2675C150.28 32.1625 150.069 31.5321 149.859 31.1119C149.016 29.8511 147.541 29.4309 146.066 29.536C144.38 29.7461 142.906 30.4815 141.325 31.0068C140.483 31.2169 139.745 31.0068 138.902 31.0068C138.059 31.0068 137.111 31.6372 136.69 32.3726C135.952 31.6372 134.478 33.4232 134.056 33.8434C132.371 35.8396 131.844 38.7813 131.844 41.4078C131.844 43.614 132.16 46.976 134.688 47.8164C135.742 48.2367 136.374 48.4468 136.479 47.3962C136.058 46.4507 135.952 44.4545 135.847 43.614C135.742 42.7736 135.952 41.828 136.795 41.5128" fill="#272729"/>
<path d="M144.592 51.2834L144.065 56.9566L145.961 57.4819C145.961 57.4819 145.013 60.0034 141.747 60.4236C135.11 61.2641 130.475 56.2212 130.475 56.2212L132.687 55.8009L136.058 45.2949" fill="#FFB288"/>
<path d="M137.639 41.8288C137.639 41.4085 137.218 40.9883 136.691 40.9883C136.269 40.9883 135.743 41.3035 135.427 41.6186C133.53 43.5097 135.953 47.9223 137.744 45.6109" fill="#FFB288"/>
<path d="M150.175 48.3408C149.859 49.0762 148.7 49.2864 148.068 49.3914C144.908 49.7066 142.379 47.7105 139.429 47.3953C138.797 47.2902 138.165 47.2902 137.744 47.7105C137.322 48.1307 137.322 48.7611 137.322 49.2864C137.322 50.0218 137.322 50.6521 137.322 51.3876C137.428 52.0179 137.533 52.5432 137.849 53.0685C139.219 55.2748 143.643 55.695 145.961 55.59C146.909 55.4849 147.857 55.3799 148.595 54.8546C149.648 54.1191 149.859 52.7533 150.175 51.5977C150.491 49.9167 150.175 48.3408 150.175 48.3408Z" fill="#272729"/>
<path d="M147.963 50.7577C147.857 50.6527 147.752 50.6527 147.647 50.6527C146.172 50.6527 145.434 50.3375 144.275 50.2324C144.065 50.2324 143.854 50.2324 143.749 50.2324C143.327 50.3375 143.117 50.7577 143.011 51.178C142.906 51.5982 143.117 51.9134 143.538 52.1235C144.17 52.4387 145.013 52.5437 145.75 52.6488C146.382 52.6488 147.225 52.7539 147.752 52.3336C147.963 51.9134 148.384 51.0729 147.963 50.7577Z" fill="#FFB288"/>
<path d="M134.267 132.81C98.0264 130.919 76.9562 149.62 61.8911 183.555C42.4012 227.68 15.2207 231.147 3 230.937" stroke="#272729" stroke-width="5" stroke-miterlimit="10" stroke-linecap="round" stroke-linejoin="round"/>
<path d="M120.361 135.752C121.73 151.721 134.583 160.336 144.907 159.496L161.869 158.13L157.549 106.966L140.588 108.332C130.264 109.172 118.991 119.783 120.361 135.752Z" fill="#FDAE2B"/>
<path d="M129.105 135.017C130.369 150.566 140.694 162.438 152.177 161.492L170.929 159.916L166.189 103.499L147.436 105.075C135.953 106.02 127.736 119.468 129.105 135.017Z" fill="#EF8417"/>
<path d="M169.497 160.128C180.919 159.178 189.12 145.752 187.814 130.14C186.508 114.529 176.19 102.644 164.768 103.594C153.346 104.544 145.146 117.97 146.451 133.581C147.757 149.193 158.075 161.078 169.497 160.128Z" fill="#FFC840"/>
<path d="M166.293 141.95C166.504 144.262 168.189 146.048 170.191 145.838C172.192 145.628 173.562 143.631 173.351 141.32C173.141 139.009 171.455 137.223 169.453 137.433C167.452 137.643 166.082 139.639 166.293 141.95Z" fill="#FDAE2B"/>
<path d="M164.608 121.989C164.819 124.301 166.505 126.087 168.506 125.877C170.508 125.667 171.877 123.67 171.667 121.359C171.456 119.048 169.77 117.262 167.769 117.472C165.767 117.682 164.398 119.678 164.608 121.989Z" fill="#FDAE2B"/>
<path d="M168.716 124.616C170.823 124.406 195.159 122.41 195.159 122.41C196.739 122.305 198.004 120.834 197.793 119.258C197.688 117.682 196.213 116.422 194.632 116.527C194.632 116.527 170.191 118.523 168.189 118.733C166.188 118.838 166.609 124.826 168.716 124.616Z" fill="#E2E8ED"/>
<path d="M170.402 144.578C172.509 144.368 196.845 142.372 196.845 142.372C198.425 142.267 199.689 140.796 199.478 139.22C199.373 137.644 197.898 136.383 196.318 136.489C196.318 136.489 171.877 138.485 169.875 138.695C167.873 138.905 168.295 144.788 170.402 144.578Z" fill="#E2E8ED"/>
<path d="M105.19 86.7939C105.19 86.7939 103.926 100.137 109.825 111.273C114.988 120.833 125.101 133.125 133.424 139.849L135.426 139.324C132.581 128.398 123.521 108.857 122.994 101.607C122.467 94.3582 122.573 85.8483 122.467 81.751" fill="#FFB288"/>
<path d="M130.475 56.2217C130.475 56.2217 118.887 56.852 112.144 61.8949C100.556 70.6149 102.873 94.0434 106.244 105.495C109.616 116.946 125.84 134.071 131.002 137.748C131.845 137.748 134.373 137.538 134.268 135.542C131.423 126.612 123.101 103.184 123.101 103.184L124.365 71.5605" fill="#6B75FF"/>
<path d="M134.584 137.854C135.848 137.959 137.007 138.589 138.166 139.429C139.114 140.165 140.273 141.426 140.167 142.056C140.062 142.686 138.482 141.531 138.271 141.741C138.06 141.951 141.01 146.363 140.483 146.679C139.957 146.994 137.428 143.001 137.428 143.001C137.428 143.001 139.851 147.204 138.903 147.309C138.166 147.414 135.953 143.422 135.953 143.422C135.953 143.422 137.744 146.994 137.112 147.099C136.48 147.204 134.794 143.632 134.794 143.632C134.794 143.632 136.164 146.679 135.637 146.784C135.427 146.784 134.057 145.313 133.425 143.422C132.898 141.636 132.266 140.06 132.687 138.589" fill="#FFB288"/>
<path d="M126.366 112.534C124.47 107.176 123.101 103.184 123.101 103.184L125.524 76.6035" stroke="#272729" stroke-width="0.5" stroke-miterlimit="10"/>
<path d="M103.505 83.1162C103.4 90.3654 104.348 99.1904 106.139 105.494C107.719 110.957 112.354 117.786 117.306 123.88" stroke="#272729" stroke-width="0.5" stroke-miterlimit="10"/>
<path d="M352.344 44.0338L354.24 42.7731C354.24 42.7731 355.083 38.6758 355.61 37.9403C356.136 37.2049 357.085 35.5239 358.138 34.7885C358.559 34.4733 360.666 33.3177 361.193 33.843C361.404 34.0531 360.561 36.4695 360.14 36.8897C359.718 37.31 358.559 39.096 358.77 39.6213C358.981 40.1466 359.929 38.9909 360.14 38.6758C360.35 38.4656 360.666 38.1505 360.772 38.4656C360.983 38.9909 359.929 41.8276 359.086 42.563C358.243 43.4035 356.979 44.1389 356.031 44.1389L353.081 46.6603" fill="#FFB288"/>
<path d="M374.783 30.6914C377.838 32.4774 379.84 35.9444 380.577 39.4114C380.683 40.0417 380.788 40.6721 381.209 41.1974C381.525 41.6176 382.052 41.7227 382.473 41.9328C385.002 43.0885 387.004 45.3998 387.952 48.1314C388.373 49.287 388.057 50.8629 388.478 51.8085C389.005 52.9641 391.007 53.2793 392.166 53.5945C395.432 54.6451 397.855 57.902 397.855 61.3689C397.855 64.7309 395.537 68.0928 392.376 69.2485C393.219 70.5092 393.325 72.0851 393.009 73.5559C392.587 75.0268 391.744 76.2875 390.691 77.3381C386.582 81.9608 380.261 84.3772 374.151 84.167C372.36 84.062 370.569 83.7468 368.989 83.1164C367.092 82.381 365.512 81.1203 363.932 79.8596C362.035 78.3887 360.139 76.7077 359.086 74.5015C358.032 72.2952 358.137 69.4586 359.823 67.6726C357.821 68.0928 355.714 67.0422 354.556 65.2562C353.397 63.5752 353.186 61.369 353.713 59.3728C354.134 57.3767 355.188 55.5906 356.452 53.9097C357.295 52.754 358.348 51.5984 358.453 50.1275C358.77 47.7111 357.4 45.6099 357.084 43.2986C356.557 39.6215 356.663 36.4697 359.823 34.4735C360.877 31.847 362.035 29.8509 364.985 29.1155C368.356 28.275 371.728 28.8003 374.783 30.6914Z" fill="#272729"/>
<path d="M367.303 58.5323C356.768 55.8008 344.758 60.1082 342.124 60.1082C345.812 56.4311 352.554 48.3415 354.872 45.5048C354.872 43.6138 353.713 42.9834 353.713 42.9834C353.713 42.9834 324.742 57.902 327.691 67.5675C330.747 77.6533 358.98 72.7154 361.193 75.6571" fill="#FF695B"/>
<path d="M369.305 152.876C369.305 153.717 365.512 172.207 365.196 174.203C364.353 179.982 367.408 185.76 367.198 194.69C366.882 205.511 362.246 234.823 361.614 236.084C360.982 237.345 358.243 236.189 358.243 236.189C358.243 236.189 350.131 197.001 349.604 180.927C349.183 167.69 351.184 139.113 351.184 139.113" fill="#FFB288"/>
<path d="M361.93 236.504C361.93 236.504 362.351 237.449 362.351 237.975C362.246 239.235 362.246 239.971 362.246 239.971H361.719L361.509 239.025C361.509 239.025 360.139 239.235 358.664 240.181C357.927 240.601 354.45 240.601 353.923 240.286C353.291 239.971 353.502 239.446 353.713 239.13C353.923 238.92 357.716 237.239 357.716 237.239" fill="#26387A"/>
<path d="M358.243 236.19C357.927 236.925 354.977 238.501 355.188 238.816C355.504 239.026 357.189 239.026 359.086 238.396C360.876 237.765 361.825 237.135 361.93 236.715L361.614 235.454" fill="#FFB288"/>
<path d="M395.431 153.612C395.431 154.452 392.271 173.048 392.06 175.044C391.428 180.822 394.694 186.495 394.588 195.426C394.588 206.352 390.796 235.664 390.269 236.924C389.742 238.185 386.898 237.135 386.898 237.135C386.898 237.135 377.522 198.262 376.574 182.188C375.836 168.95 376.89 140.374 376.89 140.374" fill="#FFB288"/>
<path d="M390.585 237.45C390.585 237.45 391.111 238.396 391.111 238.921C391.111 240.182 391.111 241.022 391.111 241.022H390.585L390.374 240.077C390.374 240.077 389.004 240.392 387.529 241.337C386.897 241.863 383.315 241.863 382.789 241.653C382.156 241.337 382.367 240.812 382.578 240.497C382.789 240.287 386.476 238.501 386.476 238.501" fill="#26387A"/>
<path d="M386.898 237.239C386.582 237.975 383.632 239.656 383.948 239.866C384.265 240.076 385.95 240.076 387.846 239.341C389.532 238.71 390.586 237.975 390.586 237.555L390.164 236.294" fill="#FFB288"/>
<path d="M385.951 106.23C385.951 106.23 394.274 111.693 397.434 124.72C401.753 142.37 395.432 176.935 395.432 176.935C395.432 176.935 382.369 180.717 368.147 180.612C353.924 180.507 345.496 175.674 345.496 174.834C345.496 173.993 343.389 147.833 346.234 130.078C349.499 110.117 357.717 104.759 357.717 104.759" fill="#2858AD"/>
<path d="M374.678 58.2173C375.942 57.692 379.313 58.9528 385.634 61.2641C388.373 64.2058 389.638 70.8246 390.164 76.6029C388.584 90.681 386.688 98.3504 387.636 103.078C387.847 104.234 388.9 105.074 388.689 106.65C388.373 109.907 383 110.432 372.887 111.483C362.773 112.639 353.713 108.016 354.24 106.65C354.766 105.179 356.557 103.919 356.768 102.973C357.084 102.027 357.822 89.9455 356.768 88.5798C355.715 87.1089 352.87 83.0116 352.87 79.0193C352.87 73.346 356.031 70.8246 358.032 67.7778C361.404 62.6299 364.037 59.373 367.303 58.5325C372.571 57.2718 374.678 58.2173 374.678 58.2173Z" fill="#FF695B"/>
<path d="M357.611 65.3613C357.611 65.3613 357.927 67.7777 356.768 69.7738C356.347 70.4042 354.134 72.7155 353.607 74.1864" stroke="white" stroke-width="0.5" stroke-miterlimit="10"/>
<path d="M372.255 51.2829C374.994 48.5514 375.416 43.4034 374.151 39.8314C372.782 35.8391 367.093 32.8974 363.195 35.4189C355.61 40.3567 363.3 60.108 372.255 51.2829Z" fill="#FFB288"/>
<path d="M366.987 50.8638L367.093 59.2686C367.093 59.2686 366.777 61.1597 370.042 61.2648C374.573 61.4749 374.573 58.218 374.573 58.218L371.939 49.498" fill="#FFB288"/>
<path d="M370.358 31.7427C369.41 31.1123 368.462 31.1123 367.514 31.6376C366.881 31.9528 366.46 32.5831 365.933 32.7933C365.512 33.0034 364.985 33.0034 364.458 33.1084C362.246 33.7388 360.139 35.4198 359.296 37.521C358.348 39.6222 358.664 43.0892 360.455 44.56C360.35 42.9841 360.876 40.5677 361.719 39.2019C362.141 38.4665 362.878 37.7311 363.721 37.8362C364.669 37.9412 365.196 38.9918 365.933 39.6222C366.987 40.6728 368.462 40.8829 369.831 41.093C371.412 41.3031 372.57 41.6183 373.413 43.0892C373.729 43.7195 373.94 44.4549 374.151 45.1904C374.361 46.0309 374.572 46.8713 374.677 47.8169C374.677 48.3422 374.677 48.9725 374.888 49.4978C375.204 50.5484 376.258 51.1788 377.311 51.494C378.154 51.8092 379.418 52.0193 379.945 51.0737C380.366 50.3383 380.682 49.2877 380.893 48.4472C381.42 45.6106 380.472 42.6689 378.891 40.2525C377.206 37.626 374.783 35.84 372.676 33.5287C371.728 32.8983 371.095 32.1629 370.358 31.7427Z" fill="#272729"/>
<path d="M372.57 44.7697C372.781 44.1393 373.202 43.5089 373.834 43.4039C375.941 43.0887 375.625 46.2405 374.783 47.3962C374.256 48.0265 372.992 48.867 372.465 47.081" fill="#FFB288"/>
<path d="M395.432 110.537L394.378 112.743C394.378 112.743 390.586 113.689 390.164 114.319C389.532 115.37 388.584 116.841 388.584 117.681C388.584 118.522 388.689 122.199 389.743 122.199C390.375 122.199 391.955 119.257 392.271 118.837C393.009 117.891 396.064 117.156 396.064 114.529L397.96 110.642" fill="#FFB288"/>
<path d="M374.678 58.1119C374.678 58.1119 383.633 55.8005 390.586 60.2131C395.959 63.575 409.97 80.5947 409.97 90.3653C409.97 96.8791 396.907 113.163 396.907 113.163L394.694 111.588C394.694 111.588 395.959 98.7702 399.751 91.8362C396.907 88.9996 386.056 80.3846 383.317 77.6531" fill="#FF695B"/>
<path d="M381.947 76.708C383.949 78.389 389.006 82.5914 389.006 82.5914" stroke="white" stroke-width="0.5" stroke-miterlimit="10"/>
<path d="M118.569 43.0888L107.824 34.3688C107.824 34.3688 112.67 16.5086 106.243 10.205C102.872 6.84302 98.5528 4.63676 94.0228 2.9558C84.0144 -0.721313 72.2152 -1.66686 63.3657 4.21652C56.834 8.52399 52.8306 15.9833 51.0397 23.5476C49.4594 30.2715 49.5648 37.8358 53.7788 43.2989C55.6751 45.7153 58.2035 47.6064 60.9426 49.0772C69.476 53.4898 92.0211 55.1707 101.819 48.657C104.558 46.871 104.242 44.3495 105.401 40.5674L118.569 43.0888Z" fill="white"/>
<path d="M68.196 25.424C68.196 21.7422 66.0369 19.4467 63.0597 19.4467C60.0824 19.4467 57.9233 21.7422 57.9233 25.424C57.9233 29.1058 60.0824 31.4013 63.0597 31.4013C66.0369 31.4013 68.196 29.1058 68.196 25.424ZM66.8324 25.424C66.8324 28.4467 65.1733 30.0831 63.0597 30.0831C60.946 30.0831 59.2869 28.4467 59.2869 25.424C59.2869 22.4013 60.946 20.7649 63.0597 20.7649C65.1733 20.7649 66.8324 22.4013 66.8324 25.424ZM73.929 31.424C76.2926 31.424 77.8835 29.6286 77.8835 26.924C77.8835 24.1967 76.2926 22.4013 73.929 22.4013C71.5653 22.4013 69.9744 24.1967 69.9744 26.924C69.9744 29.6286 71.5653 31.424 73.929 31.424ZM73.929 30.2195C72.1335 30.2195 71.3153 28.674 71.3153 26.924C71.3153 25.174 72.1335 23.6058 73.929 23.6058C75.7244 23.6058 76.5426 25.174 76.5426 26.924C76.5426 28.674 75.7244 30.2195 73.929 30.2195ZM79.9304 34.5149H81.2713V29.9013H81.3849C81.6804 30.3786 82.2486 31.424 83.9304 31.424C86.1122 31.424 87.6349 29.674 87.6349 26.9013C87.6349 24.1513 86.1122 22.4013 83.9077 22.4013C82.2031 22.4013 81.6804 23.4467 81.3849 23.9013H81.2259V22.5149H79.9304V34.5149ZM81.2486 26.8786C81.2486 24.924 82.1122 23.6058 83.7486 23.6058C85.4531 23.6058 86.294 25.0376 86.294 26.8786C86.294 28.7422 85.4304 30.2195 83.7486 30.2195C82.1349 30.2195 81.2486 28.8558 81.2486 26.8786ZM95.8622 24.4695C95.4418 23.2308 94.4986 22.4013 92.7713 22.4013C90.9304 22.4013 89.5668 23.4467 89.5668 24.924C89.5668 26.1286 90.2827 26.9354 91.8849 27.3104L93.3395 27.6513C94.2202 27.8558 94.6349 28.2763 94.6349 28.8786C94.6349 29.6286 93.8395 30.2422 92.5895 30.2422C91.4929 30.2422 90.8054 29.7706 90.5668 28.8331L89.294 29.1513C89.6065 30.6342 90.8281 31.424 92.6122 31.424C94.6406 31.424 96.0213 30.3161 96.0213 28.8104C96.0213 27.5945 95.2599 26.8274 93.7031 26.4467L92.4077 26.1286C91.3736 25.8729 90.9077 25.5263 90.9077 24.8558C90.9077 24.1058 91.7031 23.5604 92.7713 23.5604C93.9418 23.5604 94.4247 24.2081 94.6577 24.8104L95.8622 24.4695ZM99.8125 19.6058H98.267L98.3807 27.9695H99.6989L99.8125 19.6058ZM99.0398 31.3331C99.6023 31.3331 100.062 30.8729 100.062 30.3104C100.062 29.7479 99.6023 29.2876 99.0398 29.2876C98.4773 29.2876 98.017 29.7479 98.017 30.3104C98.017 30.8729 98.4773 31.3331 99.0398 31.3331Z" fill="#8D8D94"/>
</svg>
