<?xml version="1.0" standalone="no"?>
<!DOCTYPE svg PUBLIC "-//W3C//DTD SVG 1.1//EN" "http://www.w3.org/Graphics/SVG/1.1/DTD/svg11.dtd" >
<svg xmlns="http://www.w3.org/2000/svg" xmlns:xlink="http://www.w3.org/1999/xlink" version="1.1">
<metadata>
Created by FontForge 20190801 at Thu May 30 02:00:00 2019
 By Jimmy Wärting
Copyright \(c\) 2019 General Type LLC. All rights reserved.
</metadata>
<defs>
<font id="GeneralGrotesque-Demi" horiz-adv-x="353" >
  <font-face 
    font-family="General Grotesque Demi"
    font-weight="600"
    font-stretch="normal"
    units-per-em="1000"
    panose-1="2 11 7 3 3 0 0 0 0 4"
    ascent="750"
    descent="-250"
    x-height="540"
    cap-height="700"
    bbox="-180 -200 1195 1054"
    underline-thickness="91"
    underline-position="-97"
    stemh="107"
    stemv="119"
    unicode-range="U+000D-1F310"
  />
<missing-glyph horiz-adv-x="700" 
d="M369 -80c-152 0 -267 122 -267 266v18l-19 31c-10 17 -13 34 -9 53s14 34 31 44l7 4c13 9 28 12 43 11c-9 31 1 64 29 81l7 4c13 8 26 12 41 11l-76 120c-7 12 -12 26 -12 39c0 39 32 75 73 75c29 0 50 -12 65 -35l139 -221v224c0 41 33 75 74 75s74 -34 74 -75v-286
c39 -19 66 -59 66 -106v-62c0 -126 -95 -271 -266 -271zM451 371h66c7 0 15 1 22 -2v276c0 24 -20 44 -44 44s-44 -20 -44 -44v-274zM309 376l24 -37c8 19 29 32 50 32h33l-160 255c-8 13 -20 20 -37 20c-24 0 -44 -20 -44 -44c0 -7 2 -15 7 -23zM321 225c19 12 24 38 12 55
l-72 114c-12 19 -35 24 -54 13l-8 -5c-17 -12 -24 -36 -12 -55l72 -114c12 -19 37 -24 54 -13zM359 138c0 33 21 72 42 83c-15 1 -25 8 -34 15c-5 -17 -15 -29 -29 -37l-7 -4c-13 -8 -28 -11 -43 -11c11 -32 -2 -62 -29 -81l-8 -5c-32 -20 -73 -10 -96 23l-20 30
c16 -114 118 -201 233 -201c133 0 237 113 237 241v62c0 48 -40 88 -88 88h-134c-13 0 -24 -11 -24 -27c0 -35 27 -68 67 -68h42c8 0 15 -7 15 -15s-7 -15 -15 -15c-48 0 -77 -39 -77 -78c0 -8 -8 -15 -16 -15s-16 7 -16 15zM243 129c19 12 24 38 12 55l-72 114
c-12 19 -35 24 -54 13l-8 -5c-17 -12 -24 -36 -12 -55l72 -114c12 -19 37 -24 54 -13z" />
    <glyph glyph-name="f_f" unicode="ff" horiz-adv-x="660" 
d="M229 0h-119v451h-94v89h94v47c0 105 44 148 155 148h93v-98h-68c-45 0 -61 -16 -61 -59v-38h183v47c0 105 44 148 155 148h93v-98h-68c-45 0 -61 -16 -61 -59v-38h129v-89h-129v-451h-119v451h-183v-451z" />
    <glyph glyph-name="fi" unicode="fi" horiz-adv-x="604" 
d="M404 677c0 40 30 67 70 67s70 -28 70 -67c0 -40 -30 -68 -70 -68s-70 28 -70 68zM229 0h-119v451h-94v89h94v47c0 105 44 148 155 148h63v-98h-38c-45 0 -61 -16 -61 -59v-38h304v-540h-119v451h-185v-451z" />
    <glyph glyph-name="f_f_i" unicode="ffi" horiz-adv-x="908" 
d="M708 677c0 40 30 67 70 67s70 -28 70 -67c0 -40 -30 -68 -70 -68s-70 28 -70 68zM229 0h-119v451h-94v89h94v47c0 105 44 148 155 148h93v-98h-68c-45 0 -61 -16 -61 -59v-38h185v47c0 105 44 148 155 148h63v-98h-38c-45 0 -61 -16 -61 -59v-38h304v-540h-119v451h-185
v-451h-119v451h-185v-451z" />
    <glyph glyph-name="f_j" unicode="fj" horiz-adv-x="604" 
d="M404 677c0 40 30 67 70 67s70 -28 70 -67c0 -40 -30 -68 -70 -68s-70 28 -70 68zM229 0h-119v451h-94v89h94v47c0 105 44 148 155 148h63v-98h-38c-45 0 -61 -16 -61 -59v-38h304v-602c0 -95 -38 -128 -141 -128h-54v98h16c44 0 60 13 60 56v487h-185v-451z" />
    <glyph glyph-name="f_f_j" unicode="ffj" horiz-adv-x="908" 
d="M708 677c0 40 30 67 70 67s70 -28 70 -67c0 -40 -30 -68 -70 -68s-70 28 -70 68zM229 0h-119v451h-94v89h94v47c0 105 44 148 155 148h93v-98h-68c-45 0 -61 -16 -61 -59v-38h185v47c0 105 44 148 155 148h63v-98h-38c-45 0 -61 -16 -61 -59v-38h304v-602
c0 -95 -38 -128 -141 -128h-54v98h16c44 0 60 13 60 56v487h-185v-451h-119v451h-185v-451z" />
    <glyph glyph-name="fl" unicode="fl" horiz-adv-x="617" 
d="M229 0h-119v451h-94v89h94v47c0 105 44 148 155 148h93v-98h-68c-45 0 -61 -16 -61 -59v-38h129v-89h-129v-451zM428 735h119v-735h-119v735z" />
    <glyph glyph-name="f_t" unicode="ft" horiz-adv-x="657" 
d="M229 0h-119v451h-94v89h94v47c0 105 44 148 155 148h73v-98h-48c-45 0 -61 -16 -61 -59v-38h185v160h119v-160h110v-89h-110v-298c0 -43 16 -55 61 -55h49v-98h-86c-103 0 -143 34 -143 127v324h-185v-451z" />
    <glyph glyph-name="f_f_t" unicode="fft" horiz-adv-x="959" 
d="M229 0h-119v451h-94v89h94v47c0 105 44 148 155 148h93v-98h-68c-45 0 -61 -16 -61 -59v-38h183v47c0 105 44 148 155 148h73v-98h-48c-45 0 -61 -16 -61 -59v-38h185v160h119v-160h110v-89h-110v-298c0 -43 16 -55 61 -55h49v-98h-86c-103 0 -143 34 -143 127v324h-185
v-451h-119v451h-183v-451z" />
    <glyph glyph-name=".notdef" horiz-adv-x="700" 
d="M369 -80c-152 0 -267 122 -267 266v18l-19 31c-10 17 -13 34 -9 53s14 34 31 44l7 4c13 9 28 12 43 11c-9 31 1 64 29 81l7 4c13 8 26 12 41 11l-76 120c-7 12 -12 26 -12 39c0 39 32 75 73 75c29 0 50 -12 65 -35l139 -221v224c0 41 33 75 74 75s74 -34 74 -75v-286
c39 -19 66 -59 66 -106v-62c0 -126 -95 -271 -266 -271zM451 371h66c7 0 15 1 22 -2v276c0 24 -20 44 -44 44s-44 -20 -44 -44v-274zM309 376l24 -37c8 19 29 32 50 32h33l-160 255c-8 13 -20 20 -37 20c-24 0 -44 -20 -44 -44c0 -7 2 -15 7 -23zM321 225c19 12 24 38 12 55
l-72 114c-12 19 -35 24 -54 13l-8 -5c-17 -12 -24 -36 -12 -55l72 -114c12 -19 37 -24 54 -13zM359 138c0 33 21 72 42 83c-15 1 -25 8 -34 15c-5 -17 -15 -29 -29 -37l-7 -4c-13 -8 -28 -11 -43 -11c11 -32 -2 -62 -29 -81l-8 -5c-32 -20 -73 -10 -96 23l-20 30
c16 -114 118 -201 233 -201c133 0 237 113 237 241v62c0 48 -40 88 -88 88h-134c-13 0 -24 -11 -24 -27c0 -35 27 -68 67 -68h42c8 0 15 -7 15 -15s-7 -15 -15 -15c-48 0 -77 -39 -77 -78c0 -8 -8 -15 -16 -15s-16 7 -16 15zM243 129c19 12 24 38 12 55l-72 114
c-12 19 -35 24 -54 13l-8 -5c-17 -12 -24 -36 -12 -55l72 -114c12 -19 37 -24 54 -13z" />
    <glyph glyph-name="CR" unicode="&#xd;" horiz-adv-x="269" 
 />
    <glyph glyph-name="space" unicode=" " horiz-adv-x="270" 
 />
    <glyph glyph-name="A" unicode="A" horiz-adv-x="664" 
d="M513 0l-51 171h-265l-51 -171h-127l225 700h175l225 -700h-131zM327 607l-98 -329h201l-99 329h-4z" />
    <glyph glyph-name="Agrave" unicode="&#xc0;" horiz-adv-x="664" 
d="M380 740h-96l-100 106h125zM513 0l-51 171h-265l-51 -171h-127l225 700h175l225 -700h-131zM327 607l-98 -329h201l-99 329h-4z" />
    <glyph glyph-name="Aacute" unicode="&#xc1;" horiz-adv-x="664" 
d="M378 740h-96l71 106h125zM513 0l-51 171h-265l-51 -171h-127l225 700h175l225 -700h-131zM327 607l-98 -329h201l-99 329h-4z" />
    <glyph glyph-name="Acircumflex" unicode="&#xc2;" horiz-adv-x="664" 
d="M508 740h-105l-71 66h-4l-69 -66h-105l105 106h144zM513 0l-51 171h-265l-51 -171h-127l225 700h175l225 -700h-131zM327 607l-98 -329h201l-99 329h-4z" />
    <glyph glyph-name="Atilde" unicode="&#xc3;" horiz-adv-x="664" 
d="M408 737c-56 0 -116 44 -147 44c-19 0 -30 -13 -35 -39h-65c8 71 39 106 94 106c57 0 115 -44 147 -44c19 0 30 13 35 39h65c-8 -71 -39 -106 -94 -106zM513 0l-51 171h-265l-51 -171h-127l225 700h175l225 -700h-131zM327 607l-98 -329h201l-99 329h-4z" />
    <glyph glyph-name="Adieresis" unicode="&#xc4;" horiz-adv-x="664" 
d="M178 793c0 31 23 50 54 50s53 -19 53 -50s-22 -50 -53 -50s-54 19 -54 50zM377 793c0 31 23 50 54 50s53 -19 53 -50s-22 -50 -53 -50s-54 19 -54 50zM513 0l-51 171h-265l-51 -171h-127l225 700h175l225 -700h-131zM327 607l-98 -329h201l-99 329h-4z" />
    <glyph glyph-name="Amacron" unicode="&#x100;" horiz-adv-x="664" 
d="M477 756h-292v75h292v-75zM513 0l-51 171h-265l-51 -171h-127l225 700h175l225 -700h-131zM327 607l-98 -329h201l-99 329h-4z" />
    <glyph glyph-name="Abreve" unicode="&#x102;" horiz-adv-x="664" 
d="M331 741c-81 0 -139 41 -142 105h86c4 -24 27 -39 56 -39c31 0 52 15 56 39h86c-1 -64 -59 -105 -142 -105zM513 0l-51 171h-265l-51 -171h-127l225 700h175l225 -700h-131zM327 607l-98 -329h201l-99 329h-4z" />
    <glyph glyph-name="Aring" unicode="&#xc5;" horiz-adv-x="664" 
d="M331 729c-69 0 -123 43 -123 107c0 63 54 106 123 106c71 0 123 -43 123 -106c0 -64 -52 -107 -123 -107zM331 789c28 0 45 22 45 47c0 27 -17 46 -45 46s-45 -19 -45 -46c0 -25 17 -47 45 -47zM513 0l-51 171h-265l-51 -171h-127l225 700h175l225 -700h-131zM327 607
l-98 -329h201l-99 329h-4z" />
    <glyph glyph-name="Aringacute" unicode="&#x1fa;" horiz-adv-x="664" 
d="M376 948h-96l71 106h125zM331 717c-69 0 -123 43 -123 107c0 63 54 106 123 106c71 0 123 -43 123 -106c0 -64 -52 -107 -123 -107zM331 777c28 0 45 22 45 47c0 27 -17 46 -45 46s-45 -19 -45 -46c0 -25 17 -47 45 -47zM513 0l-51 171h-265l-51 -171h-127l225 700h175
l225 -700h-131zM327 607l-98 -329h201l-99 329h-4z" />
    <glyph glyph-name="Aogonek" unicode="&#x104;" horiz-adv-x="664" 
d="M530 -190c-65 0 -104 33 -104 82c0 43 28 82 84 117l-48 162h-265l-51 -171h-127l225 700h175l225 -700h-16c-65 -32 -93 -53 -93 -77c0 -20 14 -30 41 -30h52v-83h-98zM327 607l-98 -329h201l-99 329h-4z" />
    <glyph glyph-name="AE" unicode="&#xc6;" horiz-adv-x="970" 
d="M918 700v-107h-353v-162h253v-107h-253v-217h363v-107h-488v171h-213l-76 -171h-136l319 700h584zM421 607l-146 -329h165v329h-19z" />
    <glyph glyph-name="AEacute" unicode="&#x1fc;" horiz-adv-x="970" 
d="M550 740h-96l71 106h125zM918 700v-107h-353v-162h253v-107h-253v-217h363v-107h-488v171h-213l-76 -171h-136l319 700h584zM421 607l-146 -329h165v329h-19z" />
    <glyph glyph-name="B" unicode="B" horiz-adv-x="664" 
d="M587 529c0 -75 -44 -130 -116 -146v-4c89 -15 143 -81 143 -176c0 -123 -91 -203 -238 -203h-291v700h293c127 0 209 -68 209 -171zM210 594v-164h160c59 0 94 30 94 81c0 53 -37 83 -104 83h-150zM489 217c0 68 -45 109 -128 109h-151v-220h165c71 0 114 43 114 111z
" />
    <glyph glyph-name="C" unicode="C" horiz-adv-x="682" 
d="M361 -15c-186 0 -310 146 -310 365s124 365 310 365c140 0 246 -83 283 -231l-124 -24c-25 93 -83 145 -160 145c-109 0 -181 -100 -181 -254s72 -256 182 -256c85 0 139 54 164 162l123 -18c-31 -161 -138 -254 -287 -254z" />
    <glyph glyph-name="Cacute" unicode="&#x106;" horiz-adv-x="682" 
d="M408 740h-96l71 106h125zM361 -15c-186 0 -310 146 -310 365s124 365 310 365c140 0 246 -83 283 -231l-124 -24c-25 93 -83 145 -160 145c-109 0 -181 -100 -181 -254s72 -256 182 -256c85 0 139 54 164 162l123 -18c-31 -161 -138 -254 -287 -254z" />
    <glyph glyph-name="Ccircumflex" unicode="&#x108;" horiz-adv-x="682" 
d="M538 740h-105l-71 66h-4l-69 -66h-105l105 106h144zM361 -15c-186 0 -310 146 -310 365s124 365 310 365c140 0 246 -83 283 -231l-124 -24c-25 93 -83 145 -160 145c-109 0 -181 -100 -181 -254s72 -256 182 -256c85 0 139 54 164 162l123 -18
c-31 -161 -138 -254 -287 -254z" />
    <glyph glyph-name="Ccaron" unicode="&#x10c;" horiz-adv-x="682" 
d="M185 846h105l71 -66h4l69 66h105l-105 -106h-144zM361 -15c-186 0 -310 146 -310 365s124 365 310 365c140 0 246 -83 283 -231l-124 -24c-25 93 -83 145 -160 145c-109 0 -181 -100 -181 -254s72 -256 182 -256c85 0 139 54 164 162l123 -18
c-31 -161 -138 -254 -287 -254z" />
    <glyph glyph-name="Cdotaccent" unicode="&#x10a;" horiz-adv-x="682" 
d="M307 793c0 31 23 50 54 50s54 -19 54 -50s-23 -50 -54 -50s-54 19 -54 50zM361 -15c-186 0 -310 146 -310 365s124 365 310 365c140 0 246 -83 283 -231l-124 -24c-25 93 -83 145 -160 145c-109 0 -181 -100 -181 -254s72 -256 182 -256c85 0 139 54 164 162l123 -18
c-31 -161 -138 -254 -287 -254z" />
    <glyph glyph-name="Ccedilla" unicode="&#xc7;" horiz-adv-x="682" 
d="M254 -190v77h48c40 0 60 16 60 48c0 18 -7 35 -22 51c-174 10 -289 152 -289 364c0 219 124 365 310 365c140 0 246 -83 283 -231l-124 -24c-25 93 -83 145 -160 145c-109 0 -181 -100 -181 -254s72 -256 182 -256c85 0 139 54 164 162l123 -18
c-27 -141 -112 -229 -232 -250l-1 -5c35 -17 52 -44 52 -80c0 -59 -45 -94 -121 -94h-92z" />
    <glyph glyph-name="D" unicode="D" horiz-adv-x="696" 
d="M646 346c0 -245 -134 -346 -339 -346h-222v700h235c221 0 326 -138 326 -354zM518 350c0 155 -60 243 -212 243h-96v-486h96c152 0 212 90 212 243z" />
    <glyph glyph-name="Dcaron" unicode="&#x10e;" horiz-adv-x="696" 
d="M148 846h105l71 -66h4l69 66h105l-105 -106h-144zM646 346c0 -245 -134 -346 -339 -346h-222v700h235c221 0 326 -138 326 -354zM518 350c0 155 -60 243 -212 243h-96v-486h96c152 0 212 90 212 243z" />
    <glyph glyph-name="Dcroat" unicode="&#x110;" horiz-adv-x="696" 
d="M24 321v95h61v284h235c221 0 326 -138 326 -354c0 -245 -134 -346 -339 -346h-222v321h-61zM518 350c0 155 -60 243 -212 243h-96v-177h145v-95h-145v-214h96c152 0 212 90 212 243z" />
    <glyph glyph-name="Eth" unicode="&#xd0;" horiz-adv-x="696" 
d="M24 321v95h61v284h235c221 0 326 -138 326 -354c0 -245 -134 -346 -339 -346h-222v321h-61zM518 350c0 155 -60 243 -212 243h-96v-177h145v-95h-145v-214h96c152 0 212 90 212 243z" />
    <glyph glyph-name="E" unicode="E" horiz-adv-x="615" 
d="M563 700v-107h-353v-162h253v-107h-253v-217h363v-107h-488v700h478z" />
    <glyph glyph-name="Egrave" unicode="&#xc8;" horiz-adv-x="615" 
d="M373 740h-96l-100 106h125zM563 700v-107h-353v-162h253v-107h-253v-217h363v-107h-488v700h478z" />
    <glyph glyph-name="Eacute" unicode="&#xc9;" horiz-adv-x="615" 
d="M371 740h-96l71 106h125zM563 700v-107h-353v-162h253v-107h-253v-217h363v-107h-488v700h478z" />
    <glyph glyph-name="Ecircumflex" unicode="&#xca;" horiz-adv-x="615" 
d="M501 740h-105l-71 66h-4l-69 -66h-105l105 106h144zM563 700v-107h-353v-162h253v-107h-253v-217h363v-107h-488v700h478z" />
    <glyph glyph-name="Ecaron" unicode="&#x11a;" horiz-adv-x="615" 
d="M148 846h105l71 -66h4l69 66h105l-105 -106h-144zM563 700v-107h-353v-162h253v-107h-253v-217h363v-107h-488v700h478z" />
    <glyph glyph-name="Edieresis" unicode="&#xcb;" horiz-adv-x="615" 
d="M171 793c0 31 23 50 54 50s53 -19 53 -50s-22 -50 -53 -50s-54 19 -54 50zM370 793c0 31 23 50 54 50s53 -19 53 -50s-22 -50 -53 -50s-54 19 -54 50zM563 700v-107h-353v-162h253v-107h-253v-217h363v-107h-488v700h478z" />
    <glyph glyph-name="Emacron" unicode="&#x112;" horiz-adv-x="615" 
d="M470 756h-292v75h292v-75zM563 700v-107h-353v-162h253v-107h-253v-217h363v-107h-488v700h478z" />
    <glyph glyph-name="Ebreve" unicode="&#x114;" horiz-adv-x="615" 
d="M324 741c-81 0 -139 41 -142 105h86c4 -24 27 -39 56 -39c31 0 52 15 56 39h86c-1 -64 -59 -105 -142 -105zM563 700v-107h-353v-162h253v-107h-253v-217h363v-107h-488v700h478z" />
    <glyph glyph-name="Edotaccent" unicode="&#x116;" horiz-adv-x="615" 
d="M270 793c0 31 23 50 54 50s54 -19 54 -50s-23 -50 -54 -50s-54 19 -54 50zM563 700v-107h-353v-162h253v-107h-253v-217h363v-107h-488v700h478z" />
    <glyph glyph-name="Eogonek" unicode="&#x118;" horiz-adv-x="615" 
d="M475 -190c-65 0 -104 33 -104 82c0 39 23 75 70 108h-356v700h478v-107h-353v-162h253v-107h-253v-217h363v-107c-65 -32 -93 -53 -93 -77c0 -20 14 -30 41 -30h52v-83h-98z" />
    <glyph glyph-name="F" unicode="F" horiz-adv-x="577" 
d="M552 700v-107h-342v-170h240v-107h-240v-316h-125v700h467z" />
    <glyph glyph-name="G" unicode="G" horiz-adv-x="696" 
d="M385 -15c-197 0 -334 146 -334 368c0 216 128 362 324 362c119 0 208 -55 256 -159l-109 -52c-35 67 -86 101 -152 101c-114 0 -191 -100 -191 -251c0 -159 85 -261 214 -261c51 0 91 15 121 45v165h-172v107h288v-323c-53 -61 -148 -102 -245 -102z" />
    <glyph glyph-name="Gcircumflex" unicode="&#x11c;" horiz-adv-x="696" 
d="M536 740h-105l-71 66h-4l-69 -66h-105l105 106h144zM385 -15c-197 0 -334 146 -334 368c0 216 128 362 324 362c119 0 208 -55 256 -159l-109 -52c-35 67 -86 101 -152 101c-114 0 -191 -100 -191 -251c0 -159 85 -261 214 -261c51 0 91 15 121 45v165h-172v107h288v-323
c-53 -61 -148 -102 -245 -102z" />
    <glyph glyph-name="Gbreve" unicode="&#x11e;" horiz-adv-x="696" 
d="M359 741c-81 0 -139 41 -142 105h86c4 -24 27 -39 56 -39c31 0 52 15 56 39h86c-1 -64 -59 -105 -142 -105zM385 -15c-197 0 -334 146 -334 368c0 216 128 362 324 362c119 0 208 -55 256 -159l-109 -52c-35 67 -86 101 -152 101c-114 0 -191 -100 -191 -251
c0 -159 85 -261 214 -261c51 0 91 15 121 45v165h-172v107h288v-323c-53 -61 -148 -102 -245 -102z" />
    <glyph glyph-name="Gdotaccent" unicode="&#x120;" horiz-adv-x="696" 
d="M305 793c0 31 23 50 54 50s54 -19 54 -50s-23 -50 -54 -50s-54 19 -54 50zM385 -15c-197 0 -334 146 -334 368c0 216 128 362 324 362c119 0 208 -55 256 -159l-109 -52c-35 67 -86 101 -152 101c-114 0 -191 -100 -191 -251c0 -159 85 -261 214 -261c51 0 91 15 121 45
v165h-172v107h288v-323c-53 -61 -148 -102 -245 -102z" />
    <glyph glyph-name="Gcedilla" unicode="&#x122;" horiz-adv-x="696" 
d="M385 -15c-197 0 -334 146 -334 368c0 216 128 362 324 362c119 0 208 -55 256 -159l-109 -52c-35 67 -86 101 -152 101c-114 0 -191 -100 -191 -251c0 -159 85 -261 214 -261c51 0 91 15 121 45v165h-172v107h288v-323c-53 -61 -148 -102 -245 -102zM410 -200h-62l25 51
h-8c-29 0 -49 18 -49 45c0 32 27 53 64 53c39 0 62 -21 62 -56c0 -15 -5 -30 -17 -59z" />
    <glyph glyph-name="H" unicode="H" horiz-adv-x="709" 
d="M624 700v-700h-123v315h-291v-315h-125v700h125v-278h291v278h123z" />
    <glyph glyph-name="Hcircumflex" unicode="&#x124;" horiz-adv-x="709" 
d="M531 740h-105l-71 66h-4l-69 -66h-105l105 106h144zM624 700v-700h-123v315h-291v-315h-125v700h125v-278h291v278h123z" />
    <glyph glyph-name="Hbar" unicode="&#x126;" horiz-adv-x="709" 
d="M24 514v94h61v92h125v-92h291v92h123v-92h61v-94h-61v-514h-123v315h-291v-315h-125v514h-61zM210 422h291v92h-291v-92z" />
    <glyph glyph-name="I" unicode="I" horiz-adv-x="295" 
d="M210 700v-700h-125v700h125z" />
    <glyph glyph-name="Igrave" unicode="&#xcc;" horiz-adv-x="295" 
d="M196 740h-96l-100 106h125zM210 700v-700h-125v700h125z" />
    <glyph glyph-name="Iacute" unicode="&#xcd;" horiz-adv-x="295" 
d="M194 740h-96l71 106h125zM210 700v-700h-125v700h125z" />
    <glyph glyph-name="Icircumflex" unicode="&#xce;" horiz-adv-x="295" 
d="M324 740h-105l-71 66h-4l-69 -66h-105l105 106h144zM210 700v-700h-125v700h125z" />
    <glyph glyph-name="Itilde" unicode="&#x128;" horiz-adv-x="295" 
d="M224 737c-56 0 -116 44 -147 44c-19 0 -30 -13 -35 -39h-65c8 71 39 106 94 106c57 0 115 -44 147 -44c19 0 30 13 35 39h65c-8 -71 -39 -106 -94 -106zM210 700v-700h-125v700h125z" />
    <glyph glyph-name="Idieresis" unicode="&#xcf;" horiz-adv-x="295" 
d="M-6 793c0 31 23 50 54 50s53 -19 53 -50s-22 -50 -53 -50s-54 19 -54 50zM193 793c0 31 23 50 54 50s53 -19 53 -50s-22 -50 -53 -50s-54 19 -54 50zM210 700v-700h-125v700h125z" />
    <glyph glyph-name="Imacron" unicode="&#x12a;" horiz-adv-x="295" 
d="M293 756h-292v75h292v-75zM210 700v-700h-125v700h125z" />
    <glyph glyph-name="Ibreve" unicode="&#x12c;" horiz-adv-x="295" 
d="M147 741c-81 0 -139 41 -142 105h86c4 -24 27 -39 56 -39c31 0 52 15 56 39h86c-1 -64 -59 -105 -142 -105zM210 700v-700h-125v700h125z" />
    <glyph glyph-name="Idot" unicode="&#x130;" horiz-adv-x="295" 
d="M93 793c0 31 23 50 54 50s54 -19 54 -50s-23 -50 -54 -50s-54 19 -54 50zM210 700v-700h-125v700h125z" />
    <glyph glyph-name="Iogonek" unicode="&#x12e;" horiz-adv-x="295" 
d="M111 -190c-65 0 -104 33 -104 82c0 41 26 79 78 113v695h125v-700h-1c-65 -32 -93 -53 -93 -77c0 -20 14 -30 41 -30h52v-83h-98z" />
    <glyph glyph-name="IJ" unicode="&#x132;" horiz-adv-x="701" 
d="M210 700v-700h-125v700h125zM412 0h-93v107h61c79 0 126 22 126 126v467h124v-481c0 -159 -75 -219 -218 -219z" />
    <glyph glyph-name="J" unicode="J" horiz-adv-x="406" 
d="M117 0h-93v107h61c79 0 126 22 126 126v467h124v-481c0 -159 -75 -219 -218 -219z" />
    <glyph glyph-name="Jcircumflex" unicode="&#x134;" horiz-adv-x="406" 
d="M450 740h-105l-71 66h-4l-69 -66h-105l105 106h144zM117 0h-93v107h61c79 0 126 22 126 126v467h124v-481c0 -159 -75 -219 -218 -219z" />
    <glyph glyph-name="K" unicode="K" horiz-adv-x="666" 
d="M210 0h-125v700h125v-273l277 273h152l-249 -239l266 -461h-144l-213 377l-89 -87v-290z" />
    <glyph glyph-name="Kcedilla" unicode="&#x136;" horiz-adv-x="666" 
d="M210 0h-125v700h125v-273l277 273h152l-249 -239l266 -461h-144l-213 377l-89 -87v-290zM373 -200h-62l25 51h-8c-29 0 -49 18 -49 45c0 32 27 53 64 53c39 0 62 -21 62 -56c0 -15 -5 -30 -17 -59z" />
    <glyph glyph-name="L" unicode="L" horiz-adv-x="539" 
d="M85 700h125v-593h303v-107h-428v700z" />
    <glyph glyph-name="Lacute" unicode="&#x139;" horiz-adv-x="539" 
d="M194 740h-96l71 106h125zM85 700h125v-593h303v-107h-428v700z" />
    <glyph glyph-name="Lcaron" unicode="&#x13d;" horiz-adv-x="539" 
d="M85 700h125v-593h303v-107h-428v700zM387 466h-90l46 234h110z" />
    <glyph glyph-name="Lcedilla" unicode="&#x13b;" horiz-adv-x="539" 
d="M85 700h125v-593h303v-107h-428v700zM325 -200h-62l25 51h-8c-29 0 -49 18 -49 45c0 32 27 53 64 53c39 0 62 -21 62 -56c0 -15 -5 -30 -17 -59z" />
    <glyph glyph-name="Lslash" unicode="&#x141;" horiz-adv-x="539" 
d="M9 204v106l76 38v352h125v-288l143 72v-106l-143 -72v-199h303v-107h-428v242z" />
    <glyph glyph-name="Ldot" unicode="&#x13f;" horiz-adv-x="539" 
d="M85 700h125v-593h303v-107h-428v700zM360 397c0 35 25 57 60 57s59 -22 59 -57c0 -33 -24 -57 -59 -57s-60 24 -60 57z" />
    <glyph glyph-name="M" unicode="M" horiz-adv-x="880" 
d="M795 0h-124v620h-4l-189 -620h-75l-189 620h-4v-620h-125v700h227l98 -310c16 -53 28 -109 32 -138h5c4 27 17 85 33 138l99 310h216v-700z" />
    <glyph glyph-name="N" unicode="N" horiz-adv-x="731" 
d="M278 700l220 -509c11 -24 18 -46 26 -73l4 1c-1 28 -2 52 -2 77v504h120v-700h-193l-220 509c-9 24 -18 48 -26 73l-4 -1c1 -28 2 -52 2 -77v-504h-120v700h193z" />
    <glyph glyph-name="Nacute" unicode="&#x143;" horiz-adv-x="731" 
d="M417 740h-96l71 106h125zM278 700l220 -509c11 -24 18 -46 26 -73l4 1c-1 28 -2 52 -2 77v504h120v-700h-193l-220 509c-9 24 -18 48 -26 73l-4 -1c1 -28 2 -52 2 -77v-504h-120v700h193z" />
    <glyph glyph-name="Ncaron" unicode="&#x147;" horiz-adv-x="731" 
d="M194 846h105l71 -66h4l69 66h105l-105 -106h-144zM278 700l220 -509c11 -24 18 -46 26 -73l4 1c-1 28 -2 52 -2 77v504h120v-700h-193l-220 509c-9 24 -18 48 -26 73l-4 -1c1 -28 2 -52 2 -77v-504h-120v700h193z" />
    <glyph glyph-name="Ntilde" unicode="&#xd1;" horiz-adv-x="731" 
d="M447 737c-56 0 -116 44 -147 44c-19 0 -30 -13 -35 -39h-65c8 71 39 106 94 106c57 0 115 -44 147 -44c19 0 30 13 35 39h65c-8 -71 -39 -106 -94 -106zM278 700l220 -509c11 -24 18 -46 26 -73l4 1c-1 28 -2 52 -2 77v504h120v-700h-193l-220 509c-9 24 -18 48 -26 73
l-4 -1c1 -28 2 -52 2 -77v-504h-120v700h193z" />
    <glyph glyph-name="Ncedilla" unicode="&#x145;" horiz-adv-x="731" 
d="M278 700l220 -509c11 -24 18 -46 26 -73l4 1c-1 28 -2 52 -2 77v504h120v-700h-193l-220 509c-9 24 -18 48 -26 73l-4 -1c1 -28 2 -52 2 -77v-504h-120v700h193zM400 -200h-62l25 51h-8c-29 0 -49 18 -49 45c0 32 27 53 64 53c39 0 62 -21 62 -56c0 -15 -5 -30 -17 -59z
" />
    <glyph glyph-name="Eng" unicode="&#x14a;" horiz-adv-x="731" 
d="M205 0h-120v700h192l221 -509c11 -24 18 -46 26 -73l4 1c-1 28 -2 52 -2 77v504h120v-672c0 -159 -74 -218 -217 -218h-113v107h85c40 0 69 7 86 22l-254 570c-11 24 -18 48 -26 73l-4 -1c1 -28 2 -52 2 -77v-504z" />
    <glyph glyph-name="O" unicode="O" horiz-adv-x="719" 
d="M669 350c0 -217 -126 -365 -309 -365c-185 0 -309 148 -309 365s124 365 309 365c183 0 309 -148 309 -365zM540 350c0 154 -72 255 -180 255c-109 0 -181 -101 -181 -255s72 -255 181 -255c108 0 180 101 180 255z" />
    <glyph glyph-name="Ograve" unicode="&#xd2;" horiz-adv-x="719" 
d="M406 740h-96l-100 106h125zM669 350c0 -217 -126 -365 -309 -365c-185 0 -309 148 -309 365s124 365 309 365c183 0 309 -148 309 -365zM540 350c0 154 -72 255 -180 255c-109 0 -181 -101 -181 -255s72 -255 181 -255c108 0 180 101 180 255z" />
    <glyph glyph-name="Oacute" unicode="&#xd3;" horiz-adv-x="719" 
d="M404 740h-96l71 106h125zM669 350c0 -217 -126 -365 -309 -365c-185 0 -309 148 -309 365s124 365 309 365c183 0 309 -148 309 -365zM540 350c0 154 -72 255 -180 255c-109 0 -181 -101 -181 -255s72 -255 181 -255c108 0 180 101 180 255z" />
    <glyph glyph-name="Ocircumflex" unicode="&#xd4;" horiz-adv-x="719" 
d="M534 740h-105l-71 66h-4l-69 -66h-105l105 106h144zM669 350c0 -217 -126 -365 -309 -365c-185 0 -309 148 -309 365s124 365 309 365c183 0 309 -148 309 -365zM540 350c0 154 -72 255 -180 255c-109 0 -181 -101 -181 -255s72 -255 181 -255c108 0 180 101 180 255z
" />
    <glyph glyph-name="Otilde" unicode="&#xd5;" horiz-adv-x="719" 
d="M434 737c-56 0 -116 44 -147 44c-19 0 -30 -13 -35 -39h-65c8 71 39 106 94 106c57 0 115 -44 147 -44c19 0 30 13 35 39h65c-8 -71 -39 -106 -94 -106zM669 350c0 -217 -126 -365 -309 -365c-185 0 -309 148 -309 365s124 365 309 365c183 0 309 -148 309 -365zM540 350
c0 154 -72 255 -180 255c-109 0 -181 -101 -181 -255s72 -255 181 -255c108 0 180 101 180 255z" />
    <glyph glyph-name="Odieresis" unicode="&#xd6;" horiz-adv-x="719" 
d="M204 793c0 31 23 50 54 50s53 -19 53 -50s-22 -50 -53 -50s-54 19 -54 50zM403 793c0 31 23 50 54 50s53 -19 53 -50s-22 -50 -53 -50s-54 19 -54 50zM669 350c0 -217 -126 -365 -309 -365c-185 0 -309 148 -309 365s124 365 309 365c183 0 309 -148 309 -365zM540 350
c0 154 -72 255 -180 255c-109 0 -181 -101 -181 -255s72 -255 181 -255c108 0 180 101 180 255z" />
    <glyph glyph-name="Omacron" unicode="&#x14c;" horiz-adv-x="719" 
d="M503 756h-292v75h292v-75zM669 350c0 -217 -126 -365 -309 -365c-185 0 -309 148 -309 365s124 365 309 365c183 0 309 -148 309 -365zM540 350c0 154 -72 255 -180 255c-109 0 -181 -101 -181 -255s72 -255 181 -255c108 0 180 101 180 255z" />
    <glyph glyph-name="Obreve" unicode="&#x14e;" horiz-adv-x="719" 
d="M357 741c-81 0 -139 41 -142 105h86c4 -24 27 -39 56 -39c31 0 52 15 56 39h86c-1 -64 -59 -105 -142 -105zM669 350c0 -217 -126 -365 -309 -365c-185 0 -309 148 -309 365s124 365 309 365c183 0 309 -148 309 -365zM540 350c0 154 -72 255 -180 255
c-109 0 -181 -101 -181 -255s72 -255 181 -255c108 0 180 101 180 255z" />
    <glyph glyph-name="Ohungarumlaut" unicode="&#x150;" horiz-adv-x="719" 
d="M311 740h-96l71 106h125zM499 740h-96l71 106h125zM669 350c0 -217 -126 -365 -309 -365c-185 0 -309 148 -309 365s124 365 309 365c183 0 309 -148 309 -365zM540 350c0 154 -72 255 -180 255c-109 0 -181 -101 -181 -255s72 -255 181 -255c108 0 180 101 180 255z" />
    <glyph glyph-name="Oslash" unicode="&#xd8;" horiz-adv-x="719" 
d="M669 350c0 -217 -126 -365 -309 -365c-67 0 -125 18 -174 54l-29 -39h-106l73 101c-45 63 -73 148 -73 249c0 217 124 365 309 365c66 0 124 -18 173 -54l29 39h107l-74 -101c47 -63 74 -148 74 -249zM179 350c0 -53 8 -100 25 -141l260 356c-30 27 -65 40 -104 40
c-109 0 -181 -101 -181 -255zM540 350c0 55 -9 101 -25 140l-260 -356c30 -26 65 -39 105 -39c108 0 180 101 180 255z" />
    <glyph glyph-name="Oslashacute" unicode="&#x1fe;" horiz-adv-x="719" 
d="M404 740h-96l71 106h125zM669 350c0 -217 -126 -365 -309 -365c-67 0 -125 18 -174 54l-29 -39h-106l73 101c-45 63 -73 148 -73 249c0 217 124 365 309 365c66 0 124 -18 173 -54l29 39h107l-74 -101c47 -63 74 -148 74 -249zM179 350c0 -53 8 -100 25 -141l260 356
c-30 27 -65 40 -104 40c-109 0 -181 -101 -181 -255zM540 350c0 55 -9 101 -25 140l-260 -356c30 -26 65 -39 105 -39c108 0 180 101 180 255z" />
    <glyph glyph-name="OE" unicode="&#x152;" horiz-adv-x="1016" 
d="M50 354c0 245 135 346 339 346h576v-107h-353v-162h253v-107h-253v-217h363v-107h-599c-221 0 -326 138 -326 354zM178 350c0 -153 60 -243 212 -243h96v486h-96c-152 0 -212 -88 -212 -243z" />
    <glyph glyph-name="P" unicode="P" horiz-adv-x="649" 
d="M85 0v700h291c148 0 235 -74 235 -202c0 -129 -89 -212 -227 -212h-174v-286h-125zM210 593v-203h159c75 0 116 36 116 101s-44 102 -117 102h-158z" />
    <glyph glyph-name="Q" unicode="Q" horiz-adv-x="719" 
d="M553 -37l-48 58c-41 -23 -90 -36 -145 -36c-185 0 -309 148 -309 365s124 365 309 365c183 0 309 -148 309 -365c0 -108 -31 -199 -84 -263l103 -124h-135zM540 350c0 154 -72 255 -180 255c-109 0 -181 -101 -181 -255s72 -255 181 -255c24 0 47 5 70 16l-128 153h135
l66 -79c25 44 37 99 37 165z" />
    <glyph glyph-name="R" unicode="R" horiz-adv-x="649" 
d="M85 0v700h295c143 0 227 -72 227 -191c0 -117 -83 -188 -222 -188h-2l238 -321h-154l-224 321h-33v-321h-125zM210 593v-173h161c71 0 110 30 110 87c0 55 -39 86 -111 86h-160z" />
    <glyph glyph-name="Racute" unicode="&#x154;" horiz-adv-x="649" 
d="M366 740h-96l71 106h125zM85 0v700h295c143 0 227 -72 227 -191c0 -117 -83 -188 -222 -188h-2l238 -321h-154l-224 321h-33v-321h-125zM210 593v-173h161c71 0 110 30 110 87c0 55 -39 86 -111 86h-160z" />
    <glyph glyph-name="Rcaron" unicode="&#x158;" horiz-adv-x="649" 
d="M143 846h105l71 -66h4l69 66h105l-105 -106h-144zM85 0v700h295c143 0 227 -72 227 -191c0 -117 -83 -188 -222 -188h-2l238 -321h-154l-224 321h-33v-321h-125zM210 593v-173h161c71 0 110 30 110 87c0 55 -39 86 -111 86h-160z" />
    <glyph glyph-name="Rcedilla" unicode="&#x156;" horiz-adv-x="649" 
d="M85 0v700h295c143 0 227 -72 227 -191c0 -117 -83 -188 -222 -188h-2l238 -321h-154l-224 321h-33v-321h-125zM210 593v-173h161c71 0 110 30 110 87c0 55 -39 86 -111 86h-160zM358 -200h-62l25 51h-8c-29 0 -49 18 -49 45c0 32 27 53 64 53c39 0 62 -21 62 -56
c0 -15 -5 -30 -17 -59z" />
    <glyph glyph-name="S" unicode="S" horiz-adv-x="605" 
d="M313 -15c-149 0 -249 80 -282 224l115 32c29 -104 87 -153 170 -153c75 0 125 41 125 104c0 148 -363 86 -363 322c0 123 91 201 234 201c123 0 208 -57 248 -168l-111 -44c-33 76 -76 109 -143 109c-63 0 -102 -30 -102 -78c0 -148 363 -88 363 -323
c0 -139 -98 -226 -254 -226z" />
    <glyph glyph-name="Sacute" unicode="&#x15a;" horiz-adv-x="605" 
d="M360 740h-96l71 106h125zM313 -15c-149 0 -249 80 -282 224l115 32c29 -104 87 -153 170 -153c75 0 125 41 125 104c0 148 -363 86 -363 322c0 123 91 201 234 201c123 0 208 -57 248 -168l-111 -44c-33 76 -76 109 -143 109c-63 0 -102 -30 -102 -78
c0 -148 363 -88 363 -323c0 -139 -98 -226 -254 -226z" />
    <glyph glyph-name="Scircumflex" unicode="&#x15c;" horiz-adv-x="605" 
d="M490 740h-105l-71 66h-4l-69 -66h-105l105 106h144zM313 -15c-149 0 -249 80 -282 224l115 32c29 -104 87 -153 170 -153c75 0 125 41 125 104c0 148 -363 86 -363 322c0 123 91 201 234 201c123 0 208 -57 248 -168l-111 -44c-33 76 -76 109 -143 109
c-63 0 -102 -30 -102 -78c0 -148 363 -88 363 -323c0 -139 -98 -226 -254 -226z" />
    <glyph glyph-name="Scaron" unicode="&#x160;" horiz-adv-x="605" 
d="M137 846h105l71 -66h4l69 66h105l-105 -106h-144zM313 -15c-149 0 -249 80 -282 224l115 32c29 -104 87 -153 170 -153c75 0 125 41 125 104c0 148 -363 86 -363 322c0 123 91 201 234 201c123 0 208 -57 248 -168l-111 -44c-33 76 -76 109 -143 109
c-63 0 -102 -30 -102 -78c0 -148 363 -88 363 -323c0 -139 -98 -226 -254 -226z" />
    <glyph glyph-name="Scedilla" unicode="&#x15e;" horiz-adv-x="605" 
d="M205 -190v77h48c40 0 60 16 60 48c0 18 -7 35 -22 51c-137 7 -229 86 -260 223l115 32c29 -104 87 -153 170 -153c75 0 125 41 125 104c0 148 -363 86 -363 322c0 123 91 201 234 201c123 0 208 -57 248 -168l-111 -44c-33 76 -76 109 -143 109c-63 0 -102 -30 -102 -78
c0 -148 363 -88 363 -323c0 -121 -77 -203 -200 -222l-1 -5c35 -17 52 -44 52 -80c0 -59 -45 -94 -121 -94h-92z" />
    <glyph glyph-name="Scommaaccent" unicode="&#x218;" horiz-adv-x="605" 
d="M313 -15c-149 0 -249 80 -282 224l115 32c29 -104 87 -153 170 -153c75 0 125 41 125 104c0 148 -363 86 -363 322c0 123 91 201 234 201c123 0 208 -57 248 -168l-111 -44c-33 76 -76 109 -143 109c-63 0 -102 -30 -102 -78c0 -148 363 -88 363 -323
c0 -139 -98 -226 -254 -226zM349 -200h-62l25 51h-8c-29 0 -49 18 -49 45c0 32 27 53 64 53c39 0 62 -21 62 -56c0 -15 -5 -30 -17 -59z" />
    <glyph glyph-name="germandbls.cap" horiz-adv-x="1210" 
d="M313 -15c-149 0 -249 80 -282 224l115 32c29 -104 87 -153 170 -153c75 0 125 41 125 104c0 148 -363 86 -363 322c0 123 91 201 234 201c123 0 208 -57 248 -168l-111 -44c-33 76 -76 109 -143 109c-63 0 -102 -30 -102 -78c0 -148 363 -88 363 -323
c0 -139 -98 -226 -254 -226zM918 -15c-149 0 -249 80 -282 224l115 32c29 -104 87 -153 170 -153c75 0 125 41 125 104c0 148 -363 86 -363 322c0 123 91 201 234 201c123 0 208 -57 248 -168l-111 -44c-33 76 -76 109 -143 109c-63 0 -102 -30 -102 -78
c0 -148 363 -88 363 -323c0 -139 -98 -226 -254 -226z" />
    <glyph glyph-name="T" unicode="T" horiz-adv-x="584" 
d="M558 700v-108h-203v-592h-125v592h-204v108h532z" />
    <glyph glyph-name="Tcaron" unicode="&#x164;" horiz-adv-x="584" 
d="M116 846h105l71 -66h4l69 66h105l-105 -106h-144zM558 700v-108h-203v-592h-125v592h-204v108h532z" />
    <glyph glyph-name="Tcommaaccent" unicode="&#x21a;" horiz-adv-x="584" 
d="M558 700v-108h-203v-592h-125v592h-204v108h532zM323 -200h-62l25 51h-8c-29 0 -49 18 -49 45c0 32 27 53 64 53c39 0 62 -21 62 -56c0 -15 -5 -30 -17 -59z" />
    <glyph glyph-name="Tbar" unicode="&#x166;" horiz-adv-x="584" 
d="M77 295v95h153v202h-204v108h532v-108h-203v-202h152v-95h-152v-295h-125v295h-153z" />
    <glyph glyph-name="Thorn" unicode="&#xde;" horiz-adv-x="649" 
d="M210 700v-142h166c148 0 235 -75 235 -202c0 -65 -21 -116 -62 -155s-96 -58 -165 -58h-174v-143h-125v700h125zM368 450h-158v-203h159c75 0 116 37 116 101c0 65 -44 102 -117 102z" />
    <glyph glyph-name="U" unicode="U" horiz-adv-x="697" 
d="M349 -15c-181 0 -277 98 -277 283v432h124v-415c0 -131 48 -190 153 -190s153 59 153 190v415h123v-430c0 -188 -93 -285 -276 -285z" />
    <glyph glyph-name="Ugrave" unicode="&#xd9;" horiz-adv-x="697" 
d="M398 740h-96l-100 106h125zM349 -15c-181 0 -277 98 -277 283v432h124v-415c0 -131 48 -190 153 -190s153 59 153 190v415h123v-430c0 -188 -93 -285 -276 -285z" />
    <glyph glyph-name="Uacute" unicode="&#xda;" horiz-adv-x="697" 
d="M396 740h-96l71 106h125zM349 -15c-181 0 -277 98 -277 283v432h124v-415c0 -131 48 -190 153 -190s153 59 153 190v415h123v-430c0 -188 -93 -285 -276 -285z" />
    <glyph glyph-name="Ucircumflex" unicode="&#xdb;" horiz-adv-x="697" 
d="M526 740h-105l-71 66h-4l-69 -66h-105l105 106h144zM349 -15c-181 0 -277 98 -277 283v432h124v-415c0 -131 48 -190 153 -190s153 59 153 190v415h123v-430c0 -188 -93 -285 -276 -285z" />
    <glyph glyph-name="Utilde" unicode="&#x168;" horiz-adv-x="697" 
d="M426 737c-56 0 -116 44 -147 44c-19 0 -30 -13 -35 -39h-65c8 71 39 106 94 106c57 0 115 -44 147 -44c19 0 30 13 35 39h65c-8 -71 -39 -106 -94 -106zM349 -15c-181 0 -277 98 -277 283v432h124v-415c0 -131 48 -190 153 -190s153 59 153 190v415h123v-430
c0 -188 -93 -285 -276 -285z" />
    <glyph glyph-name="Udieresis" unicode="&#xdc;" horiz-adv-x="697" 
d="M196 793c0 31 23 50 54 50s53 -19 53 -50s-22 -50 -53 -50s-54 19 -54 50zM395 793c0 31 23 50 54 50s53 -19 53 -50s-22 -50 -53 -50s-54 19 -54 50zM349 -15c-181 0 -277 98 -277 283v432h124v-415c0 -131 48 -190 153 -190s153 59 153 190v415h123v-430
c0 -188 -93 -285 -276 -285z" />
    <glyph glyph-name="Umacron" unicode="&#x16a;" horiz-adv-x="697" 
d="M495 756h-292v75h292v-75zM349 -15c-181 0 -277 98 -277 283v432h124v-415c0 -131 48 -190 153 -190s153 59 153 190v415h123v-430c0 -188 -93 -285 -276 -285z" />
    <glyph glyph-name="Ubreve" unicode="&#x16c;" horiz-adv-x="697" 
d="M349 741c-81 0 -139 41 -142 105h86c4 -24 27 -39 56 -39c31 0 52 15 56 39h86c-1 -64 -59 -105 -142 -105zM349 -15c-181 0 -277 98 -277 283v432h124v-415c0 -131 48 -190 153 -190s153 59 153 190v415h123v-430c0 -188 -93 -285 -276 -285z" />
    <glyph glyph-name="Uring" unicode="&#x16e;" horiz-adv-x="697" 
d="M349 729c-69 0 -123 43 -123 107c0 63 54 106 123 106c71 0 123 -43 123 -106c0 -64 -52 -107 -123 -107zM349 789c28 0 45 22 45 47c0 27 -17 46 -45 46s-45 -19 -45 -46c0 -25 17 -47 45 -47zM349 -15c-181 0 -277 98 -277 283v432h124v-415c0 -131 48 -190 153 -190
s153 59 153 190v415h123v-430c0 -188 -93 -285 -276 -285z" />
    <glyph glyph-name="Uhungarumlaut" unicode="&#x170;" horiz-adv-x="697" 
d="M303 740h-96l71 106h125zM491 740h-96l71 106h125zM349 -15c-181 0 -277 98 -277 283v432h124v-415c0 -131 48 -190 153 -190s153 59 153 190v415h123v-430c0 -188 -93 -285 -276 -285z" />
    <glyph glyph-name="Uogonek" unicode="&#x172;" horiz-adv-x="697" 
d="M469 -190h-98c-65 0 -105 33 -105 82c0 36 20 70 53 91v4c-161 8 -247 106 -247 281v432h124v-415c0 -131 48 -190 153 -190s153 59 153 190v415h123v-430c0 -148 -57 -233 -161 -269c-53 -19 -88 -49 -88 -78c0 -20 14 -30 41 -30h52v-83z" />
    <glyph glyph-name="V" unicode="V" horiz-adv-x="664" 
d="M156 700l176 -601h4l176 601h132l-223 -700h-177l-225 700h137z" />
    <glyph glyph-name="W" unicode="W" horiz-adv-x="942" 
d="M25 700h126l122 -589h6l114 589h162l115 -589h4l121 589h122l-155 -700h-181l-89 446c-4 26 -13 87 -17 106h-5c-2 -19 -12 -80 -16 -106l-89 -446h-185z" />
    <glyph glyph-name="Wgrave" unicode="&#x1e80;" horiz-adv-x="942" 
d="M520 740h-96l-100 106h125zM25 700h126l122 -589h6l114 589h162l115 -589h4l121 589h122l-155 -700h-181l-89 446c-4 26 -13 87 -17 106h-5c-2 -19 -12 -80 -16 -106l-89 -446h-185z" />
    <glyph glyph-name="Wacute" unicode="&#x1e82;" horiz-adv-x="942" 
d="M518 740h-96l71 106h125zM25 700h126l122 -589h6l114 589h162l115 -589h4l121 589h122l-155 -700h-181l-89 446c-4 26 -13 87 -17 106h-5c-2 -19 -12 -80 -16 -106l-89 -446h-185z" />
    <glyph glyph-name="Wcircumflex" unicode="&#x174;" horiz-adv-x="942" 
d="M648 740h-105l-71 66h-4l-69 -66h-105l105 106h144zM25 700h126l122 -589h6l114 589h162l115 -589h4l121 589h122l-155 -700h-181l-89 446c-4 26 -13 87 -17 106h-5c-2 -19 -12 -80 -16 -106l-89 -446h-185z" />
    <glyph glyph-name="Wdieresis" unicode="&#x1e84;" horiz-adv-x="942" 
d="M318 793c0 31 23 50 54 50s53 -19 53 -50s-22 -50 -53 -50s-54 19 -54 50zM517 793c0 31 23 50 54 50s53 -19 53 -50s-22 -50 -53 -50s-54 19 -54 50zM25 700h126l122 -589h6l114 589h162l115 -589h4l121 589h122l-155 -700h-181l-89 446c-4 26 -13 87 -17 106h-5
c-2 -19 -12 -80 -16 -106l-89 -446h-185z" />
    <glyph glyph-name="X" unicode="X" horiz-adv-x="657" 
d="M625 0h-145l-85 145c-19 34 -55 103 -66 124h-4c-10 -21 -45 -90 -64 -124l-87 -145h-142l216 363l-198 337h144l74 -124c24 -45 53 -104 62 -125h4c11 21 38 80 63 125l73 124h143l-204 -338z" />
    <glyph glyph-name="Y" unicode="Y" horiz-adv-x="610" 
d="M365 0h-120v305l-235 395h144l90 -162c25 -42 60 -113 63 -121h4c3 8 39 79 62 121l91 162h135l-234 -394v-306z" />
    <glyph glyph-name="Ygrave" unicode="&#x1ef2;" horiz-adv-x="610" 
d="M359 740h-96l-100 106h125zM365 0h-120v305l-235 395h144l90 -162c25 -42 60 -113 63 -121h4c3 8 39 79 62 121l91 162h135l-234 -394v-306z" />
    <glyph glyph-name="Yacute" unicode="&#xdd;" horiz-adv-x="610" 
d="M357 740h-96l71 106h125zM365 0h-120v305l-235 395h144l90 -162c25 -42 60 -113 63 -121h4c3 8 39 79 62 121l91 162h135l-234 -394v-306z" />
    <glyph glyph-name="Ycircumflex" unicode="&#x176;" horiz-adv-x="610" 
d="M487 740h-105l-71 66h-4l-69 -66h-105l105 106h144zM365 0h-120v305l-235 395h144l90 -162c25 -42 60 -113 63 -121h4c3 8 39 79 62 121l91 162h135l-234 -394v-306z" />
    <glyph glyph-name="Ydieresis" unicode="&#x178;" horiz-adv-x="610" 
d="M157 793c0 31 23 50 54 50s53 -19 53 -50s-22 -50 -53 -50s-54 19 -54 50zM356 793c0 31 23 50 54 50s53 -19 53 -50s-22 -50 -53 -50s-54 19 -54 50zM365 0h-120v305l-235 395h144l90 -162c25 -42 60 -113 63 -121h4c3 8 39 79 62 121l91 162h135l-234 -394v-306z" />
    <glyph glyph-name="Z" unicode="Z" horiz-adv-x="619" 
d="M570 0h-516v99l351 494h-331v107h489v-99l-351 -494h358v-107z" />
    <glyph glyph-name="Zacute" unicode="&#x179;" horiz-adv-x="619" 
d="M358 740h-96l71 106h125zM570 0h-516v99l351 494h-331v107h489v-99l-351 -494h358v-107z" />
    <glyph glyph-name="Zcaron" unicode="&#x17d;" horiz-adv-x="619" 
d="M135 846h105l71 -66h4l69 66h105l-105 -106h-144zM570 0h-516v99l351 494h-331v107h489v-99l-351 -494h358v-107z" />
    <glyph glyph-name="Zdotaccent" unicode="&#x17b;" horiz-adv-x="619" 
d="M257 793c0 31 23 50 54 50s54 -19 54 -50s-23 -50 -54 -50s-54 19 -54 50zM570 0h-516v99l351 494h-331v107h489v-99l-351 -494h358v-107z" />
    <glyph glyph-name="a" unicode="a" horiz-adv-x="551" 
d="M218 -15c-96 0 -166 66 -166 162c0 83 52 136 172 175l108 34c24 7 36 21 36 41c0 40 -33 66 -86 66c-60 0 -98 -33 -114 -100l-108 24c19 104 104 168 225 168c124 0 203 -66 203 -173v-382h-116v89h-4c-19 -64 -75 -104 -150 -104zM255 66c67 0 114 62 114 147v70
l-118 -40c-53 -19 -80 -49 -80 -91c0 -52 35 -86 84 -86z" />
    <glyph glyph-name="agrave" unicode="&#xe0;" horiz-adv-x="551" 
d="M237 604l-115 131h125l86 -131h-96zM218 -15c-96 0 -166 66 -166 162c0 83 52 136 172 175l108 34c24 7 36 21 36 41c0 40 -33 66 -86 66c-60 0 -98 -33 -114 -100l-108 24c19 104 104 168 225 168c124 0 203 -66 203 -173v-382h-116v89h-4c-19 -64 -75 -104 -150 -104z
M255 66c67 0 114 62 114 147v70l-118 -40c-53 -19 -80 -49 -80 -91c0 -52 35 -86 84 -86z" />
    <glyph glyph-name="aacute" unicode="&#xe1;" horiz-adv-x="551" 
d="M331 604h-95l86 131h125zM218 -15c-96 0 -166 66 -166 162c0 83 52 136 172 175l108 34c24 7 36 21 36 41c0 40 -33 66 -86 66c-60 0 -98 -33 -114 -100l-108 24c19 104 104 168 225 168c124 0 203 -66 203 -173v-382h-116v89h-4c-19 -64 -75 -104 -150 -104zM255 66
c67 0 114 62 114 147v70l-118 -40c-53 -19 -80 -49 -80 -91c0 -52 35 -86 84 -86z" />
    <glyph glyph-name="acircumflex" unicode="&#xe2;" horiz-adv-x="551" 
d="M462 604h-100l-76 83h-4l-74 -83h-99l112 131h128zM218 -15c-96 0 -166 66 -166 162c0 83 52 136 172 175l108 34c24 7 36 21 36 41c0 40 -33 66 -86 66c-60 0 -98 -33 -114 -100l-108 24c19 104 104 168 225 168c124 0 203 -66 203 -173v-382h-116v89h-4
c-19 -64 -75 -104 -150 -104zM255 66c67 0 114 62 114 147v70l-118 -40c-53 -19 -80 -49 -80 -91c0 -52 35 -86 84 -86z" />
    <glyph glyph-name="atilde" unicode="&#xe3;" horiz-adv-x="551" 
d="M364 606c-58 0 -113 51 -150 51c-21 0 -33 -15 -36 -46h-70c3 79 39 123 96 123c60 0 112 -51 150 -51c21 0 33 15 36 46h70c-3 -79 -37 -123 -96 -123zM218 -15c-96 0 -166 66 -166 162c0 83 52 136 172 175l108 34c24 7 36 21 36 41c0 40 -33 66 -86 66
c-60 0 -98 -33 -114 -100l-108 24c19 104 104 168 225 168c124 0 203 -66 203 -173v-382h-116v89h-4c-19 -64 -75 -104 -150 -104zM255 66c67 0 114 62 114 147v70l-118 -40c-53 -19 -80 -49 -80 -91c0 -52 35 -86 84 -86z" />
    <glyph glyph-name="adieresis" unicode="&#xe4;" horiz-adv-x="551" 
d="M125 672c0 35 25 57 60 57s59 -22 59 -57c0 -33 -24 -57 -59 -57s-60 24 -60 57zM324 672c0 35 27 57 60 57c35 0 59 -22 59 -57c0 -33 -24 -57 -59 -57c-33 0 -60 24 -60 57zM218 -15c-96 0 -166 66 -166 162c0 83 52 136 172 175l108 34c24 7 36 21 36 41
c0 40 -33 66 -86 66c-60 0 -98 -33 -114 -100l-108 24c19 104 104 168 225 168c124 0 203 -66 203 -173v-382h-116v89h-4c-19 -64 -75 -104 -150 -104zM255 66c67 0 114 62 114 147v70l-118 -40c-53 -19 -80 -49 -80 -91c0 -52 35 -86 84 -86z" />
    <glyph glyph-name="amacron" unicode="&#x101;" horiz-adv-x="551" 
d="M430 634h-292v75h292v-75zM218 -15c-96 0 -166 66 -166 162c0 83 52 136 172 175l108 34c24 7 36 21 36 41c0 40 -33 66 -86 66c-60 0 -98 -33 -114 -100l-108 24c19 104 104 168 225 168c124 0 203 -66 203 -173v-382h-116v89h-4c-19 -64 -75 -104 -150 -104zM255 66
c67 0 114 62 114 147v70l-118 -40c-53 -19 -80 -49 -80 -91c0 -52 35 -86 84 -86z" />
    <glyph glyph-name="abreve" unicode="&#x103;" horiz-adv-x="551" 
d="M284 604c-81 0 -139 51 -142 128h86c1 -33 23 -54 56 -54c32 0 55 21 56 54h86c-1 -77 -59 -128 -142 -128zM218 -15c-96 0 -166 66 -166 162c0 83 52 136 172 175l108 34c24 7 36 21 36 41c0 40 -33 66 -86 66c-60 0 -98 -33 -114 -100l-108 24c19 104 104 168 225 168
c124 0 203 -66 203 -173v-382h-116v89h-4c-19 -64 -75 -104 -150 -104zM255 66c67 0 114 62 114 147v70l-118 -40c-53 -19 -80 -49 -80 -91c0 -52 35 -86 84 -86z" />
    <glyph glyph-name="aring" unicode="&#xe5;" horiz-adv-x="551" 
d="M284 584c-69 0 -123 43 -123 107c0 63 54 106 123 106c71 0 123 -43 123 -106c0 -64 -52 -107 -123 -107zM284 644c28 0 45 22 45 47c0 27 -17 46 -45 46s-45 -19 -45 -46c0 -25 17 -47 45 -47zM218 -15c-96 0 -166 66 -166 162c0 83 52 136 172 175l108 34
c24 7 36 21 36 41c0 40 -33 66 -86 66c-60 0 -98 -33 -114 -100l-108 24c19 104 104 168 225 168c124 0 203 -66 203 -173v-382h-116v89h-4c-19 -64 -75 -104 -150 -104zM255 66c67 0 114 62 114 147v70l-118 -40c-53 -19 -80 -49 -80 -91c0 -52 35 -86 84 -86z" />
    <glyph glyph-name="aringacute" unicode="&#x1fb;" horiz-adv-x="551" 
d="M337 813h-96l71 106h125zM284 578c-69 0 -123 43 -123 107c0 63 54 106 123 106c71 0 123 -43 123 -106c0 -64 -52 -107 -123 -107zM284 638c28 0 45 22 45 47c0 27 -17 46 -45 46s-45 -19 -45 -46c0 -25 17 -47 45 -47zM218 -15c-96 0 -166 66 -166 162
c0 83 52 136 172 175l108 34c24 7 36 21 36 41c0 40 -33 66 -86 66c-60 0 -98 -33 -114 -100l-108 24c19 104 104 168 225 168c124 0 203 -66 203 -173v-382h-116v89h-4c-19 -64 -75 -104 -150 -104zM255 66c67 0 114 62 114 147v70l-118 -40c-53 -19 -80 -49 -80 -91
c0 -52 35 -86 84 -86z" />
    <glyph glyph-name="aogonek" unicode="&#x105;" horiz-adv-x="551" 
d="M218 -15c-96 0 -166 66 -166 162c0 83 52 136 172 175l108 34c24 7 36 21 36 41c0 40 -33 66 -86 66c-60 0 -98 -33 -114 -100l-108 24c19 104 104 168 225 168c124 0 203 -66 203 -173v-382c-65 -32 -93 -53 -93 -77c0 -20 14 -30 41 -30h52v-83h-98
c-65 0 -104 33 -104 82c0 44 29 83 86 118v79h-4c-19 -64 -75 -104 -150 -104zM255 66c67 0 114 62 114 147v70l-118 -40c-53 -19 -80 -49 -80 -91c0 -52 35 -86 84 -86z" />
    <glyph glyph-name="ae" unicode="&#xe6;" horiz-adv-x="881" 
d="M233 -15c-105 0 -180 66 -180 162c0 81 55 138 172 175l108 34c27 8 35 20 35 41c0 40 -33 66 -85 66c-61 0 -99 -33 -114 -100l-108 24c19 104 102 168 219 168c79 0 138 -28 170 -77c41 49 98 77 166 77c136 0 228 -113 228 -276v-25h-353c7 -105 56 -169 133 -169
c54 0 96 35 125 104l99 -44c-44 -107 -118 -160 -222 -160c-95 0 -167 46 -207 123h-4c-29 -77 -95 -123 -182 -123zM609 461c-60 0 -100 -44 -115 -123h225c-5 76 -49 123 -110 123zM256 66c67 0 114 62 114 147v70l-118 -40c-53 -19 -80 -49 -80 -91c0 -52 35 -86 84 -86z
" />
    <glyph glyph-name="aeacute" unicode="&#x1fd;" horiz-adv-x="881" 
d="M477 604h-95l86 131h125zM233 -15c-105 0 -180 66 -180 162c0 81 55 138 172 175l108 34c27 8 35 20 35 41c0 40 -33 66 -85 66c-61 0 -99 -33 -114 -100l-108 24c19 104 102 168 219 168c79 0 138 -28 170 -77c41 49 98 77 166 77c136 0 228 -113 228 -276v-25h-353
c7 -105 56 -169 133 -169c54 0 96 35 125 104l99 -44c-44 -107 -118 -160 -222 -160c-95 0 -167 46 -207 123h-4c-29 -77 -95 -123 -182 -123zM609 461c-60 0 -100 -44 -115 -123h225c-5 76 -49 123 -110 123zM256 66c67 0 114 62 114 147v70l-118 -40
c-53 -19 -80 -49 -80 -91c0 -52 35 -86 84 -86z" />
    <glyph glyph-name="b" unicode="b" horiz-adv-x="593" 
d="M554 269c0 -168 -87 -284 -212 -284c-72 0 -126 37 -157 104h-4v-89h-111v735h119v-273h5c31 59 83 93 150 93c122 0 210 -115 210 -286zM434 270c0 111 -51 182 -128 182c-71 0 -120 -60 -120 -147v-70c0 -89 48 -148 119 -148c79 0 129 74 129 183z" />
    <glyph glyph-name="c" unicode="c" horiz-adv-x="522" 
d="M287 -15c-146 0 -248 116 -248 284c0 170 102 286 247 286c105 0 184 -58 215 -157l-108 -25c-20 51 -59 79 -108 79c-76 0 -125 -71 -125 -182c0 -109 50 -182 127 -182c56 0 99 37 116 102l107 -24c-29 -115 -111 -181 -223 -181z" />
    <glyph glyph-name="cacute" unicode="&#x107;" horiz-adv-x="522" 
d="M333 604h-95l86 131h125zM287 -15c-146 0 -248 116 -248 284c0 170 102 286 247 286c105 0 184 -58 215 -157l-108 -25c-20 51 -59 79 -108 79c-76 0 -125 -71 -125 -182c0 -109 50 -182 127 -182c56 0 99 37 116 102l107 -24c-29 -115 -111 -181 -223 -181z" />
    <glyph glyph-name="ccircumflex" unicode="&#x109;" horiz-adv-x="522" 
d="M464 604h-100l-76 83h-4l-74 -83h-99l112 131h128zM287 -15c-146 0 -248 116 -248 284c0 170 102 286 247 286c105 0 184 -58 215 -157l-108 -25c-20 51 -59 79 -108 79c-76 0 -125 -71 -125 -182c0 -109 50 -182 127 -182c56 0 99 37 116 102l107 -24
c-29 -115 -111 -181 -223 -181z" />
    <glyph glyph-name="ccaron" unicode="&#x10d;" horiz-adv-x="522" 
d="M109 735h100l76 -83h4l74 83h100l-113 -131h-128zM287 -15c-146 0 -248 116 -248 284c0 170 102 286 247 286c105 0 184 -58 215 -157l-108 -25c-20 51 -59 79 -108 79c-76 0 -125 -71 -125 -182c0 -109 50 -182 127 -182c56 0 99 37 116 102l107 -24
c-29 -115 -111 -181 -223 -181z" />
    <glyph glyph-name="cdotaccent" unicode="&#x10b;" horiz-adv-x="522" 
d="M227 671c0 35 25 57 60 57s59 -22 59 -57c0 -33 -24 -57 -59 -57s-60 24 -60 57zM287 -15c-146 0 -248 116 -248 284c0 170 102 286 247 286c105 0 184 -58 215 -157l-108 -25c-20 51 -59 79 -108 79c-76 0 -125 -71 -125 -182c0 -109 50 -182 127 -182
c56 0 99 37 116 102l107 -24c-29 -115 -111 -181 -223 -181z" />
    <glyph glyph-name="ccedilla" unicode="&#xe7;" horiz-adv-x="522" 
d="M178 -190v77h48c40 0 60 16 60 48c0 18 -7 35 -22 51c-135 12 -225 122 -225 283c0 170 102 286 247 286c105 0 184 -58 215 -157l-108 -25c-20 51 -59 79 -108 79c-76 0 -125 -71 -125 -182c0 -109 50 -182 127 -182c56 0 99 37 116 102l107 -24
c-24 -96 -85 -157 -170 -176l-1 -6c35 -17 52 -44 52 -80c0 -59 -45 -94 -121 -94h-92z" />
    <glyph glyph-name="d" unicode="d" horiz-adv-x="593" 
d="M39 269c0 171 88 286 212 286c66 0 116 -29 149 -87h4v267h119v-735h-111v95h-5c-28 -69 -83 -110 -158 -110c-124 0 -210 116 -210 284zM159 270c0 -109 51 -183 128 -183c71 0 120 63 120 148v71c0 88 -48 146 -119 146c-77 0 -129 -71 -129 -182z" />
    <glyph glyph-name="dcaron" unicode="&#x10f;" horiz-adv-x="719" 
d="M39 269c0 171 88 286 212 286c66 0 116 -29 149 -87h4v267h119v-735h-111v95h-5c-28 -69 -83 -110 -158 -110c-124 0 -210 116 -210 284zM665 501h-90l46 234h110zM159 270c0 -109 51 -183 128 -183c71 0 120 63 120 148v71c0 88 -48 146 -119 146
c-77 0 -129 -71 -129 -182z" />
    <glyph glyph-name="dslash" unicode="&#x111;" horiz-adv-x="593" 
d="M39 269c0 171 88 286 212 286c66 0 116 -29 149 -87h4v120h-120v80h120v67h119v-67h60v-80h-60v-588h-111v95h-5c-28 -69 -83 -110 -158 -110c-124 0 -210 116 -210 284zM159 270c0 -109 51 -183 128 -183c71 0 120 63 120 148v71c0 88 -48 146 -119 146
c-77 0 -129 -71 -129 -182z" />
    <glyph glyph-name="eth" unicode="&#xf0;" horiz-adv-x="574" 
d="M145 521l-27 71l110 44c-33 32 -72 66 -119 99h163c24 -17 46 -36 67 -55l132 52l27 -72l-102 -40c88 -105 139 -232 139 -353c0 -170 -100 -282 -251 -282c-147 0 -245 108 -245 264c0 154 94 260 219 260c39 0 70 -9 91 -26l4 1c-16 31 -39 61 -67 93zM289 87
c79 0 129 63 129 164s-50 165 -129 165c-80 0 -129 -64 -129 -165s49 -164 129 -164z" />
    <glyph glyph-name="e" unicode="e" horiz-adv-x="548" 
d="M291 -15c-153 0 -252 113 -252 285c0 169 97 285 237 285c139 0 234 -113 234 -276v-25h-353c7 -105 56 -169 133 -169c55 0 97 35 126 104l98 -44c-45 -107 -119 -160 -223 -160zM276 461c-61 0 -101 -44 -116 -123h226c-7 76 -49 123 -110 123z" />
    <glyph glyph-name="egrave" unicode="&#xe8;" horiz-adv-x="548" 
d="M230 604l-115 131h125l86 -131h-96zM291 -15c-153 0 -252 113 -252 285c0 169 97 285 237 285c139 0 234 -113 234 -276v-25h-353c7 -105 56 -169 133 -169c55 0 97 35 126 104l98 -44c-45 -107 -119 -160 -223 -160zM276 461c-61 0 -101 -44 -116 -123h226
c-7 76 -49 123 -110 123z" />
    <glyph glyph-name="eacute" unicode="&#xe9;" horiz-adv-x="548" 
d="M324 604h-95l86 131h125zM291 -15c-153 0 -252 113 -252 285c0 169 97 285 237 285c139 0 234 -113 234 -276v-25h-353c7 -105 56 -169 133 -169c55 0 97 35 126 104l98 -44c-45 -107 -119 -160 -223 -160zM276 461c-61 0 -101 -44 -116 -123h226c-7 76 -49 123 -110 123
z" />
    <glyph glyph-name="ecircumflex" unicode="&#xea;" horiz-adv-x="548" 
d="M455 604h-100l-76 83h-4l-74 -83h-99l112 131h128zM291 -15c-153 0 -252 113 -252 285c0 169 97 285 237 285c139 0 234 -113 234 -276v-25h-353c7 -105 56 -169 133 -169c55 0 97 35 126 104l98 -44c-45 -107 -119 -160 -223 -160zM276 461c-61 0 -101 -44 -116 -123
h226c-7 76 -49 123 -110 123z" />
    <glyph glyph-name="ecaron" unicode="&#x11b;" horiz-adv-x="548" 
d="M100 735h100l76 -83h4l74 83h100l-113 -131h-128zM291 -15c-153 0 -252 113 -252 285c0 169 97 285 237 285c139 0 234 -113 234 -276v-25h-353c7 -105 56 -169 133 -169c55 0 97 35 126 104l98 -44c-45 -107 -119 -160 -223 -160zM276 461c-61 0 -101 -44 -116 -123h226
c-7 76 -49 123 -110 123z" />
    <glyph glyph-name="edieresis" unicode="&#xeb;" horiz-adv-x="548" 
d="M118 672c0 35 25 57 60 57s59 -22 59 -57c0 -33 -24 -57 -59 -57s-60 24 -60 57zM317 672c0 35 27 57 60 57c35 0 59 -22 59 -57c0 -33 -24 -57 -59 -57c-33 0 -60 24 -60 57zM291 -15c-153 0 -252 113 -252 285c0 169 97 285 237 285c139 0 234 -113 234 -276v-25h-353
c7 -105 56 -169 133 -169c55 0 97 35 126 104l98 -44c-45 -107 -119 -160 -223 -160zM276 461c-61 0 -101 -44 -116 -123h226c-7 76 -49 123 -110 123z" />
    <glyph glyph-name="emacron" unicode="&#x113;" horiz-adv-x="548" 
d="M423 634h-292v75h292v-75zM291 -15c-153 0 -252 113 -252 285c0 169 97 285 237 285c139 0 234 -113 234 -276v-25h-353c7 -105 56 -169 133 -169c55 0 97 35 126 104l98 -44c-45 -107 -119 -160 -223 -160zM276 461c-61 0 -101 -44 -116 -123h226
c-7 76 -49 123 -110 123z" />
    <glyph glyph-name="ebreve" unicode="&#x115;" horiz-adv-x="548" 
d="M277 604c-81 0 -139 51 -142 128h86c1 -33 23 -54 56 -54c32 0 55 21 56 54h86c-1 -77 -59 -128 -142 -128zM291 -15c-153 0 -252 113 -252 285c0 169 97 285 237 285c139 0 234 -113 234 -276v-25h-353c7 -105 56 -169 133 -169c55 0 97 35 126 104l98 -44
c-45 -107 -119 -160 -223 -160zM276 461c-61 0 -101 -44 -116 -123h226c-7 76 -49 123 -110 123z" />
    <glyph glyph-name="edotaccent" unicode="&#x117;" horiz-adv-x="548" 
d="M218 671c0 35 25 57 60 57s59 -22 59 -57c0 -33 -24 -57 -59 -57s-60 24 -60 57zM291 -15c-153 0 -252 113 -252 285c0 169 97 285 237 285c139 0 234 -113 234 -276v-25h-353c7 -105 56 -169 133 -169c55 0 97 35 126 104l98 -44c-45 -107 -119 -160 -223 -160zM276 461
c-61 0 -101 -44 -116 -123h226c-7 76 -49 123 -110 123z" />
    <glyph glyph-name="eogonek" unicode="&#x119;" horiz-adv-x="548" 
d="M435 -190h-98c-65 0 -105 32 -105 81c0 35 21 70 58 95v4c-4 -1 -17 -3 -24 -3c-71 5 -126 33 -167 84c-40 51 -60 118 -60 199c0 169 97 285 237 285c139 0 234 -113 234 -276v-25h-353c7 -105 56 -169 133 -169c55 0 97 35 126 104l98 -44c-24 -57 -58 -96 -107 -135
c-53 -40 -65 -60 -65 -83s13 -34 40 -34h53v-83zM276 461c-61 0 -101 -44 -116 -123h226c-7 76 -49 123 -110 123z" />
    <glyph glyph-name="f" unicode="f" horiz-adv-x="358" 
d="M229 0h-119v451h-94v89h94v47c0 105 44 148 155 148h93v-98h-68c-45 0 -61 -16 -61 -59v-38h129v-89h-129v-451z" />
    <glyph glyph-name="g" unicode="g" horiz-adv-x="579" 
d="M39 285c0 160 85 270 210 270c71 0 123 -34 152 -95h4v80h112v-507c0 -141 -87 -223 -238 -223c-109 0 -193 44 -230 117l86 53c33 -50 79 -75 138 -75c83 0 125 41 125 124v75h-5c-29 -59 -78 -89 -147 -89c-123 0 -207 110 -207 270zM160 285c0 -101 49 -168 125 -168
c69 0 116 56 116 137v64c0 80 -47 134 -116 134c-76 0 -125 -64 -125 -167z" />
    <glyph glyph-name="gcircumflex" unicode="&#x11d;" horiz-adv-x="579" 
d="M466 604h-100l-76 83h-4l-74 -83h-99l112 131h128zM39 285c0 160 85 270 210 270c71 0 123 -34 152 -95h4v80h112v-507c0 -141 -87 -223 -238 -223c-109 0 -193 44 -230 117l86 53c33 -50 79 -75 138 -75c83 0 125 41 125 124v75h-5c-29 -59 -78 -89 -147 -89
c-123 0 -207 110 -207 270zM160 285c0 -101 49 -168 125 -168c69 0 116 56 116 137v64c0 80 -47 134 -116 134c-76 0 -125 -64 -125 -167z" />
    <glyph glyph-name="gbreve" unicode="&#x11f;" horiz-adv-x="579" 
d="M288 604c-81 0 -139 51 -142 128h86c1 -33 23 -54 56 -54c32 0 55 21 56 54h86c-1 -77 -59 -128 -142 -128zM39 285c0 160 85 270 210 270c71 0 123 -34 152 -95h4v80h112v-507c0 -141 -87 -223 -238 -223c-109 0 -193 44 -230 117l86 53c33 -50 79 -75 138 -75
c83 0 125 41 125 124v75h-5c-29 -59 -78 -89 -147 -89c-123 0 -207 110 -207 270zM160 285c0 -101 49 -168 125 -168c69 0 116 56 116 137v64c0 80 -47 134 -116 134c-76 0 -125 -64 -125 -167z" />
    <glyph glyph-name="gdotaccent" unicode="&#x121;" horiz-adv-x="579" 
d="M229 671c0 35 25 57 60 57s59 -22 59 -57c0 -33 -24 -57 -59 -57s-60 24 -60 57zM39 285c0 160 85 270 210 270c71 0 123 -34 152 -95h4v80h112v-507c0 -141 -87 -223 -238 -223c-109 0 -193 44 -230 117l86 53c33 -50 79 -75 138 -75c83 0 125 41 125 124v75h-5
c-29 -59 -78 -89 -147 -89c-123 0 -207 110 -207 270zM160 285c0 -101 49 -168 125 -168c69 0 116 56 116 137v64c0 80 -47 134 -116 134c-76 0 -125 -64 -125 -167z" />
    <glyph glyph-name="gcedilla" unicode="&#x123;" horiz-adv-x="579" 
d="M258 740h63l-26 -51h9c29 0 48 -18 48 -45c0 -32 -26 -53 -63 -53c-39 0 -62 23 -62 56c0 15 4 30 17 59zM39 285c0 160 85 270 210 270c71 0 123 -34 152 -95h4v80h112v-507c0 -141 -87 -223 -238 -223c-109 0 -193 44 -230 117l86 53c33 -50 79 -75 138 -75
c83 0 125 41 125 124v75h-5c-29 -59 -78 -89 -147 -89c-123 0 -207 110 -207 270zM160 285c0 -101 49 -168 125 -168c69 0 116 56 116 137v64c0 80 -47 134 -116 134c-76 0 -125 -64 -125 -167z" />
    <glyph glyph-name="h" unicode="h" horiz-adv-x="576" 
d="M513 0h-118v354c0 59 -33 95 -88 95c-71 0 -118 -63 -118 -164v-285h-119v735h111v-296h4c28 77 81 116 160 116c104 0 168 -69 168 -178v-377z" />
    <glyph glyph-name="hcircumflex" unicode="&#x125;" horiz-adv-x="576" 
d="M303 760h-105l-71 66h-4l-69 -66h-105l105 106h144zM513 0h-118v354c0 59 -33 95 -88 95c-71 0 -118 -63 -118 -164v-285h-119v735h111v-296h4c28 77 81 116 160 116c104 0 168 -69 168 -178v-377z" />
    <glyph glyph-name="hbar" unicode="&#x127;" horiz-adv-x="576" 
d="M513 0h-118v354c0 59 -33 95 -88 95c-71 0 -118 -63 -118 -164v-285h-119v588h-60v80h60v67h111v-67h108v-80h-108v-149h4c28 77 81 116 160 116c104 0 168 -69 168 -178v-377z" />
    <glyph glyph-name="i" unicode="i" horiz-adv-x="260" 
d="M60 677c0 40 29 67 70 67c40 0 70 -28 70 -67c0 -40 -30 -68 -70 -68c-41 0 -70 28 -70 68zM189 0h-119v540h119v-540z" />
    <glyph glyph-name="igrave" unicode="&#xec;" horiz-adv-x="260" 
d="M83 604l-115 131h125l86 -131h-96zM189 0h-119v540h119v-540z" />
    <glyph glyph-name="iacute" unicode="&#xed;" horiz-adv-x="260" 
d="M177 604h-95l86 131h125zM189 0h-119v540h119v-540z" />
    <glyph glyph-name="icircumflex" unicode="&#xee;" horiz-adv-x="260" 
d="M308 604h-100l-76 83h-4l-74 -83h-99l112 131h128zM189 0h-119v540h119v-540z" />
    <glyph glyph-name="itilde" unicode="&#x129;" horiz-adv-x="260" 
d="M210 606c-58 0 -113 51 -150 51c-21 0 -33 -15 -36 -46h-70c3 79 39 123 96 123c60 0 112 -51 150 -51c21 0 33 15 36 46h70c-3 -79 -37 -123 -96 -123zM189 0h-119v540h119v-540z" />
    <glyph glyph-name="idieresis" unicode="&#xef;" horiz-adv-x="260" 
d="M-29 672c0 35 25 57 60 57s59 -22 59 -57c0 -33 -24 -57 -59 -57s-60 24 -60 57zM170 672c0 35 27 57 60 57c35 0 59 -22 59 -57c0 -33 -24 -57 -59 -57c-33 0 -60 24 -60 57zM189 0h-119v540h119v-540z" />
    <glyph glyph-name="imacron" unicode="&#x12b;" horiz-adv-x="260" 
d="M276 634h-292v75h292v-75zM189 0h-119v540h119v-540z" />
    <glyph glyph-name="ibreve" unicode="&#x12d;" horiz-adv-x="260" 
d="M130 604c-81 0 -139 51 -142 128h86c1 -33 23 -54 56 -54c32 0 55 21 56 54h86c-1 -77 -59 -128 -142 -128zM189 0h-119v540h119v-540z" />
    <glyph glyph-name="iogonek" unicode="&#x12f;" horiz-adv-x="260" 
d="M60 677c0 40 29 67 70 67c40 0 70 -28 70 -67c0 -40 -30 -68 -70 -68c-41 0 -70 28 -70 68zM91 -190c-65 0 -104 33 -104 82c0 43 28 81 83 116v532h119v-540c-65 -32 -93 -53 -93 -77c0 -20 14 -30 41 -30h52v-83h-98z" />
    <glyph glyph-name="dotlessi" unicode="&#x131;" horiz-adv-x="260" 
d="M189 0h-119v540h119v-540z" />
    <glyph glyph-name="i.TRK" horiz-adv-x="260" 
d="M60 677c0 40 29 67 70 67c40 0 70 -28 70 -67c0 -40 -30 -68 -70 -68c-41 0 -70 28 -70 68zM189 0h-119v540h119v-540z" />
    <glyph glyph-name="ij" unicode="&#x133;" horiz-adv-x="519" 
d="M60 677c0 40 29 67 70 67c40 0 70 -28 70 -67c0 -40 -30 -68 -70 -68c-41 0 -70 28 -70 68zM320 677c0 40 29 67 70 67c40 0 70 -28 70 -67c0 -40 -30 -68 -70 -68c-41 0 -70 28 -70 68zM189 0h-119v540h119v-540zM254 -190v98h16c44 0 60 13 60 56v576h119v-602
c0 -95 -39 -128 -142 -128h-53z" />
    <glyph glyph-name="j" unicode="j" horiz-adv-x="260" 
d="M60 677c0 40 29 67 70 67c40 0 70 -28 70 -67c0 -40 -30 -68 -70 -68c-41 0 -70 28 -70 68zM-6 -190v98h16c44 0 60 13 60 56v576h119v-602c0 -95 -39 -128 -142 -128h-53z" />
    <glyph glyph-name="jcircumflex" unicode="&#x135;" horiz-adv-x="260" 
d="M308 604h-100l-76 83h-4l-74 -83h-99l112 131h128zM-6 -190v98h16c44 0 60 13 60 56v576h119v-602c0 -95 -39 -128 -142 -128h-53z" />
    <glyph glyph-name="dotlessj" unicode="&#x237;" horiz-adv-x="260" 
d="M-6 -190v98h16c44 0 60 13 60 56v576h119v-602c0 -95 -39 -128 -142 -128h-53z" />
    <glyph glyph-name="k" unicode="k" horiz-adv-x="571" 
d="M189 735v-382l208 187h153l-203 -178l218 -362h-138l-166 286l-72 -63v-223h-119v735h119z" />
    <glyph glyph-name="kcedilla" unicode="&#x137;" horiz-adv-x="571" 
d="M189 735v-382l208 187h153l-203 -178l218 -362h-138l-166 286l-72 -63v-223h-119v735h119zM329 -200h-62l25 51h-8c-29 0 -49 18 -49 45c0 32 27 53 64 53c39 0 62 -21 62 -56c0 -15 -5 -30 -17 -59z" />
    <glyph glyph-name="l" unicode="l" horiz-adv-x="259" 
d="M70 735h119v-735h-119v735z" />
    <glyph glyph-name="lacute" unicode="&#x13a;" horiz-adv-x="259" 
d="M176 775h-96l71 106h125zM70 735h119v-735h-119v735z" />
    <glyph glyph-name="lcaron" unicode="&#x13e;" horiz-adv-x="385" 
d="M70 735h119v-735h-119v735zM332 501h-90l46 234h110z" />
    <glyph glyph-name="lcedilla" unicode="&#x13c;" horiz-adv-x="259" 
d="M70 735h119v-735h-119v735zM160 -200h-62l25 51h-8c-29 0 -49 18 -49 45c0 32 27 53 64 53c39 0 62 -21 62 -56c0 -15 -5 -30 -17 -59z" />
    <glyph glyph-name="lslash" unicode="&#x142;" horiz-adv-x="279" 
d="M0 259v105l70 39v332h119v-266l90 50v-105l-90 -50v-364h-119v298z" />
    <glyph glyph-name="ldot" unicode="&#x140;" horiz-adv-x="415" 
d="M70 735h119v-735h-119v735zM277 368c0 35 25 57 60 57s59 -22 59 -57c0 -33 -24 -57 -59 -57s-60 24 -60 57z" />
    <glyph glyph-name="m" unicode="m" horiz-adv-x="865" 
d="M802 0h-118v354c0 59 -31 95 -82 95c-63 0 -107 -57 -107 -141v-308h-118v354c0 59 -31 95 -82 95c-63 0 -106 -57 -106 -141v-308h-119v540h111v-103h4c23 76 75 118 148 118c67 0 120 -36 145 -95h4c25 57 89 95 157 95c97 0 163 -76 163 -189v-366z" />
    <glyph glyph-name="n" unicode="n" horiz-adv-x="576" 
d="M513 0h-118v354c0 59 -33 95 -88 95c-71 0 -118 -63 -118 -164v-285h-119v540h111v-101h4c28 77 81 116 160 116c104 0 168 -69 168 -178v-377z" />
    <glyph glyph-name="nacute" unicode="&#x144;" horiz-adv-x="576" 
d="M347 604h-95l86 131h125zM513 0h-118v354c0 59 -33 95 -88 95c-71 0 -118 -63 -118 -164v-285h-119v540h111v-101h4c28 77 81 116 160 116c104 0 168 -69 168 -178v-377z" />
    <glyph glyph-name="ncaron" unicode="&#x148;" horiz-adv-x="576" 
d="M123 735h100l76 -83h4l74 83h100l-113 -131h-128zM513 0h-118v354c0 59 -33 95 -88 95c-71 0 -118 -63 -118 -164v-285h-119v540h111v-101h4c28 77 81 116 160 116c104 0 168 -69 168 -178v-377z" />
    <glyph glyph-name="ntilde" unicode="&#xf1;" horiz-adv-x="576" 
d="M380 606c-58 0 -113 51 -150 51c-21 0 -33 -15 -36 -46h-70c3 79 39 123 96 123c60 0 112 -51 150 -51c21 0 33 15 36 46h70c-3 -79 -37 -123 -96 -123zM513 0h-118v354c0 59 -33 95 -88 95c-71 0 -118 -63 -118 -164v-285h-119v540h111v-101h4c28 77 81 116 160 116
c104 0 168 -69 168 -178v-377z" />
    <glyph glyph-name="ncedilla" unicode="&#x146;" horiz-adv-x="576" 
d="M513 0h-118v354c0 59 -33 95 -88 95c-71 0 -118 -63 -118 -164v-285h-119v540h111v-101h4c28 77 81 116 160 116c104 0 168 -69 168 -178v-377zM319 -200h-62l25 51h-8c-29 0 -49 18 -49 45c0 32 27 53 64 53c39 0 62 -21 62 -56c0 -15 -5 -30 -17 -59z" />
    <glyph glyph-name="eng" unicode="&#x14b;" horiz-adv-x="576" 
d="M345 555c104 0 168 -69 168 -178v-437c0 -95 -38 -128 -141 -128h-54v98h16c44 0 61 13 61 56v388c0 59 -33 95 -88 95c-71 0 -118 -63 -118 -164v-285h-119v540h111v-101h4c28 77 81 116 160 116z" />
    <glyph glyph-name="o" unicode="o" horiz-adv-x="578" 
d="M539 270c0 -172 -101 -285 -250 -285s-250 113 -250 285s101 285 250 285s250 -113 250 -285zM418 270c0 111 -50 182 -129 182c-80 0 -129 -71 -129 -182s49 -182 129 -182c79 0 129 71 129 182z" />
    <glyph glyph-name="ograve" unicode="&#xf2;" horiz-adv-x="578" 
d="M242 604l-115 131h125l86 -131h-96zM539 270c0 -172 -101 -285 -250 -285s-250 113 -250 285s101 285 250 285s250 -113 250 -285zM418 270c0 111 -50 182 -129 182c-80 0 -129 -71 -129 -182s49 -182 129 -182c79 0 129 71 129 182z" />
    <glyph glyph-name="oacute" unicode="&#xf3;" horiz-adv-x="578" 
d="M336 604h-95l86 131h125zM539 270c0 -172 -101 -285 -250 -285s-250 113 -250 285s101 285 250 285s250 -113 250 -285zM418 270c0 111 -50 182 -129 182c-80 0 -129 -71 -129 -182s49 -182 129 -182c79 0 129 71 129 182z" />
    <glyph glyph-name="ocircumflex" unicode="&#xf4;" horiz-adv-x="578" 
d="M467 604h-100l-76 83h-4l-74 -83h-99l112 131h128zM539 270c0 -172 -101 -285 -250 -285s-250 113 -250 285s101 285 250 285s250 -113 250 -285zM418 270c0 111 -50 182 -129 182c-80 0 -129 -71 -129 -182s49 -182 129 -182c79 0 129 71 129 182z" />
    <glyph glyph-name="otilde" unicode="&#xf5;" horiz-adv-x="578" 
d="M369 606c-58 0 -113 51 -150 51c-21 0 -33 -15 -36 -46h-70c3 79 39 123 96 123c60 0 112 -51 150 -51c21 0 33 15 36 46h70c-3 -79 -37 -123 -96 -123zM539 270c0 -172 -101 -285 -250 -285s-250 113 -250 285s101 285 250 285s250 -113 250 -285zM418 270
c0 111 -50 182 -129 182c-80 0 -129 -71 -129 -182s49 -182 129 -182c79 0 129 71 129 182z" />
    <glyph glyph-name="odieresis" unicode="&#xf6;" horiz-adv-x="578" 
d="M130 672c0 35 25 57 60 57s59 -22 59 -57c0 -33 -24 -57 -59 -57s-60 24 -60 57zM329 672c0 35 27 57 60 57c35 0 59 -22 59 -57c0 -33 -24 -57 -59 -57c-33 0 -60 24 -60 57zM539 270c0 -172 -101 -285 -250 -285s-250 113 -250 285s101 285 250 285s250 -113 250 -285z
M418 270c0 111 -50 182 -129 182c-80 0 -129 -71 -129 -182s49 -182 129 -182c79 0 129 71 129 182z" />
    <glyph glyph-name="omacron" unicode="&#x14d;" horiz-adv-x="578" 
d="M435 634h-292v75h292v-75zM539 270c0 -172 -101 -285 -250 -285s-250 113 -250 285s101 285 250 285s250 -113 250 -285zM418 270c0 111 -50 182 -129 182c-80 0 -129 -71 -129 -182s49 -182 129 -182c79 0 129 71 129 182z" />
    <glyph glyph-name="obreve" unicode="&#x14f;" horiz-adv-x="578" 
d="M289 604c-81 0 -139 51 -142 128h86c1 -33 23 -54 56 -54c32 0 55 21 56 54h86c-1 -77 -59 -128 -142 -128zM539 270c0 -172 -101 -285 -250 -285s-250 113 -250 285s101 285 250 285s250 -113 250 -285zM418 270c0 111 -50 182 -129 182c-80 0 -129 -71 -129 -182
s49 -182 129 -182c79 0 129 71 129 182z" />
    <glyph glyph-name="ohungarumlaut" unicode="&#x151;" horiz-adv-x="578" 
d="M241 604h-95l86 131h125zM432 604h-95l86 131h125zM539 270c0 -172 -101 -285 -250 -285s-250 113 -250 285s101 285 250 285s250 -113 250 -285zM418 270c0 111 -50 182 -129 182c-80 0 -129 -71 -129 -182s49 -182 129 -182c79 0 129 71 129 182z" />
    <glyph glyph-name="oslash" unicode="&#xf8;" horiz-adv-x="578" 
d="M142 0h-103l57 78c-36 48 -57 115 -57 192c0 172 101 285 250 285c49 0 93 -12 132 -36l15 21h103l-57 -78c36 -48 57 -113 57 -192c0 -172 -101 -285 -250 -285c-49 0 -93 12 -132 36zM160 270c0 -35 4 -64 13 -88l183 249c-19 14 -41 21 -67 21
c-80 0 -129 -71 -129 -182zM418 270c0 35 -4 64 -13 88l-183 -249c19 -14 42 -21 67 -21c79 0 129 71 129 182z" />
    <glyph glyph-name="oslashacute" unicode="&#x1ff;" horiz-adv-x="578" 
d="M333 604h-95l86 131h125zM142 0h-103l57 78c-36 48 -57 115 -57 192c0 172 101 285 250 285c49 0 93 -12 132 -36l15 21h103l-57 -78c36 -48 57 -113 57 -192c0 -172 -101 -285 -250 -285c-49 0 -93 12 -132 36zM160 270c0 -35 4 -64 13 -88l183 249
c-19 14 -41 21 -67 21c-80 0 -129 -71 -129 -182zM418 270c0 35 -4 64 -13 88l-183 -249c19 -14 42 -21 67 -21c79 0 129 71 129 182z" />
    <glyph glyph-name="oe" unicode="&#x153;" horiz-adv-x="931" 
d="M674 -15c-83 0 -150 33 -194 90c-44 -57 -110 -90 -191 -90c-149 0 -250 113 -250 285s101 285 250 285c80 0 146 -32 190 -89c43 56 105 89 180 89c139 0 234 -113 234 -276v-25h-353c7 -105 56 -169 133 -169c55 0 97 35 126 104l98 -44c-45 -107 -119 -160 -223 -160z
M659 461c-61 0 -101 -44 -116 -123h226c-7 76 -49 123 -110 123zM418 270c0 111 -50 182 -129 182c-80 0 -129 -71 -129 -182s49 -182 129 -182c79 0 129 71 129 182z" />
    <glyph glyph-name="p" unicode="p" horiz-adv-x="593" 
d="M554 271c0 -170 -88 -286 -212 -286c-67 0 -116 29 -148 87h-5v-262h-119v730h111v-95h5c28 71 85 110 158 110c124 0 210 -115 210 -284zM434 270c0 111 -51 183 -128 183c-71 0 -120 -61 -120 -148v-70c0 -89 48 -147 119 -147c79 0 129 73 129 182z" />
    <glyph glyph-name="q" unicode="q" horiz-adv-x="593" 
d="M39 271c0 169 87 284 212 284c72 0 126 -36 157 -103h4v88h111v-730h-119v268h-5c-29 -59 -83 -93 -150 -93c-122 0 -210 116 -210 286zM159 270c0 -109 51 -182 128 -182c71 0 120 60 120 147v71c0 88 -48 147 -119 147c-77 0 -129 -72 -129 -183z" />
    <glyph glyph-name="r" unicode="r" horiz-adv-x="395" 
d="M189 0h-119v540h111v-118h4c20 79 79 118 142 118h55v-117h-61c-88 0 -132 -46 -132 -137v-286z" />
    <glyph glyph-name="racute" unicode="&#x155;" horiz-adv-x="395" 
d="M288 604h-95l86 131h125zM189 0h-119v540h111v-118h4c20 79 79 118 142 118h55v-117h-61c-88 0 -132 -46 -132 -137v-286z" />
    <glyph glyph-name="rcaron" unicode="&#x159;" horiz-adv-x="395" 
d="M64 735h100l76 -83h4l74 83h100l-113 -131h-128zM189 0h-119v540h111v-118h4c20 79 79 118 142 118h55v-117h-61c-88 0 -132 -46 -132 -137v-286z" />
    <glyph glyph-name="rcedilla" unicode="&#x157;" horiz-adv-x="395" 
d="M189 0h-119v540h111v-118h4c20 79 79 118 142 118h55v-117h-61c-88 0 -132 -46 -132 -137v-286zM161 -200h-62l25 51h-8c-29 0 -49 18 -49 45c0 32 27 53 64 53c39 0 62 -21 62 -56c0 -15 -5 -30 -17 -59z" />
    <glyph glyph-name="s" unicode="s" horiz-adv-x="497" 
d="M254 -15c-113 0 -190 53 -232 159l98 41c29 -73 74 -109 136 -109c57 0 96 30 96 75c0 124 -290 46 -290 239c0 100 78 165 197 165c97 0 166 -42 205 -126l-94 -47c-28 55 -66 82 -114 82c-45 0 -76 -24 -76 -61c0 -111 290 -38 290 -239c0 -54 -20 -97 -59 -130
s-92 -49 -157 -49z" />
    <glyph glyph-name="sacute" unicode="&#x15b;" horiz-adv-x="496" 
d="M302 604h-95l86 131h125zM254 -15c-113 0 -190 53 -232 159l98 41c29 -73 74 -109 136 -109c57 0 96 30 96 75c0 124 -290 46 -290 239c0 100 78 165 197 165c97 0 166 -42 205 -126l-94 -47c-28 55 -66 82 -114 82c-45 0 -76 -24 -76 -61c0 -111 290 -38 290 -239
c0 -54 -20 -97 -59 -130s-92 -49 -157 -49z" />
    <glyph glyph-name="scircumflex" unicode="&#x15d;" horiz-adv-x="496" 
d="M433 604h-100l-76 83h-4l-74 -83h-99l112 131h128zM254 -15c-113 0 -190 53 -232 159l98 41c29 -73 74 -109 136 -109c57 0 96 30 96 75c0 124 -290 46 -290 239c0 100 78 165 197 165c97 0 166 -42 205 -126l-94 -47c-28 55 -66 82 -114 82c-45 0 -76 -24 -76 -61
c0 -111 290 -38 290 -239c0 -54 -20 -97 -59 -130s-92 -49 -157 -49z" />
    <glyph glyph-name="scaron" unicode="&#x161;" horiz-adv-x="496" 
d="M78 735h100l76 -83h4l74 83h100l-113 -131h-128zM254 -15c-113 0 -190 53 -232 159l98 41c29 -73 74 -109 136 -109c57 0 96 30 96 75c0 124 -290 46 -290 239c0 100 78 165 197 165c97 0 166 -42 205 -126l-94 -47c-28 55 -66 82 -114 82c-45 0 -76 -24 -76 -61
c0 -111 290 -38 290 -239c0 -54 -20 -97 -59 -130s-92 -49 -157 -49z" />
    <glyph glyph-name="scedilla" unicode="&#x15f;" horiz-adv-x="496" 
d="M145 -190v77h48c40 0 60 16 60 48c0 18 -7 35 -22 51c-101 7 -170 59 -209 158l98 41c29 -73 74 -109 136 -109c57 0 96 30 96 75c0 124 -290 46 -290 239c0 100 78 165 197 165c97 0 166 -42 205 -126l-94 -47c-28 55 -66 82 -114 82c-45 0 -76 -24 -76 -61
c0 -111 290 -38 290 -239c0 -93 -63 -158 -163 -175l-1 -5c35 -17 52 -44 52 -80c0 -59 -45 -94 -121 -94h-92z" />
    <glyph glyph-name="scommaaccent" unicode="&#x219;" horiz-adv-x="496" 
d="M254 -15c-113 0 -190 53 -232 159l98 41c29 -73 74 -109 136 -109c57 0 96 30 96 75c0 124 -290 46 -290 239c0 100 78 165 197 165c97 0 166 -42 205 -126l-94 -47c-28 55 -66 82 -114 82c-45 0 -76 -24 -76 -61c0 -111 290 -38 290 -239c0 -54 -20 -97 -59 -130
s-92 -49 -157 -49zM289 -200h-62l25 51h-8c-29 0 -49 18 -49 45c0 32 27 53 64 53c39 0 62 -21 62 -56c0 -15 -5 -30 -17 -59z" />
    <glyph glyph-name="germandbls" unicode="&#xdf;" horiz-adv-x="563" 
d="M332 -15c-43 0 -81 12 -113 35l20 93c20 -16 48 -24 73 -24c67 0 104 44 104 120c0 95 -56 143 -168 143h-9v98h15c71 0 113 34 113 94c0 55 -35 93 -90 93c-53 0 -88 -39 -88 -102v-535h-119v530c0 125 82 205 207 205c121 0 207 -73 207 -173c0 -67 -37 -118 -100 -139
v-4c92 -19 153 -101 153 -213c0 -130 -84 -221 -205 -221z" />
    <glyph glyph-name="t" unicode="t" horiz-adv-x="349" 
d="M335 0h-86c-101 0 -142 34 -142 127v324h-93v89h93v160h118v-160h110v-89h-110v-298c0 -43 17 -55 62 -55h48v-98z" />
    <glyph glyph-name="tcaron" unicode="&#x165;" horiz-adv-x="349" 
d="M360 584h-90l46 234h110zM335 0h-86c-101 0 -142 34 -142 127v324h-93v89h93v160h118v-160h110v-89h-110v-298c0 -43 17 -55 62 -55h48v-98z" />
    <glyph glyph-name="tcommaaccent" unicode="&#x21b;" horiz-adv-x="349" 
d="M335 0h-86c-101 0 -142 34 -142 127v324h-93v89h93v160h118v-160h110v-89h-110v-298c0 -43 17 -55 62 -55h48v-98zM278 -200h-62l25 51h-8c-29 0 -49 18 -49 45c0 32 27 53 64 53c39 0 62 -21 62 -56c0 -15 -5 -30 -17 -59z" />
    <glyph glyph-name="tbar" unicode="&#x167;" horiz-adv-x="349" 
d="M24 238v80h83v133h-93v89h93v160h118v-160h110v-89h-110v-133h107v-80h-107v-85c0 -43 17 -55 62 -55h48v-98h-86c-101 0 -142 34 -142 127v111h-83z" />
    <glyph glyph-name="thorn" unicode="&#xfe;" horiz-adv-x="593" 
d="M554 271c0 -170 -88 -286 -212 -286c-67 0 -116 29 -148 87h-5v-262h-119v925h119v-273h5c31 59 83 93 150 93c122 0 210 -113 210 -284zM434 270c0 111 -51 182 -128 182c-71 0 -120 -60 -120 -147v-70c0 -89 48 -148 119 -148c79 0 129 74 129 183z" />
    <glyph glyph-name="u" unicode="u" horiz-adv-x="576" 
d="M63 540h119v-354c0 -57 32 -95 87 -95c71 0 118 63 118 164v285h119v-540h-111v101h-4c-28 -77 -81 -116 -160 -116c-103 0 -168 69 -168 178v377z" />
    <glyph glyph-name="ugrave" unicode="&#xf9;" horiz-adv-x="576" 
d="M238 604l-115 131h125l86 -131h-96zM63 540h119v-354c0 -57 32 -95 87 -95c71 0 118 63 118 164v285h119v-540h-111v101h-4c-28 -77 -81 -116 -160 -116c-103 0 -168 69 -168 178v377z" />
    <glyph glyph-name="uacute" unicode="&#xfa;" horiz-adv-x="576" 
d="M332 604h-95l86 131h125zM63 540h119v-354c0 -57 32 -95 87 -95c71 0 118 63 118 164v285h119v-540h-111v101h-4c-28 -77 -81 -116 -160 -116c-103 0 -168 69 -168 178v377z" />
    <glyph glyph-name="ucircumflex" unicode="&#xfb;" horiz-adv-x="576" 
d="M463 604h-100l-76 83h-4l-74 -83h-99l112 131h128zM63 540h119v-354c0 -57 32 -95 87 -95c71 0 118 63 118 164v285h119v-540h-111v101h-4c-28 -77 -81 -116 -160 -116c-103 0 -168 69 -168 178v377z" />
    <glyph glyph-name="utilde" unicode="&#x169;" horiz-adv-x="576" 
d="M365 606c-58 0 -113 51 -150 51c-21 0 -33 -15 -36 -46h-70c3 79 39 123 96 123c60 0 112 -51 150 -51c21 0 33 15 36 46h70c-3 -79 -37 -123 -96 -123zM63 540h119v-354c0 -57 32 -95 87 -95c71 0 118 63 118 164v285h119v-540h-111v101h-4c-28 -77 -81 -116 -160 -116
c-103 0 -168 69 -168 178v377z" />
    <glyph glyph-name="udieresis" unicode="&#xfc;" horiz-adv-x="576" 
d="M126 672c0 35 25 57 60 57s59 -22 59 -57c0 -33 -24 -57 -59 -57s-60 24 -60 57zM325 672c0 35 27 57 60 57c35 0 59 -22 59 -57c0 -33 -24 -57 -59 -57c-33 0 -60 24 -60 57zM63 540h119v-354c0 -57 32 -95 87 -95c71 0 118 63 118 164v285h119v-540h-111v101h-4
c-28 -77 -81 -116 -160 -116c-103 0 -168 69 -168 178v377z" />
    <glyph glyph-name="umacron" unicode="&#x16b;" horiz-adv-x="576" 
d="M431 634h-292v75h292v-75zM63 540h119v-354c0 -57 32 -95 87 -95c71 0 118 63 118 164v285h119v-540h-111v101h-4c-28 -77 -81 -116 -160 -116c-103 0 -168 69 -168 178v377z" />
    <glyph glyph-name="ubreve" unicode="&#x16d;" horiz-adv-x="576" 
d="M285 604c-81 0 -139 51 -142 128h86c1 -33 23 -54 56 -54c32 0 55 21 56 54h86c-1 -77 -59 -128 -142 -128zM63 540h119v-354c0 -57 32 -95 87 -95c71 0 118 63 118 164v285h119v-540h-111v101h-4c-28 -77 -81 -116 -160 -116c-103 0 -168 69 -168 178v377z" />
    <glyph glyph-name="uring" unicode="&#x16f;" horiz-adv-x="576" 
d="M285 584c-69 0 -123 43 -123 107c0 63 54 106 123 106c71 0 123 -43 123 -106c0 -64 -52 -107 -123 -107zM285 644c28 0 45 22 45 47c0 27 -17 46 -45 46s-45 -19 -45 -46c0 -25 17 -47 45 -47zM63 540h119v-354c0 -57 32 -95 87 -95c71 0 118 63 118 164v285h119v-540
h-111v101h-4c-28 -77 -81 -116 -160 -116c-103 0 -168 69 -168 178v377z" />
    <glyph glyph-name="uhungarumlaut" unicode="&#x171;" horiz-adv-x="576" 
d="M237 604h-95l86 131h125zM428 604h-95l86 131h125zM63 540h119v-354c0 -57 32 -95 87 -95c71 0 118 63 118 164v285h119v-540h-111v101h-4c-28 -77 -81 -116 -160 -116c-103 0 -168 69 -168 178v377z" />
    <glyph glyph-name="uogonek" unicode="&#x173;" horiz-adv-x="576" 
d="M408 -190c-65 0 -104 33 -104 82c0 45 30 85 91 121v88h-4c-28 -77 -81 -116 -160 -116c-103 0 -168 69 -168 178v377h119v-354c0 -57 32 -95 87 -95c71 0 118 63 118 164v285h119v-540c-65 -32 -93 -53 -93 -77c0 -20 14 -30 41 -30h52v-83h-98z" />
    <glyph glyph-name="v" unicode="v" horiz-adv-x="520" 
d="M351 0h-178l-157 540h123l123 -455h4l124 455h114z" />
    <glyph glyph-name="w" unicode="w" horiz-adv-x="788" 
d="M647 0h-163l-78 363c-1 17 -6 40 -7 57h-4c-1 -17 -5 -40 -8 -57l-77 -363h-170l-121 540h121l89 -448h4l93 448h144l92 -448h4l89 448h114z" />
    <glyph glyph-name="wgrave" unicode="&#x1e81;" horiz-adv-x="788" 
d="M350 604l-115 131h125l86 -131h-96zM647 0h-163l-78 363c-1 17 -6 40 -7 57h-4c-1 -17 -5 -40 -8 -57l-77 -363h-170l-121 540h121l89 -448h4l93 448h144l92 -448h4l89 448h114z" />
    <glyph glyph-name="wacute" unicode="&#x1e83;" horiz-adv-x="788" 
d="M444 604h-95l86 131h125zM647 0h-163l-78 363c-1 17 -6 40 -7 57h-4c-1 -17 -5 -40 -8 -57l-77 -363h-170l-121 540h121l89 -448h4l93 448h144l92 -448h4l89 448h114z" />
    <glyph glyph-name="wcircumflex" unicode="&#x175;" horiz-adv-x="788" 
d="M575 604h-100l-76 83h-4l-74 -83h-99l112 131h128zM647 0h-163l-78 363c-1 17 -6 40 -7 57h-4c-1 -17 -5 -40 -8 -57l-77 -363h-170l-121 540h121l89 -448h4l93 448h144l92 -448h4l89 448h114z" />
    <glyph glyph-name="wdieresis" unicode="&#x1e85;" horiz-adv-x="788" 
d="M238 672c0 35 25 57 60 57s59 -22 59 -57c0 -33 -24 -57 -59 -57s-60 24 -60 57zM437 672c0 35 27 57 60 57c35 0 59 -22 59 -57c0 -33 -24 -57 -59 -57c-33 0 -60 24 -60 57zM647 0h-163l-78 363c-1 17 -6 40 -7 57h-4c-1 -17 -5 -40 -8 -57l-77 -363h-170l-121 540h121
l89 -448h4l93 448h144l92 -448h4l89 448h114z" />
    <glyph glyph-name="x" unicode="x" horiz-adv-x="515" 
d="M501 0h-131l-59 101l-35 64c-11 21 -17 35 -20 42h-4c-6 -13 -34 -69 -55 -106l-60 -101h-123l163 272l-156 268h128l59 -105c23 -41 46 -89 51 -102h4c5 13 29 61 50 102l58 105h120l-155 -261z" />
    <glyph glyph-name="y" unicode="y" horiz-adv-x="524" 
d="M62 -190v98h84c35 0 50 11 58 38l10 29l-198 565h126l110 -342c9 -31 17 -62 18 -77h4c1 15 8 46 16 77l100 342h118l-201 -630c-25 -76 -62 -100 -151 -100h-94z" />
    <glyph glyph-name="ygrave" unicode="&#x1ef3;" horiz-adv-x="524" 
d="M215 604l-115 131h125l86 -131h-96zM62 -190v98h84c35 0 50 11 58 38l10 29l-198 565h126l110 -342c9 -31 17 -62 18 -77h4c1 15 8 46 16 77l100 342h118l-201 -630c-25 -76 -62 -100 -151 -100h-94z" />
    <glyph glyph-name="yacute" unicode="&#xfd;" horiz-adv-x="524" 
d="M309 604h-95l86 131h125zM62 -190v98h84c35 0 50 11 58 38l10 29l-198 565h126l110 -342c9 -31 17 -62 18 -77h4c1 15 8 46 16 77l100 342h118l-201 -630c-25 -76 -62 -100 -151 -100h-94z" />
    <glyph glyph-name="ycircumflex" unicode="&#x177;" horiz-adv-x="524" 
d="M440 604h-100l-76 83h-4l-74 -83h-99l112 131h128zM62 -190v98h84c35 0 50 11 58 38l10 29l-198 565h126l110 -342c9 -31 17 -62 18 -77h4c1 15 8 46 16 77l100 342h118l-201 -630c-25 -76 -62 -100 -151 -100h-94z" />
    <glyph glyph-name="ydieresis" unicode="&#xff;" horiz-adv-x="524" 
d="M103 672c0 35 25 57 60 57s59 -22 59 -57c0 -33 -24 -57 -59 -57s-60 24 -60 57zM302 672c0 35 27 57 60 57c35 0 59 -22 59 -57c0 -33 -24 -57 -59 -57c-33 0 -60 24 -60 57zM62 -190v98h84c35 0 50 11 58 38l10 29l-198 565h126l110 -342c9 -31 17 -62 18 -77h4
c1 15 8 46 16 77l100 342h118l-201 -630c-25 -76 -62 -100 -151 -100h-94z" />
    <glyph glyph-name="z" unicode="z" horiz-adv-x="481" 
d="M442 540v-91l-258 -351h272v-98h-417v90l256 352h-238v98h385z" />
    <glyph glyph-name="zacute" unicode="&#x17a;" horiz-adv-x="481" 
d="M289 604h-95l86 131h125zM442 540v-91l-258 -351h272v-98h-417v90l256 352h-238v98h385z" />
    <glyph glyph-name="zcaron" unicode="&#x17e;" horiz-adv-x="481" 
d="M65 735h100l76 -83h4l74 83h100l-113 -131h-128zM442 540v-91l-258 -351h272v-98h-417v90l256 352h-238v98h385z" />
    <glyph glyph-name="zdotaccent" unicode="&#x17c;" horiz-adv-x="481" 
d="M183 671c0 35 25 57 60 57s59 -22 59 -57c0 -33 -24 -57 -59 -57s-60 24 -60 57zM442 540v-91l-258 -351h272v-98h-417v90l256 352h-238v98h385z" />
    <glyph glyph-name="a.superior" horiz-adv-x="388" 
d="M148 315c-67 0 -114 47 -114 112c0 59 35 94 124 123l66 21c19 7 24 14 24 27c0 24 -19 40 -51 40c-39 0 -63 -22 -73 -67l-88 20c15 75 76 119 163 119c91 0 148 -47 148 -124v-261h-94v62h-3c-12 -44 -51 -72 -102 -72zM180 378c41 0 71 39 71 95v40l-71 -25
c-36 -13 -50 -30 -50 -57c0 -32 21 -53 50 -53z" />
    <glyph glyph-name="b.superior" horiz-adv-x="417" 
d="M393 511c0 -115 -60 -196 -146 -196c-51 0 -87 25 -108 74h-3v-64h-90v510h96v-183h4c21 39 55 58 100 58c85 0 147 -80 147 -199zM294 513c0 69 -31 115 -80 115c-44 0 -74 -38 -74 -93v-45c0 -56 29 -93 74 -93c49 0 80 47 80 116z" />
    <glyph glyph-name="c.superior" horiz-adv-x="365" 
d="M202 315c-106 0 -178 79 -178 197s73 198 177 198c77 0 134 -42 154 -113l-87 -19c-12 32 -38 50 -67 50c-49 0 -79 -44 -79 -115s31 -116 80 -116c35 0 59 21 72 63l86 -18c-19 -81 -77 -127 -158 -127z" />
    <glyph glyph-name="d.superior" horiz-adv-x="417" 
d="M24 511c0 119 61 199 146 199c45 0 79 -19 100 -58h4v183h96v-510h-90v64h-3c-19 -48 -58 -74 -107 -74c-86 0 -146 81 -146 196zM121 513c0 -69 33 -116 82 -116c44 0 74 37 74 93v45c0 55 -30 93 -75 93c-48 0 -81 -46 -81 -115z" />
    <glyph glyph-name="e.superior" horiz-adv-x="384" 
d="M204 315c-109 0 -180 77 -180 198c0 118 70 197 168 197c101 0 168 -79 168 -195v-21h-240c7 -63 38 -99 83 -99c35 0 61 21 80 64l79 -35c-31 -73 -84 -109 -158 -109zM192 635c-37 0 -61 -24 -70 -73h137c-4 45 -30 73 -67 73z" />
    <glyph glyph-name="f.superior" horiz-adv-x="256" 
d="M170 325h-97v304h-62v71h62v26c0 79 32 109 115 109h68v-79h-46c-29 0 -40 -9 -40 -37v-19h86v-71h-86v-304z" />
    <glyph glyph-name="g.superior" horiz-adv-x="407" 
d="M24 523c0 111 58 187 145 187c49 0 84 -22 104 -67h3v57h89v-344c0 -104 -63 -163 -174 -163c-75 0 -130 25 -163 75l66 49c22 -32 53 -48 94 -48c51 0 81 29 81 81v44h-3c-23 -39 -56 -59 -101 -59c-82 0 -141 78 -141 188zM122 523c0 -64 31 -105 79 -105
c43 0 71 33 71 84v41c0 52 -28 85 -71 85c-48 0 -79 -41 -79 -105z" />
    <glyph glyph-name="h.superior" horiz-adv-x="408" 
d="M367 325h-97v242c0 36 -20 58 -53 58c-45 0 -75 -40 -75 -111v-189h-96v510h90v-208h2c20 55 57 83 112 83c73 0 117 -48 117 -127v-258z" />
    <glyph glyph-name="i.superior" horiz-adv-x="189" 
d="M40 793c0 31 23 51 55 51c31 0 54 -20 54 -51c0 -29 -23 -51 -54 -51c-32 0 -55 22 -55 51zM142 325h-96v375h96v-375z" />
    <glyph glyph-name="j.superior" horiz-adv-x="189" 
d="M40 793c0 31 23 51 55 51c31 0 54 -20 54 -51c0 -29 -23 -51 -54 -51c-32 0 -55 22 -55 51zM-2 193v79h9c29 0 39 7 39 35v393h96v-415c0 -69 -27 -92 -102 -92h-42z" />
    <glyph glyph-name="k.superior" horiz-adv-x="408" 
d="M142 835v-256l132 121h123l-140 -124l148 -251h-111l-107 189l-45 -40v-149h-96v510h96z" />
    <glyph glyph-name="l.superior" horiz-adv-x="189" 
d="M46 835h96v-510h-96v510z" />
    <glyph glyph-name="m.superior" horiz-adv-x="608" 
d="M567 325h-97v242c0 35 -19 58 -50 58c-39 0 -65 -35 -65 -90v-210h-97v242c0 35 -19 58 -50 58c-39 0 -66 -35 -66 -90v-210h-96v375h90v-75h2c17 57 51 85 103 85c48 0 81 -21 100 -63h3c16 37 61 63 108 63c69 0 115 -54 115 -137v-248z" />
    <glyph glyph-name="n.superior" horiz-adv-x="408" 
d="M367 325h-97v242c0 36 -20 58 -53 58c-45 0 -75 -40 -75 -111v-189h-96v375h90v-73h2c20 55 57 83 111 83c75 0 118 -48 118 -127v-258z" />
    <glyph glyph-name="o.superior" horiz-adv-x="406" 
d="M381 513c0 -121 -70 -198 -178 -198s-179 77 -179 198c0 119 71 197 179 197s178 -78 178 -197zM283 513c0 71 -29 115 -80 115c-49 0 -81 -44 -81 -115c0 -72 32 -116 81 -116c51 0 80 44 80 116z" />
    <glyph glyph-name="p.superior" horiz-adv-x="417" 
d="M393 514c0 -118 -62 -199 -146 -199c-45 0 -79 20 -101 59h-4v-181h-96v507h90v-63h3c21 49 56 73 107 73c88 0 147 -81 147 -196zM294 513c0 69 -31 115 -80 115c-44 0 -74 -38 -74 -93v-45c0 -57 29 -92 74 -92c49 0 80 46 80 115z" />
    <glyph glyph-name="q.superior" horiz-adv-x="417" 
d="M24 514c0 115 60 196 146 196c51 0 87 -24 108 -73h2v63h90v-507h-96v181h-3c-23 -39 -56 -59 -101 -59c-84 0 -146 81 -146 199zM121 513c0 -69 33 -115 82 -115c44 0 74 35 74 92v45c0 55 -30 93 -75 93c-48 0 -81 -46 -81 -115z" />
    <glyph glyph-name="r.superior" horiz-adv-x="279" 
d="M142 325h-96v375h90v-85h2c12 56 53 85 94 85h40v-95h-44c-60 0 -86 -26 -86 -87v-193z" />
    <glyph glyph-name="s.superior" horiz-adv-x="346" 
d="M180 315c-78 0 -132 35 -163 104l72 37c19 -45 54 -71 91 -71c33 0 55 20 55 45c0 75 -196 31 -196 162c0 71 56 118 145 118c65 0 112 -26 143 -77l-71 -42c-19 33 -44 49 -73 49s-48 -15 -48 -36c0 -68 195 -26 195 -164c0 -75 -59 -125 -150 -125z" />
    <glyph glyph-name="t.superior" horiz-adv-x="251" 
d="M241 325h-66c-76 0 -104 22 -104 93v211h-61v71h61v103h96v-103h74v-71h-74v-190c0 -29 12 -35 41 -35h33v-79z" />
    <glyph glyph-name="u.superior" horiz-adv-x="408" 
d="M41 700h97v-242c0 -36 20 -58 53 -58c45 0 74 42 74 111v189h97v-375h-89v73h-3c-20 -55 -57 -83 -112 -83c-73 0 -117 48 -117 127v258z" />
    <glyph glyph-name="v.superior" horiz-adv-x="369" 
d="M259 325h-146l-104 375h101l77 -308h3l77 308h92z" />
    <glyph glyph-name="w.superior" horiz-adv-x="562" 
d="M469 325h-136l-45 231c-1 9 -4 24 -4 33h-2c0 -9 -3 -24 -4 -33l-45 -231h-141l-80 375h98l56 -303h3l55 303h121l55 -303h2l55 303h93z" />
    <glyph glyph-name="x.superior" horiz-adv-x="366" 
d="M359 325h-107l-57 106l-14 31h-3l-13 -31l-59 -106h-99l110 189l-105 186h103l57 -107l13 -33h3l12 32l56 108h96l-105 -181z" />
    <glyph glyph-name="y.superior" horiz-adv-x="372" 
d="M45 193v79h61c21 0 33 7 38 22l4 12l-139 394h103l75 -255c3 -7 6 -24 6 -31h3c0 7 4 24 5 31l68 255h94l-137 -436c-17 -53 -44 -71 -111 -71h-70z" />
    <glyph glyph-name="z.superior" horiz-adv-x="336" 
d="M311 700v-74l-167 -222h177v-79h-295v73l167 223h-155v79h273z" />
    <glyph glyph-name="grave" unicode="`" horiz-adv-x="500" 
d="M259 604l-115 131h125l86 -131h-96z" />
    <glyph glyph-name="gravecmb" unicode="&#x300;" horiz-adv-x="0" 
d="M-47 604l-115 131h125l86 -131h-96z" />
    <glyph glyph-name="gravecmb.cap" horiz-adv-x="0" 
d="M49 740h-96l-100 106h125z" />
    <glyph glyph-name="acute" unicode="&#xb4;" horiz-adv-x="500" 
d="M240 604h-95l86 131h125z" />
    <glyph glyph-name="acutecmb" unicode="&#x301;" horiz-adv-x="0" 
d="M47 604h-95l86 131h125z" />
    <glyph glyph-name="acutecmb.cap" horiz-adv-x="0" 
d="M47 740h-96l71 106h125z" />
    <glyph glyph-name="circumflex" unicode="&#x2c6;" horiz-adv-x="500" 
d="M427 604h-100l-76 83h-4l-74 -83h-99l112 131h128z" />
    <glyph glyph-name="circumflexcmb" unicode="&#x302;" horiz-adv-x="0" 
d="M178 604h-100l-76 83h-4l-74 -83h-99l112 131h128z" />
    <glyph glyph-name="circumflexcmb.cap" horiz-adv-x="0" 
d="M177 740h-105l-71 66h-4l-69 -66h-105l105 106h144z" />
    <glyph glyph-name="caron" unicode="&#x2c7;" horiz-adv-x="500" 
d="M73 735h100l76 -83h4l74 83h100l-113 -131h-128z" />
    <glyph glyph-name="caroncmb" unicode="&#x30c;" horiz-adv-x="0" 
d="M-177 735h100l76 -83h4l74 83h100l-113 -131h-128z" />
    <glyph glyph-name="caroncmb.cap" horiz-adv-x="0" 
d="M-176 846h105l71 -66h4l69 66h105l-105 -106h-144z" />
    <glyph glyph-name="caron.slovak" horiz-adv-x="500" 
d="M262 501h-90l46 234h110z" />
    <glyph glyph-name="tilde" unicode="&#x2dc;" horiz-adv-x="500" 
d="M330 606c-58 0 -113 51 -150 51c-21 0 -33 -15 -36 -46h-70c3 79 39 123 96 123c60 0 112 -51 150 -51c21 0 33 15 36 46h70c-3 -79 -37 -123 -96 -123z" />
    <glyph glyph-name="tildecmb" unicode="&#x303;" horiz-adv-x="0" 
d="M80 606c-58 0 -113 51 -150 51c-21 0 -33 -15 -36 -46h-70c3 79 39 123 96 123c60 0 112 -51 150 -51c21 0 33 15 36 46h70c-3 -79 -37 -123 -96 -123z" />
    <glyph glyph-name="tildecmb.cap" horiz-adv-x="0" 
d="M77 737c-56 0 -116 44 -147 44c-19 0 -30 -13 -35 -39h-65c8 71 39 106 94 106c57 0 115 -44 147 -44c19 0 30 13 35 39h65c-8 -71 -39 -106 -94 -106z" />
    <glyph glyph-name="dieresis" unicode="&#xa8;" horiz-adv-x="500" 
d="M91 672c0 35 25 57 60 57s59 -22 59 -57c0 -33 -24 -57 -59 -57s-60 24 -60 57zM290 672c0 35 27 57 60 57c35 0 59 -22 59 -57c0 -33 -24 -57 -59 -57c-33 0 -60 24 -60 57z" />
    <glyph glyph-name="dieresiscmb" unicode="&#x308;" horiz-adv-x="0" 
d="M-159 672c0 35 25 57 60 57s59 -22 59 -57c0 -33 -24 -57 -59 -57s-60 24 -60 57zM40 672c0 35 27 57 60 57c35 0 59 -22 59 -57c0 -33 -24 -57 -59 -57c-33 0 -60 24 -60 57z" />
    <glyph glyph-name="dieresiscmb.cap" horiz-adv-x="0" 
d="M-153 793c0 31 23 50 54 50s53 -19 53 -50s-22 -50 -53 -50s-54 19 -54 50zM46 793c0 31 23 50 54 50s53 -19 53 -50s-22 -50 -53 -50s-54 19 -54 50z" />
    <glyph glyph-name="overscore" unicode="&#xaf;" horiz-adv-x="500" 
d="M396 634h-292v75h292v-75z" />
    <glyph glyph-name="macroncmb" unicode="&#x304;" horiz-adv-x="0" 
d="M146 634h-292v75h292v-75z" />
    <glyph glyph-name="macroncmb.cap" horiz-adv-x="0" 
d="M146 756h-292v75h292v-75z" />
    <glyph glyph-name="breve" unicode="&#x2d8;" horiz-adv-x="500" 
d="M250 604c-81 0 -139 51 -142 128h86c1 -33 23 -54 56 -54c32 0 55 21 56 54h86c-1 -77 -59 -128 -142 -128z" />
    <glyph glyph-name="brevecmb" unicode="&#x306;" horiz-adv-x="0" 
d="M0 604c-81 0 -139 51 -142 128h86c1 -33 23 -54 56 -54c32 0 55 21 56 54h86c-1 -77 -59 -128 -142 -128z" />
    <glyph glyph-name="brevecmb.cap" horiz-adv-x="0" 
d="M0 741c-81 0 -139 41 -142 105h86c4 -24 27 -39 56 -39c31 0 52 15 56 39h86c-1 -64 -59 -105 -142 -105z" />
    <glyph glyph-name="ring" unicode="&#x2da;" horiz-adv-x="500" 
d="M250 584c-69 0 -123 43 -123 107c0 63 54 106 123 106c71 0 123 -43 123 -106c0 -64 -52 -107 -123 -107zM250 644c28 0 45 22 45 47c0 27 -17 46 -45 46s-45 -19 -45 -46c0 -25 17 -47 45 -47z" />
    <glyph glyph-name="ringabovecmb" unicode="&#x30a;" horiz-adv-x="0" 
d="M0 584c-69 0 -123 43 -123 107c0 63 54 106 123 106c71 0 123 -43 123 -106c0 -64 -52 -107 -123 -107zM0 644c28 0 45 22 45 47c0 27 -17 46 -45 46s-45 -19 -45 -46c0 -25 17 -47 45 -47z" />
    <glyph glyph-name="ringabovecmb.cap" horiz-adv-x="0" 
d="M0 729c-69 0 -123 43 -123 107c0 63 54 106 123 106c71 0 123 -43 123 -106c0 -64 -52 -107 -123 -107zM0 789c28 0 45 22 45 47c0 27 -17 46 -45 46s-45 -19 -45 -46c0 -25 17 -47 45 -47z" />
    <glyph glyph-name="hungarumlaut" unicode="&#x2dd;" horiz-adv-x="500" 
d="M144 604h-95l86 131h125zM335 604h-95l86 131h125z" />
    <glyph glyph-name="hungarumlautcmb" unicode="&#x30b;" horiz-adv-x="0" 
d="M-48 604h-95l86 131h125zM143 604h-95l86 131h125z" />
    <glyph glyph-name="hungarumlautcmb.cap" horiz-adv-x="0" 
d="M-46 740h-96l71 106h125zM142 740h-96l71 106h125z" />
    <glyph glyph-name="dotaccent" unicode="&#x2d9;" horiz-adv-x="500" 
d="M190 671c0 35 25 57 60 57s59 -22 59 -57c0 -33 -24 -57 -59 -57s-60 24 -60 57z" />
    <glyph glyph-name="dotaccentcmb" unicode="&#x307;" horiz-adv-x="0" 
d="M-59 671c0 35 25 57 60 57s59 -22 59 -57c0 -33 -24 -57 -59 -57s-60 24 -60 57z" />
    <glyph glyph-name="dotaccentcmb.cap" horiz-adv-x="0" 
d="M-54 793c0 31 23 50 54 50s54 -19 54 -50s-23 -50 -54 -50s-54 19 -54 50z" />
    <glyph glyph-name="cedilla" unicode="&#xb8;" horiz-adv-x="500" 
d="M144 -190v77h48c40 0 60 16 60 48c0 25 -13 46 -38 65v5h94l-3 -21c35 -17 52 -44 52 -80c0 -59 -45 -94 -121 -94h-92z" />
    <glyph glyph-name="cedillacmb" unicode="&#x327;" horiz-adv-x="0" 
d="M-113 -190v77h48c40 0 60 16 60 48c0 25 -13 46 -38 65v5h94l-3 -21c35 -17 52 -44 52 -80c0 -59 -45 -94 -121 -94h-92z" />
    <glyph glyph-name="ogonek" unicode="&#x2db;" horiz-adv-x="500" 
d="M253 -190c-65 0 -104 33 -104 82c0 48 35 91 106 130h96v-22c-65 -32 -93 -53 -93 -77c0 -20 14 -30 41 -30h52v-83h-98z" />
    <glyph glyph-name="ogonekcmb" unicode="&#x328;" horiz-adv-x="0" 
d="M-9 -190c-65 0 -104 33 -104 82c0 48 35 91 106 130h96v-22c-65 -32 -93 -53 -93 -77c0 -20 14 -30 41 -30h52v-83h-98z" />
    <glyph glyph-name="commaaccentbelow" horiz-adv-x="500" 
d="M281 -200h-62l25 51h-8c-29 0 -49 18 -49 45c0 32 27 53 64 53c39 0 62 -21 62 -56c0 -15 -5 -30 -17 -59z" />
    <glyph glyph-name="commaaccentbelowcmb" unicode="&#x326;" horiz-adv-x="0" 
d="M31 -200h-62l25 51h-8c-29 0 -49 18 -49 45c0 32 27 53 64 53c39 0 62 -21 62 -56c0 -15 -5 -30 -17 -59z" />
    <glyph glyph-name="commaturnedabove" horiz-adv-x="500" 
d="M218 740h63l-26 -51h9c29 0 48 -18 48 -45c0 -32 -26 -53 -63 -53c-39 0 -62 23 -62 56c0 15 4 30 17 59z" />
    <glyph glyph-name="commaturnedabovecmb" unicode="&#x312;" horiz-adv-x="0" 
d="M-30 740h63l-26 -51h9c29 0 48 -18 48 -45c0 -32 -26 -53 -63 -53c-39 0 -62 23 -62 56c0 15 4 30 17 59z" />
    <glyph glyph-name="circledotted" unicode="&#x25cc;" horiz-adv-x="640" 
d="M320 551c7 0 11 -4 11 -11s-4 -11 -11 -11s-11 4 -11 11s4 11 11 11zM266 545c7 0 11 -4 11 -11s-4 -11 -11 -11s-11 4 -11 11s4 11 11 11zM374 545c7 0 11 -4 11 -11s-4 -11 -11 -11s-11 4 -11 11s4 11 11 11zM425 530c7 0 11 -4 11 -11s-4 -11 -11 -11s-11 4 -11 11
s4 11 11 11zM215 530c7 0 11 -4 11 -11s-4 -11 -11 -11s-11 4 -11 11s4 11 11 11zM169 505c7 0 11 -4 11 -11s-4 -11 -11 -11s-11 4 -11 11s4 11 11 11zM471 505c7 0 11 -4 11 -11s-4 -11 -11 -11s-11 4 -11 11s4 11 11 11zM129 472c7 0 11 -4 11 -11s-4 -11 -11 -11
s-11 4 -11 11s4 11 11 11zM511 472c7 0 11 -4 11 -11s-4 -11 -11 -11s-11 4 -11 11s4 11 11 11zM544 432c7 0 11 -4 11 -11s-4 -11 -11 -11s-11 4 -11 11s4 11 11 11zM96 432c7 0 11 -4 11 -11s-4 -11 -11 -11s-11 4 -11 11s4 11 11 11zM71 386c7 0 11 -4 11 -11
s-4 -11 -11 -11s-11 4 -11 11s4 11 11 11zM569 386c7 0 11 -4 11 -11s-4 -11 -11 -11s-11 4 -11 11s4 11 11 11zM56 335c7 0 11 -4 11 -11s-4 -11 -11 -11s-11 4 -11 11s4 11 11 11zM584 335c7 0 11 -4 11 -11s-4 -11 -11 -11s-11 4 -11 11s4 11 11 11zM50 281
c7 0 11 -4 11 -11s-4 -11 -11 -11s-11 4 -11 11s4 11 11 11zM590 281c7 0 11 -4 11 -11s-4 -11 -11 -11s-11 4 -11 11s4 11 11 11zM584 227c7 0 11 -4 11 -11s-4 -11 -11 -11s-11 4 -11 11s4 11 11 11zM56 227c7 0 11 -4 11 -11s-4 -11 -11 -11s-11 4 -11 11s4 11 11 11z
M569 176c7 0 11 -4 11 -11s-4 -11 -11 -11s-11 4 -11 11s4 11 11 11zM71 176c7 0 11 -4 11 -11s-4 -11 -11 -11s-11 4 -11 11s4 11 11 11zM96 130c7 0 11 -4 11 -11s-4 -11 -11 -11s-11 4 -11 11s4 11 11 11zM544 130c7 0 11 -4 11 -11s-4 -11 -11 -11s-11 4 -11 11
s4 11 11 11zM129 90c7 0 11 -4 11 -11s-4 -11 -11 -11s-11 4 -11 11s4 11 11 11zM511 90c7 0 11 -4 11 -11s-4 -11 -11 -11s-11 4 -11 11s4 11 11 11zM169 57c7 0 11 -4 11 -11s-4 -11 -11 -11s-11 4 -11 11s4 11 11 11zM471 57c7 0 11 -4 11 -11s-4 -11 -11 -11
s-11 4 -11 11s4 11 11 11zM215 32c7 0 11 -4 11 -11s-4 -11 -11 -11s-11 4 -11 11s4 11 11 11zM425 32c7 0 11 -4 11 -11s-4 -11 -11 -11s-11 4 -11 11s4 11 11 11zM374 17c7 0 11 -4 11 -11s-4 -11 -11 -11s-11 4 -11 11s4 11 11 11zM266 17c7 0 11 -4 11 -11
s-4 -11 -11 -11s-11 4 -11 11s4 11 11 11zM320 11c7 0 11 -4 11 -11s-4 -11 -11 -11s-11 4 -11 11s4 11 11 11z" />
    <glyph glyph-name="comma" unicode="," horiz-adv-x="254" 
d="M123 -130h-69l60 134c-37 5 -63 32 -63 71c0 45 30 74 75 74c47 0 77 -31 77 -75c0 -23 -8 -47 -39 -108z" />
    <glyph glyph-name="semicolon" unicode=";" horiz-adv-x="334" 
d="M89 477c0 47 33 78 78 78s77 -31 77 -78c0 -45 -32 -78 -77 -78s-78 33 -78 78zM163 -130h-69l60 134c-37 5 -63 32 -63 71c0 45 30 74 75 74c47 0 77 -31 77 -75c0 -23 -8 -47 -39 -108z" />
    <glyph glyph-name="colon" unicode=":" horiz-adv-x="334" 
d="M89 477c0 47 33 78 78 78s77 -31 77 -78c0 -45 -32 -78 -77 -78s-78 33 -78 78zM89 63c0 47 33 78 78 78s77 -31 77 -78c0 -45 -32 -78 -77 -78s-78 33 -78 78z" />
    <glyph glyph-name="period" unicode="." horiz-adv-x="254" 
d="M49 63c0 47 33 78 78 78s77 -31 77 -78c0 -45 -32 -78 -77 -78s-78 33 -78 78z" />
    <glyph glyph-name="ellipsis" unicode="&#x2026;" horiz-adv-x="762" 
d="M49 63c0 47 33 78 78 78s77 -31 77 -78c0 -45 -32 -78 -77 -78s-78 33 -78 78zM303 63c0 47 33 78 78 78s77 -31 77 -78c0 -45 -32 -78 -77 -78s-78 33 -78 78zM557 63c0 47 33 78 78 78s77 -31 77 -78c0 -45 -32 -78 -77 -78s-78 33 -78 78z" />
    <glyph glyph-name="hyphen" unicode="-" horiz-adv-x="300" 
d="M40 266v91h220v-91h-220z" />
    <glyph glyph-name="hyphen.cap" horiz-adv-x="300" 
d="M40 304v91h220v-91h-220z" />
    <glyph glyph-name="exclam" unicode="!" horiz-adv-x="294" 
d="M197 215h-100l-23 485h146zM69 63c0 47 33 78 78 78s77 -31 77 -78c0 -45 -32 -78 -77 -78s-78 33 -78 78z" />
    <glyph glyph-name="exclamdown" unicode="&#xa1;" horiz-adv-x="294" 
d="M225 477c0 -45 -33 -78 -78 -78s-77 33 -77 78c0 47 32 78 77 78s78 -31 78 -78zM97 325h100l23 -485h-146z" />
    <glyph glyph-name="exclamdown.cap" horiz-adv-x="294" 
d="M225 637c0 -45 -33 -78 -78 -78s-77 33 -77 78c0 47 32 78 77 78s78 -31 78 -78zM97 485h100l23 -485h-146z" />
    <glyph glyph-name="question" unicode="?" horiz-adv-x="491" 
d="M292 215h-110v20c0 138 151 188 151 290c0 49 -34 84 -85 84c-61 0 -97 -52 -97 -143l-118 8c0 148 85 241 216 241c121 0 209 -77 209 -191c0 -154 -166 -187 -166 -290v-19zM167 63c0 47 33 78 78 78s77 -31 77 -78c0 -45 -32 -78 -77 -78s-78 33 -78 78z" />
    <glyph glyph-name="questiondown" unicode="&#xbf;" horiz-adv-x="491" 
d="M324 477c0 -45 -33 -78 -78 -78s-77 33 -77 78c0 47 32 78 77 78s78 -31 78 -78zM199 325h110v-20c0 -138 -151 -188 -151 -290c0 -49 34 -84 85 -84c61 0 97 52 97 143l118 -8c0 -147 -84 -241 -216 -241c-121 0 -209 77 -209 191c0 154 166 187 166 290v19z" />
    <glyph glyph-name="questiondown.cap" horiz-adv-x="491" 
d="M324 637c0 -45 -33 -78 -78 -78s-77 33 -77 78c0 47 32 78 77 78s78 -31 78 -78zM199 485h110v-20c0 -138 -151 -188 -151 -290c0 -49 34 -84 85 -84c61 0 97 52 97 143l118 -8c0 -147 -84 -241 -216 -241c-121 0 -209 78 -209 191c0 154 166 187 166 290v19z" />
    <glyph glyph-name="quoteleft" unicode="&#x2018;" horiz-adv-x="256" 
d="M131 700h63l-55 -122c35 -5 57 -30 57 -66c0 -41 -27 -67 -68 -67s-70 28 -70 68c0 21 8 43 35 99z" />
    <glyph glyph-name="quoteright" unicode="&#x2019;" horiz-adv-x="256" 
d="M126 465h-63l55 122c-35 5 -57 30 -57 66c0 41 27 67 68 67c43 0 70 -28 70 -68c0 -21 -8 -43 -35 -99z" />
    <glyph glyph-name="quotedblleft" unicode="&#x201c;" horiz-adv-x="436" 
d="M131 700h63l-55 -122c35 -5 57 -30 57 -66c0 -41 -27 -67 -68 -67s-70 28 -70 68c0 21 8 43 35 99zM310 700h63l-55 -122c35 -5 57 -30 57 -66c0 -41 -27 -67 -68 -67s-70 28 -70 68c0 21 8 43 35 99z" />
    <glyph glyph-name="quotedblright" unicode="&#x201d;" horiz-adv-x="436" 
d="M126 465h-63l55 122c-35 5 -57 30 -57 66c0 41 27 67 68 67c43 0 70 -28 70 -68c0 -21 -8 -43 -35 -99zM305 465h-63l55 122c-35 5 -57 30 -57 66c0 41 27 67 68 67c43 0 70 -28 70 -68c0 -21 -8 -43 -35 -99z" />
    <glyph glyph-name="quotesinglbase" unicode="&#x201a;" horiz-adv-x="256" 
d="M126 -105h-63l55 122c-35 5 -57 30 -57 66c0 41 27 67 68 67c43 0 70 -28 70 -68c0 -21 -8 -43 -35 -99z" />
    <glyph glyph-name="quotedblbase" unicode="&#x201e;" horiz-adv-x="436" 
d="M126 -105h-63l55 122c-35 5 -57 30 -57 66c0 41 27 67 68 67c43 0 70 -28 70 -68c0 -21 -8 -43 -35 -99zM305 -105h-63l55 122c-35 5 -57 30 -57 66c0 41 27 67 68 67c43 0 70 -28 70 -68c0 -21 -8 -43 -35 -99z" />
    <glyph glyph-name="quotesingle" unicode="'" horiz-adv-x="208" 
d="M153 448h-99v252h99v-252z" />
    <glyph glyph-name="quotedbl" unicode="&#x22;" horiz-adv-x="360" 
d="M153 448h-99v252h99v-252zM305 448h-99v252h99v-252z" />
    <glyph glyph-name="guilsinglleft" unicode="&#x2039;" horiz-adv-x="291" 
d="M251 108h-102l-99 202l99 202h102l-99 -202z" />
    <glyph glyph-name="guilsinglright" unicode="&#x203a;" horiz-adv-x="291" 
d="M40 512h102l99 -202l-99 -202h-102l99 202z" />
    <glyph glyph-name="guilsinglleft.cap" horiz-adv-x="291" 
d="M251 146h-102l-99 202l99 202h102l-99 -202z" />
    <glyph glyph-name="guilsinglright.cap" horiz-adv-x="291" 
d="M40 550h102l99 -202l-99 -202h-102l99 202z" />
    <glyph glyph-name="guillemetleft" unicode="&#xab;" horiz-adv-x="460" 
d="M251 108h-102l-99 202l99 202h102l-99 -202zM420 108h-102l-99 202l99 202h102l-99 -202z" />
    <glyph glyph-name="guillemetright" unicode="&#xbb;" horiz-adv-x="460" 
d="M40 512h102l99 -202l-99 -202h-102l99 202zM209 512h102l99 -202l-99 -202h-102l99 202z" />
    <glyph glyph-name="guillemetleft.cap" horiz-adv-x="460" 
d="M251 146h-102l-99 202l99 202h102l-99 -202zM420 146h-102l-99 202l99 202h102l-99 -202z" />
    <glyph glyph-name="guillemetright.cap" horiz-adv-x="460" 
d="M40 550h102l99 -202l-99 -202h-102l99 202zM209 550h102l99 -202l-99 -202h-102l99 202z" />
    <glyph glyph-name="slash" unicode="/" horiz-adv-x="398" 
d="M398 735l-299 -821h-99l299 821h99z" />
    <glyph glyph-name="backslash" unicode="\" horiz-adv-x="398" 
d="M0 735h99l299 -821h-99z" />
    <glyph glyph-name="bar" unicode="|" horiz-adv-x="276" 
d="M90 -110v861h96v-861h-96z" />
    <glyph glyph-name="brokenbar" unicode="&#xa6;" horiz-adv-x="276" 
d="M90 401v350h96v-350h-96zM90 -110v350h96v-350h-96z" />
    <glyph glyph-name="endash" unicode="&#x2013;" horiz-adv-x="500" 
d="M40 266v91h420v-91h-420z" />
    <glyph glyph-name="endash.cap" horiz-adv-x="500" 
d="M40 304v91h420v-91h-420z" />
    <glyph glyph-name="underscore" unicode="_" horiz-adv-x="500" 
d="M0 -142v90h500v-90h-500z" />
    <glyph glyph-name="emdash" unicode="&#x2014;" horiz-adv-x="1000" 
d="M40 266v91h920v-91h-920z" />
    <glyph glyph-name="emdash.cap" horiz-adv-x="1000" 
d="M40 305v91h920v-91h-920z" />
    <glyph glyph-name="bullet" unicode="&#x2022;" horiz-adv-x="442" 
d="M221 151c-90 0 -163 66 -163 163s73 163 163 163s163 -66 163 -163s-73 -163 -163 -163z" />
    <glyph glyph-name="middot" unicode="&#xb7;" horiz-adv-x="254" 
d="M49 307c0 47 33 78 78 78s77 -31 77 -78c0 -45 -32 -78 -77 -78s-78 33 -78 78z" />
    <glyph glyph-name="periodcentered.cap" horiz-adv-x="254" 
d="M49 347c0 47 33 78 78 78s77 -31 77 -78c0 -45 -32 -78 -77 -78s-78 33 -78 78z" />
    <glyph glyph-name="parenleft" unicode="(" horiz-adv-x="338" 
d="M165 295c0 -152 47 -295 143 -420h-110c-95 115 -145 261 -145 420s50 305 145 420h110c-96 -125 -143 -268 -143 -420z" />
    <glyph glyph-name="parenright" unicode=")" horiz-adv-x="338" 
d="M173 295c0 152 -47 295 -143 420h110c95 -115 145 -261 145 -420s-50 -305 -145 -420h-110c96 125 143 268 143 420z" />
    <glyph glyph-name="parenleft.cap" horiz-adv-x="338" 
d="M165 350c0 -152 47 -295 143 -420h-110c-95 115 -145 261 -145 420s50 305 145 420h110c-96 -125 -143 -268 -143 -420z" />
    <glyph glyph-name="parenright.cap" horiz-adv-x="338" 
d="M173 350c0 152 -47 295 -143 420h110c95 -115 145 -261 145 -420s-50 -305 -145 -420h-110c96 125 143 268 143 420z" />
    <glyph glyph-name="bracketleft" unicode="[" horiz-adv-x="330" 
d="M290 -130h-205v850h205v-88h-99v-674h99v-88z" />
    <glyph glyph-name="bracketright" unicode="]" horiz-adv-x="330" 
d="M40 720h205v-850h-205v88h99v674h-99v88z" />
    <glyph glyph-name="bracketleft.cap" horiz-adv-x="330" 
d="M290 -75h-205v850h205v-88h-99v-674h99v-88z" />
    <glyph glyph-name="bracketright.cap" horiz-adv-x="330" 
d="M40 775h205v-850h-205v88h99v674h-99v88z" />
    <glyph glyph-name="braceleft" unicode="{" horiz-adv-x="367" 
d="M327 -130h-43c-119 0 -169 50 -169 163v135c0 51 -15 65 -78 70v114c63 5 78 19 78 70v135c0 115 50 163 169 163h43v-87h-24c-61 0 -82 -24 -82 -96v-103c0 -92 -25 -129 -96 -137v-4c71 -8 96 -45 96 -137v-103c0 -72 21 -96 82 -96h24v-87z" />
    <glyph glyph-name="braceright" unicode="}" horiz-adv-x="367" 
d="M40 720h43c119 0 169 -48 169 -163v-135c0 -51 17 -65 78 -70v-114c-61 -5 -78 -19 -78 -70v-135c0 -113 -50 -163 -169 -163h-43v87h24c61 0 82 24 82 96v103c0 92 25 129 96 137v4c-71 8 -96 45 -96 137v103c0 72 -21 96 -82 96h-24v87z" />
    <glyph glyph-name="braceleft.cap" horiz-adv-x="367" 
d="M327 -75h-43c-119 0 -169 50 -169 163v135c0 51 -15 65 -78 70v114c63 5 78 19 78 70v135c0 115 50 163 169 163h43v-87h-24c-61 0 -82 -24 -82 -96v-103c0 -92 -25 -129 -96 -137v-4c71 -8 96 -45 96 -137v-103c0 -72 21 -96 82 -96h24v-87z" />
    <glyph glyph-name="braceright.cap" horiz-adv-x="367" 
d="M40 775h43c119 0 169 -48 169 -163v-135c0 -51 17 -65 78 -70v-114c-61 -5 -78 -19 -78 -70v-135c0 -113 -50 -163 -169 -163h-43v87h24c61 0 82 24 82 96v103c0 92 25 129 96 137v4c-71 8 -96 45 -96 137v103c0 72 -21 96 -82 96h-24v87z" />
    <glyph glyph-name="asterisk" unicode="*" horiz-adv-x="436" 
d="M256 333h-78l11 137l-112 -78l-37 67l122 58l-122 58l38 67l111 -79l-11 137h78l-11 -137l112 79l39 -67l-123 -58l123 -58l-39 -67l-112 78z" />
    <glyph glyph-name="dagger" unicode="&#x2020;" horiz-adv-x="468" 
d="M282 -77h-96v484h-138v89h138v204h96v-204h138v-89h-138v-484z" />
    <glyph glyph-name="daggerdbl" unicode="&#x2021;" horiz-adv-x="468" 
d="M282 -77h-96v204h-138v89h138v191h-138v89h138v204h96v-204h138v-89h-138v-191h138v-89h-138v-204z" />
    <glyph glyph-name="section" unicode="&#xa7;" horiz-adv-x="572" 
d="M301 -140c-107 0 -192 54 -239 151l90 49c39 -71 85 -103 148 -103c56 0 90 25 90 66c0 130 -367 84 -367 292c0 59 26 102 77 131v4c-19 21 -31 54 -31 95c0 51 18 92 55 123s86 47 147 47c107 0 194 -54 239 -151l-90 -49c-39 71 -84 103 -148 103
c-56 0 -90 -24 -90 -65c0 -131 367 -85 367 -293c0 -59 -26 -102 -77 -131v-4c19 -21 32 -54 32 -95c0 -101 -82 -170 -203 -170zM129 340c0 -48 49 -73 112 -96c18 -7 154 -55 168 -67c23 13 34 32 34 58c0 48 -49 75 -112 96c-18 7 -154 55 -168 67
c-23 -13 -34 -32 -34 -58z" />
    <glyph glyph-name="paragraph" unicode="&#xb6;" horiz-adv-x="601" 
d="M348 -100h-80v473h-43c-109 0 -177 63 -177 164c0 103 72 163 196 163h273v-800h-80v724h-89v-724z" />
    <glyph glyph-name="at" unicode="@" horiz-adv-x="930" 
d="M422 65c-81 0 -141 56 -141 136c0 71 49 121 146 152l93 29c20 7 30 19 30 36c0 35 -28 55 -71 55c-51 0 -83 -26 -94 -77l-97 20c16 85 91 139 194 139c105 0 174 -55 174 -142v-214c0 -39 16 -59 47 -59c59 0 103 77 103 182c0 207 -136 353 -331 353
c-200 0 -343 -153 -343 -366c0 -215 143 -370 336 -370c88 0 177 33 229 84l47 -58c-59 -61 -167 -98 -278 -98c-243 0 -417 182 -417 441c0 258 174 439 425 439c247 0 412 -173 412 -422c0 -146 -86 -260 -207 -260c-65 0 -114 35 -125 86h-4c-16 -53 -65 -86 -128 -86z
M456 134c55 0 95 53 95 126v59l-98 -33c-45 -15 -67 -41 -67 -79c0 -43 29 -73 70 -73z" />
    <glyph glyph-name="at.cap" horiz-adv-x="930" 
d="M422 107c-81 0 -141 56 -141 136c0 71 49 121 146 152l93 29c20 7 30 19 30 36c0 35 -28 55 -71 55c-51 0 -83 -26 -94 -77l-97 20c16 85 91 139 194 139c105 0 174 -55 174 -142v-214c0 -39 16 -59 47 -59c59 0 103 77 103 182c0 207 -136 353 -331 353
c-200 0 -343 -153 -343 -366c0 -215 143 -370 336 -370c88 0 177 33 229 84l47 -58c-59 -61 -167 -98 -278 -98c-243 0 -417 182 -417 441c0 258 174 439 425 439c247 0 412 -173 412 -422c0 -146 -86 -260 -207 -260c-65 0 -114 35 -125 86h-4c-16 -53 -65 -86 -128 -86z
M456 176c55 0 95 53 95 126v59l-98 -33c-45 -15 -67 -41 -67 -79c0 -43 29 -73 70 -73z" />
    <glyph glyph-name="copyright" unicode="&#xa9;" horiz-adv-x="762" 
d="M722 350c0 -208 -147 -365 -341 -365c-196 0 -341 157 -341 365s147 365 341 365c196 0 341 -157 341 -365zM672 350c0 186 -124 321 -291 321c-166 0 -291 -138 -291 -321c0 -185 125 -321 291 -321s291 138 291 321zM388 134c-114 0 -191 86 -191 216
c0 132 76 216 189 216c91 0 157 -52 176 -145l-94 -16c-13 53 -40 79 -81 79c-55 0 -91 -52 -91 -133s36 -135 93 -135c42 0 69 29 81 87l95 -11c-17 -100 -82 -158 -177 -158z" />
    <glyph glyph-name="registered" unicode="&#xae;" horiz-adv-x="762" 
d="M722 350c0 -208 -147 -365 -341 -365c-196 0 -341 157 -341 365s147 365 341 365c196 0 341 -157 341 -365zM672 350c0 186 -124 321 -291 321c-166 0 -291 -138 -291 -321c0 -185 125 -321 291 -321s291 138 291 321zM223 143v414h187c88 0 144 -47 144 -119
c0 -65 -45 -110 -118 -118l128 -177h-117l-117 176h-12v-176h-95zM318 476v-83h82c38 0 57 14 57 42c0 27 -19 41 -57 41h-82z" />
    <glyph glyph-name="soundcopyright" unicode="&#x2117;" horiz-adv-x="762" 
d="M722 350c0 -208 -147 -365 -341 -365c-196 0 -341 157 -341 365s147 365 341 365c196 0 341 -157 341 -365zM672 350c0 186 -124 321 -291 321c-166 0 -291 -138 -291 -321c0 -185 125 -321 291 -321s291 138 291 321zM241 143v414h179c96 0 150 -42 150 -121
c0 -81 -56 -133 -143 -133h-90v-160h-96zM337 476v-95h81c35 0 55 19 55 48s-21 47 -56 47h-80z" />
    <glyph glyph-name="trademark" unicode="&#x2122;" horiz-adv-x="822" 
d="M780 350h-94v293h-2l-82 -293h-63l-85 293h-2v-293h-93v350h162l41 -140c7 -19 8 -35 11 -54h2c3 19 6 35 11 54l40 140h154v-350zM307 700v-81h-98v-269h-96v269h-98v81h292z" />
    <glyph glyph-name="ordfeminine" unicode="&#xaa;" horiz-adv-x="388" 
d="M148 315c-67 0 -114 47 -114 112c0 59 35 94 124 123l66 21c19 7 24 14 24 27c0 24 -19 40 -51 40c-39 0 -63 -22 -73 -67l-88 20c15 75 76 119 163 119c91 0 148 -47 148 -124v-261h-94v62h-3c-12 -44 -51 -72 -102 -72zM180 378c41 0 71 39 71 95v40l-71 -25
c-36 -13 -50 -30 -50 -57c0 -32 21 -53 50 -53z" />
    <glyph glyph-name="ordmasculine" unicode="&#xba;" horiz-adv-x="406" 
d="M381 513c0 -121 -70 -198 -178 -198s-179 77 -179 198c0 119 71 197 179 197s178 -78 178 -197zM283 513c0 71 -29 115 -80 115c-49 0 -81 -44 -81 -115c0 -72 32 -116 81 -116c51 0 80 44 80 116z" />
    <glyph glyph-name="numero" unicode="&#x2116;" horiz-adv-x="1136" 
d="M1112 513c0 -121 -70 -198 -178 -198s-179 77 -179 198c0 119 71 197 179 197s178 -78 178 -197zM278 700l220 -509c11 -24 18 -46 26 -73l4 1c-1 28 -2 52 -2 77v504h120v-700h-193l-220 509c-9 24 -18 48 -26 73l-4 -1c1 -28 2 -52 2 -77v-504h-120v700h193zM1014 513
c0 71 -29 115 -80 115c-49 0 -81 -44 -81 -115c0 -72 32 -116 81 -116c51 0 80 44 80 116z" />
    <glyph glyph-name="numbersign" unicode="#" horiz-adv-x="566" 
d="M499 194h-100l-42 -194h-92l42 194h-115l-42 -194h-92l42 194h-80v91h99l29 130h-81v91h100l42 194h92l-42 -194h115l42 194h92l-42 -194h80v-91h-99l-29 -130h81v-91zM211 285h115l29 130h-115z" />
    <glyph glyph-name="Euro" unicode="&#x20ac;" horiz-adv-x="566" 
d="M339 -15c-131 0 -227 96 -259 249h-71v83h61c-1 11 -1 22 -1 33s0 22 1 33h-61v83h71c32 155 128 249 259 249c89 0 161 -44 206 -125l-98 -59c-27 52 -64 78 -110 78c-65 0 -113 -52 -134 -143h264v-83h-275c-1 -11 -1 -22 -1 -33s0 -22 1 -33h275v-83h-264
c21 -91 70 -142 135 -142c49 0 87 29 114 87l103 -47c-43 -93 -120 -147 -216 -147z" />
    <glyph glyph-name="dollar" unicode="$" horiz-adv-x="566" 
d="M357 -100h-107v88c-115 17 -192 100 -215 229l111 28c21 -107 74 -161 157 -161c69 0 111 41 111 94c0 145 -336 107 -336 333c0 104 67 171 172 186v88h107v-91c87 -18 146 -75 175 -172l-108 -39c-27 78 -71 117 -134 117c-53 0 -90 -27 -90 -74
c0 -145 335 -102 335 -331c0 -105 -67 -184 -178 -205v-90z" />
    <glyph glyph-name="cent" unicode="&#xa2;" horiz-adv-x="566" 
d="M353 -100h-107v91c-117 24 -194 132 -194 278c0 149 77 257 194 281v90h107v-91c79 -16 136 -71 161 -151l-108 -25c-20 51 -59 79 -108 79c-76 0 -125 -71 -125 -182c0 -109 50 -182 127 -182c56 0 99 37 116 102l107 -24c-24 -96 -85 -157 -170 -176v-90z" />
    <glyph glyph-name="sterling" unicode="&#xa3;" horiz-adv-x="566" 
d="M529 0h-466v129c52 37 71 80 71 145c0 9 0 17 -1 25h-95v96h74c-9 35 -19 68 -19 116c0 62 19 111 58 148s92 56 157 56c113 0 186 -57 221 -171l-113 -39c-25 72 -58 104 -109 104c-56 0 -90 -39 -90 -102c0 -37 12 -73 23 -112h231v-96h-212v-12
c0 -87 -30 -141 -98 -180v-4h368v-103z" />
    <glyph glyph-name="fhook" unicode="&#x192;" horiz-adv-x="598" 
d="M302 -100h-119l37 399h-161v96h169l10 104c15 139 88 201 241 201h92v-103h-89c-83 0 -117 -32 -125 -119l-8 -83h191v-96h-200z" />
    <glyph glyph-name="yen" unicode="&#xa5;" horiz-adv-x="566" 
d="M345 0h-122v174h-185v83h185v66h-185v83h143l-167 294h139l134 -254h5l133 254h127l-165 -294h141v-83h-183v-66h183v-83h-183v-174z" />
    <glyph glyph-name="zero.slash" horiz-adv-x="587" 
d="M293 -15c-151 0 -239 108 -239 297v136c0 189 88 297 239 297c152 0 239 -108 239 -297v-136c0 -189 -87 -297 -239 -297zM177 278v-12l215 274c-18 46 -51 69 -99 69c-77 0 -116 -62 -116 -187v-144zM293 92c78 0 117 62 117 186v144v10l-214 -273c18 -45 50 -67 97 -67
z" />
    <glyph glyph-name="zero" unicode="0" horiz-adv-x="587" 
d="M293 -15c-151 0 -239 108 -239 297v136c0 189 88 297 239 297c152 0 239 -108 239 -297v-136c0 -189 -87 -297 -239 -297zM293 92c78 0 117 62 117 186v144c0 125 -39 187 -117 187c-77 0 -116 -62 -116 -187v-144c0 -124 39 -186 116 -186z" />
    <glyph glyph-name="one" unicode="1" horiz-adv-x="418" 
d="M45 565h71c73 0 103 27 103 96v39h121v-700h-121v461h-174v104z" />
    <glyph glyph-name="two" unicode="2" horiz-adv-x="566" 
d="M517 0h-453v103c0 268 335 236 335 406c0 60 -40 100 -101 100c-73 0 -115 -56 -115 -152l-119 9c0 152 94 249 237 249c131 0 223 -81 223 -201c0 -253 -339 -219 -339 -400v-11h332v-103z" />
    <glyph glyph-name="three" unicode="3" horiz-adv-x="566" 
d="M291 -15c-138 0 -239 92 -247 226l119 15c7 -80 55 -134 127 -134c69 0 116 49 116 120s-47 116 -122 116c-16 0 -37 -1 -49 -4v100h23c76 0 125 38 125 97c0 53 -39 88 -98 88c-60 0 -100 -37 -111 -100l-118 17c14 114 106 189 230 189c126 0 220 -76 220 -179
c0 -65 -36 -121 -95 -140v-4c72 -21 119 -90 119 -181c0 -132 -100 -226 -239 -226z" />
    <glyph glyph-name="four" unicode="4" horiz-adv-x="566" 
d="M320 464h121v-209h95v-103h-95v-152h-121v152h-271v165l188 383h127l-223 -441v-4h179v209z" />
    <glyph glyph-name="five" unicode="5" horiz-adv-x="566" 
d="M290 -15c-127 0 -225 82 -237 195l118 20c15 -68 58 -108 118 -108c71 0 114 56 114 144c0 87 -41 137 -109 137c-45 0 -78 -23 -97 -54h-114v381h426v-103h-305v-189h5c25 43 71 71 132 71c112 0 187 -96 187 -234c0 -155 -96 -260 -238 -260z" />
    <glyph glyph-name="six" unicode="6" horiz-adv-x="566" 
d="M523 215c0 -132 -102 -230 -241 -230c-137 0 -237 95 -237 226c0 47 12 91 49 182l123 307h132l-126 -298h4c23 21 54 32 94 32c113 0 202 -96 202 -219zM399 213c0 73 -47 122 -116 122c-72 0 -119 -49 -119 -122c0 -72 47 -121 119 -121c69 0 116 48 116 121z" />
    <glyph glyph-name="seven" unicode="7" horiz-adv-x="566" 
d="M310 0h-121v42c0 330 201 455 201 545v10h-335v103h456v-88c0 -170 -201 -257 -201 -558v-54z" />
    <glyph glyph-name="eight" unicode="8" horiz-adv-x="566" 
d="M283 -15c-138 0 -238 91 -238 211c0 87 50 161 126 182v4c-63 21 -102 78 -102 149c0 106 90 184 214 184s214 -78 214 -184c0 -71 -39 -128 -102 -149v-4c76 -21 127 -95 127 -182c0 -120 -100 -211 -239 -211zM283 427c56 0 93 37 93 92s-37 92 -93 92
c-55 0 -93 -37 -93 -92s37 -92 93 -92zM283 89c71 0 116 49 116 118s-47 118 -116 118c-67 0 -116 -47 -116 -118s48 -118 116 -118z" />
    <glyph glyph-name="nine" unicode="9" horiz-adv-x="566" 
d="M43 485c0 133 103 230 241 230s237 -94 237 -226c0 -45 -12 -91 -49 -182l-123 -307h-132l126 298h-4c-23 -21 -54 -32 -94 -32c-112 0 -202 96 -202 219zM167 487c0 -73 47 -122 116 -122c72 0 119 49 119 122c0 72 -47 121 -119 121c-69 0 -116 -48 -116 -121z" />
    <glyph glyph-name="numbersign.LT" horiz-adv-x="540" 
d="M474 194h-91l-42 -194h-92l42 194h-109l-42 -194h-92l42 194h-71v91h90l29 130h-72v91h91l42 194h92l-42 -194h109l42 194h92l-42 -194h72v-91h-91l-29 -130h72v-91zM201 285h109l29 130h-109z" />
    <glyph glyph-name="Euro.LT" horiz-adv-x="540" 
d="M335 -15c-125 0 -217 96 -248 249h-71v83h61c-1 11 -1 22 -1 33s0 22 1 33h-61v83h71c31 155 123 249 248 249c85 0 153 -44 197 -125l-98 -59c-25 52 -59 78 -101 78c-61 0 -105 -52 -124 -143h245v-83h-255c-1 -11 -1 -22 -1 -33s0 -22 1 -33h255v-83h-245
c19 -91 64 -142 125 -142c45 0 80 29 105 87l103 -47c-41 -93 -115 -147 -207 -147z" />
    <glyph glyph-name="dollar.LT" horiz-adv-x="540" 
d="M348 -100h-107v88c-112 15 -184 93 -207 229l110 28c21 -107 70 -161 146 -161c63 0 99 38 99 94c0 140 -312 119 -312 333c0 101 64 170 164 186v88h107v-92c82 -18 135 -75 159 -171l-109 -35c-24 80 -57 113 -113 113c-51 0 -87 -28 -87 -75c0 -140 312 -117 312 -336
c0 -97 -59 -174 -162 -197v-92z" />
    <glyph glyph-name="cent.LT" horiz-adv-x="540" 
d="M340 -100h-107v91c-117 24 -194 132 -194 278c0 149 77 257 194 281v90h107v-91c79 -16 136 -71 161 -151l-108 -25c-20 51 -59 79 -108 79c-76 0 -125 -71 -125 -182c0 -109 50 -182 127 -182c56 0 99 37 116 102l107 -24c-24 -96 -85 -157 -170 -176v-90z" />
    <glyph glyph-name="sterling.LT" horiz-adv-x="540" 
d="M510 0h-454v129c51 37 71 80 71 145c0 9 0 17 -1 25h-95v96h74c-9 35 -20 68 -20 116c0 62 19 111 57 148c39 37 90 56 153 56c110 0 182 -57 215 -171l-113 -39c-23 72 -55 104 -102 104c-53 0 -85 -38 -85 -101c0 -37 12 -74 23 -113h219v-96h-200v-12
c0 -87 -30 -141 -98 -180v-4h356v-103z" />
    <glyph glyph-name="fhook.LT" horiz-adv-x="540" 
d="M272 -100h-119l37 399h-153v96h162l10 104c15 139 88 201 240 201h72v-103h-68c-83 0 -117 -32 -126 -119l-8 -83h191v-96h-200z" />
    <glyph glyph-name="yen.LT" horiz-adv-x="540" 
d="M332 0h-122v174h-173v83h173v66h-173v83h131l-167 294h139l134 -254h5l133 254h127l-165 -294h129v-83h-171v-66h171v-83h-171v-174z" />
    <glyph glyph-name="zero.slash.LT" horiz-adv-x="540" 
d="M270 -15c-141 0 -225 100 -225 269v191c0 169 84 269 225 269c143 0 225 -100 225 -269v-191c0 -169 -82 -269 -225 -269zM168 452v-167l194 248c-15 50 -46 75 -92 75c-68 0 -102 -52 -102 -156zM270 92c68 0 102 52 102 156v168l-194 -248c14 -51 45 -76 92 -76z" />
    <glyph glyph-name="zero.LT" horiz-adv-x="540" 
d="M270 -15c-141 0 -225 100 -225 269v191c0 169 84 269 225 269c143 0 225 -100 225 -269v-191c0 -169 -82 -269 -225 -269zM270 92c68 0 102 52 102 156v204c0 104 -34 156 -102 156s-102 -52 -102 -156v-204c0 -104 34 -156 102 -156z" />
    <glyph glyph-name="one.LT" horiz-adv-x="540" 
d="M82 0v103h152v358h-163v104h60c72 0 103 27 103 96v39h121v-597h152v-103h-425z" />
    <glyph glyph-name="two.LT" horiz-adv-x="540" 
d="M487 0h-430v103c0 268 312 236 312 410c0 57 -35 96 -90 96c-65 0 -103 -55 -103 -152l-119 9c0 155 87 249 224 249c127 0 213 -81 213 -201c0 -253 -315 -219 -315 -400v-11h308v-103z" />
    <glyph glyph-name="three.LT" horiz-adv-x="540" 
d="M276 -15c-129 0 -225 90 -233 226l118 15c7 -84 52 -134 117 -134c63 0 103 48 103 117c0 75 -43 119 -118 119c-15 0 -36 -1 -47 -4v100h21c75 0 122 38 122 99c0 51 -35 86 -87 86c-53 0 -89 -37 -100 -100l-117 17c7 57 31 103 70 137c40 35 90 52 149 52
c119 0 207 -74 207 -177c0 -65 -35 -119 -95 -142v-4c73 -21 120 -91 120 -182c0 -130 -95 -225 -230 -225z" />
    <glyph glyph-name="four.LT" horiz-adv-x="540" 
d="M314 464h122v-209h71v-103h-71v-152h-122v152h-271v165l188 383h128l-223 -441v-4h178v209z" />
    <glyph glyph-name="five.LT" horiz-adv-x="540" 
d="M271 -15c-120 0 -210 79 -222 195l118 20c13 -71 50 -108 103 -108c67 0 106 56 106 144c0 87 -37 137 -98 137c-41 0 -72 -23 -85 -54h-114v381h403v-103h-282v-189h5c23 43 65 71 122 71c103 0 174 -95 174 -233c0 -155 -91 -261 -230 -261z" />
    <glyph glyph-name="six.LT" horiz-adv-x="540" 
d="M500 215c0 -132 -100 -230 -233 -230c-132 0 -228 95 -228 226c0 47 12 91 49 182l123 307h132l-126 -298h4c20 21 53 32 89 32c106 0 190 -96 190 -219zM375 213c0 73 -43 122 -107 122c-65 0 -110 -49 -110 -122c0 -72 45 -121 110 -121c64 0 107 48 107 121z" />
    <glyph glyph-name="seven.LT" horiz-adv-x="540" 
d="M292 0h-122v42c0 330 201 455 201 545v10h-323v103h445v-88c0 -170 -201 -257 -201 -558v-54z" />
    <glyph glyph-name="eight.LT" horiz-adv-x="540" 
d="M270 -15c-131 0 -227 90 -227 212c0 87 46 160 115 181v4c-55 21 -91 78 -91 147c0 108 87 186 203 186c117 0 203 -78 203 -186c0 -69 -36 -126 -91 -147v-4c69 -21 115 -94 115 -181c0 -122 -94 -212 -227 -212zM270 427c49 0 82 37 82 92s-33 92 -82 92
c-48 0 -82 -37 -82 -92s33 -92 82 -92zM270 89c63 0 105 49 105 118s-42 118 -105 118c-61 0 -105 -47 -105 -118s44 -118 105 -118z" />
    <glyph glyph-name="nine.LT" horiz-adv-x="540" 
d="M42 484c0 133 100 230 233 230c132 0 228 -94 228 -226c0 -45 -12 -91 -49 -182l-123 -307h-132l126 298h-4c-20 -21 -53 -32 -89 -32c-106 0 -190 96 -190 219zM167 486c0 -73 43 -122 107 -122c67 0 110 49 110 122c0 72 -43 121 -110 121c-64 0 -107 -48 -107 -121z
" />
    <glyph glyph-name="numbersign.OP" horiz-adv-x="566" 
d="M400 560h92l-31 -144h80v-91h-99l-19 -90h80v-91h-100l-31 -144h-92l31 144h-115l-31 -144h-92l31 144h-79v91h98l20 90h-80v91h99l31 144h93l-32 -144h115zM233 327l-20 -94h119l20 94h-119z" />
    <glyph glyph-name="Euro.OP" horiz-adv-x="566" 
d="M374 -15c-63 0 -118 18 -163 55s-76 86 -92 147h-84v68h74c-1 8 -1 17 -1 25s0 17 1 25h-74v68h84c32 123 128 202 255 202c72 0 138 -25 179 -68l-64 -77c-31 29 -67 44 -110 44c-63 0 -110 -36 -133 -101h247v-68h-260c-1 -8 -1 -16 -1 -25s0 -17 1 -25h260v-68h-247
c23 -65 70 -101 133 -101c43 0 79 15 110 44l64 -77c-41 -41 -107 -68 -179 -68z" />
    <glyph glyph-name="dollar.OP" horiz-adv-x="566" 
d="M337 -100h-107v90c-97 17 -174 74 -205 153l104 38c28 -65 91 -104 172 -104c71 0 117 30 117 75c0 126 -358 8 -358 234c0 81 69 145 170 164v90h107v-88c84 -11 149 -52 182 -117l-101 -48c-25 48 -77 76 -138 76c-64 0 -101 -23 -101 -62c0 -125 359 -7 359 -234
c0 -94 -83 -165 -201 -179v-88z" />
    <glyph glyph-name="cent.OP" horiz-adv-x="566" 
d="M353 -100h-107v91c-59 13 -106 44 -141 93c-35 50 -52 112 -52 185c0 147 77 256 193 280v91h107v-90c79 -17 137 -71 162 -152l-107 -25c-20 51 -60 79 -109 79c-76 0 -125 -71 -125 -182c0 -109 50 -182 127 -182c56 0 99 37 116 102l107 -24
c-24 -96 -84 -157 -171 -176v-90z" />
    <glyph glyph-name="sterling.OP" horiz-adv-x="566" 
d="M471 235h-212v-6c0 -60 -31 -96 -98 -123v-3h368v-103h-466v129c47 23 71 55 71 98v8h-96v85h71c-9 23 -16 48 -16 77c0 103 85 174 211 174c95 0 175 -39 215 -106l-95 -67c-36 47 -70 66 -117 66c-57 0 -90 -29 -90 -78c0 -25 9 -45 18 -66h236v-85z" />
    <glyph glyph-name="fhook.OP" horiz-adv-x="598" 
d="M302 -80h-119l29 315h-153v85h160l4 39c13 139 88 201 241 201h107v-103h-104c-83 0 -118 -32 -125 -119l-2 -18h200v-85h-208z" />
    <glyph glyph-name="yen.OP" horiz-adv-x="566" 
d="M344 0h-122v116h-184v68h184v48l-1 2h-183v67h140l-164 259h139l134 -217h5l132 217h128l-163 -259h139v-67h-181l-3 -4v-46h184v-68h-184v-116z" />
    <glyph glyph-name="zero.slash.OP" horiz-adv-x="575" 
d="M288 -15c-152 0 -239 103 -239 274v42c0 172 87 274 239 274c151 0 239 -102 239 -274v-42c0 -172 -88 -274 -239 -274zM171 259c0 -11 0 -20 1 -31l208 191c-20 33 -51 50 -92 50c-78 0 -117 -56 -117 -168v-42zM288 92c77 0 116 56 116 167v42c0 12 0 24 -1 35
l-209 -191c19 -35 51 -53 94 -53z" />
    <glyph glyph-name="zero.OP" horiz-adv-x="575" 
d="M288 -15c-152 0 -239 103 -239 274v42c0 172 87 274 239 274c151 0 239 -102 239 -274v-42c0 -172 -88 -274 -239 -274zM288 92c77 0 116 56 116 167v42c0 112 -39 168 -116 168c-78 0 -117 -56 -117 -168v-42c0 -111 39 -167 117 -167z" />
    <glyph glyph-name="one.OP" horiz-adv-x="418" 
d="M45 473h71c73 0 103 21 103 76v11h121v-560h-121v370h-174v103z" />
    <glyph glyph-name="two.OP" horiz-adv-x="566" 
d="M512 0h-452v76c0 273 334 190 334 319c0 45 -38 74 -99 74c-62 0 -100 -29 -113 -87l-117 16c19 111 106 177 231 177c131 0 223 -72 223 -178c0 -229 -338 -160 -338 -294h331v-103z" />
    <glyph glyph-name="three.OP" horiz-adv-x="566" 
d="M291 -155c-138 0 -239 92 -247 226l119 15c7 -80 55 -134 127 -134c69 0 116 49 116 120s-47 116 -122 116c-16 0 -37 -1 -49 -4v100h23c76 0 125 38 125 97c0 53 -39 88 -98 88c-60 0 -100 -37 -111 -100l-118 17c14 114 106 189 230 189c126 0 220 -76 220 -179
c0 -65 -36 -121 -95 -140v-4c72 -21 119 -90 119 -181c0 -132 -100 -226 -239 -226z" />
    <glyph glyph-name="four.OP" horiz-adv-x="566" 
d="M320 331h121v-209h95v-103h-95v-152h-121v152h-271v165l188 383h127l-223 -441v-4h179v209z" />
    <glyph glyph-name="five.OP" horiz-adv-x="566" 
d="M290 -155c-127 0 -225 82 -237 195l118 20c15 -68 58 -108 118 -108c71 0 114 56 114 144c0 87 -41 137 -109 137c-45 0 -78 -23 -97 -54h-114v381h426v-103h-305v-189h5c25 43 71 71 132 71c112 0 187 -96 187 -234c0 -155 -96 -260 -238 -260z" />
    <glyph glyph-name="six.OP" horiz-adv-x="566" 
d="M523 215c0 -132 -102 -230 -241 -230c-137 0 -237 95 -237 226c0 47 12 91 49 182l123 307h132l-126 -298h4c23 21 54 32 94 32c113 0 202 -96 202 -219zM399 213c0 73 -47 122 -116 122c-72 0 -119 -49 -119 -122c0 -72 47 -121 119 -121c69 0 116 48 116 121z" />
    <glyph glyph-name="seven.OP" horiz-adv-x="566" 
d="M310 -139h-121v42c0 330 201 455 201 545v10h-335v103h456v-88c0 -170 -201 -257 -201 -558v-54z" />
    <glyph glyph-name="eight.OP" horiz-adv-x="566" 
d="M283 -15c-138 0 -238 91 -238 211c0 87 50 161 126 182v4c-63 21 -102 78 -102 149c0 106 90 184 214 184s214 -78 214 -184c0 -71 -39 -128 -102 -149v-4c76 -21 127 -95 127 -182c0 -120 -100 -211 -239 -211zM283 427c56 0 93 37 93 92s-37 92 -93 92
c-55 0 -93 -37 -93 -92s37 -92 93 -92zM283 89c71 0 116 49 116 118s-47 118 -116 118c-67 0 -116 -47 -116 -118s48 -118 116 -118z" />
    <glyph glyph-name="nine.OP" horiz-adv-x="566" 
d="M45 345c0 133 103 230 241 230s237 -94 237 -226c0 -45 -12 -91 -49 -182l-123 -307h-132l126 298h-4c-23 -21 -54 -32 -94 -32c-112 0 -202 96 -202 219zM169 347c0 -73 47 -122 116 -122c72 0 119 49 119 122c0 72 -47 121 -119 121c-69 0 -116 -48 -116 -121z" />
    <glyph glyph-name="numbersign.OT" horiz-adv-x="540" 
d="M382 560h92l-32 -144h81v-91h-100l-19 -90h80v-91h-100l-31 -144h-92l31 144h-103l-31 -144h-92l31 144h-80v91h100l19 90h-80v91h99l32 144h92l-31 -144h102zM226 327l-20 -94h107l21 94h-108z" />
    <glyph glyph-name="Euro.OT" horiz-adv-x="540" 
d="M356 -15c-124 0 -217 81 -248 202h-78v68h68c-1 8 -1 17 -1 25s0 17 1 25h-68v68h78c31 123 124 202 248 202c71 0 134 -25 175 -68l-64 -77c-28 29 -63 44 -105 44c-60 0 -105 -36 -128 -101h237v-68h-249c-1 -8 -1 -16 -1 -25s0 -17 1 -25h249v-68h-237
c23 -65 68 -101 128 -101c42 0 77 15 105 44l64 -77c-41 -41 -104 -68 -175 -68z" />
    <glyph glyph-name="dollar.OT" horiz-adv-x="540" 
d="M324 -100h-107v91c-93 19 -165 75 -193 152l104 38c27 -65 82 -104 157 -104c64 0 109 30 109 75c0 126 -336 8 -336 234c0 81 64 144 159 163v91h107v-88c81 -13 137 -52 170 -117l-101 -48c-24 48 -71 76 -124 76c-57 0 -92 -23 -92 -62c0 -125 336 -7 336 -234
c0 -93 -77 -163 -189 -179v-88z" />
    <glyph glyph-name="cent.OT" horiz-adv-x="540" 
d="M340 -100h-107v91c-59 13 -106 44 -141 93c-35 50 -52 112 -52 185c0 147 77 256 193 280v91h107v-90c79 -17 137 -71 162 -152l-107 -25c-20 51 -60 79 -109 79c-76 0 -125 -71 -125 -182c0 -109 50 -182 127 -182c56 0 99 37 116 102l107 -24
c-24 -96 -84 -157 -171 -176v-90z" />
    <glyph glyph-name="sterling.OT" horiz-adv-x="540" 
d="M512 0h-456v129c47 23 71 55 71 98v8h-96v85h70c-8 23 -16 49 -16 78c0 103 86 173 210 173c91 0 171 -37 212 -104l-88 -74c-35 47 -75 71 -122 71c-53 0 -87 -31 -87 -79c0 -23 7 -44 16 -65h232v-85h-206v-11c0 -53 -33 -93 -98 -118v-3h358v-103z" />
    <glyph glyph-name="fhook.OT" horiz-adv-x="540" 
d="M274 -80h-119l29 315h-147v85h154l4 39c13 139 88 201 241 201h85v-103h-82c-83 0 -118 -32 -125 -119l-2 -18h198v-85h-206z" />
    <glyph glyph-name="yen.OT" horiz-adv-x="540" 
d="M331 0h-122v116h-172v68h172v48l-1 2h-171v67h131l-155 259h139l122 -216h5l121 216h127l-154 -259h131v-67h-171l-2 -4v-46h173v-68h-173v-116z" />
    <glyph glyph-name="zero.slash.OT" horiz-adv-x="540" 
d="M270 -15c-145 0 -228 103 -228 274v42c0 172 83 274 228 274s228 -102 228 -274v-42c0 -172 -83 -274 -228 -274zM165 248v-11l193 177c-17 37 -46 55 -87 55c-71 0 -106 -52 -106 -157v-64zM271 92c69 0 104 52 104 156v64v13l-193 -177c17 -37 47 -56 89 -56z" />
    <glyph glyph-name="zero.OT" horiz-adv-x="540" 
d="M270 -15c-145 0 -228 103 -228 274v42c0 172 83 274 228 274s228 -102 228 -274v-42c0 -172 -83 -274 -228 -274zM271 92c69 0 104 52 104 156v64c0 105 -35 157 -104 157c-71 0 -106 -52 -106 -157v-64c0 -104 35 -156 106 -156z" />
    <glyph glyph-name="one.OT" horiz-adv-x="540" 
d="M82 0v103h152v267h-174v103h71c73 0 103 20 103 76v11h121v-457h152v-103h-425z" />
    <glyph glyph-name="two.OT" horiz-adv-x="540" 
d="M488 0h-436v76c0 261 318 189 318 320c0 44 -36 73 -91 73c-56 0 -91 -29 -104 -87l-117 16c19 111 102 177 222 177c126 0 214 -72 214 -178c0 -229 -321 -160 -321 -294h315v-103z" />
    <glyph glyph-name="three.OT" horiz-adv-x="540" 
d="M276 -155c-129 0 -225 90 -233 226l118 15c7 -84 52 -134 117 -134c63 0 103 48 103 117c0 75 -43 119 -118 119c-15 0 -36 -1 -47 -4v100h21c75 0 122 38 122 99c0 51 -35 86 -87 86c-53 0 -89 -37 -100 -100l-117 17c7 57 31 103 70 137c40 35 90 52 149 52
c119 0 207 -74 207 -177c0 -65 -35 -119 -95 -142v-4c73 -21 120 -91 120 -182c0 -130 -95 -225 -230 -225z" />
    <glyph glyph-name="four.OT" horiz-adv-x="540" 
d="M314 331h122v-209h71v-103h-71v-152h-122v152h-271v165l188 383h128l-223 -441v-4h178v209z" />
    <glyph glyph-name="five.OT" horiz-adv-x="540" 
d="M271 -155c-120 0 -210 79 -222 195l118 20c13 -71 50 -108 103 -108c67 0 106 56 106 144c0 87 -37 137 -98 137c-41 0 -72 -23 -85 -54h-114v381h403v-103h-282v-189h5c23 43 65 71 122 71c103 0 174 -95 174 -233c0 -155 -91 -261 -230 -261z" />
    <glyph glyph-name="six.OT" horiz-adv-x="540" 
d="M500 215c0 -132 -100 -230 -233 -230c-132 0 -228 95 -228 226c0 47 12 91 49 182l123 307h132l-126 -298h4c20 21 53 32 89 32c106 0 190 -96 190 -219zM375 213c0 73 -43 122 -107 122c-65 0 -110 -49 -110 -122c0 -72 45 -121 110 -121c64 0 107 48 107 121z" />
    <glyph glyph-name="seven.OT" horiz-adv-x="540" 
d="M292 -140h-122v42c0 330 201 455 201 545v10h-323v103h445v-88c0 -170 -201 -257 -201 -558v-54z" />
    <glyph glyph-name="eight.OT" horiz-adv-x="540" 
d="M270 -15c-131 0 -227 90 -227 212c0 87 46 160 115 181v4c-55 21 -91 78 -91 147c0 108 87 186 203 186c117 0 203 -78 203 -186c0 -69 -36 -126 -91 -147v-4c69 -21 115 -94 115 -181c0 -122 -94 -212 -227 -212zM270 427c49 0 82 37 82 92s-33 92 -82 92
c-48 0 -82 -37 -82 -92s33 -92 82 -92zM270 89c63 0 105 49 105 118s-42 118 -105 118c-61 0 -105 -47 -105 -118s44 -118 105 -118z" />
    <glyph glyph-name="nine.OT" horiz-adv-x="540" 
d="M42 345c0 133 100 230 233 230c132 0 228 -94 228 -226c0 -45 -12 -91 -49 -182l-123 -307h-132l126 298h-4c-20 -21 -53 -32 -89 -32c-106 0 -190 96 -190 219zM167 347c0 -73 43 -122 107 -122c67 0 110 49 110 122c0 72 -43 121 -110 121c-64 0 -107 -48 -107 -121z
" />
    <glyph glyph-name="zero.superior" unicode="&#x2070;" 
d="M177 311c-99 0 -154 66 -154 182v74c0 116 55 182 154 182s153 -66 153 -182v-74c0 -116 -54 -182 -153 -182zM177 392c39 0 58 32 58 96v84c0 64 -19 96 -58 96s-59 -32 -59 -96v-84c0 -64 20 -96 59 -96z" />
    <glyph glyph-name="one.superior" unicode="&#xb9;" 
d="M58 320v78h93v186h-104v79h38c44 0 66 21 66 63v14h94v-342h93v-78h-280z" />
    <glyph glyph-name="two.superior" unicode="&#xb2;" 
d="M326 320h-289v67c0 165 198 143 198 234c0 29 -18 47 -49 47c-37 0 -59 -27 -59 -80l-90 7c0 95 58 154 151 154c87 0 143 -50 143 -126c0 -146 -200 -133 -200 -219v-6h195v-78z" />
    <glyph glyph-name="three.superior" unicode="&#xb3;" 
d="M183 311c-89 0 -152 58 -155 135l91 12c3 -41 28 -66 64 -66c35 0 56 23 56 59c0 38 -21 57 -63 57c-10 0 -18 -1 -25 -2v72h12c40 0 64 18 64 47c0 25 -21 43 -50 43c-28 0 -49 -16 -54 -47l-90 12c8 71 64 116 145 116c83 0 143 -46 143 -111c0 -37 -21 -68 -56 -83v-2
c44 -12 70 -50 70 -103c0 -81 -63 -139 -152 -139z" />
    <glyph glyph-name="four.superior" unicode="&#x2074;" 
d="M189 582h94v-102h54v-78h-54v-82h-94v82h-161v123l112 215h98l-138 -257v-3h89v102z" />
    <glyph glyph-name="five.superior" unicode="&#x2075;" 
d="M180 311c-82 0 -145 53 -149 121l90 16c7 -37 27 -56 58 -56c36 0 57 26 57 70c0 43 -19 66 -54 66c-23 0 -39 -10 -50 -30h-87v242h276v-78h-183v-100h3c18 31 45 46 82 46c64 0 109 -56 109 -139c0 -95 -61 -158 -152 -158z" />
    <glyph glyph-name="six.superior" unicode="&#x2076;" 
d="M328 452c0 -82 -65 -141 -154 -141c-43 0 -78 13 -107 38c-28 26 -42 59 -42 98c0 27 8 54 29 109l74 184h102l-74 -172h2c12 10 28 15 48 15c67 0 122 -58 122 -131zM232 450c0 35 -22 60 -57 60s-58 -24 -58 -60c0 -35 25 -61 58 -61c35 0 57 25 57 61z" />
    <glyph glyph-name="seven.superior" unicode="&#x2077;" 
d="M204 320h-93v16c0 205 120 279 120 320v6h-194v78h288v-64c0 -101 -121 -152 -121 -328v-28z" />
    <glyph glyph-name="eight.superior" unicode="&#x2078;" 
d="M177 311c-89 0 -153 55 -153 128c0 51 31 95 76 107v2c-39 13 -63 45 -63 88c0 67 57 113 140 113s139 -46 139 -113c0 -43 -24 -75 -63 -88v-2c45 -12 77 -56 77 -107c0 -73 -64 -128 -153 -128zM177 581c29 0 47 18 47 46s-18 46 -47 46s-48 -18 -48 -46s19 -46 48 -46
zM177 388c36 0 59 23 59 59c0 35 -24 59 -59 59c-36 0 -60 -23 -60 -59c0 -37 24 -59 60 -59z" />
    <glyph glyph-name="nine.superior" unicode="&#x2079;" 
d="M25 608c0 82 66 141 154 141c87 0 149 -57 149 -136c0 -27 -6 -54 -29 -109l-74 -184h-102l74 172h-2c-12 -10 -28 -15 -48 -15c-67 0 -122 59 -122 131zM121 610c0 -35 24 -60 57 -60c35 0 58 24 58 60c0 35 -23 61 -58 61c-33 0 -57 -25 -57 -61z" />
    <glyph glyph-name="plus.superior" unicode="&#x207a;" horiz-adv-x="360" 
d="M34 494v73h110v116h72v-116h111v-73h-111v-116h-72v116h-110z" />
    <glyph glyph-name="minus.superior" unicode="&#x207b;" horiz-adv-x="360" 
d="M58 494v72h245v-72h-245z" />
    <glyph glyph-name="equal.superior" unicode="&#x207c;" horiz-adv-x="360" 
d="M46 565v73h269v-73h-269zM46 423v72h269v-72h-269z" />
    <glyph glyph-name="parenleft.superior" unicode="&#x207d;" horiz-adv-x="214" 
d="M114 530c0 -91 29 -180 84 -252h-82c-56 63 -88 155 -88 252c0 99 32 189 88 252h82c-55 -72 -84 -161 -84 -252z" />
    <glyph glyph-name="parenright.superior" unicode="&#x207e;" horiz-adv-x="214" 
d="M100 530c0 91 -29 180 -84 252h82c56 -63 88 -153 88 -252c0 -97 -32 -189 -88 -252h-82c55 72 84 161 84 252z" />
    <glyph glyph-name="zero.inferior" unicode="&#x2080;" 
d="M177 -69c-99 0 -154 66 -154 182v74c0 116 55 182 154 182s153 -66 153 -182v-74c0 -116 -54 -182 -153 -182zM177 12c39 0 58 32 58 96v84c0 64 -19 96 -58 96s-59 -32 -59 -96v-84c0 -64 20 -96 59 -96z" />
    <glyph glyph-name="one.inferior" unicode="&#x2081;" 
d="M58 -60v78h93v186h-104v79h38c44 0 66 21 66 63v14h94v-342h93v-78h-280z" />
    <glyph glyph-name="two.inferior" unicode="&#x2082;" 
d="M326 -60h-289v67c0 165 198 143 198 234c0 29 -18 47 -49 47c-37 0 -59 -27 -59 -80l-90 7c0 95 58 154 151 154c87 0 143 -50 143 -126c0 -146 -200 -133 -200 -219v-6h195v-78z" />
    <glyph glyph-name="three.inferior" unicode="&#x2083;" 
d="M183 -69c-89 0 -152 58 -155 135l91 12c3 -41 28 -66 64 -66c35 0 56 23 56 59c0 38 -21 57 -63 57c-10 0 -18 -1 -25 -2v72h12c40 0 64 18 64 47c0 25 -21 43 -50 43c-28 0 -49 -16 -54 -47l-90 12c8 71 64 116 145 116c83 0 143 -46 143 -111c0 -37 -21 -68 -56 -83v-2
c44 -12 70 -50 70 -103c0 -81 -63 -139 -152 -139z" />
    <glyph glyph-name="four.inferior" unicode="&#x2084;" 
d="M189 202h94v-102h54v-78h-54v-82h-94v82h-161v123l112 215h98l-138 -257v-3h89v102z" />
    <glyph glyph-name="five.inferior" unicode="&#x2085;" 
d="M180 -69c-82 0 -145 53 -149 121l90 16c7 -37 27 -56 58 -56c36 0 57 26 57 70c0 43 -19 66 -54 66c-23 0 -39 -10 -50 -30h-87v242h276v-78h-183v-100h3c18 31 45 46 82 46c64 0 109 -56 109 -139c0 -95 -61 -158 -152 -158z" />
    <glyph glyph-name="six.inferior" unicode="&#x2086;" 
d="M328 72c0 -82 -65 -141 -154 -141c-43 0 -78 13 -107 39c-28 25 -42 58 -42 97c0 27 8 54 29 109l74 184h102l-74 -172h2c12 10 28 15 48 15c67 0 122 -58 122 -131zM232 70c0 35 -22 60 -57 60s-58 -24 -58 -60c0 -35 25 -61 58 -61c35 0 57 25 57 61z" />
    <glyph glyph-name="seven.inferior" unicode="&#x2087;" 
d="M204 -60h-93v16c0 205 120 279 120 320v6h-194v78h288v-64c0 -101 -121 -152 -121 -328v-28z" />
    <glyph glyph-name="eight.inferior" unicode="&#x2088;" 
d="M177 -69c-89 0 -153 55 -153 128c0 51 31 95 76 107v2c-39 13 -63 45 -63 88c0 67 57 113 140 113s139 -46 139 -113c0 -43 -24 -75 -63 -88v-2c45 -12 77 -56 77 -107c0 -73 -64 -128 -153 -128zM177 201c29 0 47 18 47 46s-18 46 -47 46s-48 -18 -48 -46s19 -46 48 -46
zM177 8c36 0 59 23 59 59c0 35 -24 59 -59 59c-36 0 -60 -23 -60 -59c0 -37 24 -59 60 -59z" />
    <glyph glyph-name="nine.inferior" unicode="&#x2089;" 
d="M25 228c0 82 66 141 154 141c87 0 149 -57 149 -136c0 -27 -6 -54 -29 -109l-74 -184h-102l74 172h-2c-12 -10 -28 -15 -48 -15c-67 0 -122 59 -122 131zM121 230c0 -35 24 -60 57 -60c35 0 58 24 58 60c0 35 -23 61 -58 61c-33 0 -57 -25 -57 -61z" />
    <glyph glyph-name="plus.inferior" horiz-adv-x="360" 
d="M34 114v73h110v116h72v-116h111v-73h-111v-116h-72v116h-110z" />
    <glyph glyph-name="minus.inferior" horiz-adv-x="360" 
d="M58 114v72h245v-72h-245z" />
    <glyph glyph-name="equal.inferior" horiz-adv-x="360" 
d="M46 185v73h269v-73h-269zM46 43v72h269v-72h-269z" />
    <glyph glyph-name="parenleft.inferior" unicode="&#x208d;" horiz-adv-x="214" 
d="M114 150c0 -91 29 -180 84 -252h-82c-56 63 -88 155 -88 252c0 99 32 189 88 252h82c-55 -72 -84 -161 -84 -252z" />
    <glyph glyph-name="parenright.inferior" unicode="&#x208e;" horiz-adv-x="214" 
d="M100 150c0 91 -29 180 -84 252h82c56 -63 88 -153 88 -252c0 -97 -32 -189 -88 -252h-82c55 72 84 161 84 252z" />
    <glyph glyph-name="zero.numr" 
d="M177 271c-99 0 -154 66 -154 182v74c0 116 55 182 154 182s153 -66 153 -182v-74c0 -116 -54 -182 -153 -182zM177 352c39 0 58 32 58 96v84c0 64 -19 96 -58 96s-59 -32 -59 -96v-84c0 -64 20 -96 59 -96z" />
    <glyph glyph-name="one.numr" 
d="M58 280v78h93v186h-104v79h38c44 0 66 21 66 63v14h94v-342h93v-78h-280z" />
    <glyph glyph-name="two.numr" 
d="M326 280h-289v67c0 165 198 143 198 234c0 29 -18 47 -49 47c-37 0 -59 -27 -59 -80l-90 7c0 95 58 154 151 154c87 0 143 -50 143 -126c0 -146 -200 -133 -200 -219v-6h195v-78z" />
    <glyph glyph-name="three.numr" 
d="M183 271c-89 0 -152 58 -155 135l91 12c3 -41 28 -66 64 -66c35 0 56 23 56 59c0 38 -21 57 -63 57c-10 0 -18 -1 -25 -2v72h12c40 0 64 18 64 47c0 25 -21 43 -50 43c-28 0 -49 -16 -54 -47l-90 12c8 71 64 116 145 116c83 0 143 -46 143 -111c0 -37 -21 -68 -56 -83v-2
c44 -12 70 -50 70 -103c0 -81 -63 -139 -152 -139z" />
    <glyph glyph-name="four.numr" 
d="M189 542h94v-102h54v-78h-54v-82h-94v82h-161v123l112 215h98l-138 -257v-3h89v102z" />
    <glyph glyph-name="five.numr" 
d="M180 271c-82 0 -145 53 -149 121l90 16c7 -37 27 -56 58 -56c36 0 57 26 57 70c0 43 -19 66 -54 66c-23 0 -39 -10 -50 -30h-87v242h276v-78h-183v-100h3c18 31 45 46 82 46c64 0 109 -56 109 -139c0 -95 -61 -158 -152 -158z" />
    <glyph glyph-name="six.numr" 
d="M328 412c0 -82 -65 -141 -154 -141c-43 0 -78 13 -107 38c-28 26 -42 59 -42 98c0 27 8 54 29 109l74 184h102l-74 -172h2c12 10 28 15 48 15c67 0 122 -58 122 -131zM232 410c0 35 -22 60 -57 60s-58 -24 -58 -60c0 -35 25 -61 58 -61c35 0 57 25 57 61z" />
    <glyph glyph-name="seven.numr" 
d="M204 280h-93v16c0 205 120 279 120 320v6h-194v78h288v-64c0 -101 -121 -152 -121 -328v-28z" />
    <glyph glyph-name="eight.numr" 
d="M177 271c-89 0 -153 55 -153 128c0 51 31 95 76 107v2c-39 13 -63 45 -63 88c0 67 57 113 140 113s139 -46 139 -113c0 -43 -24 -75 -63 -88v-2c45 -12 77 -56 77 -107c0 -73 -64 -128 -153 -128zM177 541c29 0 47 18 47 46s-18 46 -47 46s-48 -18 -48 -46s19 -46 48 -46
zM177 348c36 0 59 23 59 59c0 35 -24 59 -59 59c-36 0 -60 -23 -60 -59c0 -37 24 -59 60 -59z" />
    <glyph glyph-name="nine.numr" 
d="M25 568c0 82 66 141 154 141c87 0 149 -57 149 -136c0 -27 -6 -54 -29 -109l-74 -184h-102l74 172h-2c-12 -10 -28 -15 -48 -15c-67 0 -122 59 -122 131zM121 570c0 -35 24 -60 57 -60c35 0 58 24 58 60c0 35 -23 61 -58 61c-33 0 -57 -25 -57 -61z" />
    <glyph glyph-name="zero.dnom" 
d="M177 -9c-99 0 -154 66 -154 182v74c0 116 55 182 154 182s153 -66 153 -182v-74c0 -116 -54 -182 -153 -182zM177 72c39 0 58 32 58 96v84c0 64 -19 96 -58 96s-59 -32 -59 -96v-84c0 -64 20 -96 59 -96z" />
    <glyph glyph-name="one.dnom" 
d="M58 0v78h93v186h-104v79h38c44 0 66 21 66 63v14h94v-342h93v-78h-280z" />
    <glyph glyph-name="two.dnom" 
d="M326 0h-289v67c0 165 198 143 198 234c0 29 -18 47 -49 47c-37 0 -59 -27 -59 -80l-90 7c0 95 58 154 151 154c87 0 143 -50 143 -126c0 -146 -200 -133 -200 -219v-6h195v-78z" />
    <glyph glyph-name="three.dnom" 
d="M183 -9c-89 0 -152 58 -155 135l91 12c3 -41 28 -66 64 -66c35 0 56 23 56 59c0 38 -21 57 -63 57c-10 0 -18 -1 -25 -2v72h12c40 0 64 18 64 47c0 25 -21 43 -50 43c-28 0 -49 -16 -54 -47l-90 12c8 71 64 116 145 116c83 0 143 -46 143 -111c0 -37 -21 -68 -56 -83v-2
c44 -12 70 -50 70 -103c0 -81 -63 -139 -152 -139z" />
    <glyph glyph-name="four.dnom" 
d="M189 262h94v-102h54v-78h-54v-82h-94v82h-161v123l112 215h98l-138 -257v-3h89v102z" />
    <glyph glyph-name="five.dnom" 
d="M180 -9c-82 0 -145 53 -149 121l90 16c7 -37 27 -56 58 -56c36 0 57 26 57 70c0 43 -19 66 -54 66c-23 0 -39 -10 -50 -30h-87v242h276v-78h-183v-100h3c18 31 45 46 82 46c64 0 109 -56 109 -139c0 -95 -61 -158 -152 -158z" />
    <glyph glyph-name="six.dnom" 
d="M328 132c0 -82 -65 -141 -154 -141c-43 0 -78 13 -107 38c-28 26 -42 59 -42 98c0 27 8 54 29 109l74 184h102l-74 -172h2c12 10 28 15 48 15c67 0 122 -58 122 -131zM232 130c0 35 -22 60 -57 60s-58 -24 -58 -60c0 -35 25 -61 58 -61c35 0 57 25 57 61z" />
    <glyph glyph-name="seven.dnom" 
d="M204 0h-93v16c0 205 120 279 120 320v6h-194v78h288v-64c0 -101 -121 -152 -121 -328v-28z" />
    <glyph glyph-name="eight.dnom" 
d="M177 -9c-89 0 -153 55 -153 128c0 51 31 95 76 107v2c-39 13 -63 45 -63 88c0 67 57 113 140 113s139 -46 139 -113c0 -43 -24 -75 -63 -88v-2c45 -12 77 -56 77 -107c0 -73 -64 -128 -153 -128zM177 261c29 0 47 18 47 46s-18 46 -47 46s-48 -18 -48 -46s19 -46 48 -46z
M177 68c36 0 59 23 59 59c0 35 -24 59 -59 59c-36 0 -60 -23 -60 -59c0 -37 24 -59 60 -59z" />
    <glyph glyph-name="nine.dnom" 
d="M25 288c0 82 66 141 154 141c87 0 149 -57 149 -136c0 -27 -6 -54 -29 -109l-74 -184h-102l74 172h-2c-12 -10 -28 -15 -48 -15c-67 0 -122 59 -122 131zM121 290c0 -35 24 -60 57 -60c35 0 58 24 58 60c0 35 -23 61 -58 61c-33 0 -57 -25 -57 -61z" />
    <glyph glyph-name="fraction" unicode="&#x2044;" horiz-adv-x="210" 
d="M390 700l-466 -700h-104l465 700h105z" />
    <glyph glyph-name="fraction.osf" horiz-adv-x="377" 
d="M437 559l-400 -559h-97l401 559h96z" />
    <glyph glyph-name="onequarter" unicode="&#xbc;" horiz-adv-x="920" 
d="M787 700l-466 -700h-104l465 700h105zM756 262h94v-102h54v-78h-54v-82h-94v82h-161v123l112 215h98l-138 -257v-3h89v102zM58 280v78h93v186h-104v79h38c44 0 66 21 66 63v14h94v-342h93v-78h-280z" />
    <glyph glyph-name="onehalf" unicode="&#xbd;" horiz-adv-x="943" 
d="M787 700l-466 -700h-104l465 700h105zM916 0h-289v67c0 165 198 143 198 234c0 29 -18 47 -49 47c-37 0 -59 -27 -59 -80l-90 7c0 95 58 154 151 154c87 0 143 -50 143 -126c0 -146 -200 -133 -200 -219v-6h195v-78zM58 280v78h93v186h-104v79h38c44 0 66 21 66 63v14h94
v-342h93v-78h-280z" />
    <glyph glyph-name="threequarters" unicode="&#xbe;" horiz-adv-x="884" 
d="M183 271c-89 0 -152 58 -155 135l91 12c3 -41 28 -66 64 -66c35 0 56 23 56 59c0 38 -21 57 -63 57c-10 0 -18 -1 -25 -2v72h12c40 0 64 18 64 47c0 25 -21 43 -50 43c-28 0 -49 -16 -54 -47l-90 12c8 71 64 116 145 116c83 0 143 -46 143 -111c0 -37 -21 -68 -56 -83v-2
c44 -12 70 -50 70 -103c0 -81 -63 -139 -152 -139zM752 700l-466 -700h-104l465 700h105zM720 262h94v-102h54v-78h-54v-82h-94v82h-161v123l112 215h98l-138 -257v-3h89v102z" />
    <glyph glyph-name="comma.tab" horiz-adv-x="270" 
d="M131 -130h-69l60 134c-37 5 -63 32 -63 71c0 45 30 74 75 74c47 0 77 -31 77 -75c0 -23 -8 -47 -39 -108z" />
    <glyph glyph-name="period.tab" horiz-adv-x="270" 
d="M57 63c0 47 33 78 78 78s77 -31 77 -78c0 -45 -32 -78 -77 -78s-78 33 -78 78z" />
    <glyph glyph-name="percent" unicode="%" horiz-adv-x="864" 
d="M380 522c0 -119 -64 -193 -167 -193s-169 74 -169 193s66 193 169 193s167 -74 167 -193zM719 700l-466 -700h-104l465 700h105zM282 522c0 71 -25 111 -69 111c-45 0 -71 -40 -71 -111s26 -111 71 -111c44 0 69 40 69 111zM819 178c0 -119 -64 -193 -167 -193
s-169 74 -169 193s66 193 169 193s167 -74 167 -193zM721 178c0 71 -25 111 -69 111c-45 0 -70 -40 -70 -111s25 -111 70 -111c44 0 69 40 69 111z" />
    <glyph glyph-name="perthousand" unicode="&#x2030;" horiz-adv-x="1239" 
d="M380 522c0 -119 -64 -193 -167 -193s-169 74 -169 193s66 193 169 193s167 -74 167 -193zM719 700l-466 -700h-104l465 700h105zM282 522c0 71 -25 111 -69 111c-45 0 -71 -40 -71 -111s26 -111 71 -111c44 0 69 40 69 111zM1195 178c0 -119 -65 -193 -168 -193
s-168 74 -168 193s65 193 168 193s168 -74 168 -193zM819 178c0 -119 -64 -193 -167 -193s-169 74 -169 193s66 193 169 193s167 -74 167 -193zM1097 178c0 71 -26 111 -70 111s-70 -40 -70 -111s26 -111 70 -111s70 40 70 111zM721 178c0 71 -25 111 -69 111
c-45 0 -70 -40 -70 -111s25 -111 70 -111c44 0 69 40 69 111z" />
    <glyph glyph-name="percent.osf" horiz-adv-x="802" 
d="M37 398c0 108 63 171 151 171c87 0 150 -63 150 -171c0 -105 -63 -171 -150 -171c-88 0 -151 66 -151 171zM651 559l-400 -559h-97l401 559h96zM126 398c0 -62 21 -93 62 -93c39 0 61 34 61 93c0 60 -22 95 -61 95c-40 0 -62 -34 -62 -95zM464 156c0 107 63 171 150 171
c88 0 150 -64 150 -171s-63 -171 -150 -171s-150 64 -150 171zM553 156c0 -63 20 -94 61 -94c40 0 62 34 62 94s-22 95 -62 95c-39 0 -61 -34 -61 -95z" />
    <glyph glyph-name="perthousand.osf" horiz-adv-x="1141" 
d="M37 398c0 108 63 171 151 171c87 0 150 -63 150 -171c0 -105 -63 -171 -150 -171c-88 0 -151 66 -151 171zM651 559l-400 -559h-97l401 559h96zM126 398c0 -62 21 -93 62 -93c39 0 61 34 61 93c0 60 -22 95 -61 95c-40 0 -62 -34 -62 -95zM803 156c0 107 62 171 150 171
s150 -64 150 -171s-63 -171 -150 -171s-150 64 -150 171zM464 156c0 107 63 171 150 171c88 0 150 -64 150 -171s-63 -171 -150 -171s-150 64 -150 171zM891 156c0 -61 23 -94 62 -94s62 34 62 94s-23 95 -62 95s-62 -34 -62 -95zM553 156c0 -63 20 -94 61 -94
c40 0 62 34 62 94s-22 95 -62 95c-39 0 -61 -34 -61 -95z" />
    <glyph glyph-name="plus" unicode="+" horiz-adv-x="600" 
d="M56 296v97h195v206h98v-206h196v-97h-196v-206h-98v206h-195z" />
    <glyph glyph-name="minus" unicode="&#x2212;" horiz-adv-x="600" 
d="M96 296v97h409v-97h-409z" />
    <glyph glyph-name="plusminus" unicode="&#xb1;" horiz-adv-x="600" 
d="M96 389v96h155v130h98v-130h156v-96h-156v-130h-98v130h-155zM96 74v98h409v-98h-409z" />
    <glyph glyph-name="multiply" unicode="&#xd7;" horiz-adv-x="600" 
d="M78 498l69 69l153 -153l156 157l69 -69l-156 -157l153 -153l-69 -69l-153 153l-156 -156l-69 69l156 156z" />
    <glyph glyph-name="divide" unicode="&#xf7;" horiz-adv-x="600" 
d="M231 538c0 43 29 70 69 70c43 0 69 -27 69 -70c0 -41 -26 -69 -69 -69c-40 0 -69 28 -69 69zM505 296h-409v97h409v-97zM231 150c0 43 29 70 69 70c43 0 69 -27 69 -70c0 -41 -26 -69 -69 -69c-40 0 -69 28 -69 69z" />
    <glyph glyph-name="equal" unicode="=" horiz-adv-x="600" 
d="M76 416v96h449v-96h-449zM76 178v96h449v-96h-449z" />
    <glyph glyph-name="notequal" unicode="&#x2260;" horiz-adv-x="600" 
d="M76 178v96h144l58 142h-202v96h241l66 161h102l-66 -161h106v-96h-145l-58 -142h203v-96h-242l-66 -163h-102l66 163h-105z" />
    <glyph glyph-name="asciitilde" unicode="~" horiz-adv-x="600" 
d="M402 265c-73 0 -123 60 -185 60c-35 0 -54 -19 -58 -56h-83c0 95 48 156 123 156c73 0 125 -60 185 -60c35 0 54 19 58 56h83c0 -95 -48 -156 -123 -156z" />
    <glyph glyph-name="approxequal" unicode="&#x2248;" horiz-adv-x="600" 
d="M402 373c-73 0 -123 60 -185 60c-35 0 -54 -19 -58 -56h-83c0 95 48 156 123 156c73 0 125 -60 185 -60c35 0 54 19 58 56h83c0 -95 -48 -156 -123 -156zM402 156c-73 0 -123 60 -185 60c-35 0 -54 -19 -58 -56h-83c0 95 48 156 123 156c73 0 125 -60 185 -60
c35 0 54 19 58 56h83c0 -95 -48 -156 -123 -156z" />
    <glyph glyph-name="asciicircum" unicode="^" horiz-adv-x="600" 
d="M542 194h-103l-137 378h-4l-137 -378h-103l186 506h112z" />
    <glyph glyph-name="less" unicode="&#x3c;" horiz-adv-x="600" 
d="M530 117l-457 158v140l457 157v-104l-364 -121v-5l364 -120v-105z" />
    <glyph glyph-name="greater" unicode="&#x3e;" horiz-adv-x="600" 
d="M73 572l457 -158v-140l-457 -157v104l364 121v5l-364 120v105z" />
    <glyph glyph-name="lessequal" unicode="&#x2264;" horiz-adv-x="600" 
d="M530 204l-457 140v140l457 139v-101l-359 -106v-5l359 -106v-101zM70 66v98h460v-98h-460z" />
    <glyph glyph-name="greaterequal" unicode="&#x2265;" horiz-adv-x="600" 
d="M70 204v101l359 106v5l-359 106v101l457 -139v-140zM530 66h-460v98h460v-98z" />
    <glyph glyph-name="logicalnot" unicode="&#xac;" horiz-adv-x="600" 
d="M541 93h-97v203h-394v97h491v-300z" />
    <glyph glyph-name="currency" unicode="&#xa4;" horiz-adv-x="600" 
d="M300 157c-34 0 -65 8 -93 25l-84 -84l-69 69l83 83c-15 27 -24 60 -24 95s9 66 24 93l-83 82l69 69l83 -82c27 15 59 24 94 24s68 -9 93 -24l85 84l69 -69l-85 -84c17 -28 25 -59 25 -93c0 -35 -8 -67 -25 -95l85 -84l-69 -69l-85 85c-28 -17 -59 -25 -93 -25zM300 239
c63 0 105 44 105 105c0 63 -42 104 -105 104c-61 0 -105 -41 -105 -104c0 -61 44 -105 105 -105z" />
    <glyph glyph-name="infinity" unicode="&#x221e;" horiz-adv-x="855" 
d="M628 147c-92 0 -151 58 -201 124c-48 -67 -107 -124 -201 -124c-112 0 -189 85 -189 198c0 114 77 198 189 198c94 0 154 -57 202 -124c50 66 107 124 200 124c113 0 190 -84 190 -198c0 -113 -77 -198 -190 -198zM128 346c0 -65 45 -109 102 -109c63 0 104 50 145 107
c-41 59 -85 108 -148 108c-57 0 -99 -41 -99 -106zM626 237c59 0 101 44 101 109s-42 106 -99 106c-63 0 -105 -48 -148 -107c43 -59 85 -108 146 -108z" />
    <glyph glyph-name="lozenge" unicode="&#x25ca;" horiz-adv-x="526" 
d="M492 344l-168 -349h-122l-166 349l166 349h122zM388 344l-125 276l-125 -276l125 -275z" />
    <glyph glyph-name="increment" unicode="&#x2206;" horiz-adv-x="664" 
d="M419 700l225 -700h-625l225 700h175zM327 607l-149 -500h303l-150 500h-4z" />
    <glyph glyph-name="Omega" unicode="&#x3a9;" horiz-adv-x="697" 
d="M651 0h-260v156c38 9 69 35 92 76c24 41 36 91 36 149c0 134 -69 224 -170 224s-169 -90 -169 -224c0 -58 12 -108 35 -149s54 -67 92 -76v-156h-261v103h159v4c-92 34 -153 146 -153 281c0 189 121 327 297 327c177 0 297 -139 297 -328c0 -135 -60 -248 -154 -280v-4
h159v-103z" />
    <glyph glyph-name="partialdiff" unicode="&#x2202;" horiz-adv-x="565" 
d="M283 -15c-144 0 -244 105 -244 253c0 144 94 249 224 249c56 0 100 -21 132 -57l4 1c-28 119 -92 182 -192 182c-36 0 -71 -9 -105 -26l-8 102c33 17 74 26 123 26c193 0 314 -154 314 -396c0 -211 -92 -334 -248 -334zM286 87c73 0 123 62 123 151s-49 149 -124 149
s-125 -60 -125 -149s51 -151 126 -151z" />
    <glyph glyph-name="integral" unicode="&#x222b;" horiz-adv-x="301" 
d="M2 -190v87h33c48 0 67 25 67 90v610c0 95 50 153 146 153h51v-87h-33c-48 0 -67 -23 -67 -90v-610c0 -95 -50 -153 -146 -153h-51z" />
    <glyph glyph-name="radical" unicode="&#x221a;" horiz-adv-x="561" 
d="M328 -103h-79l-151 421l-66 -23l-28 92l163 54l113 -310h4l165 672h104z" />
    <glyph glyph-name="summation" unicode="&#x2211;" horiz-adv-x="610" 
d="M569 -155h-484v143l217 335l-217 300v112h474v-107h-325v-5l215 -294v-9l-239 -364v-4h359v-107z" />
    <glyph glyph-name="product" unicode="&#x220f;" horiz-adv-x="709" 
d="M624 735v-890h-123v783h-291v-783h-125v890h539z" />
    <glyph glyph-name="pi" unicode="&#x3c0;" horiz-adv-x="645" 
d="M527 0c-84 0 -130 34 -130 139v303h-165v-442h-119v442h-77v98h567v-98h-87v-281c0 -42 18 -63 55 -63h32v-98h-76z" />
    <glyph glyph-name="mu.math" unicode="&#xb5;" horiz-adv-x="574" 
d="M76 -190v419h1v311h119v-354c0 -57 32 -95 87 -95c71 0 118 63 118 164v285h119v-540h-111v101h-4c-28 -77 -81 -116 -160 -116c-18 0 -35 2 -50 6v-181h-119z" />
    <glyph glyph-name="degree" unicode="&#xb0;" horiz-adv-x="370" 
d="M185 440c-76 0 -136 57 -136 138c0 79 60 137 136 137s137 -58 137 -137c0 -81 -61 -138 -137 -138zM185 503c40 0 73 32 73 75s-33 74 -73 74c-41 0 -72 -31 -72 -74s31 -75 72 -75z" />
    <glyph glyph-name="litre" unicode="&#x2113;" horiz-adv-x="444" 
d="M243 -15c-98 0 -147 61 -147 184v4c-13 -8 -28 -15 -43 -23l-33 72c28 15 53 28 76 41v217c0 152 60 235 165 235c95 0 151 -66 151 -185c0 -118 -53 -199 -219 -301v-68c0 -68 26 -97 69 -97c32 0 63 16 90 43l38 -61c-45 -41 -94 -61 -147 -61zM193 481v-159
c104 72 130 122 130 212c0 65 -20 103 -60 103c-45 0 -70 -48 -70 -156z" />
    <glyph glyph-name="estimated" unicode="&#x212e;" horiz-adv-x="838" 
d="M423 -15c-218 0 -394 164 -394 365c0 204 176 365 394 365s395 -161 395 -365c0 -5 0 -22 -1 -25h-571v-218c50 -33 109 -50 177 -50c107 0 203 47 268 134h88c-64 -124 -201 -206 -356 -206zM246 593v-196h351v198c-45 31 -108 48 -173 48c-68 0 -131 -19 -178 -50z" />
    <glyph glyph-name="ampersand" unicode="&#x26;" horiz-adv-x="688" 
d="M246 -15c-123 0 -217 86 -217 208c0 87 49 158 147 213c-46 50 -69 100 -69 150c0 90 82 159 190 159c106 0 188 -68 188 -156c0 -68 -47 -126 -141 -175l127 -141l178 181v-151l-108 -107l149 -166h-155l-76 86c-73 -69 -138 -101 -213 -101zM271 465l12 -13
c63 35 87 61 87 94c0 39 -30 66 -70 66s-68 -27 -68 -66c0 -24 11 -48 39 -81zM153 198c0 -64 42 -110 103 -110c47 0 88 26 136 74l-150 169c-59 -33 -89 -77 -89 -133z" />
    <glyph glyph-name="fi.cap" horiz-adv-x="871" 
d="M552 700v-107h-342v-170h240v-107h-240v-316h-125v700h467zM787 700v-700h-125v700h125z" />
    <glyph glyph-name="fl.cap" horiz-adv-x="1116" 
d="M552 700v-107h-342v-170h240v-107h-240v-316h-125v700h467zM662 700h125v-593h303v-107h-428v700z" />
    <glyph glyph-name="a.alt" horiz-adv-x="593" 
d="M39 269c0 171 88 286 212 286c66 0 116 -29 149 -87h4v72h119v-540h-111v95h-5c-28 -69 -83 -110 -158 -110c-124 0 -210 116 -210 284zM159 270c0 -109 51 -183 128 -183c71 0 120 63 120 148v71c0 88 -48 146 -119 146c-77 0 -129 -71 -129 -182z" />
    <glyph glyph-name="agrave.alt" horiz-adv-x="593" 
d="M232 604l-115 131h125l86 -131h-96zM39 269c0 171 88 286 212 286c66 0 116 -29 149 -87h4v72h119v-540h-111v95h-5c-28 -69 -83 -110 -158 -110c-124 0 -210 116 -210 284zM159 270c0 -109 51 -183 128 -183c71 0 120 63 120 148v71c0 88 -48 146 -119 146
c-77 0 -129 -71 -129 -182z" />
    <glyph glyph-name="aacute.alt" horiz-adv-x="593" 
d="M326 604h-95l86 131h125zM39 269c0 171 88 286 212 286c66 0 116 -29 149 -87h4v72h119v-540h-111v95h-5c-28 -69 -83 -110 -158 -110c-124 0 -210 116 -210 284zM159 270c0 -109 51 -183 128 -183c71 0 120 63 120 148v71c0 88 -48 146 -119 146
c-77 0 -129 -71 -129 -182z" />
    <glyph glyph-name="acircumflex.alt" horiz-adv-x="593" 
d="M457 604h-100l-76 83h-4l-74 -83h-99l112 131h128zM39 269c0 171 88 286 212 286c66 0 116 -29 149 -87h4v72h119v-540h-111v95h-5c-28 -69 -83 -110 -158 -110c-124 0 -210 116 -210 284zM159 270c0 -109 51 -183 128 -183c71 0 120 63 120 148v71
c0 88 -48 146 -119 146c-77 0 -129 -71 -129 -182z" />
    <glyph glyph-name="atilde.alt" horiz-adv-x="593" 
d="M359 606c-58 0 -113 51 -150 51c-21 0 -33 -15 -36 -46h-70c3 79 39 123 96 123c60 0 112 -51 150 -51c21 0 33 15 36 46h70c-3 -79 -37 -123 -96 -123zM39 269c0 171 88 286 212 286c66 0 116 -29 149 -87h4v72h119v-540h-111v95h-5c-28 -69 -83 -110 -158 -110
c-124 0 -210 116 -210 284zM159 270c0 -109 51 -183 128 -183c71 0 120 63 120 148v71c0 88 -48 146 -119 146c-77 0 -129 -71 -129 -182z" />
    <glyph glyph-name="adieresis.alt" horiz-adv-x="593" 
d="M120 672c0 35 25 57 60 57s59 -22 59 -57c0 -33 -24 -57 -59 -57s-60 24 -60 57zM319 672c0 35 27 57 60 57c35 0 59 -22 59 -57c0 -33 -24 -57 -59 -57c-33 0 -60 24 -60 57zM39 269c0 171 88 286 212 286c66 0 116 -29 149 -87h4v72h119v-540h-111v95h-5
c-28 -69 -83 -110 -158 -110c-124 0 -210 116 -210 284zM159 270c0 -109 51 -183 128 -183c71 0 120 63 120 148v71c0 88 -48 146 -119 146c-77 0 -129 -71 -129 -182z" />
    <glyph glyph-name="amacron.alt" horiz-adv-x="593" 
d="M425 634h-292v75h292v-75zM39 269c0 171 88 286 212 286c66 0 116 -29 149 -87h4v72h119v-540h-111v95h-5c-28 -69 -83 -110 -158 -110c-124 0 -210 116 -210 284zM159 270c0 -109 51 -183 128 -183c71 0 120 63 120 148v71c0 88 -48 146 -119 146
c-77 0 -129 -71 -129 -182z" />
    <glyph glyph-name="abreve.alt" horiz-adv-x="593" 
d="M279 604c-81 0 -139 51 -142 128h86c1 -33 23 -54 56 -54c32 0 55 21 56 54h86c-1 -77 -59 -128 -142 -128zM39 269c0 171 88 286 212 286c66 0 116 -29 149 -87h4v72h119v-540h-111v95h-5c-28 -69 -83 -110 -158 -110c-124 0 -210 116 -210 284zM159 270
c0 -109 51 -183 128 -183c71 0 120 63 120 148v71c0 88 -48 146 -119 146c-77 0 -129 -71 -129 -182z" />
    <glyph glyph-name="aring.alt" horiz-adv-x="593" 
d="M279 584c-69 0 -123 43 -123 107c0 63 54 106 123 106c71 0 123 -43 123 -106c0 -64 -52 -107 -123 -107zM279 644c28 0 45 22 45 47c0 27 -17 46 -45 46s-45 -19 -45 -46c0 -25 17 -47 45 -47zM39 269c0 171 88 286 212 286c66 0 116 -29 149 -87h4v72h119v-540h-111v95
h-5c-28 -69 -83 -110 -158 -110c-124 0 -210 116 -210 284zM159 270c0 -109 51 -183 128 -183c71 0 120 63 120 148v71c0 88 -48 146 -119 146c-77 0 -129 -71 -129 -182z" />
    <glyph glyph-name="aringacute.alt" horiz-adv-x="593" 
d="M326 813h-96l71 106h125zM279 578c-69 0 -123 43 -123 107c0 63 54 106 123 106c71 0 123 -43 123 -106c0 -64 -52 -107 -123 -107zM279 638c28 0 45 22 45 47c0 27 -17 46 -45 46s-45 -19 -45 -46c0 -25 17 -47 45 -47zM39 269c0 171 88 286 212 286
c66 0 116 -29 149 -87h4v72h119v-540h-111v95h-5c-28 -69 -83 -110 -158 -110c-124 0 -210 116 -210 284zM159 270c0 -109 51 -183 128 -183c71 0 120 63 120 148v71c0 88 -48 146 -119 146c-77 0 -129 -71 -129 -182z" />
    <glyph glyph-name="aogonek.alt" horiz-adv-x="593" 
d="M39 269c0 171 88 286 212 286c66 0 116 -29 149 -87h4v72h119v-540c-65 -32 -93 -53 -93 -77c0 -20 14 -30 41 -30h52v-83h-98c-65 0 -104 33 -104 82c0 45 30 85 91 121v82h-5c-28 -69 -83 -110 -158 -110c-124 0 -210 116 -210 284zM159 270c0 -109 51 -183 128 -183
c71 0 120 63 120 148v71c0 88 -48 146 -119 146c-77 0 -129 -71 -129 -182z" />
    <glyph glyph-name="a.superior.alt" horiz-adv-x="417" 
d="M24 511c0 119 61 199 146 199c45 0 79 -19 100 -58h4v48h96v-375h-90v64h-3c-19 -48 -58 -74 -107 -74c-86 0 -146 81 -146 196zM121 513c0 -69 33 -116 82 -116c44 0 74 37 74 93v45c0 55 -30 93 -75 93c-48 0 -81 -46 -81 -115z" />
    <glyph glyph-name="g.alt" horiz-adv-x="551" 
d="M279 -190c-160 0 -258 50 -258 130c0 51 40 90 108 103v4c-29 15 -47 41 -47 76c0 41 25 73 68 88v4c-63 27 -101 84 -101 156c0 109 87 184 212 184c63 0 115 -18 151 -46h4l3 17c9 46 40 69 93 69h33v-96h-25c-33 0 -46 -10 -57 -49c15 -21 20 -48 20 -79
c0 -109 -85 -183 -211 -183c-25 0 -48 3 -68 8c-18 -5 -27 -17 -27 -34c0 -22 17 -35 51 -38l163 -15c99 -9 154 -54 154 -129c0 -103 -105 -170 -266 -170zM267 277c60 0 101 37 101 94c0 59 -40 95 -101 95s-102 -36 -102 -95c0 -57 41 -94 102 -94zM283 -100
c87 0 141 24 141 61c0 25 -24 39 -79 44l-133 12c-49 4 -84 -8 -84 -44c0 -45 59 -73 155 -73z" />
    <glyph glyph-name="gcircumflex.alt" horiz-adv-x="551" 
d="M446 604h-100l-76 83h-4l-74 -83h-99l112 131h128zM279 -190c-160 0 -258 50 -258 130c0 51 40 90 108 103v4c-29 15 -47 41 -47 76c0 41 25 73 68 88v4c-63 27 -101 84 -101 156c0 109 87 184 212 184c63 0 115 -18 151 -46h4l3 17c9 46 40 69 93 69h33v-96h-25
c-33 0 -46 -10 -57 -49c15 -21 20 -48 20 -79c0 -109 -85 -183 -211 -183c-25 0 -48 3 -68 8c-18 -5 -27 -17 -27 -34c0 -22 17 -35 51 -38l163 -15c99 -9 154 -54 154 -129c0 -103 -105 -170 -266 -170zM267 277c60 0 101 37 101 94c0 59 -40 95 -101 95s-102 -36 -102 -95
c0 -57 41 -94 102 -94zM283 -100c87 0 141 24 141 61c0 25 -24 39 -79 44l-133 12c-49 4 -84 -8 -84 -44c0 -45 59 -73 155 -73z" />
    <glyph glyph-name="gbreve.alt" horiz-adv-x="551" 
d="M268 604c-81 0 -139 51 -142 128h86c1 -33 23 -54 56 -54c32 0 55 21 56 54h86c-1 -77 -59 -128 -142 -128zM279 -190c-160 0 -258 50 -258 130c0 51 40 90 108 103v4c-29 15 -47 41 -47 76c0 41 25 73 68 88v4c-63 27 -101 84 -101 156c0 109 87 184 212 184
c63 0 115 -18 151 -46h4l3 17c9 46 40 69 93 69h33v-96h-25c-33 0 -46 -10 -57 -49c15 -21 20 -48 20 -79c0 -109 -85 -183 -211 -183c-25 0 -48 3 -68 8c-18 -5 -27 -17 -27 -34c0 -22 17 -35 51 -38l163 -15c99 -9 154 -54 154 -129c0 -103 -105 -170 -266 -170zM267 277
c60 0 101 37 101 94c0 59 -40 95 -101 95s-102 -36 -102 -95c0 -57 41 -94 102 -94zM283 -100c87 0 141 24 141 61c0 25 -24 39 -79 44l-133 12c-49 4 -84 -8 -84 -44c0 -45 59 -73 155 -73z" />
    <glyph glyph-name="gdotaccent.alt" horiz-adv-x="551" 
d="M209 671c0 35 25 57 60 57s59 -22 59 -57c0 -33 -24 -57 -59 -57s-60 24 -60 57zM279 -190c-160 0 -258 50 -258 130c0 51 40 90 108 103v4c-29 15 -47 41 -47 76c0 41 25 73 68 88v4c-63 27 -101 84 -101 156c0 109 87 184 212 184c63 0 115 -18 151 -46h4l3 17
c9 46 40 69 93 69h33v-96h-25c-33 0 -46 -10 -57 -49c15 -21 20 -48 20 -79c0 -109 -85 -183 -211 -183c-25 0 -48 3 -68 8c-18 -5 -27 -17 -27 -34c0 -22 17 -35 51 -38l163 -15c99 -9 154 -54 154 -129c0 -103 -105 -170 -266 -170zM267 277c60 0 101 37 101 94
c0 59 -40 95 -101 95s-102 -36 -102 -95c0 -57 41 -94 102 -94zM283 -100c87 0 141 24 141 61c0 25 -24 39 -79 44l-133 12c-49 4 -84 -8 -84 -44c0 -45 59 -73 155 -73z" />
    <glyph glyph-name="gcedilla.alt" horiz-adv-x="551" 
d="M238 740h63l-26 -51h9c29 0 48 -18 48 -45c0 -32 -26 -53 -63 -53c-39 0 -62 23 -62 56c0 15 4 30 17 59zM279 -190c-160 0 -258 50 -258 130c0 51 40 90 108 103v4c-29 15 -47 41 -47 76c0 41 25 73 68 88v4c-63 27 -101 84 -101 156c0 109 87 184 212 184
c63 0 115 -18 151 -46h4l3 17c9 46 40 69 93 69h33v-96h-25c-33 0 -46 -10 -57 -49c15 -21 20 -48 20 -79c0 -109 -85 -183 -211 -183c-25 0 -48 3 -68 8c-18 -5 -27 -17 -27 -34c0 -22 17 -35 51 -38l163 -15c99 -9 154 -54 154 -129c0 -103 -105 -170 -266 -170zM267 277
c60 0 101 37 101 94c0 59 -40 95 -101 95s-102 -36 -102 -95c0 -57 41 -94 102 -94zM283 -100c87 0 141 24 141 61c0 25 -24 39 -79 44l-133 12c-49 4 -84 -8 -84 -44c0 -45 59 -73 155 -73z" />
    <glyph glyph-name="g.superior.alt" horiz-adv-x="388" 
d="M195 193c-113 0 -182 35 -182 92c0 36 28 62 76 71v3c-23 10 -34 29 -34 56c0 32 17 53 50 63v3c-45 19 -73 57 -73 106c0 73 61 123 152 123c45 0 83 -12 108 -32h3l2 12c6 33 28 49 65 49h24v-76h-19c-21 0 -30 -6 -35 -27c9 -13 13 -33 13 -52
c0 -73 -62 -122 -151 -122c-17 0 -34 2 -49 5c-10 -3 -15 -10 -15 -21c0 -13 10 -21 30 -23l117 -10c69 -5 109 -40 109 -95c0 -77 -75 -125 -191 -125zM189 523c39 0 63 26 63 63c0 39 -24 63 -63 63c-37 0 -63 -24 -63 -63c0 -37 26 -63 63 -63zM199 254c56 0 88 16 88 45
c0 17 -15 28 -46 32l-96 8c-28 3 -46 -11 -46 -34c0 -31 39 -51 100 -51z" />
    <glyph glyph-name="y.alt" horiz-adv-x="576" 
d="M277 -190c-101 0 -182 40 -223 111l82 59c31 -50 77 -75 138 -75c77 0 123 45 123 121v90h-4c-29 -70 -82 -105 -157 -105c-101 0 -166 69 -166 178v351h119v-328c0 -57 34 -95 87 -95c71 0 119 63 119 164v259h118v-507c0 -140 -85 -223 -236 -223z" />
    <glyph glyph-name="ygrave.alt" horiz-adv-x="576" 
d="M243 604l-115 131h125l86 -131h-96zM277 -190c-101 0 -182 40 -223 111l82 59c31 -50 77 -75 138 -75c77 0 123 45 123 121v90h-4c-29 -70 -82 -105 -157 -105c-101 0 -166 69 -166 178v351h119v-328c0 -57 34 -95 87 -95c71 0 119 63 119 164v259h118v-507
c0 -140 -85 -223 -236 -223z" />
    <glyph glyph-name="yacute.alt" horiz-adv-x="576" 
d="M337 604h-95l86 131h125zM277 -190c-101 0 -182 40 -223 111l82 59c31 -50 77 -75 138 -75c77 0 123 45 123 121v90h-4c-29 -70 -82 -105 -157 -105c-101 0 -166 69 -166 178v351h119v-328c0 -57 34 -95 87 -95c71 0 119 63 119 164v259h118v-507
c0 -140 -85 -223 -236 -223z" />
    <glyph glyph-name="ycircumflex.alt" horiz-adv-x="576" 
d="M468 604h-100l-76 83h-4l-74 -83h-99l112 131h128zM277 -190c-101 0 -182 40 -223 111l82 59c31 -50 77 -75 138 -75c77 0 123 45 123 121v90h-4c-29 -70 -82 -105 -157 -105c-101 0 -166 69 -166 178v351h119v-328c0 -57 34 -95 87 -95c71 0 119 63 119 164v259h118
v-507c0 -140 -85 -223 -236 -223z" />
    <glyph glyph-name="ydieresis.alt" horiz-adv-x="576" 
d="M131 672c0 35 25 57 60 57s59 -22 59 -57c0 -33 -24 -57 -59 -57s-60 24 -60 57zM330 672c0 35 27 57 60 57c35 0 59 -22 59 -57c0 -33 -24 -57 -59 -57c-33 0 -60 24 -60 57zM277 -190c-101 0 -182 40 -223 111l82 59c31 -50 77 -75 138 -75c77 0 123 45 123 121v90h-4
c-29 -70 -82 -105 -157 -105c-101 0 -166 69 -166 178v351h119v-328c0 -57 34 -95 87 -95c71 0 119 63 119 164v259h118v-507c0 -140 -85 -223 -236 -223z" />
    <glyph glyph-name="y.superior.alt" horiz-adv-x="408" 
d="M192 193c-73 0 -131 27 -162 75l65 49c22 -32 53 -48 94 -48c53 0 84 29 84 84v65h-3c-20 -55 -56 -83 -109 -83c-72 0 -115 48 -115 127v238h96v-222c0 -35 21 -57 54 -57c45 0 74 41 74 110v169h97v-344c0 -103 -64 -163 -175 -163z" />
    <glyph glyph-name="dngb_check" unicode="&#x2713;" horiz-adv-x="820" 
d="M289 27l-232 255l50 46l181 -198l422 550l54 -43l-470 -610h-5z" />
    <glyph glyph-name="globeMeridians" unicode="&#x1f310;" horiz-adv-x="824" 
d="M797 350c0 -211 -173 -383 -385 -383c-211 0 -385 172 -385 383c0 212 174 383 385 383c212 0 385 -171 385 -383zM388 684c-56 -13 -92 -64 -116 -115c37 -5 75 -9 116 -9v124zM436 684v-124c41 0 79 4 116 9c-24 51 -60 102 -116 115zM273 659
c-33 -13 -69 -40 -100 -71c16 -4 33 -8 50 -11c11 28 33 59 50 82zM551 659c19 -23 39 -54 50 -82c17 3 34 7 50 11c-29 31 -65 58 -100 71zM180 375c1 56 11 108 26 156c-17 3 -50 11 -67 16c-37 -51 -58 -108 -62 -172h103zM644 375h104c-5 65 -26 122 -63 172
c-17 -5 -48 -13 -67 -16c15 -48 25 -100 26 -156zM388 511c-47 1 -92 5 -134 12c-16 -45 -26 -95 -26 -148h160v136zM436 511v-136h160c0 53 -10 103 -26 148c-42 -7 -87 -11 -134 -12zM180 325h-103c4 -64 25 -121 62 -172c17 7 50 13 67 16c-15 48 -25 100 -26 156z
M388 189v136h-160c0 -53 10 -103 26 -148c42 7 87 11 134 12zM436 189c47 -1 92 -5 134 -12c16 45 26 95 26 148h-160v-136zM644 325c-1 -56 -11 -108 -26 -156c19 -3 50 -9 67 -16c37 50 58 107 63 172h-104zM388 16v124c-41 0 -79 -4 -116 -9c24 -49 60 -100 116 -115z
M436 16c56 15 92 66 116 115c-37 5 -75 9 -116 9v-124zM273 41c-17 23 -39 54 -50 82c-17 -3 -34 -7 -50 -11c31 -29 67 -56 100 -71zM551 41c35 15 71 42 100 71c-16 4 -33 8 -50 11c-11 -28 -31 -59 -50 -82z" />
    <glyph glyph-name="starblack" unicode="&#x2605;" horiz-adv-x="810" 
d="M405 715l91 -278h293l-237 -173l90 -279l-237 173l-237 -173l90 279l-237 173h293z" />
    <glyph glyph-name="heartblack" unicode="&#x2665;" horiz-adv-x="820" 
d="M757 498c0 -154 -93 -299 -347 -531c-253 233 -347 377 -347 531c0 139 79 233 193 233c69 0 120 -30 154 -90c34 60 85 90 154 90c115 0 193 -94 193 -233z" />
    <glyph glyph-name="flagblack" unicode="&#x2691;" horiz-adv-x="697" 
d="M296 270c-52 0 -97 10 -153 35v-305h-63v719c81 -41 146 -64 207 -64c113 0 174 70 279 70c23 0 47 -4 71 -13v-389c-23 11 -46 17 -68 17c-97 0 -133 -70 -273 -70z" />
    <glyph glyph-name="squareblack" unicode="&#x25a0;" horiz-adv-x="820" 
d="M60 700h700v-700h-700v700z" />
    <glyph glyph-name="circleblack" unicode="&#x25cf;" horiz-adv-x="854" 
d="M814 350c0 -211 -172 -383 -387 -383s-387 172 -387 383c0 212 172 383 387 383s387 -171 387 -383z" />
    <glyph glyph-name="misc_diamondblack" unicode="&#x2666;" horiz-adv-x="840" 
d="M420 -50l-400 401l400 400l400 -401z" />
    <glyph glyph-name="triangleleftblack" unicode="&#x25c0;" horiz-adv-x="800" 
d="M31 349l689 398v-795z" />
    <glyph glyph-name="trianglerightblack" unicode="&#x25b6;" horiz-adv-x="800" 
d="M769 350l-689 -398v795z" />
    <glyph glyph-name="triangleupblack" unicode="&#x25b2;" horiz-adv-x="815" 
d="M407 689l398 -689h-795z" />
    <glyph glyph-name="triangledownblack" unicode="&#x25bc;" horiz-adv-x="815" 
d="M408 11l-398 689h795z" />
    <glyph glyph-name="starwhite" unicode="&#x2606;" horiz-adv-x="810" 
d="M405 158l-237 -172l90 279l-237 172h293l91 279l91 -279h293l-237 -172l90 -279zM405 218l143 -103l-54 168l143 104h-177l-55 169l-55 -169h-177l144 -104l-55 -168z" />
    <glyph glyph-name="heartwhite" unicode="&#x2661;" horiz-adv-x="820" 
d="M757 498c0 -155 -94 -298 -347 -531c-252 232 -347 376 -347 531c0 140 79 233 196 233c64 0 118 -29 151 -80c33 51 87 80 151 80c118 0 196 -93 196 -233zM688 497c0 103 -51 168 -131 168c-57 0 -104 -35 -139 -106h-16c-35 71 -82 106 -139 106
c-80 0 -131 -65 -131 -168c0 -128 75 -243 278 -440c205 197 278 313 278 440z" />
    <glyph glyph-name="flagwhite" unicode="&#x2690;" horiz-adv-x="697" 
d="M80 0v719c81 -41 146 -64 207 -64c113 0 174 70 279 70c23 0 47 -4 71 -13v-389c-23 11 -46 17 -68 17c-99 0 -133 -70 -273 -70c-52 0 -97 10 -153 35v-305h-63zM292 593c-52 0 -98 12 -149 33v-256c52 -25 103 -38 153 -38c122 0 169 70 268 70h10v261h-9
c-100 0 -143 -70 -273 -70z" />
    <glyph glyph-name="squarewhite" unicode="&#x25a1;" horiz-adv-x="820" 
d="M60 0v700h700v-700h-700zM129 69h562v562h-562v-562z" />
    <glyph glyph-name="circlewhite" unicode="&#x25cb;" horiz-adv-x="854" 
d="M427 -33c-215 0 -387 172 -387 383c0 212 172 383 387 383s387 -171 387 -383c0 -211 -172 -383 -387 -383zM427 32c175 0 318 143 318 318s-143 318 -318 318s-318 -143 -318 -318s143 -318 318 -318z" />
    <glyph glyph-name="misc_diamondwhite" unicode="&#x2662;" horiz-adv-x="840" 
d="M420 751l400 -401l-400 -400l-400 401zM420 654l-303 -303l303 -303l303 302z" />
    <glyph glyph-name="triangleleftwhite" unicode="&#x25c1;" horiz-adv-x="800" 
d="M31 349l689 398v-795zM168 349l483 -278v557z" />
    <glyph glyph-name="trianglerightwhite" unicode="&#x25b7;" horiz-adv-x="800" 
d="M769 350l-689 -398v795zM632 350l-483 278v-557z" />
    <glyph glyph-name="triangleupwhite" unicode="&#x25b3;" horiz-adv-x="815" 
d="M407 689l398 -689h-795zM407 552l-278 -483h557z" />
    <glyph glyph-name="triangledownwhite" unicode="&#x25bd;" horiz-adv-x="815" 
d="M408 11l-398 689h795zM408 148l278 483h-557z" />
    <glyph glyph-name="arrowleft" unicode="&#x2190;" horiz-adv-x="800" 
d="M240 580v-187h520v-86h-520v-187l-230 230z" />
    <glyph glyph-name="arrowright" unicode="&#x2192;" horiz-adv-x="800" 
d="M40 307v86h520v187l230 -230l-230 -230v187h-520z" />
    <glyph glyph-name="arrowup" unicode="&#x2191;" horiz-adv-x="600" 
d="M343 0h-86v520h-187l230 230l230 -230h-187v-520z" />
    <glyph glyph-name="arrowdown" unicode="&#x2193;" horiz-adv-x="600" 
d="M70 180h187v520h86v-520h187l-230 -230z" />
    <glyph glyph-name="arrowNW" unicode="&#x2196;" horiz-adv-x="800" 
d="M681 200l-61 -61l-368 368l-132 -132v325h325l-132 -132z" />
    <glyph glyph-name="arrowNE" unicode="&#x2197;" horiz-adv-x="800" 
d="M180 139l-61 61l368 368l-132 132h325v-325l-132 132z" />
    <glyph glyph-name="arrowSW" unicode="&#x2199;" horiz-adv-x="800" 
d="M445 1h-325v325l132 -132l368 368l61 -61l-368 -368z" />
    <glyph glyph-name="arrowSE" unicode="&#x2198;" horiz-adv-x="800" 
d="M355 0l132 132l-368 368l61 61l368 -368l132 132v-325h-325z" />
    <glyph glyph-name="arrowleftdowntip" unicode="&#x21b2;" horiz-adv-x="900" 
d="M290 20l-230 230l230 230v-187h434v407h86v-493h-520v-187z" />
    <glyph glyph-name="arrowrightdowntip" unicode="&#x21b3;" horiz-adv-x="900" 
d="M90 207v493h86v-407h434v187l230 -230l-230 -230v187h-520z" />
    <glyph glyph-name="arrowuprighttip" unicode="&#x21b1;" horiz-adv-x="900" 
d="M90 493h520v187l230 -230l-230 -230v187h-434v-407h-86v493z" />
    <glyph glyph-name="arrowleftuptip" unicode="&#x21b0;" horiz-adv-x="900" 
d="M290 680v-187h520v-493h-86v407h-434v-187l-230 230z" />
    <glyph glyph-name="arrowlefthook" unicode="&#x21a9;" horiz-adv-x="800" 
d="M250 20l-230 230l230 230v-187h281c75 0 131 52 131 124c0 71 -54 120 -131 120v86c126 0 219 -88 219 -206c0 -119 -93 -210 -217 -210h-283v-187z" />
    <glyph glyph-name="arrowrighthook" unicode="&#x21aa;" horiz-adv-x="800" 
d="M550 20v187h-283c-123 0 -217 91 -217 210c0 118 93 206 219 206v-86c-77 0 -131 -49 -131 -120c0 -72 56 -124 131 -124h281v187l230 -230z" />
    <glyph glyph-name="arrowleft.alt" horiz-adv-x="900" 
d="M850 303h-625v-5l237 -236l-67 -67l-353 353v4l353 354l67 -67l-237 -235v-6h625v-95z" />
    <glyph glyph-name="arrowright.alt" horiz-adv-x="900" 
d="M47 303v95h625v6l-237 235l67 67l353 -354v-4l-353 -353l-67 67l237 236v5h-625z" />
    <glyph glyph-name="arrowup.alt" horiz-adv-x="900" 
d="M401 -53v625h-5l-236 -237l-67 67l353 353h4l354 -353l-67 -67l-235 237h-6v-625h-95z" />
    <glyph glyph-name="arrowdown.alt" horiz-adv-x="900" 
d="M401 752h95v-625h6l235 237l67 -67l-354 -353h-4l-353 353l67 67l236 -237h5v625z" />
    <glyph glyph-name="arrowNW.alt" horiz-adv-x="900" 
d="M753 160l-68 -67l-441 442l-5 -4l3 -334h-95v500l3 2h499v-95l-335 2l-4 -4z" />
    <glyph glyph-name="arrowNE.alt" horiz-adv-x="900" 
d="M143 160l443 442l-4 4l-335 -2v95h499l3 -2v-500h-95l3 334l-5 4l-441 -442z" />
    <glyph glyph-name="arrowSW.alt" horiz-adv-x="900" 
d="M750 540l-443 -442l4 -4l335 2v-95h-499l-3 2v500h95l-3 -334l5 -4l441 442z" />
    <glyph glyph-name="arrowSE.alt" horiz-adv-x="900" 
d="M146 540l68 67l441 -442l5 4l-3 334h95v-500l-3 -2h-499v95l335 -2l4 4z" />
    <glyph glyph-name="arrowleftdowntip.alt" horiz-adv-x="900" 
d="M313 4l-267 267v5l267 267l59 -59l-163 -162v-5h551v383h90v-471h-641v-5l163 -161z" />
    <glyph glyph-name="arrowrightdowntip.alt" horiz-adv-x="900" 
d="M583 4l-59 59l163 161v5h-641v471h90v-383h551v5l-163 162l59 59l267 -267v-5z" />
    <glyph glyph-name="arrowuprighttip.alt" horiz-adv-x="900" 
d="M583 696l267 -267v-5l-267 -267l-59 59l163 162v5h-551v-383h-90v471h641v5l-163 161z" />
    <glyph glyph-name="arrowleftuptip.alt" horiz-adv-x="900" 
d="M313 696l59 -59l-163 -161v-5h641v-471h-90v383h-551v-5l163 -162l-59 -59l-267 267v5z" />
    <glyph glyph-name="arrowlefthook.alt" horiz-adv-x="800" 
d="M754 417c0 -119 -93 -210 -217 -210h-349v-5l119 -116l-59 -58l-220 220v4l220 221l59 -59l-119 -116v-5h347c75 0 131 53 131 124s-54 120 -131 120v86c126 0 219 -88 219 -206z" />
    <glyph glyph-name="arrowrighthook.alt" horiz-adv-x="800" 
d="M46 417c0 118 93 206 219 206v-86c-77 0 -131 -49 -131 -120s56 -124 131 -124h347v5l-119 116l59 59l220 -221v-4l-220 -220l-59 58l119 116v5h-349c-123 0 -217 91 -217 210z" />
    <glyph glyph-name="dot" unicode="&#x27d1;" horiz-adv-x="500" 
d="M0 11c7 0 11 -4 11 -11s-4 -11 -11 -11s-11 4 -11 11s4 11 11 11z" />
    <glyph glyph-name="NULL" horiz-adv-x="0" 
 />
    </font>
</defs>
</svg>
